G04*
G04 #@! TF.GenerationSoftware,Altium Limited,Altium Designer,23.1.1 (15)*
G04*
G04 Layer_Color=32896*
%FSLAX25Y25*%
%MOIN*%
G70*
G04*
G04 #@! TF.SameCoordinates,5E512CB6-7A9D-4867-B672-3E4038189C0E*
G04*
G04*
G04 #@! TF.FilePolarity,Positive*
G04*
G01*
G75*
%ADD14C,0.01000*%
%ADD15C,0.00100*%
%ADD21C,0.00709*%
%ADD22R,3.74016X0.11811*%
%ADD125C,0.00472*%
G36*
X276747Y-54788D02*
X277121Y-54803D01*
X277839Y-54893D01*
X278184Y-54953D01*
X278498Y-55028D01*
X278813Y-55103D01*
X279082Y-55163D01*
X279337Y-55237D01*
X279576Y-55312D01*
X279771Y-55387D01*
X279950Y-55447D01*
X280085Y-55492D01*
X280175Y-55537D01*
X280250Y-55552D01*
X280265Y-55567D01*
X280923Y-55881D01*
X281238Y-56061D01*
X281537Y-56240D01*
X281821Y-56420D01*
X282091Y-56600D01*
X282330Y-56779D01*
X282555Y-56944D01*
X282765Y-57109D01*
X282944Y-57258D01*
X283109Y-57393D01*
X283244Y-57513D01*
X283348Y-57603D01*
X283423Y-57678D01*
X283468Y-57722D01*
X283483Y-57737D01*
X283977Y-58261D01*
X284187Y-58531D01*
X284396Y-58815D01*
X284591Y-59085D01*
X284771Y-59339D01*
X284935Y-59594D01*
X285070Y-59848D01*
X285205Y-60073D01*
X285325Y-60282D01*
X285414Y-60462D01*
X285489Y-60612D01*
X285564Y-60746D01*
X285609Y-60851D01*
X285624Y-60911D01*
X285639Y-60926D01*
X285774Y-61270D01*
X285893Y-61615D01*
X285998Y-61959D01*
X286088Y-62303D01*
X286223Y-62947D01*
X286283Y-63261D01*
X286313Y-63546D01*
X286357Y-63815D01*
X286372Y-64070D01*
X286387Y-64279D01*
X286402Y-64459D01*
X286417Y-64609D01*
Y-64728D01*
Y-64788D01*
Y-64818D01*
X286402Y-65192D01*
X286387Y-65567D01*
X286298Y-66285D01*
X286238Y-66629D01*
X286178Y-66944D01*
X286103Y-67258D01*
X286028Y-67528D01*
X285953Y-67782D01*
X285878Y-68022D01*
X285819Y-68216D01*
X285759Y-68396D01*
X285714Y-68531D01*
X285669Y-68621D01*
X285654Y-68695D01*
X285639Y-68710D01*
X285325Y-69369D01*
X285145Y-69683D01*
X284980Y-69983D01*
X284801Y-70267D01*
X284621Y-70537D01*
X284441Y-70776D01*
X284262Y-71001D01*
X284112Y-71210D01*
X283962Y-71390D01*
X283827Y-71555D01*
X283708Y-71689D01*
X283618Y-71794D01*
X283543Y-71869D01*
X283498Y-71914D01*
X283483Y-71929D01*
X282944Y-72423D01*
X282675Y-72632D01*
X282390Y-72842D01*
X282121Y-73037D01*
X281852Y-73216D01*
X281597Y-73381D01*
X281358Y-73516D01*
X281133Y-73650D01*
X280923Y-73770D01*
X280744Y-73860D01*
X280579Y-73935D01*
X280459Y-74010D01*
X280354Y-74055D01*
X280295Y-74070D01*
X280280Y-74085D01*
X279935Y-74219D01*
X279591Y-74339D01*
X279247Y-74444D01*
X278902Y-74519D01*
X278244Y-74668D01*
X277929Y-74713D01*
X277645Y-74758D01*
X277375Y-74788D01*
X277121Y-74803D01*
X276911Y-74818D01*
X276732Y-74833D01*
X276582Y-74848D01*
X276372D01*
X275983Y-74833D01*
X275609Y-74818D01*
X274905Y-74728D01*
X274561Y-74668D01*
X274232Y-74608D01*
X273932Y-74534D01*
X273663Y-74459D01*
X273393Y-74399D01*
X273169Y-74324D01*
X272974Y-74264D01*
X272795Y-74204D01*
X272660Y-74159D01*
X272570Y-74115D01*
X272495Y-74100D01*
X272480Y-74085D01*
X271807Y-73770D01*
X271492Y-73591D01*
X271193Y-73426D01*
X270908Y-73246D01*
X270654Y-73067D01*
X270399Y-72887D01*
X270175Y-72707D01*
X269980Y-72558D01*
X269801Y-72408D01*
X269651Y-72273D01*
X269516Y-72154D01*
X269411Y-72064D01*
X269337Y-71989D01*
X269292Y-71944D01*
X269277Y-71929D01*
X268798Y-71390D01*
X268363Y-70836D01*
X268169Y-70567D01*
X267989Y-70297D01*
X267840Y-70043D01*
X267690Y-69803D01*
X267555Y-69579D01*
X267450Y-69369D01*
X267345Y-69189D01*
X267271Y-69025D01*
X267196Y-68905D01*
X267151Y-68800D01*
X267136Y-68740D01*
X267121Y-68725D01*
X266986Y-68381D01*
X266851Y-68037D01*
X266747Y-67692D01*
X266657Y-67348D01*
X266522Y-66689D01*
X266462Y-66375D01*
X266432Y-66091D01*
X266388Y-65821D01*
X266372Y-65567D01*
X266357Y-65357D01*
X266342Y-65177D01*
X266328Y-65028D01*
Y-64908D01*
Y-64848D01*
Y-64818D01*
X266342Y-64429D01*
X266357Y-64055D01*
X266402Y-63680D01*
X266447Y-63336D01*
X266507Y-62992D01*
X266582Y-62677D01*
X266657Y-62363D01*
X266717Y-62094D01*
X266792Y-61839D01*
X266866Y-61615D01*
X266941Y-61405D01*
X267001Y-61240D01*
X267046Y-61106D01*
X267091Y-61001D01*
X267106Y-60941D01*
X267121Y-60926D01*
X267435Y-60267D01*
X267615Y-59953D01*
X267795Y-59654D01*
X267974Y-59384D01*
X268154Y-59115D01*
X268334Y-58875D01*
X268498Y-58650D01*
X268663Y-58441D01*
X268798Y-58261D01*
X268932Y-58112D01*
X269052Y-57977D01*
X269142Y-57872D01*
X269217Y-57797D01*
X269262Y-57752D01*
X269277Y-57737D01*
X269801Y-57243D01*
X270339Y-56809D01*
X270609Y-56630D01*
X270879Y-56450D01*
X271133Y-56285D01*
X271373Y-56136D01*
X271597Y-56001D01*
X271807Y-55896D01*
X272001Y-55791D01*
X272151Y-55716D01*
X272286Y-55642D01*
X272390Y-55597D01*
X272450Y-55582D01*
X272465Y-55567D01*
X272810Y-55432D01*
X273154Y-55297D01*
X273498Y-55192D01*
X273843Y-55103D01*
X274501Y-54968D01*
X274816Y-54908D01*
X275100Y-54878D01*
X275370Y-54833D01*
X275624Y-54818D01*
X275834Y-54803D01*
X276013Y-54788D01*
X276163Y-54773D01*
X276372D01*
X276747Y-54788D01*
D02*
G37*
G36*
X260827Y-53395D02*
X256118Y-58489D01*
X255643Y-64493D01*
X260673Y-69625D01*
X260390Y-69882D01*
X255605Y-64981D01*
X255502Y-66110D01*
X255489Y-66277D01*
X255477Y-66431D01*
X255464Y-66572D01*
Y-66687D01*
X255451Y-66790D01*
Y-66867D01*
Y-66918D01*
Y-66931D01*
Y-67059D01*
X255438Y-67149D01*
Y-67226D01*
X255425Y-67277D01*
Y-67316D01*
X255413Y-67342D01*
Y-67354D01*
X255400Y-67444D01*
X255374Y-67508D01*
X255348Y-67547D01*
X255335Y-67560D01*
X255284Y-67585D01*
X255246Y-67598D01*
X255220Y-67611D01*
Y-68240D01*
X254399D01*
Y-67611D01*
X251025D01*
X250948Y-67726D01*
X250871Y-67829D01*
X250781Y-67919D01*
X250678Y-67983D01*
X250486Y-68111D01*
X250293Y-68188D01*
X250114Y-68227D01*
X249973Y-68252D01*
X249921Y-68265D01*
X249844D01*
X249639Y-68252D01*
X249459Y-68201D01*
X249305Y-68137D01*
X249164Y-68073D01*
X249049Y-67996D01*
X248959Y-67945D01*
X248908Y-67893D01*
X248895Y-67880D01*
X248754Y-67726D01*
X248651Y-67560D01*
X248587Y-67406D01*
X248536Y-67252D01*
X248510Y-67111D01*
X248484Y-67008D01*
Y-66931D01*
Y-66905D01*
Y-66738D01*
X245533Y-69946D01*
X245200Y-69677D01*
X249549Y-64981D01*
X248959Y-58784D01*
X247830D01*
Y-57116D01*
X247881D01*
X244263Y-53434D01*
Y-52856D01*
X248471Y-57116D01*
X248818D01*
X248754Y-56321D01*
X248651Y-56385D01*
X248549Y-56410D01*
X248471Y-56423D01*
X248446D01*
X248343Y-56410D01*
X248253Y-56398D01*
X248176Y-56359D01*
X248112Y-56321D01*
X248061Y-56295D01*
X248010Y-56256D01*
X247997Y-56244D01*
X247984Y-56231D01*
X247920Y-56154D01*
X247868Y-56077D01*
X247843Y-56000D01*
X247817Y-55936D01*
X247804Y-55871D01*
X247792Y-55820D01*
Y-55795D01*
Y-55782D01*
X247804Y-55692D01*
X247817Y-55602D01*
X247894Y-55461D01*
X247933Y-55410D01*
X247958Y-55371D01*
X247984Y-55358D01*
X247997Y-55345D01*
X248074Y-55281D01*
X248151Y-55230D01*
X248228Y-55204D01*
X248292Y-55179D01*
X248356Y-55166D01*
X248407Y-55153D01*
X248446D01*
X248561Y-55166D01*
X248664Y-55204D01*
X248754Y-55256D01*
X248818Y-55307D01*
X248882Y-55358D01*
X248920Y-55397D01*
X248946Y-55423D01*
X248959Y-55435D01*
X249049Y-55333D01*
X249151Y-55243D01*
X249382Y-55076D01*
X249485Y-55012D01*
X249575Y-54961D01*
X249626Y-54922D01*
X249652Y-54909D01*
X249844Y-54820D01*
X250075Y-54730D01*
X250319Y-54665D01*
X250563Y-54614D01*
X250781Y-54563D01*
X250871Y-54550D01*
X250948Y-54537D01*
X251025Y-54524D01*
X251076Y-54511D01*
X251115D01*
Y-54306D01*
X253398D01*
Y-54447D01*
X253642Y-54473D01*
X253757Y-54486D01*
X253860Y-54499D01*
X253950Y-54511D01*
X254014D01*
X254052Y-54524D01*
X254065D01*
X254283Y-54550D01*
X254386Y-54576D01*
X254463Y-54589D01*
X254540Y-54601D01*
X254591D01*
X254630Y-54614D01*
X254643D01*
Y-54537D01*
X255477D01*
Y-54871D01*
X255682Y-54986D01*
X255862Y-55102D01*
X255990Y-55204D01*
X256093Y-55294D01*
X256170Y-55371D01*
X256221Y-55435D01*
X256246Y-55474D01*
X256259Y-55487D01*
X256311Y-55589D01*
X256362Y-55666D01*
X256388Y-55730D01*
X256413Y-55769D01*
X256426Y-55795D01*
X256439Y-55820D01*
Y-55833D01*
X256939D01*
Y-56346D01*
X256298D01*
X256170Y-57783D01*
X260827Y-52728D01*
Y-53395D01*
D02*
G37*
G36*
X260249Y-75719D02*
X245739D01*
Y-73564D01*
X260249D01*
Y-75719D01*
D02*
G37*
%LPC*%
G36*
X282780Y-57812D02*
X282170Y-58422D01*
X282495Y-58725D01*
X282510Y-58740D01*
X282540Y-58785D01*
X282600Y-58845D01*
X282690Y-58935D01*
X282759Y-59016D01*
X283363Y-58411D01*
X282780Y-57812D01*
D02*
G37*
G36*
X276552Y-56195D02*
X276043D01*
X275714Y-56225D01*
X275100Y-56300D01*
X274801Y-56360D01*
X274516Y-56420D01*
X274262Y-56480D01*
X274022Y-56540D01*
X273798Y-56600D01*
X273603Y-56660D01*
X273423Y-56719D01*
X273274Y-56779D01*
X273169Y-56824D01*
X273079Y-56854D01*
X273019Y-56869D01*
X273004Y-56884D01*
X272435Y-57153D01*
X271911Y-57453D01*
X271672Y-57603D01*
X271432Y-57767D01*
X271238Y-57917D01*
X271043Y-58052D01*
X270864Y-58187D01*
X270714Y-58321D01*
X270579Y-58441D01*
X270474Y-58531D01*
X270385Y-58606D01*
X270310Y-58680D01*
X270280Y-58710D01*
X270265Y-58725D01*
X269861Y-59175D01*
X269486Y-59639D01*
X269187Y-60103D01*
X268917Y-60537D01*
X268813Y-60731D01*
X268708Y-60911D01*
X268633Y-61061D01*
X268558Y-61195D01*
X268513Y-61315D01*
X268468Y-61390D01*
X268438Y-61450D01*
Y-61465D01*
X268319Y-61764D01*
X268214Y-62064D01*
X268034Y-62647D01*
X267914Y-63216D01*
X267869Y-63486D01*
X267840Y-63725D01*
X267810Y-63965D01*
X267780Y-64174D01*
X267765Y-64354D01*
Y-64519D01*
X267750Y-64639D01*
Y-64743D01*
Y-64803D01*
Y-64818D01*
Y-65148D01*
X267780Y-65477D01*
X267854Y-66091D01*
X267914Y-66390D01*
X267974Y-66659D01*
X268034Y-66929D01*
X268094Y-67168D01*
X268154Y-67393D01*
X268214Y-67588D01*
X268274Y-67767D01*
X268334Y-67917D01*
X268378Y-68022D01*
X268408Y-68112D01*
X268423Y-68171D01*
X268438Y-68186D01*
X268708Y-68755D01*
X269007Y-69279D01*
X269157Y-69534D01*
X269307Y-69758D01*
X269456Y-69968D01*
X269606Y-70162D01*
X269741Y-70327D01*
X269861Y-70492D01*
X269973Y-70619D01*
X269367Y-71225D01*
X269965Y-71824D01*
X270572Y-71217D01*
X270714Y-71345D01*
X271178Y-71719D01*
X271642Y-72019D01*
X272061Y-72288D01*
X272256Y-72393D01*
X272435Y-72498D01*
X272600Y-72573D01*
X272735Y-72648D01*
X272854Y-72692D01*
X272929Y-72737D01*
X272989Y-72752D01*
X273004Y-72767D01*
X273304Y-72887D01*
X273603Y-72992D01*
X274202Y-73156D01*
X274771Y-73276D01*
X275040Y-73321D01*
X275280Y-73351D01*
X275519Y-73381D01*
X275729Y-73411D01*
X275908Y-73426D01*
X276073D01*
X276193Y-73441D01*
X276372D01*
X276702Y-73426D01*
X277031Y-73411D01*
X277645Y-73336D01*
X277944Y-73291D01*
X278214Y-73231D01*
X278483Y-73171D01*
X278723Y-73097D01*
X278947Y-73037D01*
X279142Y-72977D01*
X279322Y-72917D01*
X279471Y-72872D01*
X279576Y-72827D01*
X279666Y-72797D01*
X279726Y-72767D01*
X279741D01*
X280310Y-72498D01*
X280834Y-72198D01*
X281088Y-72049D01*
X281313Y-71899D01*
X281522Y-71749D01*
X281717Y-71600D01*
X281881Y-71465D01*
X282046Y-71345D01*
X282181Y-71225D01*
X282286Y-71135D01*
X282375Y-71046D01*
X282435Y-70986D01*
X282480Y-70956D01*
X282495Y-70941D01*
X282914Y-70492D01*
X283274Y-70013D01*
X283588Y-69549D01*
X283857Y-69130D01*
X283962Y-68935D01*
X284067Y-68755D01*
X284142Y-68591D01*
X284217Y-68456D01*
X284262Y-68336D01*
X284307Y-68261D01*
X284321Y-68201D01*
X284336Y-68186D01*
X284456Y-67887D01*
X284546Y-67588D01*
X284711Y-66989D01*
X284830Y-66420D01*
X284875Y-66150D01*
X284905Y-65911D01*
X284935Y-65671D01*
X284965Y-65462D01*
X284980Y-65282D01*
Y-65118D01*
X284995Y-64998D01*
Y-64893D01*
Y-64833D01*
Y-64818D01*
X284980Y-64489D01*
X284965Y-64160D01*
X284890Y-63546D01*
X284845Y-63246D01*
X284786Y-62977D01*
X284726Y-62707D01*
X284666Y-62468D01*
X284606Y-62258D01*
X284546Y-62049D01*
X284486Y-61884D01*
X284441Y-61734D01*
X284396Y-61615D01*
X284366Y-61540D01*
X284336Y-61480D01*
Y-61465D01*
X284067Y-60896D01*
X283768Y-60372D01*
X283618Y-60133D01*
X283453Y-59908D01*
X283304Y-59698D01*
X283169Y-59504D01*
X283019Y-59324D01*
X282899Y-59175D01*
X282780Y-59040D01*
X282759Y-59016D01*
X281749Y-60028D01*
X280564D01*
X278648Y-61944D01*
X278723Y-61884D01*
X278813Y-61824D01*
X278932Y-61764D01*
X279067Y-61704D01*
X279217Y-61674D01*
X279247Y-61659D01*
X279322Y-61645D01*
X279456Y-61629D01*
X279636Y-61615D01*
X280163D01*
X281749Y-60028D01*
X282705D01*
Y-69309D01*
X281118D01*
Y-65776D01*
X279681D01*
X279501Y-65761D01*
X279322D01*
X279172Y-65746D01*
X279037D01*
X278917Y-65731D01*
X278813Y-65716D01*
X278633Y-65701D01*
X278513Y-65686D01*
X278438Y-65671D01*
X278423D01*
X278244Y-65612D01*
X278094Y-65537D01*
X277944Y-65462D01*
X277839Y-65387D01*
X277735Y-65327D01*
X277675Y-65267D01*
X277630Y-65237D01*
X277615Y-65222D01*
X277465Y-65088D01*
X277330Y-64938D01*
X277226Y-64788D01*
X277130Y-64651D01*
X278387Y-63393D01*
X278393Y-63411D01*
X278423Y-63501D01*
X278453Y-63561D01*
X278468Y-63591D01*
X278483Y-63606D01*
X278573Y-63725D01*
X278663Y-63815D01*
X278753Y-63890D01*
X278828Y-63965D01*
X278902Y-64010D01*
X278962Y-64040D01*
X278992Y-64070D01*
X279007D01*
X279067Y-64100D01*
X279127Y-64115D01*
X279307Y-64160D01*
X279516Y-64189D01*
X279726Y-64204D01*
X279935D01*
X280100Y-64219D01*
X281118D01*
Y-61615D01*
X280163D01*
X278387Y-63393D01*
X278363Y-63321D01*
X278348Y-63201D01*
X278319Y-63052D01*
Y-62902D01*
Y-62887D01*
Y-62827D01*
X278333Y-62737D01*
X278348Y-62633D01*
X278378Y-62498D01*
X278408Y-62363D01*
X278468Y-62198D01*
X278543Y-62049D01*
X276795Y-63797D01*
X276762Y-63621D01*
X276732Y-63381D01*
X276717Y-63186D01*
X276702Y-63022D01*
Y-62962D01*
Y-62917D01*
Y-62887D01*
Y-62872D01*
X276717Y-62483D01*
X276762Y-62138D01*
X276836Y-61824D01*
X276911Y-61570D01*
X277001Y-61360D01*
X277031Y-61270D01*
X277061Y-61195D01*
X277091Y-61136D01*
X277121Y-61091D01*
X277136Y-61076D01*
Y-61061D01*
X277301Y-60821D01*
X277480Y-60641D01*
X277675Y-60477D01*
X277854Y-60357D01*
X278019Y-60267D01*
X278139Y-60207D01*
X278229Y-60177D01*
X278244Y-60163D01*
X278259D01*
X278348Y-60133D01*
X278453Y-60118D01*
X278588Y-60103D01*
X278738Y-60088D01*
X279037Y-60058D01*
X279366Y-60043D01*
X279666Y-60028D01*
X280564D01*
X282170Y-58422D01*
X282046Y-58306D01*
X281567Y-57947D01*
X281103Y-57633D01*
X280684Y-57363D01*
X280489Y-57258D01*
X280310Y-57153D01*
X280145Y-57079D01*
X280010Y-57004D01*
X279890Y-56959D01*
X279816Y-56914D01*
X279756Y-56884D01*
X279741D01*
X279441Y-56764D01*
X279142Y-56660D01*
X278543Y-56480D01*
X277974Y-56360D01*
X277705Y-56315D01*
X277465Y-56285D01*
X277226Y-56255D01*
X277016Y-56225D01*
X276836Y-56210D01*
X276672D01*
X276552Y-56195D01*
D02*
G37*
%LPD*%
G36*
X275639Y-64953D02*
X276795Y-63797D01*
X276807Y-63860D01*
X276867Y-64100D01*
X276956Y-64324D01*
X276971Y-64354D01*
X277001Y-64414D01*
X277061Y-64519D01*
X277121Y-64639D01*
X277130Y-64651D01*
X275639Y-66144D01*
Y-69309D01*
X274247D01*
Y-68321D01*
X274097Y-68516D01*
X273947Y-68695D01*
X273813Y-68845D01*
X273693Y-68965D01*
X273588Y-69055D01*
X273498Y-69115D01*
X273438Y-69160D01*
X273423Y-69174D01*
X273244Y-69279D01*
X273064Y-69354D01*
X272899Y-69399D01*
X272750Y-69429D01*
X272615Y-69459D01*
X272525Y-69474D01*
X272313D01*
X270572Y-71217D01*
X270265Y-70941D01*
X270250Y-70926D01*
X270220Y-70881D01*
X270160Y-70821D01*
X270070Y-70731D01*
X269980Y-70626D01*
X269973Y-70619D01*
X271445Y-69147D01*
X271507Y-69189D01*
X271792Y-69339D01*
X271941Y-69399D01*
X272091Y-69444D01*
X272271Y-69474D01*
X272313D01*
X275639Y-66144D01*
Y-64953D01*
X274130Y-66462D01*
X274112Y-66615D01*
X274067Y-66884D01*
X273992Y-67138D01*
X273887Y-67363D01*
Y-67378D01*
X273872Y-67393D01*
X273813Y-67483D01*
X273738Y-67588D01*
X273618Y-67722D01*
X273468Y-67857D01*
X273274Y-67962D01*
X273064Y-68037D01*
X272944Y-68052D01*
X272795D01*
X272735Y-68037D01*
X272645Y-68022D01*
X272587Y-68005D01*
X274130Y-66462D01*
X274142Y-66360D01*
X274172Y-66136D01*
Y-66031D01*
X274187Y-65941D01*
Y-65881D01*
Y-65821D01*
Y-65791D01*
Y-65776D01*
X274172Y-65432D01*
X274127Y-65132D01*
X274052Y-64878D01*
X273977Y-64669D01*
X273902Y-64504D01*
X273828Y-64384D01*
X273783Y-64324D01*
X273768Y-64294D01*
X273648Y-64144D01*
X273513Y-64025D01*
X273363Y-63950D01*
X273214Y-63890D01*
X273079Y-63860D01*
X272974Y-63830D01*
X272869D01*
X272675Y-63845D01*
X272495Y-63905D01*
X272345Y-63980D01*
X272226Y-64055D01*
X272121Y-64144D01*
X272061Y-64219D01*
X272016Y-64279D01*
X272001Y-64294D01*
X271926Y-64399D01*
X271866Y-64504D01*
X271777Y-64758D01*
X271702Y-65043D01*
X271657Y-65312D01*
X271627Y-65567D01*
Y-65686D01*
X271612Y-65776D01*
Y-65851D01*
Y-65926D01*
Y-65956D01*
Y-65971D01*
X271627Y-66180D01*
X271642Y-66375D01*
X271657Y-66540D01*
X271687Y-66704D01*
X271717Y-66854D01*
X271747Y-66974D01*
X271822Y-67198D01*
X271881Y-67363D01*
X271941Y-67468D01*
X271986Y-67543D01*
X272001Y-67558D01*
X272136Y-67722D01*
X272271Y-67842D01*
X272405Y-67932D01*
X272540Y-67992D01*
X272587Y-68005D01*
X271445Y-69147D01*
X271268Y-69025D01*
X271058Y-68845D01*
X270908Y-68695D01*
X270864Y-68635D01*
X270819Y-68591D01*
X270804Y-68561D01*
X270789Y-68546D01*
X270669Y-68366D01*
X270549Y-68156D01*
X270385Y-67737D01*
X270250Y-67288D01*
X270175Y-66854D01*
X270145Y-66659D01*
X270115Y-66480D01*
X270100Y-66315D01*
Y-66166D01*
X270085Y-66046D01*
Y-65956D01*
Y-65896D01*
Y-65881D01*
Y-65567D01*
X270115Y-65282D01*
X270145Y-65013D01*
X270190Y-64758D01*
X270235Y-64534D01*
X270295Y-64324D01*
X270355Y-64130D01*
X270414Y-63965D01*
X270489Y-63800D01*
X270549Y-63680D01*
X270609Y-63561D01*
X270654Y-63471D01*
X270699Y-63396D01*
X270729Y-63351D01*
X270744Y-63321D01*
X270759Y-63306D01*
X270879Y-63156D01*
X271013Y-63022D01*
X271163Y-62902D01*
X271298Y-62797D01*
X271447Y-62722D01*
X271582Y-62647D01*
X271851Y-62543D01*
X272091Y-62483D01*
X272196Y-62468D01*
X272286Y-62453D01*
X272360Y-62438D01*
X272645D01*
X272810Y-62468D01*
X272974Y-62513D01*
X273124Y-62573D01*
X273408Y-62722D01*
X273648Y-62887D01*
X273857Y-63067D01*
X274007Y-63216D01*
X274052Y-63276D01*
X274097Y-63321D01*
X274112Y-63351D01*
X274127Y-63366D01*
Y-60028D01*
X275639D01*
Y-64953D01*
D02*
G37*
%LPC*%
G36*
X252975Y-54678D02*
X251512D01*
Y-55038D01*
X252975D01*
Y-54678D01*
D02*
G37*
G36*
X253526Y-54922D02*
X253398D01*
Y-55384D01*
X251115D01*
Y-54961D01*
X250896Y-54999D01*
X250704Y-55038D01*
X250537Y-55076D01*
X250396Y-55115D01*
X250293Y-55140D01*
X250203Y-55166D01*
X250152Y-55179D01*
X250139Y-55191D01*
X249998Y-55243D01*
X249883Y-55281D01*
X249793Y-55333D01*
X249703Y-55371D01*
X249639Y-55397D01*
X249601Y-55423D01*
X249575Y-55448D01*
X249562D01*
X249485Y-55500D01*
X249434Y-55538D01*
X249344Y-55615D01*
X249305Y-55666D01*
X249293Y-55679D01*
X249241Y-55743D01*
X249216Y-55795D01*
X249190Y-55820D01*
Y-55833D01*
X254643D01*
Y-55076D01*
X254450Y-55025D01*
X254232Y-54986D01*
X254027Y-54961D01*
X253834Y-54948D01*
X253655Y-54935D01*
X253526Y-54922D01*
D02*
G37*
G36*
X255489Y-55384D02*
X255477D01*
Y-55833D01*
X255926D01*
X255913Y-55782D01*
X255874Y-55718D01*
X255849Y-55679D01*
X255836Y-55653D01*
X255797Y-55602D01*
X255746Y-55551D01*
X255618Y-55474D01*
X255567Y-55435D01*
X255515Y-55410D01*
X255489Y-55384D01*
D02*
G37*
G36*
X248253Y-57501D02*
Y-58412D01*
X248908D01*
Y-58181D01*
X248253Y-57501D01*
D02*
G37*
G36*
X255862Y-56346D02*
X249164D01*
X249216Y-57116D01*
X249447D01*
Y-58155D01*
X250601Y-59310D01*
Y-58758D01*
X253437D01*
Y-59708D01*
X250948D01*
X252731Y-61530D01*
X255695Y-58322D01*
X255862Y-56346D01*
D02*
G37*
G36*
X255643Y-59002D02*
X253013Y-61812D01*
X255220Y-64044D01*
X255643Y-59002D01*
D02*
G37*
G36*
X249447Y-58720D02*
Y-58784D01*
X249408D01*
X249896Y-64583D01*
X252474Y-61812D01*
X249447Y-58720D01*
D02*
G37*
G36*
X252757Y-62094D02*
X249947Y-65148D01*
X249985Y-65571D01*
X250178Y-65597D01*
X250358Y-65661D01*
X250512Y-65725D01*
X250640Y-65789D01*
X250742Y-65866D01*
X250819Y-65930D01*
X250871Y-65969D01*
X250884Y-65982D01*
X250999Y-66123D01*
X251089Y-66277D01*
X251140Y-66431D01*
X251191Y-66572D01*
X251217Y-66713D01*
X251230Y-66816D01*
Y-66880D01*
Y-66892D01*
Y-66905D01*
Y-66982D01*
Y-67008D01*
Y-67021D01*
X251217Y-67085D01*
Y-67111D01*
Y-67123D01*
X254963D01*
X255156Y-64583D01*
X252757Y-62094D01*
D02*
G37*
G36*
X249896Y-66161D02*
X249844D01*
X249742Y-66174D01*
X249639Y-66200D01*
X249562Y-66225D01*
X249485Y-66264D01*
X249421Y-66315D01*
X249382Y-66341D01*
X249357Y-66366D01*
X249344Y-66379D01*
X249267Y-66469D01*
X249216Y-66559D01*
X249177Y-66636D01*
X249151Y-66726D01*
X249139Y-66790D01*
X249126Y-66854D01*
Y-66892D01*
Y-66905D01*
X249139Y-67021D01*
X249164Y-67123D01*
X249190Y-67213D01*
X249229Y-67290D01*
X249280Y-67354D01*
X249305Y-67406D01*
X249331Y-67431D01*
X249344Y-67444D01*
X249421Y-67521D01*
X249511Y-67572D01*
X249588Y-67611D01*
X249665Y-67637D01*
X249742Y-67650D01*
X249793Y-67662D01*
X249844D01*
X249960Y-67650D01*
X250062Y-67624D01*
X250152Y-67598D01*
X250229Y-67547D01*
X250293Y-67508D01*
X250345Y-67483D01*
X250370Y-67457D01*
X250383Y-67444D01*
X250460Y-67354D01*
X250512Y-67265D01*
X250550Y-67175D01*
X250576Y-67085D01*
X250588Y-67021D01*
X250601Y-66957D01*
Y-66918D01*
Y-66905D01*
X250588Y-66790D01*
X250563Y-66687D01*
X250524Y-66597D01*
X250486Y-66520D01*
X250447Y-66469D01*
X250409Y-66418D01*
X250383Y-66392D01*
X250370Y-66379D01*
X250280Y-66302D01*
X250191Y-66251D01*
X250101Y-66212D01*
X250011Y-66187D01*
X249947Y-66174D01*
X249896Y-66161D01*
D02*
G37*
%LPD*%
G36*
X249985Y-66482D02*
X250088Y-66520D01*
X250165Y-66572D01*
X250178Y-66585D01*
X250191Y-66597D01*
X250242Y-66649D01*
X250280Y-66700D01*
X250319Y-66803D01*
X250345Y-66880D01*
Y-66892D01*
Y-66905D01*
X250332Y-66970D01*
X250319Y-67046D01*
X250268Y-67149D01*
X250216Y-67226D01*
X250191Y-67239D01*
Y-67252D01*
X250127Y-67303D01*
X250075Y-67342D01*
X249960Y-67380D01*
X249870Y-67406D01*
X249844D01*
X249703Y-67367D01*
X249588Y-67303D01*
X249511Y-67226D01*
X249459Y-67136D01*
X249434Y-67046D01*
X249408Y-66970D01*
Y-66918D01*
Y-66905D01*
X249434Y-66777D01*
X249472Y-66687D01*
X249511Y-66623D01*
X249536Y-66597D01*
X249588Y-66546D01*
X249639Y-66520D01*
X249742Y-66469D01*
X249819Y-66456D01*
X249908D01*
X249985Y-66482D01*
D02*
G37*
D14*
X338671Y-120235D02*
G03*
X338671Y-120235I-3828J0D01*
G01*
Y-134077D02*
G03*
X338671Y-134077I-3828J0D01*
G01*
X328829D02*
G03*
X328829Y-134077I-3828J0D01*
G01*
Y-120235D02*
G03*
X328829Y-120235I-3828J0D01*
G01*
Y-106394D02*
G03*
X328829Y-106394I-3828J0D01*
G01*
X338671D02*
G03*
X338671Y-106394I-3828J0D01*
G01*
X328829Y-92894D02*
G03*
X328829Y-92894I-3828J0D01*
G01*
X338671D02*
G03*
X338671Y-92894I-3828J0D01*
G01*
X328829Y-78894D02*
G03*
X328829Y-78894I-3828J0D01*
G01*
X338671D02*
G03*
X338671Y-78894I-3828J0D01*
G01*
X328829Y-65394D02*
G03*
X328829Y-65394I-3828J0D01*
G01*
X338671D02*
G03*
X338671Y-65394I-3828J0D01*
G01*
X328829Y-51394D02*
G03*
X328829Y-51394I-3828J0D01*
G01*
X338671D02*
G03*
X338671Y-51394I-3828J0D01*
G01*
Y-37894D02*
G03*
X338671Y-37894I-3828J0D01*
G01*
X328829D02*
G03*
X328829Y-37894I-3828J0D01*
G01*
X59242Y-41929D02*
G03*
X59242Y-41929I-3828J0D01*
G01*
X69084D02*
G03*
X69084Y-41929I-3828J0D01*
G01*
X59242Y-55709D02*
G03*
X59242Y-55709I-3828J0D01*
G01*
X69084D02*
G03*
X69084Y-55709I-3828J0D01*
G01*
X59242Y-69488D02*
G03*
X59242Y-69488I-3828J0D01*
G01*
X69084D02*
G03*
X69084Y-69488I-3828J0D01*
G01*
X59242Y-83268D02*
G03*
X59242Y-83268I-3828J0D01*
G01*
X69084D02*
G03*
X69084Y-83268I-3828J0D01*
G01*
X59242Y-97047D02*
G03*
X59242Y-97047I-3828J0D01*
G01*
X69084D02*
G03*
X69084Y-97047I-3828J0D01*
G01*
X59242Y-110827D02*
G03*
X59242Y-110827I-3828J0D01*
G01*
X69084D02*
G03*
X69084Y-110827I-3828J0D01*
G01*
Y-124327D02*
G03*
X69084Y-124327I-3828J0D01*
G01*
X59242D02*
G03*
X59242Y-124327I-3828J0D01*
G01*
X69084Y-138327D02*
G03*
X69084Y-138327I-3828J0D01*
G01*
X59242D02*
G03*
X59242Y-138327I-3828J0D01*
G01*
X69084Y-151827D02*
G03*
X69084Y-151827I-3828J0D01*
G01*
X59242D02*
G03*
X59242Y-151827I-3828J0D01*
G01*
X69084Y-165827D02*
G03*
X69084Y-165827I-3828J0D01*
G01*
X59242D02*
G03*
X59242Y-165827I-3828J0D01*
G01*
X69084Y-179327D02*
G03*
X69084Y-179327I-3828J0D01*
G01*
X59242D02*
G03*
X59242Y-179327I-3828J0D01*
G01*
X69084Y-193327D02*
G03*
X69084Y-193327I-3828J0D01*
G01*
X59242D02*
G03*
X59242Y-193327I-3828J0D01*
G01*
X294291Y-40356D02*
Y-44291D01*
X292323D01*
X291668Y-43635D01*
Y-42979D01*
X292323Y-42323D01*
X294291D01*
X292323D01*
X291668Y-41668D01*
Y-41012D01*
X292323Y-40356D01*
X294291D01*
X289700Y-41668D02*
X288388D01*
X287732Y-42323D01*
Y-44291D01*
X289700D01*
X290356Y-43635D01*
X289700Y-42979D01*
X287732D01*
X286420Y-41668D02*
Y-44291D01*
Y-42979D01*
X285764Y-42323D01*
X285108Y-41668D01*
X284452D01*
X280516Y-44291D02*
X281828D01*
X282484Y-43635D01*
Y-42323D01*
X281828Y-41668D01*
X280516D01*
X279860Y-42323D01*
Y-42979D01*
X282484D01*
X278548Y-44291D02*
Y-40356D01*
X277237Y-41668D01*
X275925Y-40356D01*
Y-44291D01*
X272645D02*
X273957D01*
X274613Y-43635D01*
Y-42323D01*
X273957Y-41668D01*
X272645D01*
X271989Y-42323D01*
Y-42979D01*
X274613D01*
X270021Y-41012D02*
Y-41668D01*
X270677D01*
X269365D01*
X270021D01*
Y-43635D01*
X269365Y-44291D01*
X266741Y-41668D02*
X265429D01*
X264773Y-42323D01*
Y-44291D01*
X266741D01*
X267397Y-43635D01*
X266741Y-42979D01*
X264773D01*
X263461Y-44291D02*
X262150D01*
X262805D01*
Y-40356D01*
X263461D01*
X256246Y-44291D02*
Y-40356D01*
X254278D01*
X253622Y-41012D01*
Y-42323D01*
X254278Y-42979D01*
X256246D01*
X252310Y-40356D02*
Y-44291D01*
X249686D01*
X245751Y-41012D02*
X246407Y-40356D01*
X247718D01*
X248374Y-41012D01*
Y-43635D01*
X247718Y-44291D01*
X246407D01*
X245751Y-43635D01*
X240503Y-42323D02*
X237879D01*
X232631Y-44291D02*
Y-40356D01*
X231319Y-41668D01*
X230008Y-40356D01*
Y-44291D01*
X294291Y-47245D02*
Y-51181D01*
Y-49213D01*
X291668D01*
Y-47245D01*
Y-51181D01*
X290356Y-47245D02*
Y-51181D01*
X289044Y-49869D01*
X287732Y-51181D01*
Y-47245D01*
X282484Y-47901D02*
X281828Y-47245D01*
X280516D01*
X279860Y-47901D01*
Y-50525D01*
X280516Y-51181D01*
X281828D01*
X282484Y-50525D01*
Y-47901D01*
X278548Y-51181D02*
Y-50525D01*
X277892D01*
Y-51181D01*
X278548D01*
X275269D02*
X273957D01*
X274613D01*
Y-47245D01*
X275269Y-47901D01*
X271989Y-51181D02*
Y-50525D01*
X271333D01*
Y-51181D01*
X271989D01*
X268709Y-47901D02*
X268053Y-47245D01*
X266741D01*
X266085Y-47901D01*
Y-50525D01*
X266741Y-51181D01*
X268053D01*
X268709Y-50525D01*
Y-47901D01*
D15*
X275051Y-33165D02*
X282651D01*
X274951Y-33265D02*
X282651D01*
X274951Y-33365D02*
X282551D01*
X274851Y-33465D02*
X282551D01*
X274851Y-33565D02*
X282451D01*
X274751Y-33665D02*
X282451D01*
X274651Y-33765D02*
X282351D01*
X274651Y-33865D02*
X282351D01*
X274551Y-33965D02*
X282251D01*
X274551Y-34065D02*
X282251D01*
X274451Y-34165D02*
X282151D01*
X274451Y-34265D02*
X282151D01*
X274351Y-34365D02*
X282051D01*
X274351Y-34465D02*
X282051D01*
X274251Y-34565D02*
X281951D01*
X274251Y-34665D02*
X281951D01*
X273351Y-27065D02*
X294551D01*
X282951Y-19965D02*
X283351D01*
X282851Y-19665D02*
X283451D01*
X282951Y-19765D02*
X283351D01*
X282951Y-19865D02*
X283351D01*
X282951Y-20365D02*
X283351D01*
X282951Y-20265D02*
X283351D01*
X282951Y-20165D02*
X283351D01*
X282951Y-20065D02*
X283351D01*
X282651Y-19465D02*
X283551D01*
X282751Y-19565D02*
X283451D01*
X275951Y-31465D02*
X284351D01*
X274051Y-19465D02*
X282151D01*
X273951Y-19565D02*
X282051D01*
X273851Y-19665D02*
X282051D01*
X273751Y-19765D02*
X281951D01*
X273651Y-19865D02*
X281951D01*
X273651Y-19965D02*
X281951D01*
X273551Y-20065D02*
X281951D01*
X273451Y-20265D02*
X281951D01*
X273451Y-20165D02*
X281951D01*
X273351Y-20365D02*
X281951D01*
X273351Y-26965D02*
X281851D01*
X273351Y-26865D02*
X281551D01*
X273251Y-26765D02*
X281351D01*
X273251Y-26665D02*
X281251D01*
X273251Y-26565D02*
X281151D01*
X273251Y-26465D02*
X281051D01*
X273251Y-26365D02*
X280951D01*
X273151Y-26265D02*
X280851D01*
X273151Y-26165D02*
X280851D01*
X273151Y-25965D02*
X280751D01*
X273351Y-20465D02*
X280551D01*
X273251Y-20765D02*
X280551D01*
X273251Y-20665D02*
X280551D01*
X273251Y-20565D02*
X280551D01*
X273251Y-20865D02*
X280551D01*
X273251Y-20965D02*
X280551D01*
X273151Y-22765D02*
X280551D01*
X273151Y-22065D02*
X280551D01*
X273151Y-21765D02*
X280551D01*
X273151Y-21865D02*
X280551D01*
X273151Y-21965D02*
X280551D01*
X273151Y-21665D02*
X280551D01*
X273151Y-22365D02*
X280551D01*
X273151Y-21565D02*
X280551D01*
X273151Y-21365D02*
X280551D01*
X273151Y-21265D02*
X280551D01*
X273151Y-22165D02*
X280551D01*
X273151Y-21465D02*
X280551D01*
X273151Y-22265D02*
X280551D01*
X273151Y-21165D02*
X280551D01*
X273151Y-21065D02*
X280551D01*
X273151Y-22465D02*
X280551D01*
X273151Y-22565D02*
X280551D01*
X273151Y-22665D02*
X280551D01*
X273151Y-22865D02*
X280551D01*
X273151Y-22965D02*
X280551D01*
X273151Y-26065D02*
X280751D01*
X273151Y-25565D02*
X280651D01*
X273151Y-25765D02*
X280651D01*
X273151Y-25865D02*
X280651D01*
X273151Y-25665D02*
X280651D01*
X273151Y-23065D02*
X280551D01*
X273151Y-23165D02*
X280551D01*
X273151Y-23265D02*
X280551D01*
X273151Y-23365D02*
X280551D01*
X273151Y-23465D02*
X280551D01*
X273151Y-23565D02*
X280551D01*
X273151Y-23665D02*
X280551D01*
X273151Y-23765D02*
X280551D01*
X273151Y-23865D02*
X280551D01*
X273151Y-23965D02*
X280551D01*
X273151Y-24065D02*
X280551D01*
X273151Y-24165D02*
X280551D01*
X273151Y-24265D02*
X280551D01*
X273151Y-24365D02*
X280551D01*
X273151Y-24465D02*
X280551D01*
X273151Y-24565D02*
X280551D01*
X273151Y-24665D02*
X280551D01*
X273151Y-24765D02*
X280551D01*
X273151Y-24865D02*
X280551D01*
X273151Y-24965D02*
X280551D01*
X273151Y-25065D02*
X280551D01*
X273151Y-25165D02*
X280551D01*
X273151Y-25265D02*
X280551D01*
X273151Y-25365D02*
X280551D01*
X273151Y-25465D02*
X280551D01*
X274151Y-34765D02*
X281951D01*
X274051Y-34865D02*
X281851D01*
X274051Y-34965D02*
X281851D01*
X273951Y-35065D02*
X281751D01*
X273951Y-35165D02*
X281751D01*
X273951Y-35265D02*
X281651D01*
X273851Y-35365D02*
X281651D01*
X273851Y-35465D02*
X281551D01*
X273851Y-35565D02*
X281551D01*
X273851Y-35665D02*
X281451D01*
X273851Y-35765D02*
X281451D01*
X273851Y-35865D02*
X281351D01*
X273851Y-35965D02*
X281351D01*
X273851Y-36165D02*
X281251D01*
X273851Y-36065D02*
X281251D01*
X273851Y-36365D02*
X281151D01*
X275351Y-37965D02*
X279551D01*
X273851Y-36265D02*
X281151D01*
X274051Y-36865D02*
X280951D01*
X273851Y-36465D02*
X281051D01*
X273851Y-36565D02*
X281051D01*
X273951Y-36665D02*
X280951D01*
X273951Y-36765D02*
X280951D01*
X274051Y-36965D02*
X280851D01*
X274151Y-37065D02*
X280751D01*
X274151Y-37165D02*
X280751D01*
X274251Y-37265D02*
X280651D01*
X274351Y-37365D02*
X280551D01*
X274451Y-37465D02*
X280451D01*
X274551Y-37565D02*
X280351D01*
X274651Y-37665D02*
X280251D01*
X274851Y-37765D02*
X280051D01*
X275051Y-37865D02*
X279851D01*
X275851Y-31565D02*
X284051D01*
X275851Y-31665D02*
X283851D01*
X275751Y-31765D02*
X283651D01*
X275751Y-31865D02*
X283551D01*
X275651Y-31965D02*
X283351D01*
X275651Y-32065D02*
X283251D01*
X275551Y-32165D02*
X283251D01*
X275551Y-32265D02*
X283151D01*
X275451Y-32365D02*
X283051D01*
X275351Y-32465D02*
X283051D01*
X275351Y-32565D02*
X282951D01*
X275251Y-32665D02*
X282951D01*
X275251Y-32765D02*
X282851D01*
X275151Y-32865D02*
X282851D01*
X275151Y-32965D02*
X282751D01*
X275051Y-33065D02*
X282751D01*
X288151Y-22465D02*
X294551D01*
X288151Y-22565D02*
X294551D01*
X288051Y-22665D02*
X294551D01*
X288151Y-23565D02*
X294551D01*
X288151Y-23665D02*
X294551D01*
X288151Y-23765D02*
X294551D01*
X288151Y-23865D02*
X294551D01*
X288151Y-23965D02*
X294551D01*
X288051Y-24065D02*
X294551D01*
X288151Y-24965D02*
X294551D01*
X288151Y-25065D02*
X294551D01*
X288151Y-25165D02*
X294551D01*
X288151Y-25265D02*
X294551D01*
X288151Y-25365D02*
X294551D01*
X287151Y-21465D02*
X294551D01*
X287151Y-21565D02*
X294551D01*
X287151Y-21665D02*
X294551D01*
X287151Y-21765D02*
X294551D01*
X287151Y-21865D02*
X294551D01*
X287951Y-21965D02*
X294551D01*
X287951Y-22765D02*
X294551D01*
X287151Y-22865D02*
X294551D01*
X287151Y-22965D02*
X294551D01*
X287151Y-23065D02*
X294551D01*
X287951Y-23365D02*
X294551D01*
X288051Y-23465D02*
X294551D01*
X287951Y-24165D02*
X294551D01*
X287151Y-24265D02*
X294551D01*
X287151Y-24365D02*
X294551D01*
X287151Y-24465D02*
X294551D01*
X287151Y-24565D02*
X294551D01*
X287151Y-24665D02*
X294551D01*
X287951Y-24765D02*
X294551D01*
X288051Y-24865D02*
X294551D01*
X288051Y-25465D02*
X294551D01*
X287951Y-25565D02*
X294551D01*
X287151Y-25665D02*
X294551D01*
X287151Y-25765D02*
X294551D01*
X287151Y-25865D02*
X294551D01*
X287151Y-25965D02*
X294551D01*
X287151Y-26065D02*
X294551D01*
X287151Y-26165D02*
X294551D01*
X287151Y-26265D02*
X294551D01*
X287151Y-26365D02*
X294551D01*
X287151Y-26465D02*
X294551D01*
X287151Y-26565D02*
X294551D01*
X287151Y-26665D02*
X294551D01*
X287151Y-26765D02*
X294551D01*
X287151Y-26865D02*
X294551D01*
X287151Y-26965D02*
X294551D01*
X287151Y-34065D02*
X294551D01*
X287151Y-21365D02*
X294551D01*
X287151Y-23165D02*
X294551D01*
X287151Y-23265D02*
X294551D01*
X276051Y-30265D02*
X294551D01*
X276051Y-30365D02*
X294551D01*
X276051Y-30465D02*
X294551D01*
X276051Y-30565D02*
X294551D01*
X276051Y-30665D02*
X294551D01*
X276051Y-30765D02*
X294551D01*
X276051Y-30865D02*
X294551D01*
X276051Y-30965D02*
X294551D01*
X276051Y-31065D02*
X294551D01*
X276051Y-31165D02*
X294551D01*
X276051Y-31265D02*
X294551D01*
X285451Y-31465D02*
X294551D01*
X285851Y-31565D02*
X294551D01*
X286051Y-31665D02*
X294551D01*
X286251Y-31765D02*
X294551D01*
X286351Y-31865D02*
X294551D01*
X286451Y-31965D02*
X294551D01*
X286551Y-32065D02*
X294551D01*
X286651Y-32165D02*
X294551D01*
X286751Y-32265D02*
X294551D01*
X286751Y-32365D02*
X294551D01*
X286851Y-32465D02*
X294551D01*
X286951Y-32565D02*
X294551D01*
X286951Y-32665D02*
X294551D01*
X286951Y-32765D02*
X294551D01*
X287051Y-32865D02*
X294551D01*
X287051Y-32965D02*
X294551D01*
X287051Y-33065D02*
X294551D01*
X287051Y-33165D02*
X294551D01*
X273451Y-27165D02*
X294551D01*
X273551Y-27265D02*
X294551D01*
X273551Y-27365D02*
X294551D01*
X273651Y-27465D02*
X294551D01*
X273751Y-27565D02*
X294551D01*
X273851Y-27665D02*
X294551D01*
X273951Y-27765D02*
X294551D01*
X274051Y-27865D02*
X294551D01*
X274151Y-27965D02*
X294551D01*
X274251Y-28065D02*
X294551D01*
X274351Y-28165D02*
X294551D01*
X274451Y-28265D02*
X294551D01*
X274551Y-28365D02*
X294551D01*
X274651Y-28465D02*
X294551D01*
X274751Y-28565D02*
X294551D01*
X274851Y-28665D02*
X294551D01*
X274951Y-28765D02*
X294551D01*
X275051Y-28865D02*
X294551D01*
X275151Y-28965D02*
X294551D01*
X275251Y-29065D02*
X294551D01*
X275351Y-29165D02*
X294551D01*
X275451Y-29265D02*
X294551D01*
X275551Y-29365D02*
X294551D01*
X275651Y-29465D02*
X294551D01*
X275751Y-29565D02*
X294551D01*
X275751Y-29665D02*
X294551D01*
X275851Y-29765D02*
X294551D01*
X275851Y-29865D02*
X294551D01*
X275951Y-29965D02*
X294551D01*
X275951Y-30065D02*
X294551D01*
X276051Y-30165D02*
X294551D01*
X275951Y-31365D02*
X294551D01*
X287051Y-33265D02*
X294551D01*
X287151Y-33365D02*
X294551D01*
X287151Y-33465D02*
X294551D01*
X287151Y-33565D02*
X294551D01*
X287151Y-33665D02*
X294551D01*
X287151Y-33765D02*
X294551D01*
X287151Y-33865D02*
X294551D01*
X287151Y-33965D02*
X294551D01*
X287151Y-34165D02*
X294551D01*
X287151Y-34265D02*
X294551D01*
X287151Y-34365D02*
X294551D01*
X287151Y-34465D02*
X294551D01*
X287151Y-34565D02*
X294551D01*
X287151Y-34665D02*
X294551D01*
X287151Y-34765D02*
X294551D01*
X287151Y-34865D02*
X294551D01*
X287151Y-34965D02*
X294551D01*
X287151Y-35065D02*
X294551D01*
X287151Y-35165D02*
X294551D01*
X287151Y-35265D02*
X294551D01*
X287151Y-35365D02*
X294551D01*
X287151Y-35465D02*
X294551D01*
X287151Y-35565D02*
X294551D01*
X287151Y-35665D02*
X294551D01*
X287151Y-35765D02*
X294551D01*
X287151Y-35865D02*
X294551D01*
X287151Y-35965D02*
X294551D01*
X287151Y-36065D02*
X294551D01*
X287151Y-36165D02*
X294551D01*
X287451Y-37065D02*
X294251D01*
X287951Y-37665D02*
X293651D01*
X288351Y-37865D02*
X293251D01*
X287151Y-36365D02*
X294451D01*
X287851Y-37565D02*
X293751D01*
X287251Y-36665D02*
X294351D01*
X288151Y-37765D02*
X293451D01*
X287451Y-37165D02*
X294151D01*
X287151Y-36465D02*
X294451D01*
X287551Y-37265D02*
X294051D01*
X287151Y-36565D02*
X294451D01*
X287351Y-36965D02*
X294251D01*
X287651Y-37365D02*
X293951D01*
X287751Y-37465D02*
X293851D01*
X287151Y-36265D02*
X294451D01*
X287251Y-36765D02*
X294351D01*
X288651Y-37965D02*
X292951D01*
X287251Y-36865D02*
X294351D01*
X288051Y-22065D02*
X294551D01*
X288151Y-22165D02*
X294551D01*
X288151Y-22265D02*
X294551D01*
X288151Y-22365D02*
X294551D01*
X284051Y-19465D02*
X284951D01*
X284151Y-19565D02*
X284851D01*
X284251Y-19665D02*
X284751D01*
X284251Y-19765D02*
X284751D01*
X284351Y-19865D02*
X284751D01*
X284351Y-19965D02*
X284751D01*
X284351Y-20065D02*
X284751D01*
X284351Y-20165D02*
X284751D01*
X284351Y-20265D02*
X284751D01*
X284351Y-20365D02*
X284751D01*
X277751Y-16065D02*
X293151D01*
X277551Y-16165D02*
X293351D01*
X277351Y-16265D02*
X293551D01*
X277251Y-16365D02*
X293751D01*
X277051Y-16465D02*
X293851D01*
X276951Y-16565D02*
X293951D01*
X276851Y-16665D02*
X294051D01*
X276751Y-16765D02*
X294151D01*
X276651Y-16865D02*
X294151D01*
X276551Y-16965D02*
X294251D01*
X276451Y-17065D02*
X294251D01*
X278351Y-15965D02*
X292551D01*
X276351Y-17165D02*
X294351D01*
X276251Y-17265D02*
X294351D01*
X276151Y-17365D02*
X294451D01*
X276051Y-17465D02*
X294451D01*
X285451Y-19465D02*
X294551D01*
X285551Y-19565D02*
X294551D01*
X285651Y-19665D02*
X294551D01*
X275951Y-17565D02*
X294451D01*
X275851Y-17665D02*
X294451D01*
X275751Y-17765D02*
X294551D01*
X275651Y-17865D02*
X294551D01*
X275551Y-17965D02*
X294551D01*
X275451Y-18065D02*
X294551D01*
X275351Y-18165D02*
X294551D01*
X275251Y-18265D02*
X294551D01*
X275151Y-18365D02*
X294551D01*
X275051Y-18465D02*
X294551D01*
X274951Y-18565D02*
X294551D01*
X274851Y-18665D02*
X294551D01*
X274751Y-18765D02*
X294551D01*
X285651Y-19765D02*
X294551D01*
X274551Y-18965D02*
X294551D01*
X274451Y-19065D02*
X294551D01*
X274351Y-19165D02*
X294551D01*
X274251Y-19265D02*
X294551D01*
X274151Y-19365D02*
X294551D01*
X274651Y-18865D02*
X294551D01*
X285751Y-19965D02*
X294551D01*
X285751Y-19865D02*
X294551D01*
X285751Y-20065D02*
X294551D01*
X285751Y-20165D02*
X294551D01*
X285751Y-20265D02*
X294551D01*
X285751Y-20365D02*
X294551D01*
X287151Y-20465D02*
X294551D01*
X287151Y-20565D02*
X294551D01*
X287151Y-20665D02*
X294551D01*
X287151Y-20765D02*
X294551D01*
X287151Y-20865D02*
X294551D01*
X287151Y-20965D02*
X294551D01*
X287151Y-21065D02*
X294551D01*
X287151Y-21165D02*
X294551D01*
X287151Y-21265D02*
X294551D01*
D21*
X321041Y-140125D02*
X339741D01*
X320768Y-113189D02*
X339469D01*
X320768Y-85630D02*
X339469D01*
X320768Y-58071D02*
X339469D01*
X320768Y-31201D02*
X339469D01*
X60236Y-104331D02*
X70079D01*
X50394D02*
X60236D01*
Y-198031D02*
Y-104331D01*
X50394Y-90551D02*
X60236D01*
X70079D01*
X50394Y-76378D02*
X60236D01*
X70079D01*
X50394Y-62992D02*
X60236D01*
X70079D01*
X50394Y-48819D02*
X60236D01*
X70079D01*
X50394Y-35039D02*
X60236D01*
X70079D01*
X327309Y-121735D02*
Y-118980D01*
X325932D01*
X325473Y-119439D01*
Y-120358D01*
X325932Y-120817D01*
X327309D01*
X326391D02*
X325473Y-121735D01*
X324554Y-118980D02*
X322718Y-121735D01*
Y-118980D02*
X324554Y-121735D01*
X327309Y-107994D02*
Y-105239D01*
X325932D01*
X325473Y-105699D01*
Y-106617D01*
X325932Y-107076D01*
X327309D01*
X326391D02*
X325473Y-107994D01*
X324554D02*
Y-106158D01*
X323636Y-105239D01*
X322718Y-106158D01*
Y-107994D01*
Y-106617D01*
X324554D01*
X327309Y-94254D02*
Y-91499D01*
X325932D01*
X325473Y-91958D01*
Y-92876D01*
X325932Y-93336D01*
X327309D01*
X326391D02*
X325473Y-94254D01*
X324554Y-91499D02*
Y-94254D01*
X323177D01*
X322718Y-93795D01*
Y-93336D01*
X323177Y-92876D01*
X324554D01*
X323177D01*
X322718Y-92417D01*
Y-91958D01*
X323177Y-91499D01*
X324554D01*
X327309Y-77759D02*
X325473D01*
X326391D01*
Y-80514D01*
X324554Y-77759D02*
Y-80514D01*
X323177D01*
X322718Y-80054D01*
Y-79595D01*
X323177Y-79136D01*
X324554D01*
X323177D01*
X322718Y-78677D01*
Y-78218D01*
X323177Y-77759D01*
X324554D01*
X327309Y-66773D02*
Y-64018D01*
X325932D01*
X325473Y-64477D01*
Y-65396D01*
X325932Y-65855D01*
X327309D01*
X326391D02*
X325473Y-66773D01*
X324554D02*
Y-64936D01*
X323636Y-64018D01*
X322718Y-64936D01*
Y-66773D01*
Y-65396D01*
X324554D01*
X325473Y-50737D02*
X325932Y-50278D01*
X326850D01*
X327309Y-50737D01*
Y-52573D01*
X326850Y-53033D01*
X325932D01*
X325473Y-52573D01*
X324554Y-50278D02*
Y-53033D01*
X322718D01*
X325473Y-36996D02*
X325932Y-36537D01*
X326850D01*
X327309Y-36996D01*
Y-38833D01*
X326850Y-39292D01*
X325932D01*
X325473Y-38833D01*
X324554Y-36537D02*
Y-39292D01*
Y-37915D01*
X322718D01*
Y-36537D01*
Y-39292D01*
X337210Y-118880D02*
X335373D01*
X336291D01*
Y-121635D01*
X334454Y-118880D02*
X332618Y-121635D01*
Y-118880D02*
X334454Y-121635D01*
X337210Y-107895D02*
Y-105140D01*
X335832D01*
X335373Y-105599D01*
Y-106517D01*
X335832Y-106976D01*
X337210D01*
X336291D02*
X335373Y-107895D01*
X334454D02*
Y-106058D01*
X333536Y-105140D01*
X332618Y-106058D01*
Y-107895D01*
Y-106517D01*
X334454D01*
X337210Y-94154D02*
Y-91399D01*
X335832D01*
X335373Y-91858D01*
Y-92777D01*
X335832Y-93236D01*
X337210D01*
X336291D02*
X335373Y-94154D01*
X334454Y-91399D02*
Y-94154D01*
X333077D01*
X332618Y-93695D01*
Y-93236D01*
X333077Y-92777D01*
X334454D01*
X333077D01*
X332618Y-92317D01*
Y-91858D01*
X333077Y-91399D01*
X334454D01*
X337210Y-77659D02*
X335373D01*
X336291D01*
Y-80414D01*
X334454D02*
Y-78577D01*
X333536Y-77659D01*
X332618Y-78577D01*
Y-80414D01*
Y-79036D01*
X334454D01*
X337210Y-66673D02*
Y-63918D01*
X335832D01*
X335373Y-64377D01*
Y-65296D01*
X335832Y-65755D01*
X337210D01*
X336291D02*
X335373Y-66673D01*
X334454Y-63918D02*
Y-66673D01*
X333077D01*
X332618Y-66214D01*
Y-65755D01*
X333077Y-65296D01*
X334454D01*
X333077D01*
X332618Y-64836D01*
Y-64377D01*
X333077Y-63918D01*
X334454D01*
X335373Y-50637D02*
X335832Y-50178D01*
X336750D01*
X337210Y-50637D01*
Y-52473D01*
X336750Y-52933D01*
X335832D01*
X335373Y-52473D01*
X334454Y-50178D02*
Y-52933D01*
X332618D01*
X335373Y-36896D02*
X335832Y-36437D01*
X336750D01*
X337210Y-36896D01*
Y-38733D01*
X336750Y-39192D01*
X335832D01*
X335373Y-38733D01*
X334454Y-36437D02*
Y-39192D01*
Y-37815D01*
X332618D01*
Y-36437D01*
Y-39192D01*
X56103Y-43307D02*
Y-40552D01*
X57480Y-41930D01*
X55644D01*
X54725Y-43307D02*
X53807D01*
X54266D01*
Y-40552D01*
X54725Y-41011D01*
X66339Y-43307D02*
Y-40552D01*
X67716Y-41930D01*
X65880D01*
X64961Y-41011D02*
X64502Y-40552D01*
X63584D01*
X63125Y-41011D01*
Y-42848D01*
X63584Y-43307D01*
X64502D01*
X64961Y-42848D01*
Y-41011D01*
X57480Y-54791D02*
X57021Y-54332D01*
X56103D01*
X55644Y-54791D01*
Y-55250D01*
X56103Y-55709D01*
X56562D01*
X56103D01*
X55644Y-56168D01*
Y-56627D01*
X56103Y-57087D01*
X57021D01*
X57480Y-56627D01*
X54725Y-57087D02*
X53807D01*
X54266D01*
Y-54332D01*
X54725Y-54791D01*
X67716D02*
X67257Y-54332D01*
X66339D01*
X65880Y-54791D01*
Y-55250D01*
X66339Y-55709D01*
X66798D01*
X66339D01*
X65880Y-56168D01*
Y-56627D01*
X66339Y-57087D01*
X67257D01*
X67716Y-56627D01*
X64961Y-54791D02*
X64502Y-54332D01*
X63584D01*
X63125Y-54791D01*
Y-56627D01*
X63584Y-57087D01*
X64502D01*
X64961Y-56627D01*
Y-54791D01*
X55644Y-70866D02*
X57480D01*
X55644Y-69029D01*
Y-68570D01*
X56103Y-68111D01*
X57021D01*
X57480Y-68570D01*
X54725Y-70866D02*
X53807D01*
X54266D01*
Y-68111D01*
X54725Y-68570D01*
X65486Y-70866D02*
X67323D01*
X65486Y-69029D01*
Y-68570D01*
X65945Y-68111D01*
X66864D01*
X67323Y-68570D01*
X64568D02*
X64109Y-68111D01*
X63190D01*
X62731Y-68570D01*
Y-70407D01*
X63190Y-70866D01*
X64109D01*
X64568Y-70407D01*
Y-68570D01*
X57087Y-84646D02*
X56168D01*
X56627D01*
Y-81891D01*
X57087Y-82350D01*
X54791Y-84646D02*
X53872D01*
X54332D01*
Y-81891D01*
X54791Y-82350D01*
X67323Y-84646D02*
X66404D01*
X66864D01*
Y-81891D01*
X67323Y-82350D01*
X65027D02*
X64568Y-81891D01*
X63649D01*
X63190Y-82350D01*
Y-84187D01*
X63649Y-84646D01*
X64568D01*
X65027Y-84187D01*
Y-82350D01*
X57480Y-96129D02*
X57021Y-95670D01*
X56103D01*
X55644Y-96129D01*
Y-97966D01*
X56103Y-98425D01*
X57021D01*
X57480Y-97966D01*
Y-96129D01*
X54725Y-98425D02*
X53807D01*
X54266D01*
Y-95670D01*
X54725Y-96129D01*
X67323D02*
X66864Y-95670D01*
X65945D01*
X65486Y-96129D01*
Y-97966D01*
X65945Y-98425D01*
X66864D01*
X67323Y-97966D01*
Y-96129D01*
X64568D02*
X64109Y-95670D01*
X63190D01*
X62731Y-96129D01*
Y-97966D01*
X63190Y-98425D01*
X64109D01*
X64568Y-97966D01*
Y-96129D01*
X66245Y-109370D02*
X67164D01*
X67623Y-109829D01*
Y-111666D01*
X67164Y-112125D01*
X66245D01*
X65786Y-111666D01*
Y-109829D01*
X66245Y-109370D01*
X63031Y-109829D02*
X63490Y-109370D01*
X64409D01*
X64868Y-109829D01*
Y-111666D01*
X64409Y-112125D01*
X63490D01*
X63031Y-111666D01*
X57623Y-109470D02*
X56704D01*
X57164D01*
Y-112225D01*
X57623D01*
X56704D01*
X53490Y-109929D02*
X53949Y-109470D01*
X54868D01*
X55327Y-109929D01*
Y-111766D01*
X54868Y-112225D01*
X53949D01*
X53490Y-111766D01*
X66245Y-122770D02*
X67164D01*
X67623Y-123229D01*
Y-125066D01*
X67164Y-125525D01*
X66245D01*
X65786Y-125066D01*
Y-123229D01*
X66245Y-122770D01*
X63490Y-125525D02*
Y-122770D01*
X64868Y-124148D01*
X63031D01*
X57723Y-122870D02*
X56805D01*
X57264D01*
Y-125625D01*
X57723D01*
X56805D01*
X54049D02*
Y-122870D01*
X55427Y-124248D01*
X53590D01*
X57623Y-136970D02*
X56704D01*
X57164D01*
Y-139725D01*
X57623D01*
X56704D01*
X55327Y-137429D02*
X54868Y-136970D01*
X53949D01*
X53490Y-137429D01*
Y-137889D01*
X53949Y-138348D01*
X54409D01*
X53949D01*
X53490Y-138807D01*
Y-139266D01*
X53949Y-139725D01*
X54868D01*
X55327Y-139266D01*
X66145Y-136970D02*
X67064D01*
X67523Y-137429D01*
Y-139266D01*
X67064Y-139725D01*
X66145D01*
X65686Y-139266D01*
Y-137429D01*
X66145Y-136970D01*
X64768Y-137429D02*
X64309Y-136970D01*
X63390D01*
X62931Y-137429D01*
Y-137889D01*
X63390Y-138348D01*
X63850D01*
X63390D01*
X62931Y-138807D01*
Y-139266D01*
X63390Y-139725D01*
X64309D01*
X64768Y-139266D01*
X66145Y-150270D02*
X67064D01*
X67523Y-150729D01*
Y-152566D01*
X67064Y-153025D01*
X66145D01*
X65686Y-152566D01*
Y-150729D01*
X66145Y-150270D01*
X62931Y-153025D02*
X64768D01*
X62931Y-151189D01*
Y-150729D01*
X63390Y-150270D01*
X64309D01*
X64768Y-150729D01*
X57523Y-150370D02*
X56604D01*
X57064D01*
Y-153125D01*
X57523D01*
X56604D01*
X53390D02*
X55227D01*
X53390Y-151288D01*
Y-150829D01*
X53850Y-150370D01*
X54768D01*
X55227Y-150829D01*
X65623Y-164245D02*
X66541D01*
X67000Y-164704D01*
Y-166541D01*
X66541Y-167000D01*
X65623D01*
X65163Y-166541D01*
Y-164704D01*
X65623Y-164245D01*
X64245Y-167000D02*
X63327D01*
X63786D01*
Y-164245D01*
X64245Y-164704D01*
X57100Y-164445D02*
X56182D01*
X56641D01*
Y-167200D01*
X57100D01*
X56182D01*
X54804D02*
X53886D01*
X54345D01*
Y-164445D01*
X54804Y-164904D01*
X66245Y-177870D02*
X67164D01*
X67623Y-178329D01*
Y-180166D01*
X67164Y-180625D01*
X66245D01*
X65786Y-180166D01*
Y-178329D01*
X66245Y-177870D01*
X64868Y-178329D02*
X64409Y-177870D01*
X63490D01*
X63031Y-178329D01*
Y-180166D01*
X63490Y-180625D01*
X64409D01*
X64868Y-180166D01*
Y-178329D01*
X57623Y-177970D02*
X56704D01*
X57164D01*
Y-180725D01*
X57623D01*
X56704D01*
X55327Y-178429D02*
X54868Y-177970D01*
X53949D01*
X53490Y-178429D01*
Y-180266D01*
X53949Y-180725D01*
X54868D01*
X55327Y-180266D01*
Y-178429D01*
X68110Y-204331D02*
X67192D01*
X67651D01*
Y-201576D01*
X68110Y-202035D01*
X63978Y-204331D02*
X65814D01*
X63978Y-202494D01*
Y-202035D01*
X64437Y-201576D01*
X65355D01*
X65814Y-202035D01*
X63059Y-202953D02*
X61223D01*
X58468Y-204331D02*
X60304D01*
X58468Y-202494D01*
Y-202035D01*
X58927Y-201576D01*
X59845D01*
X60304Y-202035D01*
X56172Y-204331D02*
Y-201576D01*
X57549Y-202953D01*
X55713D01*
X54794Y-201576D02*
Y-203412D01*
X53876Y-204331D01*
X52958Y-203412D01*
Y-201576D01*
D22*
X187008Y-5906D02*
D03*
Y-230315D02*
D03*
D125*
X326149Y-133399D02*
X326477Y-133071D01*
X327133D01*
X327461Y-133399D01*
Y-134711D01*
X327133Y-135039D01*
X326477D01*
X326149Y-134711D01*
Y-134055D01*
X326805D01*
X325493Y-135039D02*
Y-133071D01*
X324181Y-135039D01*
Y-133071D01*
X323525D02*
Y-135039D01*
X322541D01*
X322213Y-134711D01*
Y-133399D01*
X322541Y-133071D01*
X323525D01*
X336188Y-133498D02*
X336516Y-133170D01*
X337172D01*
X337500Y-133498D01*
Y-134810D01*
X337172Y-135138D01*
X336516D01*
X336188Y-134810D01*
Y-134154D01*
X336844D01*
X335532Y-135138D02*
Y-133170D01*
X334220Y-135138D01*
Y-133170D01*
X333564D02*
Y-135138D01*
X332580D01*
X332252Y-134810D01*
Y-133498D01*
X332580Y-133170D01*
X333564D01*
X57800Y-192532D02*
Y-193844D01*
X57144Y-194500D01*
X56488Y-193844D01*
Y-192532D01*
X54520Y-192860D02*
X54848Y-192532D01*
X55504D01*
X55832Y-192860D01*
Y-194172D01*
X55504Y-194500D01*
X54848D01*
X54520Y-194172D01*
X52552Y-192860D02*
X52880Y-192532D01*
X53536D01*
X53864Y-192860D01*
Y-194172D01*
X53536Y-194500D01*
X52880D01*
X52552Y-194172D01*
X66488Y-192760D02*
X66816Y-192432D01*
X67472D01*
X67800Y-192760D01*
Y-194072D01*
X67472Y-194400D01*
X66816D01*
X66488Y-194072D01*
Y-193416D01*
X67144D01*
X65832Y-194400D02*
Y-192432D01*
X64520Y-194400D01*
Y-192432D01*
X63864D02*
Y-194400D01*
X62880D01*
X62552Y-194072D01*
Y-192760D01*
X62880Y-192432D01*
X63864D01*
M02*
