G04*
G04 #@! TF.GenerationSoftware,Altium Limited,Altium Designer,24.4.1 (13)*
G04*
G04 Layer_Color=32896*
%FSLAX25Y25*%
%MOIN*%
G70*
G04*
G04 #@! TF.SameCoordinates,2AF86F0E-6A7C-4304-B1EE-54B698FFF254*
G04*
G04*
G04 #@! TF.FilePolarity,Positive*
G04*
G01*
G75*
%ADD10C,0.01000*%
%ADD20C,0.00100*%
%ADD21C,0.00709*%
%ADD22R,3.74016X0.11811*%
%ADD129C,0.00472*%
G36*
X277132Y-54803D02*
X277846Y-54905D01*
X278509Y-55033D01*
X279096Y-55160D01*
X279351Y-55237D01*
X279581Y-55313D01*
X279785Y-55390D01*
X279938Y-55441D01*
X280091Y-55492D01*
X280193Y-55543D01*
X280244Y-55569D01*
X280269D01*
X280933Y-55900D01*
X281545Y-56232D01*
X282081Y-56589D01*
X282565Y-56946D01*
X282948Y-57252D01*
X283101Y-57380D01*
X283229Y-57507D01*
X283356Y-57609D01*
X283433Y-57686D01*
X283458Y-57711D01*
X283484Y-57737D01*
X283968Y-58273D01*
X284402Y-58808D01*
X284785Y-59344D01*
X285091Y-59829D01*
X285320Y-60263D01*
X285422Y-60466D01*
X285499Y-60620D01*
X285576Y-60747D01*
X285627Y-60849D01*
X285652Y-60900D01*
Y-60926D01*
X285907Y-61615D01*
X286086Y-62303D01*
X286239Y-62967D01*
X286315Y-63553D01*
X286341Y-63834D01*
X286366Y-64063D01*
X286392Y-64293D01*
Y-64472D01*
X286417Y-64625D01*
Y-64727D01*
Y-64803D01*
Y-64829D01*
X286392Y-65569D01*
X286290Y-66283D01*
X286162Y-66946D01*
X286035Y-67533D01*
X285958Y-67788D01*
X285882Y-68018D01*
X285831Y-68222D01*
X285780Y-68375D01*
X285729Y-68528D01*
X285678Y-68630D01*
X285652Y-68681D01*
Y-68706D01*
X285320Y-69370D01*
X284989Y-69982D01*
X284606Y-70517D01*
X284275Y-71002D01*
X283968Y-71385D01*
X283815Y-71538D01*
X283713Y-71665D01*
X283611Y-71793D01*
X283535Y-71869D01*
X283509Y-71895D01*
X283484Y-71921D01*
X282948Y-72405D01*
X282412Y-72839D01*
X281876Y-73221D01*
X281366Y-73528D01*
X280933Y-73757D01*
X280754Y-73859D01*
X280601Y-73936D01*
X280473Y-74012D01*
X280371Y-74063D01*
X280320Y-74089D01*
X280295D01*
X279606Y-74344D01*
X278917Y-74523D01*
X278254Y-74676D01*
X277642Y-74752D01*
X277387Y-74778D01*
X277132Y-74803D01*
X276928Y-74829D01*
X276749D01*
X276596Y-74854D01*
X276392D01*
X275627Y-74829D01*
X274912Y-74727D01*
X274249Y-74599D01*
X273662Y-74471D01*
X273407Y-74395D01*
X273178Y-74318D01*
X272973Y-74267D01*
X272795Y-74216D01*
X272667Y-74165D01*
X272565Y-74114D01*
X272514Y-74089D01*
X272489D01*
X271826Y-73757D01*
X271188Y-73426D01*
X270652Y-73043D01*
X270193Y-72711D01*
X269810Y-72405D01*
X269632Y-72252D01*
X269504Y-72150D01*
X269402Y-72048D01*
X269326Y-71971D01*
X269300Y-71946D01*
X269275Y-71921D01*
X268790Y-71385D01*
X268356Y-70849D01*
X267999Y-70313D01*
X267693Y-69803D01*
X267463Y-69370D01*
X267361Y-69191D01*
X267285Y-69038D01*
X267208Y-68910D01*
X267157Y-68808D01*
X267132Y-68757D01*
Y-68732D01*
X266877Y-68043D01*
X266673Y-67354D01*
X266545Y-66691D01*
X266443Y-66079D01*
X266418Y-65824D01*
X266392Y-65569D01*
X266367Y-65364D01*
X266341Y-65186D01*
Y-65033D01*
Y-64931D01*
Y-64854D01*
Y-64829D01*
X266367Y-64063D01*
X266469Y-63324D01*
X266596Y-62686D01*
X266724Y-62099D01*
X266800Y-61844D01*
X266877Y-61615D01*
X266953Y-61410D01*
X267004Y-61232D01*
X267055Y-61104D01*
X267106Y-61002D01*
X267132Y-60951D01*
Y-60926D01*
X267438Y-60263D01*
X267795Y-59650D01*
X268152Y-59114D01*
X268509Y-58630D01*
X268815Y-58273D01*
X268943Y-58094D01*
X269045Y-57967D01*
X269147Y-57864D01*
X269224Y-57788D01*
X269249Y-57762D01*
X269275Y-57737D01*
X269810Y-57252D01*
X270346Y-56819D01*
X270882Y-56436D01*
X271366Y-56130D01*
X271800Y-55900D01*
X272004Y-55798D01*
X272157Y-55722D01*
X272285Y-55645D01*
X272387Y-55594D01*
X272438Y-55569D01*
X272463D01*
X273152Y-55313D01*
X273841Y-55109D01*
X274504Y-54982D01*
X275116Y-54880D01*
X275397Y-54854D01*
X275627Y-54829D01*
X275856Y-54803D01*
X276035Y-54778D01*
X276392D01*
X277132Y-54803D01*
D02*
G37*
G36*
X260827Y-53392D02*
X256125Y-58488D01*
X255644Y-64502D01*
X260674Y-69641D01*
X260389Y-69882D01*
X255600Y-64983D01*
X255512Y-66120D01*
X255490Y-66426D01*
X255469Y-66689D01*
Y-66798D01*
Y-66864D01*
Y-66908D01*
Y-66929D01*
Y-67061D01*
X255447Y-67148D01*
Y-67236D01*
Y-67279D01*
X255425Y-67345D01*
Y-67367D01*
X255403Y-67454D01*
X255381Y-67520D01*
X255359Y-67542D01*
X255337Y-67564D01*
X255272Y-67585D01*
X255250Y-67607D01*
X255228D01*
Y-68242D01*
X254397D01*
Y-67607D01*
X251029D01*
X250876Y-67826D01*
X250679Y-67979D01*
X250482Y-68110D01*
X250307Y-68176D01*
X250132Y-68220D01*
X249979Y-68242D01*
X249892Y-68264D01*
X249848D01*
X249651Y-68242D01*
X249454Y-68198D01*
X249301Y-68154D01*
X249148Y-68067D01*
X249039Y-68001D01*
X248951Y-67957D01*
X248908Y-67914D01*
X248886Y-67892D01*
X248755Y-67739D01*
X248667Y-67564D01*
X248580Y-67411D01*
X248536Y-67257D01*
X248514Y-67104D01*
X248492Y-66995D01*
Y-66929D01*
Y-66908D01*
Y-66755D01*
X245540Y-69947D01*
X245212Y-69685D01*
X249542Y-64983D01*
X248951Y-58794D01*
X247836D01*
Y-57132D01*
X247880D01*
X244271Y-53436D01*
Y-52845D01*
X248470Y-57132D01*
X248820D01*
X248755Y-56322D01*
X248645Y-56366D01*
X248536Y-56388D01*
X248470Y-56410D01*
X248448D01*
X248252Y-56388D01*
X248120Y-56322D01*
X248011Y-56257D01*
X247989Y-56235D01*
X247880Y-56082D01*
X247814Y-55929D01*
X247792Y-55819D01*
Y-55798D01*
Y-55776D01*
X247814Y-55601D01*
X247880Y-55470D01*
X247967Y-55382D01*
X247989Y-55338D01*
X248142Y-55229D01*
X248295Y-55163D01*
X248405Y-55142D01*
X248448D01*
X248667Y-55207D01*
X248820Y-55295D01*
X248908Y-55382D01*
X248951Y-55404D01*
Y-55426D01*
X249039Y-55338D01*
X249148Y-55251D01*
X249389Y-55076D01*
X249476Y-55010D01*
X249564Y-54966D01*
X249629Y-54945D01*
X249651Y-54923D01*
X249848Y-54813D01*
X250089Y-54748D01*
X250329Y-54682D01*
X250570Y-54617D01*
X250788Y-54573D01*
X250963Y-54551D01*
X251073Y-54529D01*
X251116D01*
Y-54311D01*
X253391D01*
Y-54442D01*
X253653Y-54463D01*
X253850Y-54485D01*
X253938Y-54507D01*
X254003D01*
X254047Y-54529D01*
X254069D01*
X254288Y-54551D01*
X254463Y-54595D01*
X254594Y-54617D01*
X254638D01*
Y-54551D01*
X255490D01*
Y-54879D01*
X255709Y-54988D01*
X255862Y-55098D01*
X256015Y-55207D01*
X256103Y-55295D01*
X256190Y-55382D01*
X256234Y-55448D01*
X256278Y-55470D01*
Y-55491D01*
X256365Y-55666D01*
X256431Y-55776D01*
X256453Y-55819D01*
Y-55841D01*
X256934D01*
Y-56344D01*
X256300D01*
X256169Y-57788D01*
X260827Y-52736D01*
Y-53392D01*
D02*
G37*
G36*
X260258Y-75721D02*
X245737D01*
Y-73556D01*
X260258D01*
Y-75721D01*
D02*
G37*
%LPC*%
G36*
X276698Y-56206D02*
X276392D01*
X275729Y-56232D01*
X275116Y-56308D01*
X274530Y-56436D01*
X274045Y-56538D01*
X273611Y-56665D01*
X273433Y-56742D01*
X273305Y-56793D01*
X273178Y-56819D01*
X273101Y-56870D01*
X273050Y-56895D01*
X273025D01*
X272438Y-57176D01*
X271928Y-57456D01*
X271443Y-57762D01*
X271035Y-58069D01*
X270729Y-58324D01*
X270474Y-58528D01*
X270321Y-58681D01*
X270269Y-58706D01*
Y-58732D01*
X269861Y-59191D01*
X269504Y-59650D01*
X269198Y-60109D01*
X268943Y-60543D01*
X268739Y-60926D01*
X268586Y-61232D01*
X268535Y-61334D01*
X268484Y-61410D01*
X268458Y-61461D01*
Y-61487D01*
X268229Y-62074D01*
X268050Y-62660D01*
X267948Y-63222D01*
X267846Y-63732D01*
X267795Y-64191D01*
Y-64370D01*
X267770Y-64523D01*
Y-64650D01*
Y-64752D01*
Y-64803D01*
Y-64829D01*
X267795Y-65492D01*
X267871Y-66104D01*
X267999Y-66666D01*
X268101Y-67176D01*
X268229Y-67609D01*
X268305Y-67762D01*
X268356Y-67915D01*
X268382Y-68043D01*
X268433Y-68120D01*
X268458Y-68171D01*
Y-68196D01*
X268713Y-68757D01*
X269020Y-69293D01*
X269326Y-69752D01*
X269606Y-70160D01*
X269861Y-70492D01*
X269982Y-70626D01*
X269377Y-71232D01*
X269963Y-71844D01*
X270580Y-71227D01*
X270729Y-71359D01*
X271188Y-71716D01*
X271647Y-72048D01*
X272081Y-72303D01*
X272463Y-72507D01*
X272616Y-72584D01*
X272744Y-72660D01*
X272871Y-72711D01*
X272948Y-72762D01*
X272999Y-72788D01*
X273025D01*
X273611Y-73017D01*
X274223Y-73171D01*
X274785Y-73298D01*
X275295Y-73375D01*
X275754Y-73426D01*
X275933D01*
X276086Y-73451D01*
X276392D01*
X277030Y-73426D01*
X277667Y-73349D01*
X278229Y-73247D01*
X278739Y-73119D01*
X279147Y-72992D01*
X279326Y-72941D01*
X279479Y-72890D01*
X279606Y-72839D01*
X279683Y-72813D01*
X279734Y-72788D01*
X279759D01*
X280320Y-72507D01*
X280856Y-72201D01*
X281315Y-71895D01*
X281723Y-71614D01*
X282055Y-71359D01*
X282310Y-71130D01*
X282463Y-71002D01*
X282489Y-70951D01*
X282514D01*
X282922Y-70492D01*
X283280Y-70033D01*
X283611Y-69574D01*
X283866Y-69140D01*
X284070Y-68757D01*
X284224Y-68451D01*
X284275Y-68349D01*
X284326Y-68273D01*
X284351Y-68222D01*
Y-68196D01*
X284581Y-67584D01*
X284734Y-66997D01*
X284861Y-66436D01*
X284938Y-65926D01*
X284989Y-65466D01*
Y-65288D01*
X285014Y-65135D01*
Y-65007D01*
Y-64905D01*
Y-64854D01*
Y-64829D01*
X284989Y-64166D01*
X284912Y-63553D01*
X284810Y-62992D01*
X284683Y-62482D01*
X284555Y-62074D01*
X284504Y-61895D01*
X284453Y-61768D01*
X284402Y-61640D01*
X284377Y-61563D01*
X284351Y-61512D01*
Y-61487D01*
X284070Y-60926D01*
X283764Y-60390D01*
X283458Y-59931D01*
X283178Y-59523D01*
X282922Y-59191D01*
X282766Y-59017D01*
X283356Y-58426D01*
X282795Y-57814D01*
X282177Y-58432D01*
X282514Y-58732D01*
Y-58757D01*
X282565Y-58783D01*
X282693Y-58936D01*
X282766Y-59017D01*
X281752Y-60033D01*
X280575D01*
X278713Y-61895D01*
X278586Y-61997D01*
X278535Y-62023D01*
Y-62048D01*
X278517Y-62092D01*
X276791Y-63818D01*
X276749Y-63630D01*
X276724Y-63400D01*
X276698Y-63196D01*
Y-63043D01*
Y-62915D01*
Y-62890D01*
X276724Y-62507D01*
X276775Y-62150D01*
X276851Y-61844D01*
X276928Y-61589D01*
X277004Y-61359D01*
X277081Y-61206D01*
X277132Y-61104D01*
X277157Y-61079D01*
X277310Y-60849D01*
X277514Y-60645D01*
X277693Y-60492D01*
X277871Y-60365D01*
X278025Y-60263D01*
X278152Y-60211D01*
X278254Y-60160D01*
X278280D01*
X278484Y-60109D01*
X278739Y-60084D01*
X279045Y-60058D01*
X279377D01*
X279683Y-60033D01*
X280575D01*
X282177Y-58432D01*
X282055Y-58324D01*
X281596Y-57941D01*
X281137Y-57635D01*
X280703Y-57380D01*
X280320Y-57176D01*
X280014Y-57023D01*
X279912Y-56972D01*
X279836Y-56921D01*
X279785Y-56895D01*
X279759D01*
X279147Y-56665D01*
X278560Y-56487D01*
X277999Y-56385D01*
X277463Y-56283D01*
X277030Y-56232D01*
X276851D01*
X276698Y-56206D01*
D02*
G37*
%LPD*%
G36*
X282718Y-69318D02*
X281111D01*
Y-65773D01*
X279683D01*
X279326Y-65747D01*
X279045D01*
X278815Y-65722D01*
X278637Y-65696D01*
X278535D01*
X278458Y-65671D01*
X278433D01*
X278101Y-65543D01*
X277846Y-65416D01*
X277744Y-65339D01*
X277667Y-65288D01*
X277642Y-65237D01*
X277616D01*
X277336Y-64931D01*
X277137Y-64657D01*
X275652Y-66144D01*
Y-69318D01*
X274249D01*
Y-68324D01*
X274096Y-68528D01*
X273968Y-68706D01*
X273815Y-68859D01*
X273688Y-68961D01*
X273586Y-69063D01*
X273509Y-69114D01*
X273458Y-69140D01*
X273433Y-69165D01*
X273254Y-69267D01*
X273050Y-69344D01*
X272744Y-69420D01*
X272616Y-69446D01*
X272514Y-69472D01*
X272438D01*
X272339Y-69464D01*
X270580Y-71227D01*
X270269Y-70951D01*
X270244Y-70926D01*
X270218Y-70900D01*
X270091Y-70747D01*
X269982Y-70626D01*
X271460Y-69149D01*
X271264Y-69012D01*
X271086Y-68859D01*
X270933Y-68706D01*
X270831Y-68604D01*
X270805Y-68553D01*
X270576Y-68171D01*
X270397Y-67737D01*
X270269Y-67303D01*
X270167Y-66869D01*
X270116Y-66487D01*
Y-66334D01*
X270091Y-66181D01*
Y-66053D01*
Y-65977D01*
Y-65926D01*
Y-65900D01*
X270116Y-65288D01*
X270193Y-64778D01*
X270321Y-64344D01*
X270423Y-63961D01*
X270550Y-63681D01*
X270678Y-63477D01*
X270754Y-63375D01*
X270780Y-63324D01*
X271035Y-63017D01*
X271315Y-62814D01*
X271596Y-62660D01*
X271851Y-62533D01*
X272106Y-62482D01*
X272285Y-62456D01*
X272412Y-62431D01*
X272463D01*
X272820Y-62456D01*
X273127Y-62558D01*
X273433Y-62711D01*
X273662Y-62890D01*
X273866Y-63069D01*
X274020Y-63222D01*
X274121Y-63324D01*
X274147Y-63375D01*
Y-60033D01*
X275652D01*
Y-64956D01*
X274136Y-66473D01*
X274147Y-66359D01*
X274172Y-66130D01*
X274198Y-65951D01*
Y-65824D01*
Y-65773D01*
X274172Y-65441D01*
X274121Y-65135D01*
X274071Y-64880D01*
X273994Y-64676D01*
X273917Y-64497D01*
X273841Y-64395D01*
X273815Y-64319D01*
X273790Y-64293D01*
X273662Y-64140D01*
X273535Y-64038D01*
X273382Y-63936D01*
X273229Y-63885D01*
X273076Y-63859D01*
X272973Y-63834D01*
X272871D01*
X272667Y-63859D01*
X272489Y-63910D01*
X272361Y-63987D01*
X272234Y-64063D01*
X272132Y-64140D01*
X272055Y-64217D01*
X272030Y-64267D01*
X272004Y-64293D01*
X271877Y-64523D01*
X271775Y-64778D01*
X271724Y-65058D01*
X271673Y-65313D01*
X271647Y-65569D01*
X271621Y-65773D01*
Y-65926D01*
Y-65951D01*
Y-65977D01*
X271647Y-66385D01*
X271698Y-66716D01*
X271749Y-66972D01*
X271826Y-67201D01*
X271877Y-67354D01*
X271953Y-67482D01*
X271979Y-67533D01*
X272004Y-67558D01*
X272132Y-67711D01*
X272285Y-67839D01*
X272412Y-67915D01*
X272540Y-67992D01*
X272604Y-68005D01*
X274136Y-66473D01*
X274121Y-66614D01*
X274071Y-66895D01*
X273994Y-67150D01*
X273892Y-67380D01*
X273866Y-67405D01*
X273815Y-67482D01*
X273739Y-67609D01*
X273611Y-67737D01*
X273484Y-67864D01*
X273280Y-67967D01*
X273076Y-68043D01*
X272744D01*
X272667Y-68018D01*
X272604Y-68005D01*
X271460Y-69149D01*
X271519Y-69191D01*
X271800Y-69344D01*
X272106Y-69446D01*
X272339Y-69464D01*
X275652Y-66144D01*
Y-64956D01*
X276791Y-63818D01*
X276800Y-63859D01*
X276877Y-64089D01*
X276953Y-64319D01*
Y-64344D01*
X277004Y-64421D01*
X277055Y-64523D01*
X277132Y-64650D01*
X277137Y-64657D01*
X278399Y-63392D01*
X278356Y-63222D01*
X278331Y-62915D01*
Y-62890D01*
Y-62839D01*
Y-62737D01*
X278356Y-62635D01*
X278407Y-62354D01*
X278517Y-62092D01*
X278713Y-61895D01*
X278943Y-61768D01*
X279223Y-61665D01*
X279249D01*
X279326Y-61640D01*
X279479Y-61615D01*
X280173D01*
X281752Y-60033D01*
X282718D01*
Y-69318D01*
D02*
G37*
%LPC*%
G36*
X281111Y-61615D02*
X280173D01*
X278399Y-63392D01*
X278407Y-63426D01*
X278458Y-63579D01*
X278484Y-63604D01*
Y-63630D01*
X278662Y-63834D01*
X278841Y-63961D01*
X278968Y-64063D01*
X278994Y-64089D01*
X279019D01*
X279147Y-64140D01*
X279300Y-64166D01*
X279504Y-64191D01*
X279734D01*
X279938Y-64217D01*
X281111D01*
Y-61615D01*
D02*
G37*
G36*
X252975Y-54682D02*
X251510D01*
Y-55032D01*
X252975D01*
Y-54682D01*
D02*
G37*
G36*
X253522Y-54923D02*
X253391D01*
Y-55382D01*
X251116D01*
Y-54966D01*
X250898Y-55010D01*
X250701Y-55032D01*
X250526Y-55076D01*
X250395Y-55098D01*
X250285Y-55142D01*
X250198Y-55163D01*
X250154Y-55185D01*
X250132D01*
X249892Y-55273D01*
X249717Y-55360D01*
X249607Y-55426D01*
X249564Y-55448D01*
X249432Y-55535D01*
X249367Y-55623D01*
X249323Y-55666D01*
X249301Y-55688D01*
X249236Y-55754D01*
X249214Y-55798D01*
X249192Y-55819D01*
Y-55841D01*
X254638D01*
Y-55076D01*
X254441Y-55032D01*
X254244Y-54988D01*
X254025Y-54966D01*
X253828Y-54945D01*
X253653D01*
X253522Y-54923D01*
D02*
G37*
G36*
X255490Y-55382D02*
Y-55841D01*
X255928D01*
X255906Y-55776D01*
X255884Y-55732D01*
X255862Y-55688D01*
X255840Y-55666D01*
X255753Y-55557D01*
X255622Y-55470D01*
X255534Y-55404D01*
X255490Y-55382D01*
D02*
G37*
G36*
X248252Y-57503D02*
Y-58422D01*
X248908D01*
Y-58181D01*
X248252Y-57503D01*
D02*
G37*
G36*
X255862Y-56344D02*
X249170D01*
X249214Y-57132D01*
X249454D01*
Y-58160D01*
X250613Y-59297D01*
Y-58772D01*
X253435D01*
Y-59712D01*
X250963D01*
X252735Y-61528D01*
X255687Y-58313D01*
X255862Y-56344D01*
D02*
G37*
G36*
X255644Y-59013D02*
X253019Y-61812D01*
X255228Y-64043D01*
X255644Y-59013D01*
D02*
G37*
G36*
X249454Y-58728D02*
Y-58794D01*
X249411D01*
X249892Y-64589D01*
X252472Y-61812D01*
X249454Y-58728D01*
D02*
G37*
G36*
X252757Y-62096D02*
X249957Y-65158D01*
X250001Y-65574D01*
X250198Y-65595D01*
X250351Y-65661D01*
X250504Y-65727D01*
X250635Y-65792D01*
X250745Y-65858D01*
X250832Y-65923D01*
X250876Y-65967D01*
X250898Y-65989D01*
X251007Y-66120D01*
X251095Y-66273D01*
X251160Y-66426D01*
X251204Y-66580D01*
X251226Y-66711D01*
X251248Y-66820D01*
Y-66886D01*
Y-66908D01*
X251226Y-66973D01*
Y-66995D01*
Y-67017D01*
X251204Y-67104D01*
Y-67126D01*
X254966D01*
X255162Y-64589D01*
X252757Y-62096D01*
D02*
G37*
G36*
X249892Y-66164D02*
X249848D01*
X249629Y-66208D01*
X249476Y-66273D01*
X249389Y-66339D01*
X249345Y-66383D01*
X249214Y-66558D01*
X249148Y-66733D01*
X249126Y-66864D01*
Y-66886D01*
Y-66908D01*
X249170Y-67126D01*
X249236Y-67301D01*
X249301Y-67411D01*
X249345Y-67432D01*
Y-67454D01*
X249498Y-67585D01*
X249673Y-67651D01*
X249804Y-67673D01*
X249848D01*
X250067Y-67629D01*
X250242Y-67564D01*
X250351Y-67498D01*
X250373Y-67454D01*
X250395D01*
X250526Y-67257D01*
X250592Y-67083D01*
X250613Y-66951D01*
Y-66929D01*
Y-66908D01*
X250592Y-66798D01*
X250570Y-66689D01*
X250482Y-66536D01*
X250417Y-66426D01*
X250373Y-66383D01*
X250198Y-66251D01*
X250023Y-66186D01*
X249892Y-66164D01*
D02*
G37*
%LPD*%
G36*
X249979Y-66492D02*
X250089Y-66536D01*
X250176Y-66580D01*
X250198Y-66601D01*
X250285Y-66711D01*
X250329Y-66798D01*
X250351Y-66886D01*
Y-66908D01*
X250329Y-67039D01*
X250264Y-67148D01*
X250220Y-67236D01*
X250198Y-67257D01*
X250089Y-67345D01*
X249957Y-67389D01*
X249870Y-67411D01*
X249848D01*
X249695Y-67367D01*
X249586Y-67323D01*
X249520Y-67236D01*
X249454Y-67148D01*
X249432Y-67061D01*
X249411Y-66973D01*
Y-66929D01*
Y-66908D01*
X249432Y-66776D01*
X249476Y-66689D01*
X249520Y-66623D01*
X249542Y-66601D01*
X249651Y-66514D01*
X249739Y-66492D01*
X249826Y-66470D01*
X249848D01*
X249979Y-66492D01*
D02*
G37*
D10*
X338671Y-120235D02*
G03*
X338671Y-120235I-3828J0D01*
G01*
Y-134077D02*
G03*
X338671Y-134077I-3828J0D01*
G01*
X328829D02*
G03*
X328829Y-134077I-3828J0D01*
G01*
Y-120235D02*
G03*
X328829Y-120235I-3828J0D01*
G01*
Y-106394D02*
G03*
X328829Y-106394I-3828J0D01*
G01*
X338671D02*
G03*
X338671Y-106394I-3828J0D01*
G01*
X328829Y-92894D02*
G03*
X328829Y-92894I-3828J0D01*
G01*
X338671D02*
G03*
X338671Y-92894I-3828J0D01*
G01*
X328829Y-78894D02*
G03*
X328829Y-78894I-3828J0D01*
G01*
X338671D02*
G03*
X338671Y-78894I-3828J0D01*
G01*
X328829Y-65394D02*
G03*
X328829Y-65394I-3828J0D01*
G01*
X338671D02*
G03*
X338671Y-65394I-3828J0D01*
G01*
X328829Y-51394D02*
G03*
X328829Y-51394I-3828J0D01*
G01*
X338671D02*
G03*
X338671Y-51394I-3828J0D01*
G01*
Y-37894D02*
G03*
X338671Y-37894I-3828J0D01*
G01*
X328829D02*
G03*
X328829Y-37894I-3828J0D01*
G01*
X59242Y-41929D02*
G03*
X59242Y-41929I-3828J0D01*
G01*
X69084D02*
G03*
X69084Y-41929I-3828J0D01*
G01*
X59242Y-55709D02*
G03*
X59242Y-55709I-3828J0D01*
G01*
X69084D02*
G03*
X69084Y-55709I-3828J0D01*
G01*
X59242Y-69488D02*
G03*
X59242Y-69488I-3828J0D01*
G01*
X69084D02*
G03*
X69084Y-69488I-3828J0D01*
G01*
X59242Y-83268D02*
G03*
X59242Y-83268I-3828J0D01*
G01*
X69084D02*
G03*
X69084Y-83268I-3828J0D01*
G01*
X59242Y-97047D02*
G03*
X59242Y-97047I-3828J0D01*
G01*
X69084D02*
G03*
X69084Y-97047I-3828J0D01*
G01*
X59242Y-110827D02*
G03*
X59242Y-110827I-3828J0D01*
G01*
X69084D02*
G03*
X69084Y-110827I-3828J0D01*
G01*
Y-124327D02*
G03*
X69084Y-124327I-3828J0D01*
G01*
X59242D02*
G03*
X59242Y-124327I-3828J0D01*
G01*
X69084Y-138327D02*
G03*
X69084Y-138327I-3828J0D01*
G01*
X59242D02*
G03*
X59242Y-138327I-3828J0D01*
G01*
X69084Y-151827D02*
G03*
X69084Y-151827I-3828J0D01*
G01*
X59242D02*
G03*
X59242Y-151827I-3828J0D01*
G01*
X69084Y-165827D02*
G03*
X69084Y-165827I-3828J0D01*
G01*
X59242D02*
G03*
X59242Y-165827I-3828J0D01*
G01*
X69084Y-179327D02*
G03*
X69084Y-179327I-3828J0D01*
G01*
X59242D02*
G03*
X59242Y-179327I-3828J0D01*
G01*
X69084Y-193327D02*
G03*
X69084Y-193327I-3828J0D01*
G01*
X59242D02*
G03*
X59242Y-193327I-3828J0D01*
G01*
X294291Y-40356D02*
Y-44291D01*
X292323D01*
X291668Y-43635D01*
Y-42979D01*
X292323Y-42323D01*
X294291D01*
X292323D01*
X291668Y-41668D01*
Y-41012D01*
X292323Y-40356D01*
X294291D01*
X289700Y-41668D02*
X288388D01*
X287732Y-42323D01*
Y-44291D01*
X289700D01*
X290356Y-43635D01*
X289700Y-42979D01*
X287732D01*
X286420Y-41668D02*
Y-44291D01*
Y-42979D01*
X285764Y-42323D01*
X285108Y-41668D01*
X284452D01*
X280516Y-44291D02*
X281828D01*
X282484Y-43635D01*
Y-42323D01*
X281828Y-41668D01*
X280516D01*
X279860Y-42323D01*
Y-42979D01*
X282484D01*
X278548Y-44291D02*
Y-40356D01*
X277237Y-41668D01*
X275925Y-40356D01*
Y-44291D01*
X272645D02*
X273957D01*
X274613Y-43635D01*
Y-42323D01*
X273957Y-41668D01*
X272645D01*
X271989Y-42323D01*
Y-42979D01*
X274613D01*
X270021Y-41012D02*
Y-41668D01*
X270677D01*
X269365D01*
X270021D01*
Y-43635D01*
X269365Y-44291D01*
X266741Y-41668D02*
X265429D01*
X264773Y-42323D01*
Y-44291D01*
X266741D01*
X267397Y-43635D01*
X266741Y-42979D01*
X264773D01*
X263461Y-44291D02*
X262150D01*
X262805D01*
Y-40356D01*
X263461D01*
X256246Y-44291D02*
Y-40356D01*
X254278D01*
X253622Y-41012D01*
Y-42323D01*
X254278Y-42979D01*
X256246D01*
X252310Y-40356D02*
Y-44291D01*
X249686D01*
X245751Y-41012D02*
X246407Y-40356D01*
X247718D01*
X248374Y-41012D01*
Y-43635D01*
X247718Y-44291D01*
X246407D01*
X245751Y-43635D01*
X240503Y-42323D02*
X237879D01*
X232631Y-44291D02*
Y-40356D01*
X231319Y-41668D01*
X230008Y-40356D01*
Y-44291D01*
X294291Y-47245D02*
Y-51181D01*
Y-49213D01*
X291668D01*
Y-47245D01*
Y-51181D01*
X290356Y-47245D02*
Y-51181D01*
X289044Y-49869D01*
X287732Y-51181D01*
Y-47245D01*
X282484Y-47901D02*
X281828Y-47245D01*
X280516D01*
X279860Y-47901D01*
Y-50525D01*
X280516Y-51181D01*
X281828D01*
X282484Y-50525D01*
Y-47901D01*
X278548Y-51181D02*
Y-50525D01*
X277892D01*
Y-51181D01*
X278548D01*
X275269D02*
X273957D01*
X274613D01*
Y-47245D01*
X275269Y-47901D01*
X271989Y-51181D02*
Y-50525D01*
X271333D01*
Y-51181D01*
X271989D01*
X268709Y-47901D02*
X268053Y-47245D01*
X266741D01*
X266085Y-47901D01*
Y-50525D01*
X266741Y-51181D01*
X268053D01*
X268709Y-50525D01*
Y-47901D01*
D20*
X275051Y-33165D02*
X282651D01*
X274951Y-33265D02*
X282651D01*
X274951Y-33365D02*
X282551D01*
X274851Y-33465D02*
X282551D01*
X274851Y-33565D02*
X282451D01*
X274751Y-33665D02*
X282451D01*
X274651Y-33765D02*
X282351D01*
X274651Y-33865D02*
X282351D01*
X274551Y-33965D02*
X282251D01*
X274551Y-34065D02*
X282251D01*
X274451Y-34165D02*
X282151D01*
X274451Y-34265D02*
X282151D01*
X274351Y-34365D02*
X282051D01*
X274351Y-34465D02*
X282051D01*
X274251Y-34565D02*
X281951D01*
X274251Y-34665D02*
X281951D01*
X273351Y-27065D02*
X294551D01*
X282951Y-19965D02*
X283351D01*
X282851Y-19665D02*
X283451D01*
X282951Y-19765D02*
X283351D01*
X282951Y-19865D02*
X283351D01*
X282951Y-20365D02*
X283351D01*
X282951Y-20265D02*
X283351D01*
X282951Y-20165D02*
X283351D01*
X282951Y-20065D02*
X283351D01*
X282651Y-19465D02*
X283551D01*
X282751Y-19565D02*
X283451D01*
X275951Y-31465D02*
X284351D01*
X274051Y-19465D02*
X282151D01*
X273951Y-19565D02*
X282051D01*
X273851Y-19665D02*
X282051D01*
X273751Y-19765D02*
X281951D01*
X273651Y-19865D02*
X281951D01*
X273651Y-19965D02*
X281951D01*
X273551Y-20065D02*
X281951D01*
X273451Y-20265D02*
X281951D01*
X273451Y-20165D02*
X281951D01*
X273351Y-20365D02*
X281951D01*
X273351Y-26965D02*
X281851D01*
X273351Y-26865D02*
X281551D01*
X273251Y-26765D02*
X281351D01*
X273251Y-26665D02*
X281251D01*
X273251Y-26565D02*
X281151D01*
X273251Y-26465D02*
X281051D01*
X273251Y-26365D02*
X280951D01*
X273151Y-26265D02*
X280851D01*
X273151Y-26165D02*
X280851D01*
X273151Y-25965D02*
X280751D01*
X273351Y-20465D02*
X280551D01*
X273251Y-20765D02*
X280551D01*
X273251Y-20665D02*
X280551D01*
X273251Y-20565D02*
X280551D01*
X273251Y-20865D02*
X280551D01*
X273251Y-20965D02*
X280551D01*
X273151Y-22765D02*
X280551D01*
X273151Y-22065D02*
X280551D01*
X273151Y-21765D02*
X280551D01*
X273151Y-21865D02*
X280551D01*
X273151Y-21965D02*
X280551D01*
X273151Y-21665D02*
X280551D01*
X273151Y-22365D02*
X280551D01*
X273151Y-21565D02*
X280551D01*
X273151Y-21365D02*
X280551D01*
X273151Y-21265D02*
X280551D01*
X273151Y-22165D02*
X280551D01*
X273151Y-21465D02*
X280551D01*
X273151Y-22265D02*
X280551D01*
X273151Y-21165D02*
X280551D01*
X273151Y-21065D02*
X280551D01*
X273151Y-22465D02*
X280551D01*
X273151Y-22565D02*
X280551D01*
X273151Y-22665D02*
X280551D01*
X273151Y-22865D02*
X280551D01*
X273151Y-22965D02*
X280551D01*
X273151Y-26065D02*
X280751D01*
X273151Y-25565D02*
X280651D01*
X273151Y-25765D02*
X280651D01*
X273151Y-25865D02*
X280651D01*
X273151Y-25665D02*
X280651D01*
X273151Y-23065D02*
X280551D01*
X273151Y-23165D02*
X280551D01*
X273151Y-23265D02*
X280551D01*
X273151Y-23365D02*
X280551D01*
X273151Y-23465D02*
X280551D01*
X273151Y-23565D02*
X280551D01*
X273151Y-23665D02*
X280551D01*
X273151Y-23765D02*
X280551D01*
X273151Y-23865D02*
X280551D01*
X273151Y-23965D02*
X280551D01*
X273151Y-24065D02*
X280551D01*
X273151Y-24165D02*
X280551D01*
X273151Y-24265D02*
X280551D01*
X273151Y-24365D02*
X280551D01*
X273151Y-24465D02*
X280551D01*
X273151Y-24565D02*
X280551D01*
X273151Y-24665D02*
X280551D01*
X273151Y-24765D02*
X280551D01*
X273151Y-24865D02*
X280551D01*
X273151Y-24965D02*
X280551D01*
X273151Y-25065D02*
X280551D01*
X273151Y-25165D02*
X280551D01*
X273151Y-25265D02*
X280551D01*
X273151Y-25365D02*
X280551D01*
X273151Y-25465D02*
X280551D01*
X274151Y-34765D02*
X281951D01*
X274051Y-34865D02*
X281851D01*
X274051Y-34965D02*
X281851D01*
X273951Y-35065D02*
X281751D01*
X273951Y-35165D02*
X281751D01*
X273951Y-35265D02*
X281651D01*
X273851Y-35365D02*
X281651D01*
X273851Y-35465D02*
X281551D01*
X273851Y-35565D02*
X281551D01*
X273851Y-35665D02*
X281451D01*
X273851Y-35765D02*
X281451D01*
X273851Y-35865D02*
X281351D01*
X273851Y-35965D02*
X281351D01*
X273851Y-36165D02*
X281251D01*
X273851Y-36065D02*
X281251D01*
X273851Y-36365D02*
X281151D01*
X275351Y-37965D02*
X279551D01*
X273851Y-36265D02*
X281151D01*
X274051Y-36865D02*
X280951D01*
X273851Y-36465D02*
X281051D01*
X273851Y-36565D02*
X281051D01*
X273951Y-36665D02*
X280951D01*
X273951Y-36765D02*
X280951D01*
X274051Y-36965D02*
X280851D01*
X274151Y-37065D02*
X280751D01*
X274151Y-37165D02*
X280751D01*
X274251Y-37265D02*
X280651D01*
X274351Y-37365D02*
X280551D01*
X274451Y-37465D02*
X280451D01*
X274551Y-37565D02*
X280351D01*
X274651Y-37665D02*
X280251D01*
X274851Y-37765D02*
X280051D01*
X275051Y-37865D02*
X279851D01*
X275851Y-31565D02*
X284051D01*
X275851Y-31665D02*
X283851D01*
X275751Y-31765D02*
X283651D01*
X275751Y-31865D02*
X283551D01*
X275651Y-31965D02*
X283351D01*
X275651Y-32065D02*
X283251D01*
X275551Y-32165D02*
X283251D01*
X275551Y-32265D02*
X283151D01*
X275451Y-32365D02*
X283051D01*
X275351Y-32465D02*
X283051D01*
X275351Y-32565D02*
X282951D01*
X275251Y-32665D02*
X282951D01*
X275251Y-32765D02*
X282851D01*
X275151Y-32865D02*
X282851D01*
X275151Y-32965D02*
X282751D01*
X275051Y-33065D02*
X282751D01*
X288151Y-22465D02*
X294551D01*
X288151Y-22565D02*
X294551D01*
X288051Y-22665D02*
X294551D01*
X288151Y-23565D02*
X294551D01*
X288151Y-23665D02*
X294551D01*
X288151Y-23765D02*
X294551D01*
X288151Y-23865D02*
X294551D01*
X288151Y-23965D02*
X294551D01*
X288051Y-24065D02*
X294551D01*
X288151Y-24965D02*
X294551D01*
X288151Y-25065D02*
X294551D01*
X288151Y-25165D02*
X294551D01*
X288151Y-25265D02*
X294551D01*
X288151Y-25365D02*
X294551D01*
X287151Y-21465D02*
X294551D01*
X287151Y-21565D02*
X294551D01*
X287151Y-21665D02*
X294551D01*
X287151Y-21765D02*
X294551D01*
X287151Y-21865D02*
X294551D01*
X287951Y-21965D02*
X294551D01*
X287951Y-22765D02*
X294551D01*
X287151Y-22865D02*
X294551D01*
X287151Y-22965D02*
X294551D01*
X287151Y-23065D02*
X294551D01*
X287951Y-23365D02*
X294551D01*
X288051Y-23465D02*
X294551D01*
X287951Y-24165D02*
X294551D01*
X287151Y-24265D02*
X294551D01*
X287151Y-24365D02*
X294551D01*
X287151Y-24465D02*
X294551D01*
X287151Y-24565D02*
X294551D01*
X287151Y-24665D02*
X294551D01*
X287951Y-24765D02*
X294551D01*
X288051Y-24865D02*
X294551D01*
X288051Y-25465D02*
X294551D01*
X287951Y-25565D02*
X294551D01*
X287151Y-25665D02*
X294551D01*
X287151Y-25765D02*
X294551D01*
X287151Y-25865D02*
X294551D01*
X287151Y-25965D02*
X294551D01*
X287151Y-26065D02*
X294551D01*
X287151Y-26165D02*
X294551D01*
X287151Y-26265D02*
X294551D01*
X287151Y-26365D02*
X294551D01*
X287151Y-26465D02*
X294551D01*
X287151Y-26565D02*
X294551D01*
X287151Y-26665D02*
X294551D01*
X287151Y-26765D02*
X294551D01*
X287151Y-26865D02*
X294551D01*
X287151Y-26965D02*
X294551D01*
X287151Y-34065D02*
X294551D01*
X287151Y-21365D02*
X294551D01*
X287151Y-23165D02*
X294551D01*
X287151Y-23265D02*
X294551D01*
X276051Y-30265D02*
X294551D01*
X276051Y-30365D02*
X294551D01*
X276051Y-30465D02*
X294551D01*
X276051Y-30565D02*
X294551D01*
X276051Y-30665D02*
X294551D01*
X276051Y-30765D02*
X294551D01*
X276051Y-30865D02*
X294551D01*
X276051Y-30965D02*
X294551D01*
X276051Y-31065D02*
X294551D01*
X276051Y-31165D02*
X294551D01*
X276051Y-31265D02*
X294551D01*
X285451Y-31465D02*
X294551D01*
X285851Y-31565D02*
X294551D01*
X286051Y-31665D02*
X294551D01*
X286251Y-31765D02*
X294551D01*
X286351Y-31865D02*
X294551D01*
X286451Y-31965D02*
X294551D01*
X286551Y-32065D02*
X294551D01*
X286651Y-32165D02*
X294551D01*
X286751Y-32265D02*
X294551D01*
X286751Y-32365D02*
X294551D01*
X286851Y-32465D02*
X294551D01*
X286951Y-32565D02*
X294551D01*
X286951Y-32665D02*
X294551D01*
X286951Y-32765D02*
X294551D01*
X287051Y-32865D02*
X294551D01*
X287051Y-32965D02*
X294551D01*
X287051Y-33065D02*
X294551D01*
X287051Y-33165D02*
X294551D01*
X273451Y-27165D02*
X294551D01*
X273551Y-27265D02*
X294551D01*
X273551Y-27365D02*
X294551D01*
X273651Y-27465D02*
X294551D01*
X273751Y-27565D02*
X294551D01*
X273851Y-27665D02*
X294551D01*
X273951Y-27765D02*
X294551D01*
X274051Y-27865D02*
X294551D01*
X274151Y-27965D02*
X294551D01*
X274251Y-28065D02*
X294551D01*
X274351Y-28165D02*
X294551D01*
X274451Y-28265D02*
X294551D01*
X274551Y-28365D02*
X294551D01*
X274651Y-28465D02*
X294551D01*
X274751Y-28565D02*
X294551D01*
X274851Y-28665D02*
X294551D01*
X274951Y-28765D02*
X294551D01*
X275051Y-28865D02*
X294551D01*
X275151Y-28965D02*
X294551D01*
X275251Y-29065D02*
X294551D01*
X275351Y-29165D02*
X294551D01*
X275451Y-29265D02*
X294551D01*
X275551Y-29365D02*
X294551D01*
X275651Y-29465D02*
X294551D01*
X275751Y-29565D02*
X294551D01*
X275751Y-29665D02*
X294551D01*
X275851Y-29765D02*
X294551D01*
X275851Y-29865D02*
X294551D01*
X275951Y-29965D02*
X294551D01*
X275951Y-30065D02*
X294551D01*
X276051Y-30165D02*
X294551D01*
X275951Y-31365D02*
X294551D01*
X287051Y-33265D02*
X294551D01*
X287151Y-33365D02*
X294551D01*
X287151Y-33465D02*
X294551D01*
X287151Y-33565D02*
X294551D01*
X287151Y-33665D02*
X294551D01*
X287151Y-33765D02*
X294551D01*
X287151Y-33865D02*
X294551D01*
X287151Y-33965D02*
X294551D01*
X287151Y-34165D02*
X294551D01*
X287151Y-34265D02*
X294551D01*
X287151Y-34365D02*
X294551D01*
X287151Y-34465D02*
X294551D01*
X287151Y-34565D02*
X294551D01*
X287151Y-34665D02*
X294551D01*
X287151Y-34765D02*
X294551D01*
X287151Y-34865D02*
X294551D01*
X287151Y-34965D02*
X294551D01*
X287151Y-35065D02*
X294551D01*
X287151Y-35165D02*
X294551D01*
X287151Y-35265D02*
X294551D01*
X287151Y-35365D02*
X294551D01*
X287151Y-35465D02*
X294551D01*
X287151Y-35565D02*
X294551D01*
X287151Y-35665D02*
X294551D01*
X287151Y-35765D02*
X294551D01*
X287151Y-35865D02*
X294551D01*
X287151Y-35965D02*
X294551D01*
X287151Y-36065D02*
X294551D01*
X287151Y-36165D02*
X294551D01*
X287451Y-37065D02*
X294251D01*
X287951Y-37665D02*
X293651D01*
X288351Y-37865D02*
X293251D01*
X287151Y-36365D02*
X294451D01*
X287851Y-37565D02*
X293751D01*
X287251Y-36665D02*
X294351D01*
X288151Y-37765D02*
X293451D01*
X287451Y-37165D02*
X294151D01*
X287151Y-36465D02*
X294451D01*
X287551Y-37265D02*
X294051D01*
X287151Y-36565D02*
X294451D01*
X287351Y-36965D02*
X294251D01*
X287651Y-37365D02*
X293951D01*
X287751Y-37465D02*
X293851D01*
X287151Y-36265D02*
X294451D01*
X287251Y-36765D02*
X294351D01*
X288651Y-37965D02*
X292951D01*
X287251Y-36865D02*
X294351D01*
X288051Y-22065D02*
X294551D01*
X288151Y-22165D02*
X294551D01*
X288151Y-22265D02*
X294551D01*
X288151Y-22365D02*
X294551D01*
X284051Y-19465D02*
X284951D01*
X284151Y-19565D02*
X284851D01*
X284251Y-19665D02*
X284751D01*
X284251Y-19765D02*
X284751D01*
X284351Y-19865D02*
X284751D01*
X284351Y-19965D02*
X284751D01*
X284351Y-20065D02*
X284751D01*
X284351Y-20165D02*
X284751D01*
X284351Y-20265D02*
X284751D01*
X284351Y-20365D02*
X284751D01*
X277751Y-16065D02*
X293151D01*
X277551Y-16165D02*
X293351D01*
X277351Y-16265D02*
X293551D01*
X277251Y-16365D02*
X293751D01*
X277051Y-16465D02*
X293851D01*
X276951Y-16565D02*
X293951D01*
X276851Y-16665D02*
X294051D01*
X276751Y-16765D02*
X294151D01*
X276651Y-16865D02*
X294151D01*
X276551Y-16965D02*
X294251D01*
X276451Y-17065D02*
X294251D01*
X278351Y-15965D02*
X292551D01*
X276351Y-17165D02*
X294351D01*
X276251Y-17265D02*
X294351D01*
X276151Y-17365D02*
X294451D01*
X276051Y-17465D02*
X294451D01*
X285451Y-19465D02*
X294551D01*
X285551Y-19565D02*
X294551D01*
X285651Y-19665D02*
X294551D01*
X275951Y-17565D02*
X294451D01*
X275851Y-17665D02*
X294451D01*
X275751Y-17765D02*
X294551D01*
X275651Y-17865D02*
X294551D01*
X275551Y-17965D02*
X294551D01*
X275451Y-18065D02*
X294551D01*
X275351Y-18165D02*
X294551D01*
X275251Y-18265D02*
X294551D01*
X275151Y-18365D02*
X294551D01*
X275051Y-18465D02*
X294551D01*
X274951Y-18565D02*
X294551D01*
X274851Y-18665D02*
X294551D01*
X274751Y-18765D02*
X294551D01*
X285651Y-19765D02*
X294551D01*
X274551Y-18965D02*
X294551D01*
X274451Y-19065D02*
X294551D01*
X274351Y-19165D02*
X294551D01*
X274251Y-19265D02*
X294551D01*
X274151Y-19365D02*
X294551D01*
X274651Y-18865D02*
X294551D01*
X285751Y-19965D02*
X294551D01*
X285751Y-19865D02*
X294551D01*
X285751Y-20065D02*
X294551D01*
X285751Y-20165D02*
X294551D01*
X285751Y-20265D02*
X294551D01*
X285751Y-20365D02*
X294551D01*
X287151Y-20465D02*
X294551D01*
X287151Y-20565D02*
X294551D01*
X287151Y-20665D02*
X294551D01*
X287151Y-20765D02*
X294551D01*
X287151Y-20865D02*
X294551D01*
X287151Y-20965D02*
X294551D01*
X287151Y-21065D02*
X294551D01*
X287151Y-21165D02*
X294551D01*
X287151Y-21265D02*
X294551D01*
D21*
X321041Y-140125D02*
X339741D01*
X320768Y-113189D02*
X339469D01*
X320768Y-85630D02*
X339469D01*
X320768Y-58071D02*
X339469D01*
X320768Y-31201D02*
X339469D01*
X60236Y-104331D02*
X70079D01*
X50394D02*
X60236D01*
Y-198031D02*
Y-104331D01*
X50394Y-90551D02*
X60236D01*
X70079D01*
X50394Y-76378D02*
X60236D01*
X70079D01*
X50394Y-62992D02*
X60236D01*
X70079D01*
X50394Y-48819D02*
X60236D01*
X70079D01*
X50394Y-35039D02*
X60236D01*
X70079D01*
X327309Y-121735D02*
Y-118980D01*
X325932D01*
X325473Y-119439D01*
Y-120358D01*
X325932Y-120817D01*
X327309D01*
X326391D02*
X325473Y-121735D01*
X324554Y-118980D02*
X322718Y-121735D01*
Y-118980D02*
X324554Y-121735D01*
X327309Y-107994D02*
Y-105239D01*
X325932D01*
X325473Y-105699D01*
Y-106617D01*
X325932Y-107076D01*
X327309D01*
X326391D02*
X325473Y-107994D01*
X324554D02*
Y-106158D01*
X323636Y-105239D01*
X322718Y-106158D01*
Y-107994D01*
Y-106617D01*
X324554D01*
X327309Y-94254D02*
Y-91499D01*
X325932D01*
X325473Y-91958D01*
Y-92876D01*
X325932Y-93336D01*
X327309D01*
X326391D02*
X325473Y-94254D01*
X324554Y-91499D02*
Y-94254D01*
X323177D01*
X322718Y-93795D01*
Y-93336D01*
X323177Y-92876D01*
X324554D01*
X323177D01*
X322718Y-92417D01*
Y-91958D01*
X323177Y-91499D01*
X324554D01*
X327309Y-77759D02*
X325473D01*
X326391D01*
Y-80514D01*
X324554Y-77759D02*
Y-80514D01*
X323177D01*
X322718Y-80054D01*
Y-79595D01*
X323177Y-79136D01*
X324554D01*
X323177D01*
X322718Y-78677D01*
Y-78218D01*
X323177Y-77759D01*
X324554D01*
X327309Y-66773D02*
Y-64018D01*
X325932D01*
X325473Y-64477D01*
Y-65396D01*
X325932Y-65855D01*
X327309D01*
X326391D02*
X325473Y-66773D01*
X324554D02*
Y-64936D01*
X323636Y-64018D01*
X322718Y-64936D01*
Y-66773D01*
Y-65396D01*
X324554D01*
X325473Y-50737D02*
X325932Y-50278D01*
X326850D01*
X327309Y-50737D01*
Y-52573D01*
X326850Y-53033D01*
X325932D01*
X325473Y-52573D01*
X324554Y-50278D02*
Y-53033D01*
X322718D01*
X325473Y-36996D02*
X325932Y-36537D01*
X326850D01*
X327309Y-36996D01*
Y-38833D01*
X326850Y-39292D01*
X325932D01*
X325473Y-38833D01*
X324554Y-36537D02*
Y-39292D01*
Y-37915D01*
X322718D01*
Y-36537D01*
Y-39292D01*
X337210Y-118880D02*
X335373D01*
X336291D01*
Y-121635D01*
X334454Y-118880D02*
X332618Y-121635D01*
Y-118880D02*
X334454Y-121635D01*
X337210Y-107895D02*
Y-105140D01*
X335832D01*
X335373Y-105599D01*
Y-106517D01*
X335832Y-106976D01*
X337210D01*
X336291D02*
X335373Y-107895D01*
X334454D02*
Y-106058D01*
X333536Y-105140D01*
X332618Y-106058D01*
Y-107895D01*
Y-106517D01*
X334454D01*
X337210Y-94154D02*
Y-91399D01*
X335832D01*
X335373Y-91858D01*
Y-92777D01*
X335832Y-93236D01*
X337210D01*
X336291D02*
X335373Y-94154D01*
X334454Y-91399D02*
Y-94154D01*
X333077D01*
X332618Y-93695D01*
Y-93236D01*
X333077Y-92777D01*
X334454D01*
X333077D01*
X332618Y-92317D01*
Y-91858D01*
X333077Y-91399D01*
X334454D01*
X337210Y-77659D02*
X335373D01*
X336291D01*
Y-80414D01*
X334454D02*
Y-78577D01*
X333536Y-77659D01*
X332618Y-78577D01*
Y-80414D01*
Y-79036D01*
X334454D01*
X337210Y-66673D02*
Y-63918D01*
X335832D01*
X335373Y-64377D01*
Y-65296D01*
X335832Y-65755D01*
X337210D01*
X336291D02*
X335373Y-66673D01*
X334454Y-63918D02*
Y-66673D01*
X333077D01*
X332618Y-66214D01*
Y-65755D01*
X333077Y-65296D01*
X334454D01*
X333077D01*
X332618Y-64836D01*
Y-64377D01*
X333077Y-63918D01*
X334454D01*
X335373Y-50637D02*
X335832Y-50178D01*
X336750D01*
X337210Y-50637D01*
Y-52473D01*
X336750Y-52933D01*
X335832D01*
X335373Y-52473D01*
X334454Y-50178D02*
Y-52933D01*
X332618D01*
X335373Y-36896D02*
X335832Y-36437D01*
X336750D01*
X337210Y-36896D01*
Y-38733D01*
X336750Y-39192D01*
X335832D01*
X335373Y-38733D01*
X334454Y-36437D02*
Y-39192D01*
Y-37815D01*
X332618D01*
Y-36437D01*
Y-39192D01*
X56103Y-43307D02*
Y-40552D01*
X57480Y-41930D01*
X55644D01*
X54725Y-43307D02*
X53807D01*
X54266D01*
Y-40552D01*
X54725Y-41011D01*
X66339Y-43307D02*
Y-40552D01*
X67716Y-41930D01*
X65880D01*
X64961Y-41011D02*
X64502Y-40552D01*
X63584D01*
X63125Y-41011D01*
Y-42848D01*
X63584Y-43307D01*
X64502D01*
X64961Y-42848D01*
Y-41011D01*
X57480Y-54791D02*
X57021Y-54332D01*
X56103D01*
X55644Y-54791D01*
Y-55250D01*
X56103Y-55709D01*
X56562D01*
X56103D01*
X55644Y-56168D01*
Y-56627D01*
X56103Y-57087D01*
X57021D01*
X57480Y-56627D01*
X54725Y-57087D02*
X53807D01*
X54266D01*
Y-54332D01*
X54725Y-54791D01*
X67716D02*
X67257Y-54332D01*
X66339D01*
X65880Y-54791D01*
Y-55250D01*
X66339Y-55709D01*
X66798D01*
X66339D01*
X65880Y-56168D01*
Y-56627D01*
X66339Y-57087D01*
X67257D01*
X67716Y-56627D01*
X64961Y-54791D02*
X64502Y-54332D01*
X63584D01*
X63125Y-54791D01*
Y-56627D01*
X63584Y-57087D01*
X64502D01*
X64961Y-56627D01*
Y-54791D01*
X55644Y-70866D02*
X57480D01*
X55644Y-69029D01*
Y-68570D01*
X56103Y-68111D01*
X57021D01*
X57480Y-68570D01*
X54725Y-70866D02*
X53807D01*
X54266D01*
Y-68111D01*
X54725Y-68570D01*
X65486Y-70866D02*
X67323D01*
X65486Y-69029D01*
Y-68570D01*
X65945Y-68111D01*
X66864D01*
X67323Y-68570D01*
X64568D02*
X64109Y-68111D01*
X63190D01*
X62731Y-68570D01*
Y-70407D01*
X63190Y-70866D01*
X64109D01*
X64568Y-70407D01*
Y-68570D01*
X57087Y-84646D02*
X56168D01*
X56627D01*
Y-81891D01*
X57087Y-82350D01*
X54791Y-84646D02*
X53872D01*
X54332D01*
Y-81891D01*
X54791Y-82350D01*
X67323Y-84646D02*
X66404D01*
X66864D01*
Y-81891D01*
X67323Y-82350D01*
X65027D02*
X64568Y-81891D01*
X63649D01*
X63190Y-82350D01*
Y-84187D01*
X63649Y-84646D01*
X64568D01*
X65027Y-84187D01*
Y-82350D01*
X57480Y-96129D02*
X57021Y-95670D01*
X56103D01*
X55644Y-96129D01*
Y-97966D01*
X56103Y-98425D01*
X57021D01*
X57480Y-97966D01*
Y-96129D01*
X54725Y-98425D02*
X53807D01*
X54266D01*
Y-95670D01*
X54725Y-96129D01*
X67323D02*
X66864Y-95670D01*
X65945D01*
X65486Y-96129D01*
Y-97966D01*
X65945Y-98425D01*
X66864D01*
X67323Y-97966D01*
Y-96129D01*
X64568D02*
X64109Y-95670D01*
X63190D01*
X62731Y-96129D01*
Y-97966D01*
X63190Y-98425D01*
X64109D01*
X64568Y-97966D01*
Y-96129D01*
X66245Y-109370D02*
X67164D01*
X67623Y-109829D01*
Y-111666D01*
X67164Y-112125D01*
X66245D01*
X65786Y-111666D01*
Y-109829D01*
X66245Y-109370D01*
X63031Y-109829D02*
X63490Y-109370D01*
X64409D01*
X64868Y-109829D01*
Y-111666D01*
X64409Y-112125D01*
X63490D01*
X63031Y-111666D01*
X57623Y-109470D02*
X56704D01*
X57164D01*
Y-112225D01*
X57623D01*
X56704D01*
X53490Y-109929D02*
X53949Y-109470D01*
X54868D01*
X55327Y-109929D01*
Y-111766D01*
X54868Y-112225D01*
X53949D01*
X53490Y-111766D01*
X66245Y-122770D02*
X67164D01*
X67623Y-123229D01*
Y-125066D01*
X67164Y-125525D01*
X66245D01*
X65786Y-125066D01*
Y-123229D01*
X66245Y-122770D01*
X63490Y-125525D02*
Y-122770D01*
X64868Y-124148D01*
X63031D01*
X57723Y-122870D02*
X56805D01*
X57264D01*
Y-125625D01*
X57723D01*
X56805D01*
X54049D02*
Y-122870D01*
X55427Y-124248D01*
X53590D01*
X57623Y-136970D02*
X56704D01*
X57164D01*
Y-139725D01*
X57623D01*
X56704D01*
X55327Y-137429D02*
X54868Y-136970D01*
X53949D01*
X53490Y-137429D01*
Y-137889D01*
X53949Y-138348D01*
X54409D01*
X53949D01*
X53490Y-138807D01*
Y-139266D01*
X53949Y-139725D01*
X54868D01*
X55327Y-139266D01*
X66145Y-136970D02*
X67064D01*
X67523Y-137429D01*
Y-139266D01*
X67064Y-139725D01*
X66145D01*
X65686Y-139266D01*
Y-137429D01*
X66145Y-136970D01*
X64768Y-137429D02*
X64309Y-136970D01*
X63390D01*
X62931Y-137429D01*
Y-137889D01*
X63390Y-138348D01*
X63850D01*
X63390D01*
X62931Y-138807D01*
Y-139266D01*
X63390Y-139725D01*
X64309D01*
X64768Y-139266D01*
X66145Y-150270D02*
X67064D01*
X67523Y-150729D01*
Y-152566D01*
X67064Y-153025D01*
X66145D01*
X65686Y-152566D01*
Y-150729D01*
X66145Y-150270D01*
X62931Y-153025D02*
X64768D01*
X62931Y-151189D01*
Y-150729D01*
X63390Y-150270D01*
X64309D01*
X64768Y-150729D01*
X57523Y-150370D02*
X56604D01*
X57064D01*
Y-153125D01*
X57523D01*
X56604D01*
X53390D02*
X55227D01*
X53390Y-151288D01*
Y-150829D01*
X53850Y-150370D01*
X54768D01*
X55227Y-150829D01*
X65623Y-164245D02*
X66541D01*
X67000Y-164704D01*
Y-166541D01*
X66541Y-167000D01*
X65623D01*
X65163Y-166541D01*
Y-164704D01*
X65623Y-164245D01*
X64245Y-167000D02*
X63327D01*
X63786D01*
Y-164245D01*
X64245Y-164704D01*
X57100Y-164445D02*
X56182D01*
X56641D01*
Y-167200D01*
X57100D01*
X56182D01*
X54804D02*
X53886D01*
X54345D01*
Y-164445D01*
X54804Y-164904D01*
X66245Y-177870D02*
X67164D01*
X67623Y-178329D01*
Y-180166D01*
X67164Y-180625D01*
X66245D01*
X65786Y-180166D01*
Y-178329D01*
X66245Y-177870D01*
X64868Y-178329D02*
X64409Y-177870D01*
X63490D01*
X63031Y-178329D01*
Y-180166D01*
X63490Y-180625D01*
X64409D01*
X64868Y-180166D01*
Y-178329D01*
X57623Y-177970D02*
X56704D01*
X57164D01*
Y-180725D01*
X57623D01*
X56704D01*
X55327Y-178429D02*
X54868Y-177970D01*
X53949D01*
X53490Y-178429D01*
Y-180266D01*
X53949Y-180725D01*
X54868D01*
X55327Y-180266D01*
Y-178429D01*
X68110Y-204331D02*
X67192D01*
X67651D01*
Y-201576D01*
X68110Y-202035D01*
X63978Y-204331D02*
X65814D01*
X63978Y-202494D01*
Y-202035D01*
X64437Y-201576D01*
X65355D01*
X65814Y-202035D01*
X63059Y-202953D02*
X61223D01*
X58468Y-204331D02*
X60304D01*
X58468Y-202494D01*
Y-202035D01*
X58927Y-201576D01*
X59845D01*
X60304Y-202035D01*
X56172Y-204331D02*
Y-201576D01*
X57549Y-202953D01*
X55713D01*
X54794Y-201576D02*
Y-203412D01*
X53876Y-204331D01*
X52958Y-203412D01*
Y-201576D01*
D22*
X187008Y-5906D02*
D03*
Y-230315D02*
D03*
D129*
X326149Y-133399D02*
X326477Y-133071D01*
X327133D01*
X327461Y-133399D01*
Y-134711D01*
X327133Y-135039D01*
X326477D01*
X326149Y-134711D01*
Y-134055D01*
X326805D01*
X325493Y-135039D02*
Y-133071D01*
X324181Y-135039D01*
Y-133071D01*
X323525D02*
Y-135039D01*
X322541D01*
X322213Y-134711D01*
Y-133399D01*
X322541Y-133071D01*
X323525D01*
X336188Y-133498D02*
X336516Y-133170D01*
X337172D01*
X337500Y-133498D01*
Y-134810D01*
X337172Y-135138D01*
X336516D01*
X336188Y-134810D01*
Y-134154D01*
X336844D01*
X335532Y-135138D02*
Y-133170D01*
X334220Y-135138D01*
Y-133170D01*
X333564D02*
Y-135138D01*
X332580D01*
X332252Y-134810D01*
Y-133498D01*
X332580Y-133170D01*
X333564D01*
X57800Y-192532D02*
Y-193844D01*
X57144Y-194500D01*
X56488Y-193844D01*
Y-192532D01*
X54520Y-192860D02*
X54848Y-192532D01*
X55504D01*
X55832Y-192860D01*
Y-194172D01*
X55504Y-194500D01*
X54848D01*
X54520Y-194172D01*
X52552Y-192860D02*
X52880Y-192532D01*
X53536D01*
X53864Y-192860D01*
Y-194172D01*
X53536Y-194500D01*
X52880D01*
X52552Y-194172D01*
X66488Y-192760D02*
X66816Y-192432D01*
X67472D01*
X67800Y-192760D01*
Y-194072D01*
X67472Y-194400D01*
X66816D01*
X66488Y-194072D01*
Y-193416D01*
X67144D01*
X65832Y-194400D02*
Y-192432D01*
X64520Y-194400D01*
Y-192432D01*
X63864D02*
Y-194400D01*
X62880D01*
X62552Y-194072D01*
Y-192760D01*
X62880Y-192432D01*
X63864D01*
M02*
