G04*
G04 #@! TF.GenerationSoftware,Altium Limited,Altium Designer,23.1.1 (15)*
G04*
G04 Layer_Physical_Order=1*
G04 Layer_Color=255*
%FSLAX25Y25*%
%MOIN*%
G70*
G04*
G04 #@! TF.SameCoordinates,5E512CB6-7A9D-4867-B672-3E4038189C0E*
G04*
G04*
G04 #@! TF.FilePolarity,Positive*
G04*
G01*
G75*
%ADD10C,0.02362*%
%ADD12C,0.00787*%
%ADD13C,0.01575*%
%ADD14C,0.01000*%
%ADD15C,0.00100*%
%ADD19C,0.01181*%
%ADD23O,0.00984X0.06102*%
%ADD24O,0.06102X0.00984*%
%ADD25R,0.09055X0.09921*%
G04:AMPARAMS|DCode=26|XSize=11.81mil|YSize=47.24mil|CornerRadius=1.77mil|HoleSize=0mil|Usage=FLASHONLY|Rotation=90.000|XOffset=0mil|YOffset=0mil|HoleType=Round|Shape=RoundedRectangle|*
%AMROUNDEDRECTD26*
21,1,0.01181,0.04370,0,0,90.0*
21,1,0.00827,0.04724,0,0,90.0*
1,1,0.00354,0.02185,0.00413*
1,1,0.00354,0.02185,-0.00413*
1,1,0.00354,-0.02185,-0.00413*
1,1,0.00354,-0.02185,0.00413*
%
%ADD26ROUNDEDRECTD26*%
G04:AMPARAMS|DCode=27|XSize=11.81mil|YSize=47.24mil|CornerRadius=1.77mil|HoleSize=0mil|Usage=FLASHONLY|Rotation=180.000|XOffset=0mil|YOffset=0mil|HoleType=Round|Shape=RoundedRectangle|*
%AMROUNDEDRECTD27*
21,1,0.01181,0.04370,0,0,180.0*
21,1,0.00827,0.04724,0,0,180.0*
1,1,0.00354,-0.00413,0.02185*
1,1,0.00354,0.00413,0.02185*
1,1,0.00354,0.00413,-0.02185*
1,1,0.00354,-0.00413,-0.02185*
%
%ADD27ROUNDEDRECTD27*%
%ADD28R,0.04724X0.05512*%
%ADD29R,0.04724X0.05512*%
%ADD30R,0.03543X0.02362*%
%ADD31O,0.02756X0.09843*%
%ADD32R,0.07087X0.04528*%
%ADD33R,0.05118X0.01181*%
%ADD34R,0.05512X0.04724*%
%ADD35R,0.05512X0.04724*%
%ADD36R,0.02362X0.03543*%
%ADD37R,0.03150X0.03150*%
%ADD38R,0.09488X0.09331*%
%ADD39R,0.03150X0.03150*%
%ADD40R,0.04528X0.03543*%
%ADD41R,0.08000X0.02600*%
%ADD42R,0.04528X0.07087*%
%ADD43R,0.04921X0.02559*%
%ADD44R,0.03150X0.03937*%
%ADD45R,0.03071X0.03937*%
%ADD46R,0.03937X0.02815*%
%ADD47R,0.03976X0.02854*%
%ADD48R,0.03937X0.02854*%
G04:AMPARAMS|DCode=49|XSize=216.54mil|YSize=84.65mil|CornerRadius=21.16mil|HoleSize=0mil|Usage=FLASHONLY|Rotation=180.000|XOffset=0mil|YOffset=0mil|HoleType=Round|Shape=RoundedRectangle|*
%AMROUNDEDRECTD49*
21,1,0.21654,0.04232,0,0,180.0*
21,1,0.17421,0.08465,0,0,180.0*
1,1,0.04232,-0.08711,0.02116*
1,1,0.04232,0.08711,0.02116*
1,1,0.04232,0.08711,-0.02116*
1,1,0.04232,-0.08711,-0.02116*
%
%ADD49ROUNDEDRECTD49*%
%ADD50R,0.04921X0.07874*%
%ADD51R,0.05118X0.13386*%
%ADD52R,0.06299X0.03150*%
G04:AMPARAMS|DCode=53|XSize=41.73mil|YSize=25.59mil|CornerRadius=6.4mil|HoleSize=0mil|Usage=FLASHONLY|Rotation=0.000|XOffset=0mil|YOffset=0mil|HoleType=Round|Shape=RoundedRectangle|*
%AMROUNDEDRECTD53*
21,1,0.04173,0.01280,0,0,0.0*
21,1,0.02894,0.02559,0,0,0.0*
1,1,0.01280,0.01447,-0.00640*
1,1,0.01280,-0.01447,-0.00640*
1,1,0.01280,-0.01447,0.00640*
1,1,0.01280,0.01447,0.00640*
%
%ADD53ROUNDEDRECTD53*%
%ADD54R,0.03000X0.03000*%
%ADD55R,0.01200X0.04575*%
%ADD56O,0.09843X0.02756*%
%ADD57O,0.08661X0.02362*%
%ADD58R,0.02756X0.09449*%
%ADD59R,0.07087X0.03937*%
G04:AMPARAMS|DCode=60|XSize=47.64mil|YSize=23.23mil|CornerRadius=2.9mil|HoleSize=0mil|Usage=FLASHONLY|Rotation=0.000|XOffset=0mil|YOffset=0mil|HoleType=Round|Shape=RoundedRectangle|*
%AMROUNDEDRECTD60*
21,1,0.04764,0.01742,0,0,0.0*
21,1,0.04183,0.02323,0,0,0.0*
1,1,0.00581,0.02092,-0.00871*
1,1,0.00581,-0.02092,-0.00871*
1,1,0.00581,-0.02092,0.00871*
1,1,0.00581,0.02092,0.00871*
%
%ADD60ROUNDEDRECTD60*%
%ADD61R,0.05709X0.01181*%
%ADD62R,0.05709X0.02362*%
%ADD63R,0.03000X0.03000*%
%ADD107C,0.07874*%
%ADD110C,0.01098*%
%ADD111C,0.03150*%
%ADD112C,0.03937*%
%ADD113C,0.01968*%
%ADD114C,0.02756*%
%ADD115C,0.05906*%
%ADD116C,0.04724*%
%ADD117C,0.03543*%
%ADD118C,0.04331*%
%ADD119C,0.07874*%
%ADD120C,0.05906*%
%ADD121R,0.05906X0.05906*%
%ADD122O,0.08268X0.04134*%
%ADD123C,0.02756*%
%ADD124C,0.03937*%
G36*
X67028Y-18681D02*
Y-26949D01*
X50295D01*
Y-23996D01*
X52461D01*
Y-21535D01*
X50295D01*
Y-18681D01*
X54232D01*
Y-17106D01*
X57480D01*
Y-18681D01*
X63878D01*
Y-17106D01*
X67028D01*
Y-18681D01*
D02*
G37*
G36*
X76476Y-27736D02*
X71358D01*
X70571Y-28524D01*
Y-32264D01*
X71358Y-33051D01*
X76279D01*
Y-37087D01*
X68898D01*
X68209Y-36398D01*
Y-24587D01*
X69390Y-23406D01*
X76476D01*
Y-27736D01*
D02*
G37*
G36*
X67028Y-36791D02*
Y-38366D01*
X63878D01*
Y-36791D01*
X57480D01*
Y-38366D01*
X54232D01*
Y-36791D01*
X50295D01*
Y-33937D01*
X52461D01*
Y-31477D01*
X50295D01*
Y-28524D01*
X67028D01*
Y-36791D01*
D02*
G37*
G36*
X67126Y-42323D02*
Y-50591D01*
X50394D01*
Y-47638D01*
X52559D01*
Y-45177D01*
X50394D01*
Y-42323D01*
X54331D01*
Y-40748D01*
X57579D01*
Y-42323D01*
X63976D01*
Y-40748D01*
X67126D01*
Y-42323D01*
D02*
G37*
G36*
X76575Y-51378D02*
X71457D01*
X70669Y-52165D01*
Y-55905D01*
X71457Y-56693D01*
X76378D01*
Y-60728D01*
X68996D01*
X68307Y-60039D01*
Y-48228D01*
X69488Y-47047D01*
X76575D01*
Y-51378D01*
D02*
G37*
G36*
X67126Y-60433D02*
Y-62008D01*
X63976D01*
Y-60433D01*
X57579D01*
Y-62008D01*
X54331D01*
Y-60433D01*
X50394D01*
Y-57579D01*
X52559D01*
Y-55118D01*
X50394D01*
Y-52165D01*
X67126D01*
Y-60433D01*
D02*
G37*
G36*
Y-65945D02*
Y-74213D01*
X50394D01*
Y-71260D01*
X52559D01*
Y-68799D01*
X50394D01*
Y-65945D01*
X54331D01*
Y-64370D01*
X57579D01*
Y-65945D01*
X63976D01*
Y-64370D01*
X67126D01*
Y-65945D01*
D02*
G37*
G36*
X76575Y-75000D02*
X71457D01*
X70669Y-75787D01*
Y-79528D01*
X71457Y-80315D01*
X76378D01*
Y-84350D01*
X68996D01*
X68307Y-83661D01*
Y-71850D01*
X69488Y-70669D01*
X76575D01*
Y-75000D01*
D02*
G37*
G36*
X67126Y-84055D02*
Y-85630D01*
X63976D01*
Y-84055D01*
X57579D01*
Y-85630D01*
X54331D01*
Y-84055D01*
X50394D01*
Y-81201D01*
X52559D01*
Y-78740D01*
X50394D01*
Y-75787D01*
X67126D01*
Y-84055D01*
D02*
G37*
G36*
Y-89764D02*
Y-98032D01*
X50394D01*
Y-95079D01*
X52559D01*
Y-92618D01*
X50394D01*
Y-89764D01*
X54331D01*
Y-88189D01*
X57579D01*
Y-89764D01*
X63976D01*
Y-88189D01*
X67126D01*
Y-89764D01*
D02*
G37*
G36*
X76575Y-98819D02*
X71457D01*
X70669Y-99606D01*
Y-103347D01*
X71457Y-104134D01*
X76378D01*
Y-108169D01*
X68996D01*
X68307Y-107480D01*
Y-95669D01*
X69488Y-94488D01*
X76575D01*
Y-98819D01*
D02*
G37*
G36*
X67126Y-107874D02*
Y-109449D01*
X63976D01*
Y-107874D01*
X57579D01*
Y-109449D01*
X54331D01*
Y-107874D01*
X50394D01*
Y-105020D01*
X52559D01*
Y-102559D01*
X50394D01*
Y-99606D01*
X67126D01*
Y-107874D01*
D02*
G37*
G36*
X66929Y-113583D02*
Y-121850D01*
X50197D01*
Y-118898D01*
X52362D01*
Y-116437D01*
X50197D01*
Y-113583D01*
X54134D01*
Y-112008D01*
X57382D01*
Y-113583D01*
X63779D01*
Y-112008D01*
X66929D01*
Y-113583D01*
D02*
G37*
G36*
X76378Y-122638D02*
X71260D01*
X70472Y-123425D01*
Y-127165D01*
X71260Y-127953D01*
X76181D01*
Y-131988D01*
X68799D01*
X68110Y-131299D01*
Y-119488D01*
X69291Y-118307D01*
X76378D01*
Y-122638D01*
D02*
G37*
G36*
X66929Y-131693D02*
Y-133268D01*
X63779D01*
Y-131693D01*
X57382D01*
Y-133268D01*
X54134D01*
Y-131693D01*
X50197D01*
Y-128839D01*
X52362D01*
Y-126378D01*
X50197D01*
Y-123425D01*
X66929D01*
Y-131693D01*
D02*
G37*
D10*
X333858Y-213071D02*
X356116D01*
X320791Y-213015D02*
X333803D01*
X333858Y-213071D01*
X355217Y-199409D02*
X357776Y-201969D01*
Y-211411D02*
Y-201969D01*
X356116Y-213071D02*
X357776Y-211411D01*
X320571Y-212795D02*
X320791Y-213015D01*
X161417Y-134638D02*
X163999Y-132055D01*
Y-131178D01*
X161417Y-138287D02*
Y-134638D01*
X163999Y-131178D02*
X164075Y-131102D01*
D12*
X200091Y-101220D02*
X202000Y-99311D01*
X275295D01*
X275492Y-96161D02*
X285572Y-106241D01*
X275295Y-99311D02*
X284013Y-108028D01*
X217815Y-96161D02*
X275492D01*
X216732Y-95079D02*
X217815Y-96161D01*
X277300Y-50000D02*
X287989Y-60689D01*
X288150D02*
X291575Y-64114D01*
X204528Y-50000D02*
X277300D01*
X291575Y-64114D02*
X295177D01*
X203150Y-48228D02*
X277756D01*
X288642Y-59114D01*
X295177D01*
X287989Y-60689D02*
X288150D01*
X201897Y-59574D02*
Y-52631D01*
X204528Y-50000D01*
X200000Y-51378D02*
X203150Y-48228D01*
X282480Y-46358D02*
X288661Y-40177D01*
X281693Y-44783D02*
X287697Y-38780D01*
X193405Y-46819D02*
X193867Y-46358D01*
X193214Y-44783D02*
X281693D01*
X191831Y-46167D02*
X193214Y-44783D01*
X193867Y-46358D02*
X282480D01*
X200000Y-59646D02*
Y-51378D01*
X191791Y-51673D02*
X193405Y-50059D01*
X186713Y-51673D02*
X191791D01*
X191139Y-50098D02*
X191831Y-49406D01*
X180340Y-55684D02*
X185945Y-50079D01*
X182283Y-56102D02*
X186713Y-51673D01*
X193405Y-50059D02*
Y-46819D01*
X186597Y-50079D02*
X186617Y-50098D01*
X191139D01*
X185945Y-50079D02*
X186597D01*
X191831Y-49406D02*
Y-46167D01*
X286956Y-84223D02*
X295365D01*
X286947Y-84214D02*
X286956Y-84223D01*
X295365D02*
X295374Y-84232D01*
X286949Y-99272D02*
X295335D01*
X286910Y-99311D02*
X286949Y-99272D01*
X295335D02*
X295374Y-99232D01*
X286910Y-91831D02*
X289626D01*
X254528Y-115453D02*
X258268Y-111713D01*
X259409D01*
X254528Y-130118D02*
Y-115453D01*
X252264Y-132382D02*
X254528Y-130118D01*
X252264Y-136024D02*
Y-132382D01*
Y-136024D02*
X253309Y-137069D01*
X256458D01*
X256496Y-137106D01*
X251476Y-128150D02*
Y-115164D01*
X249410Y-113098D02*
X251476Y-115164D01*
X249410Y-113098D02*
Y-111713D01*
X121063Y-93209D02*
X123819D01*
X125886Y-95276D01*
X286713Y-121949D02*
X289667Y-118995D01*
X273948Y-126741D02*
X278740Y-121949D01*
X286713D01*
X263916Y-128210D02*
X265354D01*
X266142Y-127423D02*
Y-121161D01*
X265354Y-128210D02*
X266142Y-127423D01*
X262106Y-130020D02*
X263916Y-128210D01*
X289667Y-117913D02*
X291537Y-116043D01*
X292618D01*
X289667Y-118995D02*
Y-117913D01*
X272472Y-126741D02*
X273948D01*
X272047Y-127165D02*
X272472Y-126741D01*
X275591Y-117618D02*
X281102D01*
X282677Y-116043D01*
X272047Y-121161D02*
X275591Y-117618D01*
X215273Y-129755D02*
X220655Y-135138D01*
X215273Y-129755D02*
Y-127576D01*
X214961Y-127264D02*
X215273Y-127576D01*
X220655Y-135138D02*
X224803D01*
X142126Y-150098D02*
Y-128839D01*
X137500Y-154724D02*
X142126Y-150098D01*
X137500Y-166929D02*
Y-154724D01*
X131791Y-188238D02*
Y-169291D01*
X135236Y-165847D02*
Y-153839D01*
X131791Y-169291D02*
X135236Y-165847D01*
X134843Y-210039D02*
Y-169587D01*
X137500Y-166929D01*
X132972Y-164567D02*
Y-152756D01*
X128740Y-168799D02*
X132972Y-164567D01*
Y-152756D02*
X137500Y-148228D01*
X139764Y-149311D02*
Y-130118D01*
X135236Y-153839D02*
X139764Y-149311D01*
X137500Y-148228D02*
Y-131496D01*
X128740Y-172933D02*
Y-168799D01*
X154380Y-150000D02*
X156890D01*
X167027Y-160138D02*
X172542D01*
X156890Y-150000D02*
X167027Y-160138D01*
X150886Y-153051D02*
X156102D01*
X165748Y-162697D02*
X175197D01*
X156102Y-153051D02*
X165748Y-162697D01*
X151870Y-149213D02*
X152657Y-150000D01*
X151870Y-149213D02*
Y-149204D01*
X151417Y-148751D02*
X151870Y-149204D01*
X152657Y-150000D02*
X153543D01*
X151417Y-148751D02*
Y-138287D01*
X153248Y-150000D02*
X154380D01*
X147205D02*
X147244D01*
X146417Y-149213D02*
X147205Y-150000D01*
X146417Y-149213D02*
Y-138287D01*
X147244Y-150000D02*
X147835D01*
X150886Y-153051D01*
X209154Y-81595D02*
X209530Y-81218D01*
X205610Y-81595D02*
X205987Y-81218D01*
X209530D02*
Y-80529D01*
X210728Y-79331D01*
X213779D01*
X205987Y-81218D02*
Y-80037D01*
X202953Y-100886D02*
X210138D01*
X214048Y-104796D01*
X205987Y-80037D02*
X208661Y-77362D01*
X214048Y-104796D02*
X273891D01*
X155623Y-85335D02*
X163595Y-77362D01*
X158465Y-86417D02*
X165523Y-79359D01*
X175116Y-99623D02*
X175492Y-100000D01*
X173944Y-99623D02*
X175116D01*
X158465Y-93504D02*
Y-86417D01*
X163189Y-88779D02*
X163566Y-88403D01*
X164313D01*
X165511Y-87205D01*
X168504D01*
X208661Y-77362D02*
X213779D01*
X165523Y-79359D02*
X168475D01*
X168504Y-79331D01*
X163595Y-77362D02*
X168504D01*
X198031Y-64034D02*
Y-59646D01*
X186221Y-73524D02*
Y-59646D01*
X201897Y-59574D02*
X201969Y-59646D01*
X176378Y-110925D02*
Y-104921D01*
X205906Y-61417D02*
Y-59646D01*
X203937Y-65256D02*
Y-59646D01*
X196063Y-63739D02*
Y-59646D01*
X182283Y-107972D02*
Y-104921D01*
X188189Y-72490D02*
Y-59646D01*
X184206Y-59691D02*
X184252Y-59646D01*
X184206Y-62545D02*
Y-59691D01*
X201928Y-104881D02*
X201969Y-104921D01*
X201928Y-104881D02*
Y-101910D01*
X202953Y-100886D01*
X200000Y-104921D02*
X200091Y-104831D01*
Y-101220D01*
X182382Y-64369D02*
X184206Y-62545D01*
X182382Y-64468D02*
Y-64369D01*
X188237Y-96584D02*
X188285Y-96535D01*
X188237Y-104873D02*
Y-96584D01*
X188189Y-104921D02*
X188237Y-104873D01*
X188189Y-72490D02*
X197736Y-82037D01*
Y-92913D02*
Y-82037D01*
X183661Y-100579D02*
Y-100047D01*
Y-100579D02*
X184252Y-101170D01*
Y-104921D02*
Y-101170D01*
X155020Y-96949D02*
X158465Y-93504D01*
X155020Y-100492D02*
Y-96949D01*
X182283Y-107972D02*
X183777Y-109466D01*
Y-110549D02*
Y-109466D01*
Y-110549D02*
X184153Y-110925D01*
X194980Y-64822D02*
X196063Y-63739D01*
X194980Y-65354D02*
Y-64822D01*
X192794Y-97065D02*
Y-96533D01*
Y-97065D02*
X193403Y-97675D01*
Y-100586D02*
Y-97675D01*
X192126Y-101864D02*
X193403Y-100586D01*
X192126Y-104921D02*
Y-101864D01*
X190845Y-100024D02*
Y-99491D01*
X190157Y-100711D02*
X190845Y-100024D01*
X190157Y-104921D02*
Y-100711D01*
X203937Y-65256D02*
X204035Y-65354D01*
X205906Y-61417D02*
X206102Y-61614D01*
X206133D01*
X207283Y-62764D01*
Y-66240D02*
Y-62764D01*
X204823Y-68701D02*
X207283Y-66240D01*
X201476Y-68701D02*
X204823D01*
X199983Y-70194D02*
X201476Y-68701D01*
X199983Y-71277D02*
Y-70194D01*
X199606Y-71653D02*
X199983Y-71277D01*
X193318Y-55268D02*
Y-54736D01*
Y-55268D02*
X194095Y-56045D01*
Y-59646D02*
Y-56045D01*
X330512Y-115976D02*
Y-110728D01*
X327812Y-108028D02*
X330512Y-110728D01*
X284013Y-108028D02*
X327812D01*
X291161Y-25177D02*
X295177D01*
X287697Y-28642D02*
X291161Y-25177D01*
X287697Y-38780D02*
Y-28642D01*
X180340Y-59621D02*
Y-55684D01*
X180315Y-59646D02*
X180340Y-59621D01*
X176378Y-110925D02*
X176378Y-110925D01*
X325394Y-115976D02*
Y-112189D01*
X324808Y-111603D02*
X325394Y-112189D01*
X280698Y-111603D02*
X324808D01*
X273891Y-104796D02*
X280698Y-111603D01*
X190157Y-59646D02*
Y-56299D01*
X188583Y-54724D02*
X190157Y-56299D01*
X188484Y-54724D02*
X188583D01*
X186221Y-73524D02*
X195177Y-82480D01*
Y-89567D02*
Y-82480D01*
X288661Y-40177D02*
X295177D01*
X182283Y-59646D02*
Y-56102D01*
X198031Y-64034D02*
X198147Y-64150D01*
Y-64978D02*
Y-64150D01*
Y-64978D02*
X198524Y-65354D01*
X186221Y-104921D02*
Y-98521D01*
X184252Y-96553D02*
X186221Y-98521D01*
X149114Y-85335D02*
X155623D01*
X148030Y-86419D02*
X149114Y-85335D01*
X148030Y-87698D02*
Y-86419D01*
X146063Y-89665D02*
X148030Y-87698D01*
X163264Y-85237D02*
X163264Y-85237D01*
X157726Y-81004D02*
X163337Y-75394D01*
X152362Y-81004D02*
X157726D01*
X163337Y-75394D02*
X168504D01*
X165256Y-71457D02*
X168504D01*
X153248Y-59449D02*
X165256Y-71457D01*
X159424Y-69289D02*
X163560Y-73425D01*
X168504D01*
X163264Y-85237D02*
X168503D01*
X208858Y-93110D02*
X213779D01*
X203346Y-71457D02*
X213779D01*
X148920Y-69289D02*
X159424D01*
X205906Y-146355D02*
X207084Y-145177D01*
X213902D01*
X205906Y-147539D02*
Y-146355D01*
X203937Y-149508D02*
X205906Y-147539D01*
X213902Y-145177D02*
X216067Y-143012D01*
X224803D01*
X203937Y-149508D02*
X204232Y-149803D01*
Y-156890D02*
Y-149803D01*
X210433Y-141043D02*
X224803D01*
X210236Y-140847D02*
X210433Y-141043D01*
X210138Y-140748D02*
X210236Y-140847D01*
X210138Y-140748D02*
Y-133366D01*
X230665Y-170669D02*
X233071D01*
X216634Y-156638D02*
Y-148153D01*
Y-156638D02*
X230665Y-170669D01*
X216634Y-148153D02*
X219806Y-144980D01*
X233071Y-170669D02*
X239075D01*
X187147Y-34843D02*
X207185D01*
X186359Y-34055D02*
X187147Y-34843D01*
X185827Y-34055D02*
X186359D01*
X154921Y-100591D02*
X155020Y-100492D01*
X148917Y-100591D02*
X154921D01*
X138484Y-80512D02*
X141929Y-77067D01*
X148914D01*
X139173Y-89665D02*
X146063D01*
X138484Y-90354D02*
X139173Y-89665D01*
X150394Y-79035D02*
X152362Y-81004D01*
X148914Y-77067D02*
X150394Y-78546D01*
Y-79035D02*
Y-78546D01*
X168504Y-97047D02*
X168544Y-97088D01*
X171408D01*
X173944Y-99623D01*
X303740Y-166437D02*
Y-153743D01*
X291652Y-170513D02*
X299664D01*
X303740Y-166437D01*
X291634Y-173031D02*
X301575D01*
X307014Y-167593D01*
Y-157947D01*
X302556Y-152559D02*
X303740Y-153743D01*
X301378Y-152559D02*
X302556D01*
X299410Y-150591D02*
X301378Y-152559D01*
X291634Y-170531D02*
X291652Y-170513D01*
X307014Y-157947D02*
X308071Y-156890D01*
X260939Y-144980D02*
X264876Y-148917D01*
X256496Y-144980D02*
X260939D01*
X264876Y-148917D02*
X269291D01*
X274705Y-166732D02*
Y-147736D01*
X272244Y-145276D02*
X274705Y-147736D01*
X263462Y-145276D02*
X266339D01*
X261198Y-143012D02*
X263462Y-145276D01*
X256496Y-143012D02*
X261198D01*
X331693Y-124311D02*
X334055Y-126673D01*
X342028D01*
X328145Y-124311D02*
X331693D01*
X322835Y-119000D02*
X328145Y-124311D01*
X322835Y-119000D02*
Y-115976D01*
X213779Y-95079D02*
X216732D01*
X292027Y-94232D02*
X295374D01*
X289626Y-91831D02*
X292027Y-94232D01*
X289626Y-91831D02*
X292224Y-89232D01*
X295374D01*
X213091Y-35070D02*
X214991D01*
X217126Y-37205D01*
X222112D01*
X226388Y-32929D01*
X221457Y-186417D02*
X222244Y-185630D01*
X181890Y-186417D02*
X221457D01*
X264075Y-152756D02*
X270768D01*
X268012Y-169488D02*
X270866Y-166634D01*
X264173Y-169488D02*
X268012D01*
X264075Y-169390D02*
X264173Y-169488D01*
X203150Y-71653D02*
X203346Y-71457D01*
X180118Y-51673D02*
Y-50394D01*
X182776Y-47736D01*
X245079Y-170669D02*
X251083D01*
X251083Y-170669D01*
X219806Y-144980D02*
X224803D01*
X220374Y-151821D02*
X221309Y-150886D01*
X224803D02*
X224803Y-150886D01*
X220374Y-157382D02*
Y-151821D01*
X221309Y-150886D02*
X224803D01*
X229134Y-166142D02*
X239961D01*
X220374Y-157382D02*
X229134Y-166142D01*
X239961D02*
X244488Y-170669D01*
X245079D01*
X233640Y-150809D02*
X233940Y-150509D01*
X233640Y-153068D02*
Y-150809D01*
X229860Y-156848D02*
X233640Y-153068D01*
X224805Y-154821D02*
X228152D01*
X230807Y-152165D01*
X224803Y-154823D02*
X224805Y-154821D01*
X229823Y-159843D02*
X229860Y-159805D01*
Y-156848D01*
X270669Y-158760D02*
X270768Y-158661D01*
X270669Y-162795D02*
Y-158760D01*
X263287Y-157874D02*
X264075Y-158661D01*
X262106Y-157874D02*
X263287D01*
X259055Y-154823D02*
X262106Y-157874D01*
X264665Y-163484D02*
X267520Y-160630D01*
Y-157483D01*
X265647Y-155610D02*
X267520Y-157483D01*
X259588Y-152892D02*
X262306Y-155610D01*
X265647D01*
X256534Y-152892D02*
X259588D01*
X264075Y-163484D02*
X264665D01*
X256496Y-154823D02*
X259055D01*
X263484Y-152756D02*
X264075D01*
X256496Y-150886D02*
X261614D01*
X263484Y-152756D01*
X256496Y-152854D02*
X256534Y-152892D01*
X237235Y-152854D02*
X256496D01*
X233760Y-159843D02*
Y-156329D01*
X237235Y-152854D01*
X237500Y-121161D02*
X237697Y-121358D01*
Y-128150D02*
Y-121358D01*
X257087Y-179823D02*
Y-176476D01*
X251083Y-179724D02*
Y-176575D01*
X216865Y-102131D02*
X274670D01*
X282355Y-109816D02*
X326548D01*
X274670Y-102131D02*
X282355Y-109816D01*
X285572Y-106241D02*
X328682D01*
X343773Y-121680D02*
X344980Y-120472D01*
X342028Y-126673D02*
X343773Y-124928D01*
Y-121680D01*
X344980Y-106693D02*
Y-104823D01*
X340854Y-100697D02*
X344980Y-104823D01*
X337777Y-100697D02*
X340854D01*
X344980Y-94587D02*
Y-92913D01*
X340657Y-98909D02*
X344980Y-94587D01*
X338518Y-98909D02*
X340657D01*
X323080Y-92626D02*
X325402D01*
X318503D02*
X323080D01*
X323326Y-95503D02*
Y-92872D01*
X323080Y-92626D02*
X323326Y-92872D01*
X323384Y-90839D02*
X326142D01*
X318503D02*
X323384D01*
X323326Y-90781D02*
X323384Y-90839D01*
X323326Y-90781D02*
Y-88003D01*
Y-82511D01*
Y-100917D02*
Y-95503D01*
X334356Y-97276D02*
X337777Y-100697D01*
X335097Y-95488D02*
X338518Y-98909D01*
X330791Y-95488D02*
X335097D01*
X325402Y-92626D02*
X330051Y-97276D01*
X334356D01*
X326142Y-90839D02*
X330791Y-95488D01*
X314272Y-89232D02*
X316995D01*
X318042Y-93185D02*
Y-93087D01*
X316995Y-94232D02*
X318042Y-93185D01*
X314272Y-94232D02*
X316995D01*
Y-89232D02*
X318042Y-90279D01*
Y-90377D02*
X318503Y-90839D01*
X318042Y-93087D02*
X318503Y-92626D01*
X318042Y-90377D02*
Y-90279D01*
X330512Y-59449D02*
X342520Y-71457D01*
X327854Y-59449D02*
X330512D01*
X342520Y-71457D02*
X348721D01*
X354823Y-65354D01*
X314469Y-64114D02*
X326516D01*
X343871Y-78025D02*
X344980Y-79134D01*
X340426Y-78025D02*
X343871D01*
X326516Y-64114D02*
X340426Y-78025D01*
X349705Y-84252D02*
X354823Y-79134D01*
X340580Y-84252D02*
X349705D01*
X325442Y-69114D02*
X340580Y-84252D01*
X314469Y-69114D02*
X325442D01*
X314469Y-59114D02*
X327332D01*
X314469Y-54114D02*
X333740D01*
X344980Y-65354D01*
X322067Y-35177D02*
X323327Y-36437D01*
X314469Y-35177D02*
X322067D01*
X322087Y-30177D02*
X323327Y-28937D01*
X314469Y-30177D02*
X322087D01*
X344980Y-51575D02*
Y-46040D01*
X326022Y-33581D02*
X338020Y-45579D01*
X325363Y-33581D02*
X326022D01*
X324902Y-34042D02*
X325363Y-33581D01*
X338020Y-45579D02*
X344519D01*
X344980Y-46040D01*
X324902Y-34862D02*
Y-34042D01*
Y-31332D02*
X325363Y-31793D01*
X326763D01*
X338761Y-43791D02*
X344519D01*
X326763Y-31793D02*
X338761Y-43791D01*
X324902Y-31332D02*
Y-30512D01*
X323327Y-28937D02*
X324902Y-30512D01*
X323327Y-36437D02*
X324902Y-34862D01*
X344980Y-43330D02*
Y-37795D01*
X344519Y-43791D02*
X344980Y-43330D01*
X168504Y-83268D02*
X172499D01*
X173089Y-83858D01*
X173622D01*
X168504Y-81299D02*
X171810D01*
X173089Y-80020D01*
X173622D01*
X174360Y-69439D02*
X174409Y-69390D01*
X168504Y-69488D02*
X168553Y-69439D01*
X174360D01*
X168503Y-85237D02*
X168504Y-85236D01*
X124213Y-38386D02*
X125492Y-39665D01*
X121653Y-38386D02*
X124213D01*
X121063Y-60039D02*
X124803D01*
X125000Y-60236D01*
X121063Y-70079D02*
X125000D01*
X114468Y-76437D02*
X120728D01*
X326548Y-109816D02*
X327953Y-111221D01*
X175394Y-93110D02*
X175394Y-93110D01*
X168504Y-93110D02*
X175394D01*
X171752Y-95079D02*
X173327Y-96653D01*
X168504Y-95079D02*
X171752D01*
X173327Y-96653D02*
X177362D01*
X182776Y-47736D02*
X188878D01*
X141142Y-59449D02*
X148917D01*
X153248D01*
X148917Y-69291D02*
X148920Y-69289D01*
X141142Y-69291D02*
X148917D01*
X141043Y-59350D02*
X141142Y-59449D01*
X131201Y-117913D02*
X142126Y-128839D01*
X131201Y-125197D02*
X137500Y-131496D01*
X131201Y-121555D02*
X139764Y-130118D01*
X135039Y-147097D02*
Y-132243D01*
X131734Y-128937D02*
X135039Y-132243D01*
X131201Y-128937D02*
X131734D01*
X127953Y-135827D02*
X131201Y-132579D01*
X127362Y-135827D02*
X127953D01*
X127362Y-154774D02*
X135039Y-147097D01*
X118770Y-154774D02*
X127362D01*
Y-192667D02*
X131791Y-188238D01*
X127461Y-174213D02*
X128740Y-172933D01*
X118504Y-174213D02*
X127461D01*
X141043Y-69390D02*
X141142Y-69291D01*
X330512Y-138583D02*
Y-131988D01*
X334055Y-128445D02*
X346850D01*
X330512Y-131988D02*
X334055Y-128445D01*
X346850D02*
X354035Y-121260D01*
X327953Y-115976D02*
Y-111221D01*
X333071Y-115976D02*
Y-110630D01*
X328682Y-106241D02*
X333071Y-110630D01*
X319980Y-149705D02*
X322244Y-151969D01*
X319980Y-144488D02*
X322835Y-141634D01*
X319980Y-149705D02*
Y-144488D01*
X322835Y-141634D02*
Y-138583D01*
X317815Y-132480D02*
X320276Y-134941D01*
Y-138583D02*
Y-134941D01*
X307874Y-132480D02*
X317815D01*
X354035Y-121260D02*
X354724D01*
X344980Y-65650D02*
X345571D01*
X327953Y-146850D02*
Y-138583D01*
Y-146850D02*
X328150Y-147047D01*
X317717Y-145669D02*
Y-138583D01*
X316929Y-146457D02*
X317717Y-145669D01*
X322244Y-146457D02*
X323031D01*
X325394Y-144095D02*
Y-138583D01*
X323031Y-146457D02*
X325394Y-144095D01*
X322244Y-152362D02*
Y-151969D01*
X314961Y-138386D02*
X315158Y-138583D01*
X307874Y-138386D02*
X314961D01*
X354724Y-37795D02*
X354724Y-37795D01*
X344980Y-37795D02*
X354724D01*
X354823Y-51575D02*
X355118Y-51870D01*
X344980Y-51575D02*
X354823D01*
X114901Y-32480D02*
X121653D01*
X114468Y-32047D02*
X114901Y-32480D01*
X76772Y-140551D02*
Y-137795D01*
X76181Y-146457D02*
X76772D01*
X74252Y-148386D02*
X76181Y-146457D01*
X67669Y-148386D02*
X74252D01*
X127047Y-136142D02*
X127362Y-135827D01*
X118504Y-136142D02*
X127047D01*
X118504Y-193228D02*
X119065Y-192667D01*
X127362D01*
X118504Y-211614D02*
X121457D01*
X127362Y-217520D01*
X134843Y-210039D01*
X118504Y-155039D02*
X118770Y-154774D01*
X67669Y-217087D02*
X74055D01*
X76181Y-214961D01*
X76772D01*
Y-209055D02*
Y-206299D01*
X67669Y-199911D02*
X74597D01*
X76772Y-197736D01*
Y-191831D02*
Y-189075D01*
X121063Y-114764D02*
X126181D01*
X114468Y-120827D02*
X120906D01*
X121063Y-120669D01*
X67669Y-182736D02*
X74154D01*
X76378Y-180512D01*
X76772D01*
Y-174606D02*
Y-171850D01*
X76279Y-163287D02*
X76772D01*
X74006Y-165561D02*
X76279Y-163287D01*
X67669Y-165561D02*
X74006D01*
X76772Y-157382D02*
Y-154626D01*
X114951Y-99114D02*
X121063D01*
X114468Y-98632D02*
X114951Y-99114D01*
X114576Y-54134D02*
X121063D01*
X114468Y-54242D02*
X114576Y-54134D01*
X239062Y-179823D02*
X239075Y-179811D01*
Y-176673D01*
X127362Y-145276D02*
Y-141732D01*
Y-164370D02*
Y-160679D01*
Y-182874D02*
Y-179626D01*
Y-207087D02*
Y-198573D01*
Y-211614D02*
Y-207087D01*
X245079Y-179712D02*
Y-176575D01*
X245066Y-179724D02*
X245079Y-179712D01*
D13*
X205831Y-53642D02*
X206324Y-54134D01*
X205512Y-53642D02*
X205831D01*
X206324Y-54134D02*
X210236D01*
X333858Y-213071D02*
Y-194193D01*
X338386Y-192402D02*
X338760Y-192028D01*
X335650Y-192402D02*
X338386D01*
X333858Y-194193D02*
X335650Y-192402D01*
X296334Y-218110D02*
X296654D01*
X294365Y-220079D02*
X296334Y-218110D01*
X292717Y-220079D02*
X294365D01*
X291929Y-220866D02*
X292717Y-220079D01*
X118701Y-107086D02*
Y-106988D01*
X114960Y-110827D02*
X118701Y-107086D01*
X152174Y-111614D02*
X156414D01*
X152449Y-111339D02*
Y-108968D01*
X152223Y-111565D02*
X152449Y-111339D01*
Y-108968D02*
X155020Y-106398D01*
X145300Y-107382D02*
X145792Y-106890D01*
X148524D02*
X148917Y-106496D01*
X145792Y-106890D02*
X148524D01*
X144980Y-107382D02*
X145300D01*
X307874Y-18701D02*
X311713D01*
X156414Y-111614D02*
X159941D01*
X156414D02*
X156417Y-111617D01*
X279921Y-214567D02*
Y-212203D01*
Y-205512D01*
X204183Y-133317D02*
Y-127116D01*
X204134Y-127067D02*
X204183Y-127116D01*
Y-133317D02*
X204232Y-133366D01*
X180315Y-110925D02*
X180315Y-110925D01*
X161223Y-96746D02*
X161324Y-96645D01*
X210138Y-156890D02*
X212274Y-159026D01*
X212963D02*
X213189Y-159252D01*
X212274Y-159026D02*
X212963D01*
X161122Y-106398D02*
X161171Y-106348D01*
X155020Y-106398D02*
X161122D01*
X147933Y-111614D02*
X152174D01*
X151417Y-118996D02*
Y-112371D01*
X152174Y-111614D01*
X156417Y-118996D02*
Y-111617D01*
X161516Y-118898D02*
Y-113189D01*
X161417Y-118996D02*
X161516Y-118898D01*
X159941Y-111614D02*
X161516Y-113189D01*
X146643Y-112904D02*
X147933Y-111614D01*
X146417Y-118996D02*
X146643Y-118770D01*
Y-112904D01*
X156417Y-138287D02*
Y-118996D01*
X317815Y-190490D02*
X328248Y-180057D01*
Y-175197D01*
X207037Y-40699D02*
X207185Y-40846D01*
X204380Y-40699D02*
X207037D01*
X204232Y-40551D02*
X204380Y-40699D01*
X355217Y-199530D02*
Y-199409D01*
X354294Y-200453D02*
X355217Y-199530D01*
X351991Y-200453D02*
X354294D01*
X355217Y-199409D02*
Y-186614D01*
X351378Y-182776D02*
X355217Y-186614D01*
X349528Y-204823D02*
X349921Y-205217D01*
Y-208484D02*
X350590Y-209154D01*
X349921Y-208484D02*
Y-205217D01*
X348622Y-178937D02*
X349823D01*
X349921Y-176202D02*
X351103Y-175020D01*
X351457D01*
X349921Y-178839D02*
Y-176202D01*
X349823Y-178937D02*
X349921Y-178839D01*
X347854Y-204823D02*
X349528D01*
X347854Y-182382D02*
X348248Y-182776D01*
X351378D01*
X349016Y-201378D02*
X349114Y-201279D01*
X350745D01*
X350844Y-201181D01*
X351262D01*
X351991Y-200453D01*
X332256Y-91683D02*
Y-87275D01*
Y-91683D02*
X332326Y-91753D01*
X332185Y-87205D02*
X332256Y-87275D01*
X297638Y-77264D02*
X301772D01*
X180315Y-115157D02*
Y-110925D01*
Y-115157D02*
X180315Y-115157D01*
X118850Y-66437D02*
X118898Y-66390D01*
X114468Y-66437D02*
X118850D01*
X112303Y-198228D02*
X118504D01*
X176575Y-121063D02*
X180315D01*
X180315Y-121063D01*
X161122Y-100492D02*
X161223Y-100391D01*
Y-96746D01*
X140650Y-44783D02*
Y-35925D01*
X307087Y-51083D02*
Y-48130D01*
X305020Y-53150D02*
X307087Y-51083D01*
Y-48130D02*
X307874Y-47343D01*
X305020Y-62815D02*
Y-53150D01*
X295177Y-69114D02*
X298721D01*
X305020Y-62815D01*
X297933Y-47343D02*
X301969D01*
X301870Y-50965D02*
Y-47441D01*
X301969Y-47343D01*
X295177Y-54114D02*
X298721D01*
X301870Y-50965D01*
X307385Y-21552D02*
Y-19190D01*
X305315Y-31201D02*
Y-23622D01*
X307385Y-19190D02*
X307874Y-18701D01*
X305315Y-23622D02*
X307385Y-21552D01*
X301339Y-35177D02*
X305315Y-31201D01*
X295391Y-29964D02*
X300647D01*
X301969Y-28642D02*
Y-18701D01*
X300647Y-29964D02*
X301969Y-28642D01*
X295177Y-30177D02*
X295391Y-29964D01*
X295177Y-35177D02*
X301339D01*
X297441Y-18701D02*
X301969D01*
X132579Y-90354D02*
Y-85433D01*
Y-80512D01*
X135138Y-64272D02*
Y-59350D01*
X135138Y-59350D02*
X135138Y-59350D01*
Y-69390D02*
Y-64272D01*
X135138Y-69390D02*
X135138Y-69390D01*
X311565Y-47392D02*
X311614Y-47441D01*
X307923Y-47392D02*
X311565D01*
X307874Y-47343D02*
X307923Y-47392D01*
X176624Y-41781D02*
X176673Y-41831D01*
X176575Y-37992D02*
X176624Y-38041D01*
Y-41781D02*
Y-38041D01*
X169882Y-41831D02*
Y-37697D01*
X174213Y-212402D02*
X175413Y-213602D01*
X184646D01*
X174213Y-212402D02*
Y-210827D01*
X176437Y-208602D01*
X184646D01*
Y-213602D02*
X203543D01*
X233059Y-176587D02*
X233071Y-176575D01*
X233059Y-180106D02*
Y-176587D01*
X233046Y-180118D02*
X233059Y-180106D01*
X338386Y-207185D02*
X338435Y-207234D01*
X342766D02*
X342815Y-207283D01*
X338435Y-207234D02*
X342766D01*
X338386Y-177657D02*
X338435Y-177608D01*
X342569D01*
X342618Y-177559D01*
X329252Y-191654D02*
X331452D01*
X333342Y-189764D01*
X333661D01*
X328878Y-192028D02*
X329252Y-191654D01*
X291929Y-215354D02*
Y-215158D01*
X291732Y-214961D02*
X291929Y-215158D01*
X307874Y-125394D02*
X314370D01*
X317815Y-121949D01*
X291929Y-220866D02*
Y-215354D01*
X262598Y-212205D02*
X266339Y-215945D01*
X271258D01*
X254331Y-216929D02*
X258071Y-220669D01*
Y-220866D02*
Y-220669D01*
X67669Y-141291D02*
Y-138386D01*
Y-141291D02*
X67716Y-141339D01*
X67669Y-158466D02*
X67716Y-158514D01*
X67669Y-158466D02*
Y-155561D01*
Y-175642D02*
X67716Y-175689D01*
X67669Y-175642D02*
Y-172736D01*
Y-192817D02*
X67716Y-192864D01*
X67669Y-192817D02*
Y-189911D01*
X118504Y-144047D02*
X118551Y-144095D01*
X118504Y-144047D02*
Y-141142D01*
Y-162945D02*
X118551Y-162992D01*
X118504Y-162945D02*
Y-160039D01*
Y-182118D02*
X118551Y-182165D01*
X118504Y-182118D02*
Y-179213D01*
X67669Y-209992D02*
X67716Y-210039D01*
X67669Y-209992D02*
Y-207087D01*
X112795Y-216779D02*
X112843Y-216732D01*
X115748D01*
X114468Y-88632D02*
X118850D01*
X118898Y-88585D01*
X114468Y-44242D02*
X118850D01*
X118898Y-44195D01*
X114468Y-22047D02*
X118850D01*
X118898Y-22000D01*
X44882Y-207087D02*
X45669D01*
Y-217087D02*
X51024D01*
X53543Y-214567D01*
X29528Y-115354D02*
X37008Y-122835D01*
X29528Y-115354D02*
Y-111221D01*
X45906Y-148622D02*
X53543D01*
X45669Y-148386D02*
X45906Y-148622D01*
X45669Y-165561D02*
X47057D01*
X47244Y-165748D01*
X53543D01*
Y-148622D01*
X46004Y-183071D02*
X53543D01*
X45669Y-182736D02*
X46004Y-183071D01*
X53543D02*
Y-165748D01*
Y-199606D02*
Y-183071D01*
Y-214567D02*
Y-199606D01*
X45669Y-199911D02*
X53238D01*
X53543Y-199606D01*
X37008Y-125000D02*
Y-122835D01*
Y-125000D02*
X47047Y-135039D01*
X50591D01*
X53543Y-137992D01*
Y-148622D02*
Y-137992D01*
X279921Y-214567D02*
X280709Y-215354D01*
X286024D01*
X279919Y-212205D02*
X279921Y-212203D01*
D14*
X216142Y-67181D02*
Y-54134D01*
Y-67181D02*
X216571Y-67610D01*
X218209Y-70177D02*
X218300D01*
X217954Y-69851D02*
Y-68993D01*
X216571Y-67610D02*
X217954Y-68993D01*
X213870Y-67610D02*
X216571D01*
X213779Y-67520D02*
X213870Y-67610D01*
X217954Y-69851D02*
X218290Y-70187D01*
X229341Y-111782D02*
X229410Y-111713D01*
X231594Y-121161D02*
Y-120571D01*
X229390Y-118366D02*
X231594Y-120571D01*
X229390Y-118366D02*
Y-111831D01*
X229341Y-111782D02*
X229390Y-111831D01*
X328740Y-157579D02*
Y-152559D01*
X304765Y-116379D02*
X307747Y-119361D01*
X302067Y-116043D02*
X302403Y-116379D01*
X304765D01*
X307747Y-119615D02*
Y-119361D01*
X276378Y-137008D02*
X282353Y-131032D01*
Y-128178D02*
X282677Y-127854D01*
X282353Y-131032D02*
Y-128178D01*
X269304Y-136332D02*
X269993D01*
X272244Y-138583D01*
X266142Y-133169D02*
X269304Y-136332D01*
X229823Y-128150D02*
Y-124803D01*
Y-130693D02*
Y-128150D01*
X147244Y-155905D02*
X153248D01*
X146653D02*
X147244D01*
X145021Y-154273D02*
X146653Y-155905D01*
X143405Y-153937D02*
X143742Y-154273D01*
X145021D01*
X196063Y-111024D02*
Y-104921D01*
X196063Y-104921D01*
X198031Y-114476D02*
Y-104921D01*
X194095Y-108366D02*
Y-104921D01*
X187303Y-115157D02*
X194095Y-108366D01*
X186713Y-115157D02*
X187303D01*
X198031Y-114476D02*
X198713Y-115157D01*
X198917D01*
X193791Y-113295D02*
X196063Y-111024D01*
X193791Y-114476D02*
Y-113295D01*
X193110Y-115157D02*
X193791Y-114476D01*
X192815Y-115157D02*
X193110D01*
X185441Y-122335D02*
Y-121744D01*
X172531Y-135244D02*
X185441Y-122335D01*
X170768Y-137697D02*
X172531Y-135933D01*
X185441Y-121744D02*
X186122Y-121063D01*
X172531Y-135933D02*
Y-135244D01*
X186122Y-121063D02*
X186713D01*
X169488Y-137697D02*
X170768D01*
X192579Y-121063D02*
X192815D01*
X191898Y-121744D02*
X192579Y-121063D01*
X191898Y-124343D02*
Y-121744D01*
X181721Y-134519D02*
X191898Y-124343D01*
X181721Y-136389D02*
Y-134519D01*
X180413Y-137697D02*
X181721Y-136389D01*
X191240Y-137697D02*
Y-131988D01*
X198917Y-124311D02*
Y-121063D01*
X191240Y-131988D02*
X198917Y-124311D01*
X316929Y-152559D02*
X317126Y-152756D01*
Y-156398D02*
Y-152756D01*
X213091Y-41142D02*
Y-40846D01*
Y-41142D02*
X213878Y-41929D01*
X222638D01*
X231496D01*
X234154Y-39272D01*
Y-35138D01*
X252658Y-165059D02*
X256012Y-168413D01*
Y-169496D02*
Y-168413D01*
Y-169496D02*
X257087Y-170571D01*
X252322Y-164723D02*
Y-164440D01*
X251476Y-163595D02*
Y-159843D01*
Y-163595D02*
X252322Y-164440D01*
X219390Y-149016D02*
X219480Y-148925D01*
X224795D01*
X224803Y-148917D01*
X256496Y-135138D02*
X261131D01*
X261828Y-135835D02*
X262303D01*
X261131Y-135138D02*
X261828Y-135835D01*
X256496Y-133169D02*
X266142D01*
X249500Y-159850D02*
X249508Y-159843D01*
X248524Y-164584D02*
X249500Y-163608D01*
X248524Y-165059D02*
Y-164584D01*
X249500Y-163608D02*
Y-159850D01*
X243602Y-159843D02*
X243602Y-159843D01*
X243602Y-165059D02*
Y-159843D01*
X224803Y-146949D02*
X230610D01*
X230610Y-146949D01*
X226230Y-121211D02*
X227256Y-122236D01*
X226181Y-121161D02*
X226230Y-121211D01*
X227256Y-122236D02*
X229823Y-124803D01*
X227256Y-122236D02*
Y-122236D01*
X231784Y-128142D02*
X231791Y-128150D01*
X231784Y-128142D02*
Y-121350D01*
X231594Y-121161D02*
X231784Y-121350D01*
X227346Y-133169D02*
X229823Y-130693D01*
X224803Y-133169D02*
X227346D01*
X345590Y-191043D02*
X347854D01*
X343500Y-189065D02*
X347136D01*
X344467Y-197039D02*
X347744D01*
X338976Y-201279D02*
X342701Y-197555D01*
X343951D02*
X344467Y-197039D01*
X342701Y-197555D02*
X343951D01*
X343522Y-189043D02*
X347136D01*
X343500Y-189065D02*
X343522Y-189043D01*
X342722Y-188287D02*
X343500Y-189065D01*
X338760Y-188287D02*
X342722D01*
X343713Y-191888D02*
X344467Y-191134D01*
X343411Y-185138D02*
X347047D01*
X341837Y-183563D02*
X343411Y-185138D01*
X343500Y-194990D02*
X346644D01*
X338760Y-195768D02*
X342722D01*
X343500Y-194990D01*
X347744Y-197039D02*
X347835Y-196949D01*
X344467Y-191134D02*
X345500D01*
X345590Y-191043D01*
X346644Y-194990D02*
X346654Y-194980D01*
X347136Y-189065D02*
X347146Y-189075D01*
X347136Y-189043D02*
X351120D01*
X351996Y-189919D01*
Y-192167D02*
Y-189919D01*
X351242Y-192921D02*
X351996Y-192167D01*
X348417Y-192921D02*
X351242D01*
X348327Y-193012D02*
X348417Y-192921D01*
X343713Y-194990D02*
Y-191888D01*
X338386Y-183563D02*
X341837D01*
X338386Y-201279D02*
X338976D01*
X81299Y-83858D02*
X82441D01*
X89862Y-76437D01*
X85472Y-72047D02*
X89862Y-76437D01*
X86024Y-86614D02*
X93701Y-78937D01*
X73917Y-82500D02*
X78031Y-86614D01*
X86024D01*
X93701Y-78937D02*
Y-70276D01*
X89862Y-66437D02*
X93701Y-70276D01*
X81299Y-72047D02*
X85472D01*
X213779Y-93110D02*
X213779Y-93110D01*
X306309Y-99222D02*
X314262D01*
X306299Y-99213D02*
X306309Y-99222D01*
X314262D02*
X314272Y-99232D01*
X315057Y-116076D02*
X315158Y-115976D01*
X313681Y-119488D02*
X315057Y-118112D01*
Y-116076D01*
X307874Y-119488D02*
X313681D01*
X73917Y-58878D02*
X77835Y-62795D01*
X87992D01*
X94291Y-56496D01*
Y-48671D01*
X89862Y-44242D02*
X94291Y-48671D01*
X89862Y-110827D02*
X93898Y-114862D01*
X74823Y-130138D02*
X78543Y-133858D01*
X72264Y-130138D02*
X73721D01*
X93898Y-125000D02*
Y-114862D01*
X78543Y-133858D02*
X85039D01*
X93898Y-125000D01*
X317717Y-121752D02*
Y-115976D01*
X74370Y-54331D02*
X81299D01*
X84055Y-205906D02*
Y-201969D01*
Y-187402D02*
Y-183465D01*
Y-168701D02*
Y-164764D01*
X84449Y-151181D02*
Y-147244D01*
Y-142520D02*
X85236D01*
X88386Y-145669D01*
X73721Y-125138D02*
X81240D01*
X81299Y-125197D01*
X73721Y-115138D02*
X78563D01*
X80315Y-113386D01*
X81299D01*
X73917Y-101319D02*
X81043D01*
X81299Y-101575D01*
X89862Y-88632D02*
X90600D01*
X94291Y-92323D01*
Y-100058D02*
Y-92323D01*
X92659Y-101691D02*
X94291Y-100058D01*
X92601Y-101691D02*
X92659D01*
X84055Y-110236D02*
X92601Y-101691D01*
X78740Y-110236D02*
X84055D01*
X74823Y-106319D02*
X78740Y-110236D01*
X73917Y-91319D02*
X75610D01*
X77165Y-89764D01*
X81299D01*
X74370Y-77953D02*
X81299D01*
X73917Y-67500D02*
X77382D01*
X78740Y-66142D01*
X81299D01*
X89862Y-126083D02*
Y-120827D01*
X84842Y-131102D02*
X89862Y-126083D01*
X81299Y-131102D02*
X84842D01*
X88327Y-119291D02*
X89862Y-120827D01*
X81299Y-119291D02*
X88327D01*
X81299Y-107480D02*
X82480D01*
X86221Y-103740D01*
X88376Y-98632D02*
X89862D01*
X86221Y-103740D02*
Y-100787D01*
X88376Y-98632D01*
X81299Y-95669D02*
X81890D01*
X84852Y-98632D01*
X89862D01*
X29528Y-138779D02*
X29921Y-138386D01*
X29528Y-138779D02*
X35827D01*
X39567Y-142520D01*
Y-151969D02*
Y-142520D01*
Y-151969D02*
X43159Y-155561D01*
X45669D01*
D15*
X273033Y-63432D02*
X274133D01*
X268633D02*
X269333D01*
X268633Y-63532D02*
X269333D01*
X268633Y-63632D02*
X269333D01*
X268633Y-63732D02*
X269333D01*
X268633Y-63832D02*
X269333D01*
X268633Y-63932D02*
X269333D01*
X271033Y-63432D02*
X272233D01*
X271133Y-63532D02*
X274033D01*
X271333Y-63632D02*
X273933D01*
X271433Y-63732D02*
X273833D01*
X271633Y-63832D02*
X273633D01*
X271833Y-63932D02*
X273333D01*
X272333Y-64032D02*
X272933D01*
X275733Y-63432D02*
X277033D01*
X275833Y-63532D02*
X278933D01*
X275933Y-63632D02*
X278833D01*
X276033Y-63732D02*
X278733D01*
X277833Y-63432D02*
X279033D01*
X277033Y-64032D02*
X277733D01*
X276533Y-63932D02*
X278233D01*
X276233Y-63832D02*
X278533D01*
X267833Y-67732D02*
X268433D01*
X267733Y-67832D02*
X268433D01*
X267733Y-67932D02*
X268433D01*
X267733Y-68032D02*
X268533D01*
X267633Y-68132D02*
X268533D01*
X267633Y-68232D02*
X268533D01*
X267633Y-68332D02*
X268633D01*
X267533Y-68432D02*
X268633D01*
X267533Y-68532D02*
X268633D01*
X270733Y-67932D02*
X271433D01*
X270633Y-68032D02*
X271333D01*
X270533Y-68432D02*
X271233D01*
X270533Y-68532D02*
X271233D01*
X270733Y-67732D02*
X271433D01*
X270733Y-67832D02*
X271433D01*
X273733Y-67632D02*
X274733D01*
X273333Y-67732D02*
X275133D01*
X273133Y-67832D02*
X275333D01*
X272933Y-67932D02*
X275533D01*
X272833Y-68032D02*
X275633D01*
X272733Y-68132D02*
X275733D01*
X270633D02*
X271333D01*
X270633Y-68232D02*
X271333D01*
X272633D02*
X273733D01*
X272533Y-68332D02*
X273433D01*
X272433Y-68432D02*
X273333D01*
X272333Y-68532D02*
X273233D01*
X272333Y-68632D02*
X273133D01*
X272233Y-69132D02*
X272933D01*
X272333Y-68732D02*
X273033D01*
X272233Y-68832D02*
X272933D01*
X272233Y-68932D02*
X272933D01*
X272233Y-69032D02*
X272933D01*
X267433Y-68832D02*
X268033D01*
X268233Y-69332D02*
X268933D01*
X268133Y-69032D02*
X268833D01*
X268233Y-69232D02*
X268833D01*
X268233Y-69132D02*
X268833D01*
X267333D02*
X267933D01*
X267433Y-68932D02*
X268033D01*
X267433Y-69032D02*
X268033D01*
X267333Y-69232D02*
X267933D01*
X267333Y-69332D02*
X267933D01*
X267233Y-69432D02*
X267933D01*
X267233Y-69532D02*
X267833D01*
X267233Y-69632D02*
X267833D01*
X268333Y-69432D02*
X268933D01*
X268333Y-69532D02*
X268933D01*
X267033Y-70032D02*
X267733D01*
X267133Y-69732D02*
X267833D01*
X267133Y-69832D02*
X267733D01*
X267133Y-69932D02*
X267733D01*
X267033Y-70132D02*
X267633D01*
X267033Y-70232D02*
X267633D01*
X267533Y-68732D02*
X268733D01*
X267533Y-68632D02*
X268733D01*
X270533Y-68332D02*
X271233D01*
X270533Y-68632D02*
X271233D01*
X270433Y-68732D02*
X271133D01*
X268133Y-68832D02*
X268733D01*
X268133Y-68932D02*
X268733D01*
X270333Y-69132D02*
X271033D01*
X270433Y-68832D02*
X271133D01*
X270433Y-68932D02*
X271133D01*
X270433Y-69032D02*
X271033D01*
X270333Y-69232D02*
X271033D01*
X270333Y-69332D02*
X270933D01*
X273833Y-69832D02*
X276133D01*
X275433Y-69532D02*
X276133D01*
X275433Y-69632D02*
X276133D01*
X275433Y-69732D02*
X276133D01*
X273333Y-69932D02*
X276133D01*
X273033Y-70032D02*
X276133D01*
X272833Y-70132D02*
X276133D01*
X272733Y-70232D02*
X276133D01*
X275233Y-68532D02*
X275933D01*
X275433Y-69432D02*
X276133D01*
X275433Y-68932D02*
X276133D01*
X275233Y-68632D02*
X276033D01*
X275333Y-68732D02*
X276033D01*
X275333Y-68832D02*
X276033D01*
X275433Y-69032D02*
X276133D01*
X275433Y-69332D02*
X276133D01*
X275433Y-69132D02*
X276133D01*
X275433Y-69232D02*
X276133D01*
X275033Y-68432D02*
X275933D01*
X274733Y-68232D02*
X275833D01*
X274933Y-68332D02*
X275833D01*
X278633Y-67832D02*
X279933D01*
X279633Y-68232D02*
X279933D01*
X278433Y-67932D02*
X279933D01*
X278333Y-68032D02*
X279933D01*
X279033Y-67632D02*
X279933D01*
X277533Y-68232D02*
X278133D01*
X277533Y-67832D02*
X278133D01*
X277533Y-67932D02*
X278133D01*
X277533Y-68032D02*
X278133D01*
X277533Y-68132D02*
X278133D01*
X277533Y-67732D02*
X278133D01*
X278733D02*
X279933D01*
X282033Y-67632D02*
X283033D01*
X281733Y-67732D02*
X283333D01*
X281533Y-67832D02*
X283533D01*
X281333Y-67932D02*
X283733D01*
X281233Y-68032D02*
X283833D01*
X277533Y-69732D02*
X278133D01*
X277533Y-69132D02*
X278233D01*
X277533Y-69332D02*
X278133D01*
X277533Y-69432D02*
X278133D01*
X277533Y-69532D02*
X278133D01*
X277533Y-69632D02*
X278133D01*
X277533Y-69232D02*
X278233D01*
X268533Y-70032D02*
X269133D01*
X270233Y-69532D02*
X270933D01*
X270333Y-69432D02*
X270933D01*
X270233Y-69632D02*
X270933D01*
X270233Y-69732D02*
X270833D01*
X268433D02*
X269033D01*
X268333Y-69632D02*
X269033D01*
X268433Y-69832D02*
X269033D01*
X268433Y-69932D02*
X269133D01*
X268533Y-70132D02*
X269133D01*
X268533Y-70232D02*
X269233D01*
X270133Y-70132D02*
X270733D01*
X270133Y-69832D02*
X270833D01*
X270133Y-69932D02*
X270833D01*
X270133Y-70032D02*
X270733D01*
X270033Y-70232D02*
X270733D01*
X256833Y-70032D02*
X257433D01*
X256833Y-69932D02*
X257433D01*
X256833Y-69632D02*
X257433D01*
X256833Y-69732D02*
X257433D01*
X256833Y-69832D02*
X257433D01*
X253133D02*
X255433D01*
X252633Y-69932D02*
X255433D01*
X252333Y-70032D02*
X255433D01*
X247233Y-68232D02*
X248233D01*
X246433Y-68932D02*
X247333D01*
X246433Y-68532D02*
X247633D01*
X246433Y-68332D02*
X247933D01*
X246433Y-68432D02*
X247833D01*
X246433Y-68632D02*
X247533D01*
X246433Y-68732D02*
X247433D01*
X246433Y-68832D02*
X247433D01*
X252133Y-68032D02*
X254933D01*
X254033Y-68232D02*
X255133D01*
X254233Y-68332D02*
X255133D01*
X252033Y-68132D02*
X255033D01*
X256833D02*
X257433D01*
X256833Y-67732D02*
X257433D01*
X256833Y-67832D02*
X257433D01*
X257933D02*
X259233D01*
X258033Y-67732D02*
X259233D01*
X258333Y-67632D02*
X259233D01*
X261233D02*
X262133D01*
X260933Y-67732D02*
X262533D01*
X257733Y-67932D02*
X259233D01*
X260533D02*
X262833D01*
X260733Y-67832D02*
X262733D01*
X256833Y-67932D02*
X257433D01*
X256833Y-68032D02*
X257433D01*
X260333Y-68132D02*
X263033D01*
X260233Y-68232D02*
X261433D01*
X256833D02*
X257433D01*
X256833Y-68432D02*
X258033D01*
X256833Y-68332D02*
X258233D01*
X257533Y-68232D02*
X258633D01*
X258933D02*
X259233D01*
X260133Y-68332D02*
X261133D01*
X260133Y-68432D02*
X261033D01*
X254733Y-69732D02*
X255433D01*
X254733Y-69332D02*
X255433D01*
X254533Y-68532D02*
X255233D01*
X254633Y-68832D02*
X255333D01*
X254533Y-68632D02*
X255333D01*
X254633Y-68732D02*
X255333D01*
X254733Y-68932D02*
X255433D01*
X254733Y-69032D02*
X255433D01*
X254733Y-69132D02*
X255433D01*
X254733Y-69232D02*
X255433D01*
X254733Y-69432D02*
X255433D01*
X254733Y-69532D02*
X255433D01*
X254333Y-68432D02*
X255233D01*
X254733Y-69632D02*
X255433D01*
X256833Y-68832D02*
X257633D01*
X256833Y-69232D02*
X257533D01*
X256833Y-69332D02*
X257433D01*
X256833Y-69432D02*
X257433D01*
X256833Y-69532D02*
X257433D01*
X256833Y-69132D02*
X257533D01*
X256833Y-69032D02*
X257533D01*
X256833Y-68932D02*
X257633D01*
X256833Y-68732D02*
X257733D01*
X256833Y-68632D02*
X257833D01*
X256833Y-68532D02*
X257933D01*
X259733Y-70032D02*
X260333D01*
X259733Y-69332D02*
X260433D01*
X259733Y-69432D02*
X260433D01*
X259733Y-69532D02*
X260433D01*
X259733Y-69232D02*
X260533D01*
X259733Y-69832D02*
X260333D01*
X259733Y-69932D02*
X260333D01*
X259733Y-69632D02*
X260433D01*
X259733Y-69732D02*
X260433D01*
X259833Y-69132D02*
X260533D01*
X259933Y-68832D02*
X260633D01*
X259833Y-69032D02*
X260533D01*
X259833Y-68932D02*
X260633D01*
X259933Y-68732D02*
X260733D01*
X260033Y-68632D02*
X260833D01*
X260033Y-68532D02*
X260933D01*
X261833Y-64032D02*
X262533D01*
X260833Y-63632D02*
X263533D01*
X260933Y-63732D02*
X263433D01*
X261133Y-63832D02*
X263233D01*
X261433Y-63932D02*
X262933D01*
X260733Y-63532D02*
X263633D01*
X262533Y-63432D02*
X263733D01*
X260633D02*
X261833D01*
X263233Y-71032D02*
X263833D01*
X263233Y-70532D02*
X263833D01*
X263233Y-70632D02*
X263833D01*
X263233Y-70932D02*
X263833D01*
X263233Y-71232D02*
X263833D01*
X263233Y-71332D02*
X263833D01*
X262933Y-71832D02*
X263833D01*
X262333Y-72232D02*
X263833D01*
X262533Y-72132D02*
X263833D01*
X262733Y-72032D02*
X263833D01*
X262833Y-71932D02*
X263833D01*
X260033Y-71832D02*
X260733D01*
X260033Y-71932D02*
X260833D01*
X260133Y-72032D02*
X260933D01*
X260133Y-72132D02*
X261133D01*
X260233Y-72232D02*
X261333D01*
X263033Y-71732D02*
X263833D01*
X263133Y-71432D02*
X263833D01*
X263033Y-71632D02*
X263833D01*
X263133Y-71532D02*
X263833D01*
X262033Y-77432D02*
X262633D01*
X258733Y-77032D02*
X259433D01*
X262033D02*
X262633D01*
X262033Y-77332D02*
X262633D01*
X262033Y-77132D02*
X262633D01*
X258733Y-76632D02*
X259433D01*
X258733Y-76332D02*
X259433D01*
X258733Y-76432D02*
X259433D01*
X258733Y-76532D02*
X259433D01*
X258733Y-76732D02*
X259433D01*
X258733Y-75932D02*
X259433D01*
X258733Y-76032D02*
X259433D01*
X283833Y-69532D02*
X284533D01*
X283733Y-68932D02*
X284433D01*
X283633Y-68832D02*
X284333D01*
X283433Y-68532D02*
X284233D01*
X283533Y-68632D02*
X284333D01*
X283533Y-68732D02*
X284333D01*
X283733Y-69032D02*
X284433D01*
X283733Y-69132D02*
X284433D01*
X283833Y-69232D02*
X284433D01*
X283833Y-69332D02*
X284533D01*
X283833Y-69432D02*
X284533D01*
X283833Y-69632D02*
X284533D01*
X283933Y-69732D02*
X284533D01*
X281133Y-68132D02*
X283933D01*
X282933Y-68232D02*
X284033D01*
X283133Y-68332D02*
X284133D01*
X280833Y-68432D02*
X281733D01*
X280933Y-68332D02*
X281833D01*
X281033Y-68232D02*
X282133D01*
X278233Y-68132D02*
X279933D01*
X277533Y-68432D02*
X278733D01*
X277533Y-68332D02*
X278933D01*
X278233Y-68232D02*
X279333D01*
X283333Y-68432D02*
X284133D01*
X280733Y-68532D02*
X281633D01*
X280633Y-68832D02*
X281333D01*
X280633Y-68732D02*
X281433D01*
X280733Y-68632D02*
X281533D01*
X280533Y-68932D02*
X281233D01*
X280433Y-69132D02*
X281133D01*
X280633Y-71732D02*
X281433D01*
X280833Y-72032D02*
X281733D01*
X280633Y-71832D02*
X281533D01*
X280733Y-71932D02*
X281633D01*
X283933Y-71732D02*
X284233D01*
X283833Y-71832D02*
X284333D01*
X283733Y-71932D02*
X284433D01*
X280833Y-72132D02*
X281833D01*
X280933Y-72232D02*
X282033D01*
X281033Y-72332D02*
X282533D01*
X281133Y-72432D02*
X284033D01*
X282733Y-72332D02*
X284133D01*
X283233Y-72232D02*
X284233D01*
X277533Y-68532D02*
X278633D01*
X277533Y-69032D02*
X278233D01*
X277533Y-68832D02*
X278333D01*
X277533Y-68932D02*
X278333D01*
X277533Y-68732D02*
X278433D01*
X277533Y-68632D02*
X278533D01*
X280533Y-69032D02*
X281233D01*
X280333Y-69732D02*
X281033D01*
X280333Y-69632D02*
X281033D01*
X280333Y-69532D02*
X281033D01*
X280333Y-69432D02*
X281033D01*
X280433Y-69332D02*
X281133D01*
X280433Y-69232D02*
X281133D01*
X280333Y-70432D02*
X280933D01*
X280333Y-70732D02*
X280933D01*
X280333Y-70532D02*
X280933D01*
X280333Y-70632D02*
X280933D01*
X280333Y-70832D02*
X281033D01*
X280433Y-71332D02*
X281133D01*
X280333Y-71032D02*
X281033D01*
X280333Y-71132D02*
X281033D01*
X280333Y-70932D02*
X281033D01*
X280433Y-71232D02*
X281133D01*
X280433Y-71432D02*
X281233D01*
X280533Y-71532D02*
X281233D01*
X280533Y-71632D02*
X281333D01*
X280333Y-70332D02*
X284533D01*
X280333Y-69932D02*
X284533D01*
X280333Y-70132D02*
X284533D01*
X280333Y-69832D02*
X284533D01*
X280333Y-70232D02*
X284533D01*
X280333Y-70032D02*
X284533D01*
X281933Y-72832D02*
X283333D01*
X283433Y-72132D02*
X284333D01*
X283633Y-72032D02*
X284433D01*
X281433Y-72632D02*
X283833D01*
X281333Y-72532D02*
X283933D01*
X281633Y-72732D02*
X283633D01*
X277533Y-69832D02*
X278133D01*
X277533Y-70832D02*
X278133D01*
X277533Y-70532D02*
X278133D01*
X277533Y-70432D02*
X278133D01*
X277533Y-70332D02*
X278133D01*
X277533Y-70032D02*
X278133D01*
X277533Y-69932D02*
X278133D01*
X277533Y-70132D02*
X278133D01*
X277533Y-70232D02*
X278133D01*
X277533Y-70632D02*
X278133D01*
X277533Y-70732D02*
X278133D01*
X277533Y-70932D02*
X278133D01*
X277533Y-71032D02*
X278133D01*
X277533Y-71132D02*
X278133D01*
X277533Y-71232D02*
X278133D01*
X277533Y-71332D02*
X278133D01*
X277533Y-71532D02*
X278133D01*
X277533Y-71432D02*
X278133D01*
X277533Y-71632D02*
X278133D01*
X277533Y-71732D02*
X278133D01*
X277533Y-71832D02*
X278133D01*
X277533Y-71932D02*
X278133D01*
X277533Y-72032D02*
X278133D01*
X277533Y-72732D02*
X278133D01*
X277533Y-72232D02*
X278133D01*
X277533Y-72132D02*
X278133D01*
X277533Y-72332D02*
X278133D01*
X277533Y-72432D02*
X278133D01*
X277533Y-72532D02*
X278133D01*
X277533Y-72632D02*
X278133D01*
X282233Y-80232D02*
X283233D01*
X282633Y-79132D02*
X283433D01*
X282333Y-78832D02*
X283233D01*
X282433Y-78932D02*
X283333D01*
X282533Y-79032D02*
X283333D01*
X282733Y-79232D02*
X283433D01*
X282733Y-79332D02*
X283433D01*
X282733Y-79432D02*
X283433D01*
X282733Y-79532D02*
X283433D01*
X282733Y-79632D02*
X283433D01*
X282733Y-79732D02*
X283433D01*
X282733Y-79832D02*
X283433D01*
X282633Y-79932D02*
X283333D01*
X282133Y-78732D02*
X283233D01*
X280733Y-75732D02*
X282233D01*
X280433Y-75832D02*
X282533D01*
X280133Y-76032D02*
X282833D01*
X280333Y-75932D02*
X282733D01*
X280033Y-76132D02*
X283033D01*
X281733Y-76232D02*
X283033D01*
X282133Y-76332D02*
X283133D01*
X282233Y-76432D02*
X283233D01*
X279933Y-76232D02*
X281233D01*
X279733Y-76632D02*
X280433D01*
X279733Y-76532D02*
X280533D01*
X279833Y-76432D02*
X280733D01*
X279833Y-76332D02*
X280833D01*
X282433Y-80132D02*
X283333D01*
X282533Y-80032D02*
X283333D01*
X282733Y-77132D02*
X283433D01*
X282733Y-76932D02*
X283433D01*
X282733Y-77232D02*
X283433D01*
X279733Y-76732D02*
X280433D01*
X279633Y-77132D02*
X280333D01*
X282733Y-77032D02*
X283433D01*
X279633Y-76932D02*
X280333D01*
X279633Y-77032D02*
X280333D01*
X279633Y-76832D02*
X280333D01*
X279633Y-77232D02*
X280333D01*
X279733Y-77332D02*
X280433D01*
X279733Y-77432D02*
X280433D01*
X279733Y-77532D02*
X280533D01*
X279733Y-77632D02*
X280733D01*
X279833Y-77732D02*
X280933D01*
X279933Y-77832D02*
X281133D01*
X282633Y-76832D02*
X283333D01*
X282433Y-76532D02*
X283233D01*
X282533Y-76632D02*
X283333D01*
X282633Y-76732D02*
X283333D01*
X280033Y-77932D02*
X281533D01*
X280433Y-78232D02*
X282533D01*
X280133Y-78032D02*
X281933D01*
X280233Y-78132D02*
X282233D01*
X280733Y-78332D02*
X282733D01*
X281033Y-78432D02*
X282933D01*
X281433Y-78532D02*
X283033D01*
X281833Y-78632D02*
X283133D01*
X279533Y-79432D02*
X280133D01*
X279733Y-80232D02*
X280733D01*
X279733Y-80132D02*
X280633D01*
X279533Y-79532D02*
X280233D01*
X279533Y-79632D02*
X280233D01*
X279533Y-79732D02*
X280233D01*
X279533Y-79832D02*
X280333D01*
X279633Y-79932D02*
X280333D01*
X279633Y-80032D02*
X280433D01*
X279833Y-80332D02*
X281033D01*
Y-80932D02*
X281933D01*
X280033Y-80532D02*
X282933D01*
X281933Y-80332D02*
X283133D01*
X279933Y-80432D02*
X283033D01*
X280233Y-80632D02*
X282833D01*
X280333Y-80732D02*
X282633D01*
X280633Y-80832D02*
X282433D01*
X263233Y-69732D02*
X263833D01*
X257533Y-68132D02*
X259233D01*
X257633Y-68032D02*
X259233D01*
X260433D02*
X262933D01*
X262233Y-68232D02*
X263133D01*
X262433Y-68332D02*
X263833D01*
X262633Y-68432D02*
X263833D01*
X262733Y-68532D02*
X263833D01*
X262833Y-68632D02*
X263833D01*
X262933Y-68732D02*
X263833D01*
X263033Y-68932D02*
X263833D01*
X263033Y-68832D02*
X263833D01*
X263133Y-69032D02*
X263833D01*
X263233Y-69432D02*
X263833D01*
X263233Y-69232D02*
X263833D01*
X263233Y-69532D02*
X263833D01*
X256833Y-71332D02*
X257433D01*
X256833Y-71432D02*
X257433D01*
X256833Y-71532D02*
X257433D01*
X256833Y-71832D02*
X257433D01*
X256833Y-71632D02*
X257433D01*
X256833Y-71732D02*
X257433D01*
X256833Y-71932D02*
X257433D01*
X256833Y-72032D02*
X257433D01*
X256833Y-72132D02*
X257433D01*
X256833Y-72232D02*
X257433D01*
X256833Y-72332D02*
X257433D01*
X256833Y-72432D02*
X257433D01*
X256833Y-72532D02*
X257433D01*
X256833Y-70132D02*
X257433D01*
X259733D02*
X260333D01*
X256833Y-70232D02*
X257433D01*
X259733D02*
X260333D01*
X259733Y-70332D02*
X260333D01*
X259733Y-70432D02*
X260333D01*
X259733Y-70532D02*
X260333D01*
X259733Y-70632D02*
X260333D01*
X256833Y-71232D02*
X257433D01*
X256833Y-70632D02*
X257433D01*
X256833Y-70332D02*
X257433D01*
X256833Y-70432D02*
X257433D01*
X256833Y-70532D02*
X257433D01*
X256833Y-70732D02*
X257433D01*
X256833Y-70832D02*
X257433D01*
X256833Y-70932D02*
X257433D01*
X256833Y-71032D02*
X257433D01*
X256833Y-71132D02*
X257433D01*
X259833Y-71532D02*
X260633D01*
X259733Y-71032D02*
X260433D01*
X259733Y-70732D02*
X260333D01*
X259733Y-70832D02*
X260433D01*
X259733Y-70932D02*
X260433D01*
X259733Y-71132D02*
X260433D01*
X259733Y-71232D02*
X260433D01*
X259833Y-71332D02*
X260533D01*
X259833Y-71432D02*
X260533D01*
X259933Y-71632D02*
X260633D01*
X259933Y-71732D02*
X260733D01*
X264333Y-76332D02*
X264933D01*
X264333Y-77432D02*
X264933D01*
X264333Y-77332D02*
X264933D01*
X264333Y-77132D02*
X264933D01*
X264333Y-76932D02*
X264933D01*
X264333Y-77232D02*
X264933D01*
X264333Y-77032D02*
X264933D01*
X264333Y-76532D02*
X264933D01*
X264333Y-76432D02*
X264933D01*
X262033Y-77232D02*
X262633D01*
X262033Y-78932D02*
X262633D01*
X262033Y-78732D02*
X262633D01*
X262033Y-78532D02*
X262633D01*
X262033Y-78432D02*
X262633D01*
X262033Y-78632D02*
X262633D01*
X262033Y-78332D02*
X262633D01*
X262033Y-78232D02*
X262633D01*
X262033Y-78032D02*
X262633D01*
X262033Y-78132D02*
X262633D01*
X262033Y-78832D02*
X262633D01*
X262033Y-77832D02*
X262633D01*
X262033Y-77632D02*
X262633D01*
X258733Y-76832D02*
X259433D01*
X258733Y-77532D02*
X259433D01*
X258733Y-77632D02*
X259433D01*
X258733Y-77332D02*
X259433D01*
X258733Y-77232D02*
X259433D01*
X258733Y-76932D02*
X259433D01*
X258733Y-77132D02*
X259433D01*
X258733Y-77432D02*
X259433D01*
X262033Y-76932D02*
X262633D01*
X262033Y-75932D02*
X262633D01*
X262033Y-75732D02*
X262633D01*
X262033Y-75832D02*
X262633D01*
X262033Y-76032D02*
X262633D01*
X262033Y-76432D02*
X262633D01*
X262033Y-76132D02*
X262633D01*
X262033Y-76232D02*
X262633D01*
X262033Y-76332D02*
X262633D01*
X262033Y-76832D02*
X262633D01*
X262033Y-76732D02*
X262633D01*
X262033Y-76632D02*
X262633D01*
X262033Y-76532D02*
X262633D01*
X262033Y-77732D02*
X262633D01*
X262033Y-77932D02*
X262633D01*
X260933Y-80332D02*
X262633D01*
X261233Y-80232D02*
X262633D01*
X258733Y-77832D02*
X259433D01*
X258733Y-77732D02*
X259433D01*
X258733Y-75732D02*
X259433D01*
X258733Y-75832D02*
X259433D01*
X258733Y-76132D02*
X259433D01*
X258733Y-76232D02*
X259433D01*
X258733Y-77932D02*
X259433D01*
X258733Y-78732D02*
X259433D01*
X258733Y-78332D02*
X259433D01*
X258733Y-78032D02*
X259433D01*
X258733Y-78232D02*
X259433D01*
X258733Y-78132D02*
X259433D01*
X258733Y-78432D02*
X259433D01*
X258733Y-78632D02*
X259433D01*
X258733Y-78532D02*
X259433D01*
X258733Y-78832D02*
X259433D01*
X258733Y-78932D02*
X259433D01*
X258733Y-79032D02*
X259433D01*
X258733Y-79132D02*
X259433D01*
X258733Y-79232D02*
X259433D01*
X258933Y-80032D02*
X259733D01*
X258733Y-79432D02*
X259433D01*
X258733Y-79332D02*
X259433D01*
X258733Y-79532D02*
X259433D01*
X258733Y-79632D02*
X259533D01*
X258833Y-79732D02*
X259533D01*
X258833Y-79832D02*
X259533D01*
X258833Y-79932D02*
X259633D01*
X258933Y-80132D02*
X259833D01*
X259033Y-80232D02*
X259933D01*
X259033Y-80332D02*
X260233D01*
X262033Y-79032D02*
X262633D01*
X262033Y-79132D02*
X262633D01*
X262033Y-79232D02*
X262633D01*
X262033Y-80532D02*
X262633D01*
X260033Y-80932D02*
X260833D01*
X259633Y-80832D02*
X261333D01*
X259433Y-80732D02*
X261533D01*
X259133Y-80432D02*
X261933D01*
X259233Y-80532D02*
X261833D01*
X259333Y-80632D02*
X261733D01*
X262033Y-80832D02*
X262633D01*
X262033Y-80432D02*
X262633D01*
X261533Y-80032D02*
X262633D01*
X261833Y-79632D02*
X262633D01*
X261633Y-79932D02*
X262633D01*
X261733Y-79832D02*
X262633D01*
X261833Y-79732D02*
X262633D01*
X261933Y-79432D02*
X262633D01*
X261933Y-79532D02*
X262633D01*
X262033Y-79332D02*
X262633D01*
X261433Y-80132D02*
X262633D01*
X262033Y-80732D02*
X262633D01*
X262033Y-80632D02*
X262633D01*
X252533Y-75732D02*
X254033D01*
X251833Y-76132D02*
X254733D01*
X252333Y-75832D02*
X254233D01*
X252133Y-75932D02*
X254433D01*
X251933Y-76032D02*
X254633D01*
X253533Y-76232D02*
X254833D01*
X253833Y-76332D02*
X254933D01*
X254033Y-76432D02*
X255033D01*
X254233Y-76532D02*
X255133D01*
X254333Y-76632D02*
X255133D01*
X254433Y-76732D02*
X255233D01*
X254433Y-76832D02*
X255233D01*
X254533Y-76932D02*
X255333D01*
X254933Y-78432D02*
X255533D01*
X254533Y-79732D02*
X255333D01*
X254833Y-79032D02*
X255533D01*
X254933Y-78632D02*
X255533D01*
X254833Y-78832D02*
X255533D01*
X254833Y-78932D02*
X255533D01*
X254933Y-78732D02*
X255533D01*
X254833Y-79132D02*
X255533D01*
X254733Y-79232D02*
X255433D01*
X254733Y-79332D02*
X255433D01*
X254733Y-79432D02*
X255433D01*
X254633Y-79532D02*
X255333D01*
X254533Y-79632D02*
X255333D01*
X254633Y-77032D02*
X255333D01*
X254733Y-77332D02*
X255433D01*
X254633Y-77132D02*
X255433D01*
X254733Y-77232D02*
X255433D01*
X254833Y-77432D02*
X255533D01*
X254833Y-77532D02*
X255533D01*
X254833Y-77632D02*
X255533D01*
X254833Y-77732D02*
X255533D01*
X254933Y-77832D02*
X255533D01*
X254933Y-77932D02*
X255533D01*
X254933Y-78132D02*
X255533D01*
X254933Y-78232D02*
X255533D01*
X254933Y-78032D02*
X255533D01*
X254933Y-78332D02*
X255533D01*
X256833Y-72632D02*
X257433D01*
X256833Y-72732D02*
X257433D01*
X256733Y-78032D02*
X257333D01*
X256733Y-78132D02*
X257333D01*
X256733Y-76532D02*
X257333D01*
X256733Y-76232D02*
X257333D01*
X256733Y-76332D02*
X257333D01*
X256733Y-76432D02*
X257333D01*
X256733Y-76632D02*
X257333D01*
X256733Y-77332D02*
X257333D01*
X256733Y-76932D02*
X257333D01*
X256733Y-77032D02*
X257333D01*
X256733Y-77132D02*
X257333D01*
X256733Y-77232D02*
X257333D01*
X256733Y-77432D02*
X257333D01*
X256733Y-77532D02*
X257333D01*
X256733Y-77632D02*
X257333D01*
X256733Y-77732D02*
X257333D01*
X256733Y-77832D02*
X257333D01*
X256733Y-77932D02*
X257333D01*
X256733Y-78232D02*
X257333D01*
X256733Y-78632D02*
X257333D01*
X256733Y-78432D02*
X257333D01*
X256733Y-78332D02*
X257333D01*
X256733Y-78532D02*
X257333D01*
X256733Y-78732D02*
X257333D01*
X256733Y-78832D02*
X257333D01*
X256733Y-78932D02*
X257333D01*
X256733Y-79032D02*
X257333D01*
X256733Y-79132D02*
X257333D01*
X256733Y-79232D02*
X257333D01*
X256733Y-79332D02*
X257333D01*
X252833Y-80932D02*
X253633D01*
X254933Y-78532D02*
X255533D01*
X251733Y-80432D02*
X254733D01*
X251933Y-80532D02*
X254633D01*
X252033Y-80632D02*
X254533D01*
X252233Y-80732D02*
X254333D01*
X252433Y-80832D02*
X254133D01*
X253633Y-80332D02*
X254833D01*
X254333Y-79932D02*
X255233D01*
X254233Y-80032D02*
X255133D01*
X254133Y-80132D02*
X255033D01*
X253933Y-80232D02*
X254933D01*
X254433Y-79832D02*
X255233D01*
X256733D02*
X257333D01*
X256733Y-79532D02*
X257333D01*
X256733Y-79432D02*
X257333D01*
X256733Y-79632D02*
X257333D01*
X256733Y-79732D02*
X257333D01*
X256733Y-79932D02*
X257333D01*
X256733Y-80032D02*
X257333D01*
X256733Y-80132D02*
X257333D01*
X256733Y-80232D02*
X257333D01*
X256733Y-80332D02*
X257333D01*
X256733Y-80432D02*
X257333D01*
X256733Y-80832D02*
X257333D01*
X256733Y-80532D02*
X257333D01*
X256733Y-80632D02*
X257333D01*
X256733Y-80732D02*
X257333D01*
X263233Y-71132D02*
X263833D01*
X263133Y-69132D02*
X263833D01*
X263233Y-69332D02*
X263833D01*
X263233Y-69632D02*
X263833D01*
X263233Y-70032D02*
X263833D01*
X263233Y-69832D02*
X263833D01*
X263233Y-70132D02*
X263833D01*
X263233Y-70232D02*
X263833D01*
X263233Y-69932D02*
X263833D01*
X263233Y-70732D02*
X263833D01*
X263233Y-70332D02*
X263833D01*
X263233Y-70432D02*
X263833D01*
X263233Y-70832D02*
X263833D01*
X265933Y-71632D02*
X267233D01*
X265933Y-71932D02*
X267133D01*
X265933Y-71732D02*
X267133D01*
X265933Y-71832D02*
X267133D01*
X266033Y-72032D02*
X267033D01*
X266033Y-72132D02*
X267033D01*
X266033Y-72232D02*
X267033D01*
X266133Y-72332D02*
X266933D01*
X266133Y-72432D02*
X266933D01*
X266133Y-72532D02*
X266933D01*
X266133Y-72632D02*
X266833D01*
X266233Y-72732D02*
X266833D01*
X264933Y-68432D02*
X265633D01*
X265033Y-68532D02*
X265633D01*
X265033Y-68632D02*
X265733D01*
X265033Y-68832D02*
X265733D01*
X265033Y-68732D02*
X265733D01*
X261033Y-72832D02*
X262333D01*
X260333Y-72332D02*
X263133D01*
X260533Y-72532D02*
X262933D01*
X260433Y-72432D02*
X263033D01*
X260833Y-72732D02*
X262633D01*
X260633Y-72632D02*
X262833D01*
X263233Y-72732D02*
X263833D01*
X263233Y-72332D02*
X263833D01*
X263233Y-72432D02*
X263833D01*
X263233Y-72632D02*
X263833D01*
X263233Y-72532D02*
X263833D01*
X265533Y-70332D02*
X266133D01*
X265633Y-70632D02*
X266233D01*
X265533Y-70432D02*
X266233D01*
X265533Y-70532D02*
X266233D01*
X265633Y-70732D02*
X266233D01*
X265633Y-70832D02*
X266333D01*
X265733Y-70932D02*
X266333D01*
X265733Y-71032D02*
X266333D01*
X266933Y-70532D02*
X267533D01*
X266933Y-70332D02*
X267633D01*
X266933Y-70432D02*
X267533D01*
X268633Y-70332D02*
X269233D01*
X268633Y-70432D02*
X269233D01*
X265833Y-71532D02*
X266533D01*
X265833Y-71432D02*
X266433D01*
X265833Y-71332D02*
X266433D01*
X266933Y-70632D02*
X267533D01*
X266833Y-70732D02*
X267433D01*
X266833Y-70832D02*
X267433D01*
X266833Y-70932D02*
X267433D01*
X266733Y-71032D02*
X267333D01*
X266733Y-71132D02*
X267333D01*
X266733Y-71232D02*
X267333D01*
X266633Y-71332D02*
X267233D01*
X266633Y-71432D02*
X267233D01*
X266633Y-71532D02*
X267233D01*
X268633Y-70532D02*
X269233D01*
X270033D02*
X270633D01*
X268733Y-70732D02*
X269333D01*
X268633Y-70632D02*
X269333D01*
X269933D02*
X270633D01*
X269933Y-70732D02*
X270533D01*
X268733Y-70832D02*
X269333D01*
X269933D02*
X270533D01*
X269933Y-70932D02*
X270533D01*
X268733D02*
X269433D01*
X269833Y-71032D02*
X270533D01*
X268833D02*
X269433D01*
X269833Y-71132D02*
X270433D01*
X270033Y-70332D02*
X270733D01*
X270033Y-70432D02*
X270633D01*
X265733Y-71232D02*
X266433D01*
X265733Y-71132D02*
X266433D01*
X268833D02*
X269433D01*
X268833Y-71232D02*
X269533D01*
X268933Y-71332D02*
X269533D01*
X269833Y-71232D02*
X270433D01*
X268933Y-71432D02*
X269533D01*
X269733Y-71332D02*
X270433D01*
X269733Y-71432D02*
X270333D01*
X268933Y-71532D02*
X269633D01*
X269733D02*
X270333D01*
X269033Y-71632D02*
X269633D01*
X269733D02*
X270333D01*
X269033Y-71732D02*
X270233D01*
X269033Y-71832D02*
X270233D01*
X269133Y-71932D02*
X270233D01*
X269133Y-72032D02*
X270233D01*
X269133Y-72132D02*
X270133D01*
X267033Y-74532D02*
X267833D01*
X267033Y-74132D02*
X267833D01*
X267233Y-73932D02*
X267633D01*
X267033Y-74432D02*
X267833D01*
X267133Y-74032D02*
X267833D01*
X267033Y-74232D02*
X267933D01*
X267033Y-74332D02*
X267933D01*
X269333Y-72532D02*
X270033D01*
X269233Y-72332D02*
X270133D01*
X269233Y-72232D02*
X270133D01*
X269233Y-72432D02*
X270033D01*
X269333Y-72632D02*
X270033D01*
X269333Y-72732D02*
X270033D01*
X249433Y-62632D02*
X250233D01*
X249633Y-63032D02*
X250533D01*
X249533Y-62832D02*
X250333D01*
X249533Y-62732D02*
X250233D01*
X249633Y-62932D02*
X250433D01*
X273933Y-62632D02*
X274633D01*
X275433Y-62732D02*
X276133D01*
X270633Y-62632D02*
X271333D01*
X270633Y-62732D02*
X271333D01*
X270733Y-62832D02*
X271433D01*
X275333Y-62632D02*
X276033D01*
X273833Y-62732D02*
X274533D01*
X273833Y-62832D02*
X274533D01*
X275433D02*
X276133D01*
X273733Y-62932D02*
X274533D01*
X273633Y-63032D02*
X274433D01*
X270733Y-62932D02*
X271533D01*
X270833Y-63032D02*
X271633D01*
X271033Y-63332D02*
X272033D01*
X270933Y-63232D02*
X271833D01*
X270833Y-63132D02*
X271733D01*
X273433Y-63232D02*
X274333D01*
X273233Y-63332D02*
X274233D01*
X273533Y-63132D02*
X274433D01*
X272433Y-70532D02*
X273433D01*
X272333Y-70632D02*
X273233D01*
X272233Y-70732D02*
X273133D01*
X272233Y-70832D02*
X273033D01*
X272233Y-70932D02*
X272933D01*
X275433Y-70532D02*
X276133D01*
X275433Y-70832D02*
X276133D01*
X275433Y-70932D02*
X276133D01*
X275433Y-71032D02*
X276133D01*
X275433Y-71132D02*
X276133D01*
X272133Y-71832D02*
X272933D01*
X272133Y-71732D02*
X272833D01*
X275433Y-70632D02*
X276133D01*
X275433Y-70732D02*
X276133D01*
X275433Y-71232D02*
X276133D01*
X275233Y-71632D02*
X276133D01*
X275433Y-71332D02*
X276133D01*
X275433Y-71432D02*
X276133D01*
X275333Y-71532D02*
X276133D01*
X275233Y-71732D02*
X276133D01*
X275133Y-71832D02*
X276133D01*
X272133Y-71632D02*
X272833D01*
X272133Y-71032D02*
X272833D01*
X272133Y-71132D02*
X272833D01*
X272133Y-71232D02*
X272833D01*
X272133Y-71332D02*
X272833D01*
X272133Y-71432D02*
X272833D01*
X272133Y-71532D02*
X272833D01*
X276933Y-61532D02*
X278733D01*
X275933Y-61032D02*
X277433D01*
X275833Y-60932D02*
X277033D01*
X275733Y-60832D02*
X276833D01*
X276033Y-61132D02*
X277833D01*
X276133Y-61232D02*
X278133D01*
X276333Y-61332D02*
X278433D01*
X276633Y-61432D02*
X278633D01*
X270533Y-62332D02*
X271233D01*
X270433Y-62132D02*
X271133D01*
X270433Y-61832D02*
X271133D01*
X270533Y-62232D02*
X271133D01*
X270533Y-62432D02*
X271233D01*
X270533Y-62532D02*
X271233D01*
X273933Y-62332D02*
X274633D01*
X273933Y-62432D02*
X274633D01*
X273933Y-62532D02*
X274633D01*
X275333D02*
X276033D01*
X268633D02*
X269333D01*
X268633Y-62332D02*
X269333D01*
X268633Y-61632D02*
X269333D01*
X268633Y-61932D02*
X269333D01*
X268633Y-61732D02*
X269333D01*
X268633Y-61832D02*
X269333D01*
X268633Y-62032D02*
X269333D01*
X268633Y-62132D02*
X269333D01*
X268633Y-62232D02*
X269333D01*
X268633Y-62432D02*
X269333D01*
X268633Y-61532D02*
X269333D01*
X268633Y-61432D02*
X269333D01*
X268633Y-60732D02*
X269333D01*
X268633Y-61132D02*
X269333D01*
X268633Y-60832D02*
X269333D01*
X268633Y-60932D02*
X269333D01*
X268633Y-61032D02*
X269333D01*
X268633Y-61232D02*
X269333D01*
X268633Y-61332D02*
X269333D01*
X270433Y-62032D02*
X271133D01*
X270433Y-60732D02*
X271133D01*
X270433Y-61432D02*
X271133D01*
X270433Y-61332D02*
X271133D01*
X270433Y-60832D02*
X271133D01*
X270433Y-60932D02*
X271133D01*
X270433Y-61032D02*
X271133D01*
X270433Y-61132D02*
X271133D01*
X270433Y-61232D02*
X271133D01*
X270433Y-61532D02*
X271133D01*
X270433Y-61632D02*
X271133D01*
X270433Y-61732D02*
X271133D01*
X270433Y-61932D02*
X271133D01*
X278033Y-61832D02*
X279133D01*
X277433Y-61632D02*
X278933D01*
X277733Y-61732D02*
X279033D01*
X275533Y-60432D02*
X276233D01*
X278533Y-62232D02*
X279233D01*
X278233Y-61932D02*
X279133D01*
X278333Y-62032D02*
X279233D01*
X278433Y-62132D02*
X279233D01*
X278533Y-62332D02*
X279333D01*
X278633Y-62432D02*
X279333D01*
X278633Y-62532D02*
X279333D01*
X278633Y-62632D02*
X279333D01*
X278633Y-62732D02*
X279333D01*
X254933Y-60932D02*
X255533D01*
X254933Y-60332D02*
X255533D01*
X254933Y-60432D02*
X255533D01*
X254933Y-60532D02*
X255533D01*
X254933Y-60632D02*
X255533D01*
X254933Y-60732D02*
X255533D01*
X254933Y-60832D02*
X255533D01*
X254933Y-59632D02*
X256033D01*
X254933Y-59832D02*
X255833D01*
X254933Y-59932D02*
X255733D01*
X254933Y-60032D02*
X255733D01*
X254933Y-60132D02*
X255633D01*
X254933Y-60232D02*
X255633D01*
X263433Y-59932D02*
X264233D01*
X263633Y-60332D02*
X264333D01*
X263433Y-60032D02*
X264233D01*
X263533Y-60132D02*
X264233D01*
X263533Y-60232D02*
X264333D01*
X263633Y-60432D02*
X264333D01*
X263733Y-60532D02*
X264433D01*
X263733Y-60732D02*
X264433D01*
X263733Y-60632D02*
X264433D01*
X263733Y-60832D02*
X264433D01*
X263133Y-59632D02*
X264033D01*
X263333Y-59832D02*
X264133D01*
X263233Y-59732D02*
X264033D01*
X258333Y-60832D02*
X259033D01*
X258033Y-59832D02*
X258833D01*
X258233Y-60332D02*
X258933D01*
X258033Y-59932D02*
X258833D01*
X258133Y-60032D02*
X258833D01*
X258133Y-60132D02*
X258933D01*
X258233Y-60232D02*
X258933D01*
X258333Y-60432D02*
X258933D01*
X258333Y-60532D02*
X259033D01*
X258333Y-60632D02*
X259033D01*
X258333Y-60732D02*
X259033D01*
X258333Y-60932D02*
X259033D01*
X261933Y-58732D02*
X262433D01*
X260433Y-59532D02*
X261433D01*
X260533Y-59432D02*
X261533D01*
X260633Y-59332D02*
X261933D01*
X261433Y-58832D02*
X262933D01*
X261133Y-58932D02*
X263233D01*
X261033Y-59032D02*
X263333D01*
X260833Y-59132D02*
X263533D01*
X260733Y-59232D02*
X263633D01*
X262933Y-59532D02*
X263933D01*
X262433Y-59332D02*
X263733D01*
X262733Y-59432D02*
X263833D01*
X265833Y-60232D02*
X266533D01*
X265833Y-60332D02*
X266533D01*
X268633Y-60232D02*
X269333D01*
X268633Y-60332D02*
X269333D01*
X268633Y-60432D02*
X269333D01*
X268633Y-60532D02*
X269333D01*
X270533Y-60432D02*
X271233D01*
X270433Y-60632D02*
X271133D01*
X270533Y-60532D02*
X271233D01*
X268633Y-60632D02*
X269333D01*
X270633Y-60132D02*
X271333D01*
X270533Y-60332D02*
X271233D01*
X270733Y-59832D02*
X271533D01*
X270733Y-59932D02*
X271433D01*
X270633Y-60032D02*
X271433D01*
X270533Y-60232D02*
X271333D01*
X273933D02*
X274633D01*
X273733Y-59832D02*
X274433D01*
X273733Y-59932D02*
X274533D01*
X273833Y-60032D02*
X274533D01*
X273833Y-60132D02*
X274533D01*
X273933Y-60332D02*
X274633D01*
X273933Y-60432D02*
X274633D01*
X273933Y-60532D02*
X274633D01*
X259933Y-60832D02*
X260633D01*
X260033Y-60232D02*
X260833D01*
X259933Y-60532D02*
X260633D01*
X259933Y-60632D02*
X260633D01*
X259933Y-60732D02*
X260633D01*
X260033Y-60332D02*
X260733D01*
X260033Y-60432D02*
X260733D01*
X260133Y-60132D02*
X260833D01*
X260233Y-59832D02*
X261033D01*
X260133Y-59932D02*
X260933D01*
X260133Y-60032D02*
X260933D01*
X260333Y-59732D02*
X261133D01*
X260333Y-59632D02*
X261233D01*
X265833Y-60132D02*
X266533D01*
X265833Y-59432D02*
X266533D01*
X265833Y-59732D02*
X266533D01*
X265833Y-59532D02*
X266533D01*
X265833Y-59632D02*
X266533D01*
X265833Y-59932D02*
X266533D01*
X265833Y-60032D02*
X266533D01*
X268633Y-59632D02*
X269333D01*
X268633Y-59932D02*
X269333D01*
X268633Y-59732D02*
X269333D01*
X268633Y-59832D02*
X269333D01*
X268633Y-60032D02*
X269333D01*
X268633Y-60132D02*
X269333D01*
X268633Y-59432D02*
X269333D01*
X268633Y-59532D02*
X269333D01*
X265833Y-59832D02*
X266533D01*
X264933Y-59332D02*
X267533D01*
X264933Y-58832D02*
X267533D01*
X264933Y-58932D02*
X267533D01*
X268633D02*
X269333D01*
X264933Y-59032D02*
X267533D01*
X268633Y-58832D02*
X269333D01*
X268633Y-59032D02*
X269333D01*
X264933Y-59132D02*
X267533D01*
X264933Y-59232D02*
X267533D01*
X268633Y-59132D02*
X269333D01*
X268633Y-59232D02*
X269333D01*
X268633Y-59332D02*
X269333D01*
X265833Y-58732D02*
X266533D01*
X278133Y-59532D02*
X279133D01*
X278433Y-59832D02*
X279233D01*
X278333Y-59632D02*
X279133D01*
X278433Y-59732D02*
X279233D01*
X278533Y-59932D02*
X279233D01*
X278533Y-60032D02*
X279233D01*
X278633Y-60132D02*
X279233D01*
X278633Y-60232D02*
X279233D01*
X275633Y-60732D02*
X276533D01*
X275533Y-59832D02*
X276233D01*
X275533Y-60232D02*
X276233D01*
X275633Y-60632D02*
X276433D01*
X275533Y-60532D02*
X276333D01*
X275533Y-60332D02*
X276233D01*
X275533Y-60132D02*
X276233D01*
X275533Y-59932D02*
X276233D01*
X275533Y-60032D02*
X276233D01*
X275433Y-70332D02*
X276133D01*
X275433Y-70432D02*
X276133D01*
X272633Y-70332D02*
X274233D01*
X272533Y-70432D02*
X273733D01*
X252133Y-70132D02*
X255433D01*
X252033Y-70232D02*
X255433D01*
X254733Y-70332D02*
X255433D01*
X254733Y-70432D02*
X255433D01*
X254733Y-70532D02*
X255433D01*
X254733Y-70632D02*
X255433D01*
X254733Y-70732D02*
X255433D01*
X254733Y-70832D02*
X255433D01*
X254733Y-70932D02*
X255433D01*
X254733Y-71032D02*
X255433D01*
X272233Y-71932D02*
X273033D01*
X272333Y-72232D02*
X273433D01*
X272233Y-72032D02*
X273133D01*
X272233Y-72132D02*
X273233D01*
X272433Y-72332D02*
X275333D01*
X272533Y-72432D02*
X275233D01*
X272633Y-72532D02*
X275133D01*
X272733Y-72632D02*
X274933D01*
Y-71932D02*
X276133D01*
X274833Y-72032D02*
X276133D01*
X274633Y-72132D02*
X276133D01*
X274433Y-72232D02*
X276133D01*
X275433Y-72332D02*
X276133D01*
X273133Y-72832D02*
X274433D01*
X272933Y-72732D02*
X274733D01*
X275533Y-72432D02*
X276233D01*
X275533Y-72532D02*
X276233D01*
X275533Y-72632D02*
X276233D01*
X275533Y-72732D02*
X276233D01*
X254533Y-71732D02*
X255433D01*
X254733Y-71432D02*
X255433D01*
X254733Y-71132D02*
X255433D01*
X254733Y-71232D02*
X255433D01*
X254733Y-71332D02*
X255433D01*
X254633Y-71532D02*
X255433D01*
X254533Y-71632D02*
X255433D01*
X254433Y-71832D02*
X255433D01*
X254233Y-71932D02*
X255433D01*
X254133Y-72032D02*
X255433D01*
X253933Y-72132D02*
X255433D01*
X253733Y-72232D02*
X255433D01*
X251233Y-79632D02*
X251933D01*
X251033Y-79032D02*
X251733D01*
X251033Y-78932D02*
X251733D01*
X251133Y-79432D02*
X251833D01*
X251033Y-79132D02*
X251733D01*
X251033Y-79232D02*
X251733D01*
X251133Y-79332D02*
X251833D01*
X251133Y-79532D02*
X251933D01*
X251233Y-79732D02*
X252033D01*
X251333Y-79832D02*
X252133D01*
X251333Y-79932D02*
X252233D01*
X251433Y-80032D02*
X252333D01*
X251533Y-80132D02*
X252433D01*
X251633Y-80232D02*
X252633D01*
X251633Y-80332D02*
X252933D01*
X254833Y-72632D02*
X255533D01*
X252433Y-72832D02*
X253733D01*
X251833Y-72432D02*
X254533D01*
X251733Y-72332D02*
X254633D01*
X251933Y-72532D02*
X254433D01*
X252033Y-72632D02*
X254233D01*
X252233Y-72732D02*
X254033D01*
X254733Y-72332D02*
X255433D01*
X254833Y-72432D02*
X255533D01*
X254833Y-72532D02*
X255533D01*
X254833Y-72732D02*
X255533D01*
X256733Y-73632D02*
X257333D01*
X256733Y-74332D02*
X257333D01*
X256733Y-74032D02*
X257333D01*
X256733Y-74132D02*
X257333D01*
X256733Y-74232D02*
X257333D01*
X256733Y-74432D02*
X257333D01*
X256733Y-74532D02*
X257333D01*
X256733Y-73932D02*
X257333D01*
X256733Y-73732D02*
X257333D01*
X256733Y-73832D02*
X257333D01*
X256733Y-74632D02*
X257333D01*
X256733Y-74732D02*
X257333D01*
X256733Y-76832D02*
X257333D01*
X256733Y-76732D02*
X257333D01*
X256733Y-74832D02*
X257333D01*
X256733Y-75032D02*
X257333D01*
X256733Y-75532D02*
X257333D01*
X256733Y-75632D02*
X257333D01*
X256733Y-75732D02*
X257333D01*
X256733Y-75832D02*
X257333D01*
X256733Y-75932D02*
X257333D01*
X256733Y-76032D02*
X257333D01*
X256733Y-76132D02*
X257333D01*
X256733Y-74932D02*
X257333D01*
X256733Y-75432D02*
X257333D01*
X256733Y-75132D02*
X257333D01*
X256733Y-75232D02*
X257333D01*
X256733Y-75332D02*
X257333D01*
X251733Y-76232D02*
X253033D01*
X251633Y-76332D02*
X252733D01*
X251533Y-76432D02*
X252533D01*
X251433Y-76532D02*
X252333D01*
X251433Y-76632D02*
X252233D01*
X251333Y-76732D02*
X252133D01*
X251233Y-76832D02*
X252033D01*
X251233Y-76932D02*
X252033D01*
X251233Y-77032D02*
X251933D01*
X251133Y-77132D02*
X251933D01*
X250933Y-78032D02*
X251633D01*
X250933Y-78232D02*
X251633D01*
X250933Y-78132D02*
X251633D01*
X250933Y-78532D02*
X251633D01*
X251033Y-78632D02*
X251633D01*
X251033Y-78732D02*
X251633D01*
X251033Y-78832D02*
X251633D01*
X250933Y-78332D02*
X251633D01*
X250933Y-78432D02*
X251633D01*
X249733Y-72232D02*
X250333D01*
X251633D02*
X252733D01*
X249733Y-72332D02*
X250333D01*
X249733Y-72432D02*
X250333D01*
X249733Y-72532D02*
X250333D01*
X249733Y-72632D02*
X250333D01*
X249733Y-72732D02*
X250333D01*
X251033Y-77832D02*
X251633D01*
X251133Y-77232D02*
X251833D01*
X251033Y-77332D02*
X251833D01*
X251033Y-77432D02*
X251733D01*
X251033Y-77532D02*
X251733D01*
X251033Y-77632D02*
X251733D01*
X251033Y-77732D02*
X251733D01*
X251033Y-77932D02*
X251633D01*
X277633Y-76732D02*
X278333D01*
X277733Y-77332D02*
X278433D01*
X277633Y-76832D02*
X278333D01*
X277633Y-76932D02*
X278333D01*
X277733Y-77132D02*
X278433D01*
X277733Y-77032D02*
X278433D01*
X277733Y-77232D02*
X278433D01*
X277733Y-77432D02*
X278433D01*
X277733Y-77532D02*
X278433D01*
X277733Y-77632D02*
X278433D01*
X277733Y-77732D02*
X278433D01*
X270433Y-75732D02*
X271933D01*
X270233Y-75832D02*
X272133D01*
X270033Y-75932D02*
X272333D01*
X269833Y-76032D02*
X272533D01*
X276133Y-75732D02*
X277433D01*
X274533Y-75832D02*
X275133D01*
X275833D02*
X277733D01*
X275733Y-75932D02*
X277833D01*
X275533Y-76032D02*
X277933D01*
X274533Y-75732D02*
X275133D01*
X274533Y-75932D02*
X275133D01*
X274533Y-76032D02*
X275133D01*
X274533Y-76132D02*
X275133D01*
X274533Y-76432D02*
X275933D01*
X274533Y-76532D02*
X275733D01*
X274533Y-76632D02*
X275633D01*
X274533Y-76732D02*
X275533D01*
X274533Y-76832D02*
X275533D01*
X274533Y-76932D02*
X275433D01*
X274533Y-76232D02*
X275133D01*
X274533Y-77032D02*
X275333D01*
X274533Y-77132D02*
X275333D01*
X274533Y-77232D02*
X275233D01*
X274533Y-77332D02*
X275233D01*
X268833Y-78032D02*
X269533D01*
X269233Y-76732D02*
X270033D01*
X269033Y-77132D02*
X269833D01*
X269133Y-77032D02*
X269833D01*
X269133Y-76832D02*
X269933D01*
X269133Y-76932D02*
X269933D01*
X269033Y-77232D02*
X269733D01*
X268933Y-77432D02*
X269633D01*
X268933Y-77532D02*
X269633D01*
X268933Y-77632D02*
X269633D01*
X268933Y-77732D02*
X269633D01*
X268933Y-77832D02*
X269533D01*
X268933Y-77932D02*
X269533D01*
X269333Y-76632D02*
X270133D01*
X269433Y-76432D02*
X270433D01*
X269333Y-76532D02*
X270233D01*
X272533Y-77132D02*
X273333D01*
X272233Y-76632D02*
X273033D01*
X272533Y-77032D02*
X273233D01*
X272333Y-76732D02*
X273133D01*
X272333Y-76832D02*
X273133D01*
X272433Y-76932D02*
X273233D01*
X272633Y-77232D02*
X273333D01*
X272633Y-77332D02*
X273333D01*
X272733Y-77432D02*
X273433D01*
X272733Y-77532D02*
X273433D01*
X272733Y-77632D02*
X273433D01*
X272733Y-77732D02*
X273433D01*
X272833Y-77832D02*
X273433D01*
X272133Y-76532D02*
X273033D01*
X271933Y-76432D02*
X272933D01*
X269533Y-76332D02*
X270633D01*
X269633Y-76232D02*
X270933D01*
X271733Y-76332D02*
X272833D01*
X274533D02*
X275133D01*
X275233D02*
X276133D01*
X269733Y-76132D02*
X272633D01*
X271433Y-76232D02*
X272733D01*
X275433Y-76132D02*
X278033D01*
X275333Y-76232D02*
X276433D01*
X276833D02*
X278133D01*
X277233Y-76332D02*
X278233D01*
X277333Y-76432D02*
X278233D01*
X277433Y-76532D02*
X278233D01*
X277533Y-76632D02*
X278333D01*
X277733Y-77832D02*
X278433D01*
X277733Y-77932D02*
X278433D01*
X277733Y-78232D02*
X278433D01*
X277733Y-78032D02*
X278433D01*
X277733Y-78132D02*
X278433D01*
X277733Y-78332D02*
X278433D01*
X277733Y-78432D02*
X278433D01*
X277733Y-78532D02*
X278433D01*
X277733Y-78632D02*
X278433D01*
X277733Y-78732D02*
X278433D01*
X277733Y-78832D02*
X278433D01*
X277733Y-78932D02*
X278433D01*
X277733Y-79032D02*
X278433D01*
X277733Y-79532D02*
X278433D01*
X277733Y-79132D02*
X278433D01*
X277733Y-79232D02*
X278433D01*
X277733Y-79332D02*
X278433D01*
X277733Y-79432D02*
X278433D01*
X277733Y-79632D02*
X278433D01*
X277733Y-79732D02*
X278433D01*
X277733Y-79832D02*
X278433D01*
X277733Y-79932D02*
X278433D01*
X277733Y-80032D02*
X278433D01*
X277733Y-80132D02*
X278433D01*
X277733Y-80232D02*
X278433D01*
X277733Y-80832D02*
X278433D01*
X277733Y-80332D02*
X278433D01*
X277733Y-80432D02*
X278433D01*
X277733Y-80532D02*
X278433D01*
X277733Y-80632D02*
X278433D01*
X277733Y-80732D02*
X278433D01*
X267133Y-77332D02*
X267733D01*
X267133Y-77832D02*
X267733D01*
X267133Y-77432D02*
X267733D01*
X267133Y-77532D02*
X267733D01*
X267133Y-77632D02*
X267733D01*
X267133Y-77732D02*
X267733D01*
X267133Y-77932D02*
X267733D01*
X267133Y-78032D02*
X267733D01*
X267133Y-78132D02*
X267733D01*
X267133Y-78232D02*
X267733D01*
X267133Y-78332D02*
X267733D01*
X270733Y-80932D02*
X271533D01*
X269733Y-80432D02*
X272633D01*
X269833Y-80532D02*
X272533D01*
X269933Y-80632D02*
X272433D01*
X270133Y-80732D02*
X272233D01*
X270333Y-80832D02*
X272033D01*
X271533Y-80332D02*
X272733D01*
X269033Y-77332D02*
X269733D01*
X268833Y-78432D02*
X269533D01*
X268833Y-78132D02*
X269533D01*
X268833Y-78232D02*
X269533D01*
X268833Y-78332D02*
X269533D01*
X268833Y-78532D02*
X269533D01*
X268933Y-78632D02*
X269533D01*
X268933Y-78732D02*
X269533D01*
X268933Y-78832D02*
X269533D01*
X268933Y-78932D02*
X269633D01*
X268933Y-79032D02*
X269633D01*
X268933Y-79132D02*
X269633D01*
X268933Y-79232D02*
X269733D01*
X269033Y-79332D02*
X269733D01*
X269133Y-79732D02*
X269933D01*
X269033Y-79432D02*
X269733D01*
X269033Y-79532D02*
X269833D01*
X269133Y-79632D02*
X269833D01*
X269233Y-79832D02*
X270033D01*
X269233Y-79932D02*
X270133D01*
X269333Y-80032D02*
X270233D01*
X269433Y-80132D02*
X270333D01*
X269533Y-80232D02*
X270533D01*
X269533Y-80332D02*
X270833D01*
X267133Y-80232D02*
X267733D01*
X267133Y-79732D02*
X267733D01*
X267133Y-79832D02*
X267733D01*
X267133Y-79932D02*
X267733D01*
X267133Y-80032D02*
X267733D01*
X267133Y-80132D02*
X267733D01*
X267133Y-80332D02*
X267733D01*
X267133Y-80432D02*
X267733D01*
X267133Y-80532D02*
X267733D01*
X267133Y-80632D02*
X267733D01*
X267133Y-80732D02*
X267733D01*
X267133Y-80832D02*
X267733D01*
X267133Y-78432D02*
X267733D01*
X267133Y-78932D02*
X267733D01*
X267133Y-78532D02*
X267733D01*
X267133Y-78632D02*
X267733D01*
X267133Y-78732D02*
X267733D01*
X267133Y-78832D02*
X267733D01*
X267133Y-79032D02*
X267733D01*
X267133Y-79132D02*
X267733D01*
X267133Y-79232D02*
X267733D01*
X267133Y-79332D02*
X267733D01*
X267133Y-79432D02*
X267733D01*
X272133Y-80032D02*
X273033D01*
X267133Y-79632D02*
X267733D01*
X267133Y-79532D02*
X267733D01*
X272533D02*
X273233D01*
X272433Y-79632D02*
X273233D01*
X272433Y-79732D02*
X273233D01*
X272333Y-79832D02*
X273133D01*
X272233Y-79932D02*
X273133D01*
X272033Y-80132D02*
X272933D01*
X271833Y-80232D02*
X272833D01*
X274533Y-80732D02*
X275133D01*
X274533Y-80432D02*
X275133D01*
X274533Y-80532D02*
X275133D01*
X274533Y-80632D02*
X275133D01*
X274533Y-80832D02*
X275133D01*
X272833Y-77932D02*
X273433D01*
X272633Y-79232D02*
X273333D01*
X272633Y-79332D02*
X273333D01*
X272633Y-79432D02*
X273333D01*
X272833Y-78232D02*
X273433D01*
X272833Y-78032D02*
X273433D01*
X272833Y-78132D02*
X273433D01*
X272833Y-78332D02*
X273433D01*
X272833Y-78432D02*
X273433D01*
X272833Y-78532D02*
X273433D01*
X272833Y-78632D02*
X273433D01*
X272833Y-78732D02*
X273433D01*
X272733Y-78832D02*
X273433D01*
X272733Y-78932D02*
X273433D01*
X272733Y-79032D02*
X273433D01*
X272733Y-79132D02*
X273433D01*
X274533Y-80332D02*
X275133D01*
X274533Y-78732D02*
X275133D01*
X274533Y-78832D02*
X275133D01*
X274533Y-79132D02*
X275133D01*
X274533Y-79232D02*
X275133D01*
X274533Y-79632D02*
X275133D01*
X274533Y-79732D02*
X275133D01*
X274533Y-79532D02*
X275133D01*
X274533Y-79832D02*
X275133D01*
X274533Y-79932D02*
X275133D01*
X274533Y-80032D02*
X275133D01*
X274533Y-80132D02*
X275133D01*
X274533Y-80232D02*
X275133D01*
X274533Y-77732D02*
X275133D01*
X274533Y-77532D02*
X275133D01*
X274533Y-77432D02*
X275133D01*
X274533Y-77632D02*
X275133D01*
X274533Y-77832D02*
X275133D01*
X274533Y-77932D02*
X275133D01*
X274533Y-78032D02*
X275133D01*
X274533Y-78132D02*
X275133D01*
X274533Y-78232D02*
X275133D01*
X274533Y-78332D02*
X275133D01*
X274533Y-78432D02*
X275133D01*
X274533Y-79432D02*
X275133D01*
X274533Y-78532D02*
X275133D01*
X274533Y-79032D02*
X275133D01*
X274533Y-79332D02*
X275133D01*
X274533Y-78932D02*
X275133D01*
X274533Y-78632D02*
X275133D01*
X246533Y-76332D02*
X247533D01*
X246333Y-76832D02*
X247033D01*
X246433Y-76532D02*
X247233D01*
X246533Y-76432D02*
X247433D01*
X246433Y-76732D02*
X247133D01*
X246433Y-76632D02*
X247133D01*
X246333Y-76932D02*
X247033D01*
X246333Y-77032D02*
X247033D01*
X246333Y-77132D02*
X247033D01*
X246433Y-77532D02*
X247233D01*
X246333Y-77232D02*
X247033D01*
X246433Y-77332D02*
X247133D01*
X246433Y-77432D02*
X247133D01*
X246433Y-69732D02*
X247133D01*
X246433Y-70232D02*
X247133D01*
X246433Y-69832D02*
X247133D01*
X246433Y-69932D02*
X247133D01*
X246433Y-70032D02*
X247133D01*
X246433Y-70132D02*
X247133D01*
X246433Y-70332D02*
X247133D01*
X246433Y-70632D02*
X247133D01*
X246433Y-70432D02*
X247133D01*
X246433Y-70532D02*
X247133D01*
X246433Y-70732D02*
X247133D01*
X246433Y-70832D02*
X247133D01*
X246433Y-70932D02*
X247133D01*
X246433Y-71032D02*
X247133D01*
X246433Y-71332D02*
X247133D01*
X246433Y-71132D02*
X247133D01*
X246433Y-71232D02*
X247133D01*
X246433Y-71432D02*
X247133D01*
X246433Y-71532D02*
X247133D01*
X246433Y-71632D02*
X247133D01*
X246433Y-71932D02*
X247133D01*
X246433Y-71732D02*
X247133D01*
X246433Y-71832D02*
X247133D01*
X246433Y-72032D02*
X247133D01*
X246433Y-72132D02*
X247133D01*
X246433Y-72232D02*
X247133D01*
X246433Y-72332D02*
X247133D01*
X246433Y-72632D02*
X247133D01*
X246433Y-72432D02*
X247133D01*
X246433Y-72532D02*
X247133D01*
X246433Y-72732D02*
X247133D01*
X247433Y-75732D02*
X248933D01*
X246733Y-76132D02*
X249733D01*
X247133Y-75832D02*
X249233D01*
X247033Y-75932D02*
X249433D01*
X246833Y-76032D02*
X249533D01*
X246633Y-76232D02*
X247933D01*
X248433D02*
X249733D01*
X248833Y-76332D02*
X249833D01*
X248933Y-76432D02*
X249933D01*
X246233Y-79432D02*
X246833D01*
X246233Y-79732D02*
X246933D01*
X246233Y-79532D02*
X246933D01*
X246233Y-79632D02*
X246933D01*
X246233Y-79832D02*
X247033D01*
X246333Y-79932D02*
X247033D01*
X246333Y-80032D02*
X247133D01*
X246433Y-80132D02*
X247333D01*
X246433Y-80232D02*
X247433D01*
X246533Y-80332D02*
X247733D01*
X249433Y-77232D02*
X250133D01*
X249333Y-76732D02*
X250033D01*
X249333Y-76832D02*
X250033D01*
X249433Y-76932D02*
X250133D01*
X249433Y-77032D02*
X250133D01*
X249433Y-77132D02*
X250133D01*
X249233Y-76632D02*
X250033D01*
X249133Y-76532D02*
X249933D01*
X246433Y-77632D02*
X247433D01*
X246733Y-77932D02*
X248233D01*
X246533Y-77732D02*
X247633D01*
X246633Y-77832D02*
X247833D01*
X246833Y-78032D02*
X248633D01*
X246933Y-78132D02*
X248933D01*
X247133Y-78232D02*
X249233D01*
X248133Y-78532D02*
X249733D01*
X247733Y-78432D02*
X249633D01*
X247433Y-78332D02*
X249433D01*
X247733Y-80932D02*
X248633D01*
X249233Y-80032D02*
X250033D01*
X249433Y-79732D02*
X250133D01*
X249433Y-79832D02*
X250133D01*
X249333Y-79932D02*
X250033D01*
X249133Y-80132D02*
X250033D01*
X248933Y-80232D02*
X249933D01*
X246633Y-80432D02*
X249733D01*
X246733Y-80532D02*
X249633D01*
X247033Y-80732D02*
X249333D01*
X248633Y-80332D02*
X249833D01*
X246933Y-80632D02*
X249533D01*
X247333Y-80832D02*
X249133D01*
X249433Y-79632D02*
X250133D01*
X249433Y-79232D02*
X250133D01*
X248833Y-78732D02*
X249933D01*
X248533Y-78632D02*
X249833D01*
X249033Y-78832D02*
X249933D01*
X249133Y-78932D02*
X250033D01*
X249233Y-79032D02*
X250033D01*
X249333Y-79132D02*
X250133D01*
X249433Y-79332D02*
X250133D01*
X249433Y-79432D02*
X250133D01*
X249433Y-79532D02*
X250133D01*
X278533Y-62932D02*
X279233D01*
X275433D02*
X276233D01*
X275533Y-63232D02*
X276533D01*
X275433Y-63032D02*
X276233D01*
X275533Y-63132D02*
X276333D01*
X275633Y-63332D02*
X276633D01*
X278133D02*
X279133D01*
X278233Y-63232D02*
X279133D01*
X278533Y-63032D02*
X279233D01*
X278633Y-62832D02*
X279333D01*
X278433Y-63132D02*
X279233D01*
X268633Y-63232D02*
X269333D01*
X268633Y-62932D02*
X269333D01*
X268633Y-63032D02*
X269333D01*
X268633Y-63132D02*
X269333D01*
X268633Y-63332D02*
X269333D01*
X268633Y-62632D02*
X269333D01*
X268633Y-62732D02*
X269333D01*
X268633Y-62832D02*
X269333D01*
X254933Y-56832D02*
X255533D01*
X254933Y-56932D02*
X255533D01*
X254933Y-57032D02*
X255533D01*
X254933D02*
X255533D01*
X254933Y-57132D02*
X255533D01*
X254933Y-57232D02*
X255533D01*
X254933Y-57332D02*
X255533D01*
X254933Y-57432D02*
X255533D01*
X254933Y-57532D02*
X255533D01*
X254933Y-57632D02*
X255533D01*
X254933Y-57732D02*
X255533D01*
X254933Y-57832D02*
X255533D01*
X254933Y-57932D02*
X255533D01*
X248233Y-58732D02*
X248633D01*
X246433Y-58832D02*
X247133D01*
X251333Y-58732D02*
X251833D01*
X247833Y-58832D02*
X248933D01*
X250833D02*
X252333D01*
X246433Y-58932D02*
X247133D01*
X247633D02*
X248933D01*
X250533D02*
X252533D01*
X250333Y-59032D02*
X252733D01*
X250233Y-59132D02*
X252933D01*
X250133Y-59232D02*
X253033D01*
X247433Y-59032D02*
X248933D01*
X247233Y-59332D02*
X248933D01*
X247333Y-59132D02*
X248933D01*
X246433Y-59032D02*
X247133D01*
X246433Y-59132D02*
X247133D01*
X247233Y-59232D02*
X248933D01*
X246433Y-59532D02*
X247833D01*
X246433Y-59232D02*
X247133D01*
X246433Y-59332D02*
X247133D01*
X246433Y-59632D02*
X247633D01*
X246433Y-59732D02*
X247533D01*
X246433Y-59832D02*
X247433D01*
X246433Y-59932D02*
X247333D01*
X250033Y-59332D02*
X251233D01*
X249833Y-59532D02*
X250733D01*
X251833Y-59332D02*
X253133D01*
X249933Y-59432D02*
X250933D01*
X246433D02*
X248033D01*
X252133D02*
X253233D01*
X252333Y-59532D02*
X253333D01*
X249733Y-59632D02*
X250633D01*
X252533D02*
X253433D01*
X252633Y-59732D02*
X253433D01*
X254933Y-58332D02*
X255533D01*
X254933Y-58032D02*
X255533D01*
X254933Y-58132D02*
X255533D01*
X254933Y-58232D02*
X255533D01*
X254933Y-58432D02*
X255533D01*
X254933Y-58532D02*
X255533D01*
X254933Y-58632D02*
X255533D01*
X254933Y-58732D02*
X255533D01*
X254933Y-58832D02*
X255533D01*
X254933Y-58932D02*
X255533D01*
X254933Y-59032D02*
X255533D01*
X256833Y-58732D02*
X257333D01*
X256333Y-58832D02*
X257733D01*
X255933Y-59032D02*
X258133D01*
X256133Y-58932D02*
X258033D01*
X254933Y-59132D02*
X255533D01*
X254933Y-59532D02*
X256133D01*
X255733Y-59232D02*
X258433D01*
X255833Y-59132D02*
X258333D01*
X257233Y-59332D02*
X258433D01*
X257533Y-59432D02*
X258533D01*
X257733Y-59532D02*
X258633D01*
X257833Y-59632D02*
X258733D01*
X257933Y-59732D02*
X258733D01*
X254933Y-59232D02*
X255533D01*
X254933Y-59332D02*
X255533D01*
X255633D02*
X256733D01*
X254933Y-59432D02*
X256333D01*
X254933Y-59732D02*
X255933D01*
X249633D02*
X250533D01*
X249333Y-60432D02*
X250033D01*
X249533Y-59932D02*
X250333D01*
X249533Y-60032D02*
X250333D01*
X249433Y-60132D02*
X250233D01*
X249433Y-60232D02*
X250133D01*
X249433Y-60332D02*
X250133D01*
X249333Y-60532D02*
X250033D01*
X249333Y-60632D02*
X250033D01*
X249333Y-60732D02*
X250033D01*
X249333Y-60832D02*
X249933D01*
X249233Y-60932D02*
X249933D01*
X249233Y-61032D02*
X249933D01*
X252733Y-59832D02*
X253533D01*
X253033Y-60432D02*
X253733D01*
X252733Y-59932D02*
X253533D01*
X252833Y-60032D02*
X253633D01*
X252933Y-60132D02*
X253633D01*
X252933Y-60232D02*
X253733D01*
X253033Y-60332D02*
X253733D01*
X253033Y-60532D02*
X253733D01*
X253133Y-60632D02*
X253833D01*
X253133Y-60732D02*
X253833D01*
X253133Y-60832D02*
X253833D01*
X253133Y-60932D02*
X253833D01*
X253233Y-61032D02*
X253833D01*
X277133Y-58732D02*
X277633D01*
X276533Y-58832D02*
X278133D01*
X275833Y-59332D02*
X277033D01*
X275733Y-59432D02*
X276733D01*
X275633Y-59532D02*
X276533D01*
X275633Y-59632D02*
X276433D01*
X275633Y-59732D02*
X276333D01*
X276033Y-59132D02*
X278733D01*
X276133Y-59032D02*
X278633D01*
X276333Y-58932D02*
X278433D01*
X275933Y-59232D02*
X278833D01*
X277633Y-59332D02*
X278933D01*
X277933Y-59432D02*
X279033D01*
X268733Y-57032D02*
X269233D01*
X268633Y-57132D02*
X269333D01*
X268533Y-57232D02*
X269433D01*
X268533Y-57332D02*
X269433D01*
X268533Y-57432D02*
X269433D01*
X268533Y-57532D02*
X269433D01*
X268633Y-57632D02*
X269433D01*
X268633Y-57732D02*
X269333D01*
X268833Y-57832D02*
X269133D01*
X272433Y-58732D02*
X272833D01*
X271833Y-58832D02*
X273433D01*
X271633Y-58932D02*
X273633D01*
X271433Y-59032D02*
X273833D01*
X271333Y-59132D02*
X273933D01*
X271233Y-59232D02*
X274033D01*
X271133Y-59332D02*
X272333D01*
X272933D02*
X274133D01*
X271033Y-59432D02*
X272033D01*
X270933Y-59532D02*
X271833D01*
X273233Y-59432D02*
X274233D01*
X273433Y-59532D02*
X274333D01*
X270833Y-59632D02*
X271733D01*
X270833Y-59732D02*
X271633D01*
X273633D02*
X274433D01*
X273533Y-59632D02*
X274333D01*
X265833Y-58332D02*
X266533D01*
X265833Y-57532D02*
X266533D01*
X265833Y-57632D02*
X266533D01*
X265833Y-57732D02*
X266533D01*
X265833Y-57832D02*
X266533D01*
X265833Y-57932D02*
X266533D01*
X265833Y-58032D02*
X266533D01*
X265833Y-58132D02*
X266533D01*
X265833Y-58232D02*
X266533D01*
X265833Y-58432D02*
X266533D01*
X265833Y-58532D02*
X266533D01*
X265833Y-58632D02*
X266533D01*
X246433Y-61132D02*
X247133D01*
X246433Y-61532D02*
X247133D01*
X246433Y-61432D02*
X247133D01*
X246433Y-61232D02*
X247133D01*
X246433Y-61332D02*
X247133D01*
X246433Y-61632D02*
X247133D01*
X246433Y-61732D02*
X247133D01*
X246433Y-61832D02*
X247133D01*
X246433Y-61932D02*
X247133D01*
X246433Y-62032D02*
X247133D01*
X246433Y-62132D02*
X247133D01*
X246433Y-65632D02*
X247133D01*
X246433Y-66132D02*
X247133D01*
X246433Y-65732D02*
X247133D01*
X246433Y-65832D02*
X247133D01*
X246433Y-65932D02*
X247133D01*
X246433Y-66032D02*
X247133D01*
X246433Y-66232D02*
X247133D01*
X246433Y-66332D02*
X247133D01*
X246433Y-66432D02*
X247133D01*
X246433Y-66532D02*
X247133D01*
X246433Y-66832D02*
X247133D01*
X246433Y-66632D02*
X247133D01*
X246433Y-66732D02*
X247133D01*
X248933Y-68232D02*
X250133D01*
X249333Y-68432D02*
X250233D01*
X249433Y-68532D02*
X250233D01*
X249533Y-68632D02*
X250233D01*
X249533Y-68732D02*
X250233D01*
X249633Y-68832D02*
X250333D01*
X249633Y-68932D02*
X250333D01*
X246433Y-66932D02*
X247133D01*
X246433Y-67332D02*
X247133D01*
X246433Y-67032D02*
X247133D01*
X246433Y-67132D02*
X247133D01*
X246433Y-67232D02*
X247133D01*
X246433Y-67432D02*
X247133D01*
X246433Y-67532D02*
X247133D01*
X246433Y-67632D02*
X247133D01*
X246433Y-67932D02*
X247133D01*
X246433Y-67832D02*
X247133D01*
X246433Y-68132D02*
X247133D01*
X246433Y-67732D02*
X247133D01*
X246433Y-68032D02*
X247133D01*
X246433Y-68232D02*
X247133D01*
X249233Y-68332D02*
X250133D01*
X246433Y-69032D02*
X247233D01*
X246433Y-69332D02*
X247133D01*
X246433Y-69132D02*
X247233D01*
X246433Y-69232D02*
X247133D01*
X246433Y-69432D02*
X247133D01*
X246433Y-69532D02*
X247133D01*
X246433Y-69632D02*
X247133D01*
X247333Y-68132D02*
X250033D01*
X248233Y-67632D02*
X249233D01*
X247933Y-67732D02*
X249533D01*
X247733Y-67832D02*
X249733D01*
X247533Y-67932D02*
X249833D01*
X247433Y-68032D02*
X249933D01*
X253033Y-67632D02*
X254033D01*
X252633Y-67732D02*
X254433D01*
X252433Y-67832D02*
X254633D01*
X252233Y-67932D02*
X254833D01*
X249633Y-69132D02*
X250333D01*
X249733Y-69832D02*
X250333D01*
X249733Y-69232D02*
X250333D01*
X249733Y-69332D02*
X250333D01*
X249733Y-69432D02*
X250333D01*
X249733Y-69532D02*
X250333D01*
X249733Y-69632D02*
X250333D01*
X249733Y-69732D02*
X250333D01*
X249733Y-69932D02*
X250333D01*
X249733Y-70032D02*
X250333D01*
X249733Y-70232D02*
X250333D01*
X249733Y-70132D02*
X250333D01*
X249733Y-70332D02*
X250333D01*
X249633Y-69032D02*
X250333D01*
X249733Y-70432D02*
X250333D01*
X249733Y-70932D02*
X250333D01*
X249733Y-70532D02*
X250333D01*
X249733Y-70832D02*
X250333D01*
X249733Y-70632D02*
X250333D01*
X249733Y-70732D02*
X250333D01*
X249733Y-71032D02*
X250333D01*
X249733Y-71132D02*
X250333D01*
X249733Y-71232D02*
X250333D01*
X249733Y-71332D02*
X250333D01*
X249733Y-71432D02*
X250333D01*
X249733Y-71632D02*
X250333D01*
X249733Y-71532D02*
X250333D01*
X251933Y-68232D02*
X253033D01*
X251633Y-68632D02*
X252433D01*
X251633Y-68732D02*
X252333D01*
X251533Y-68832D02*
X252233D01*
X251533Y-68932D02*
X252233D01*
X251633Y-68532D02*
X252533D01*
X251833Y-68332D02*
X252733D01*
X251733Y-68432D02*
X252633D01*
X251533Y-69032D02*
X252233D01*
X251533Y-69132D02*
X252233D01*
X251433Y-71432D02*
X252133D01*
X251433Y-71632D02*
X252133D01*
X251933Y-70332D02*
X253533D01*
X251833Y-70432D02*
X253033D01*
X251733Y-70532D02*
X252733D01*
X251633Y-70632D02*
X252533D01*
X251533Y-72132D02*
X252533D01*
X251533Y-71932D02*
X252333D01*
X251533Y-70932D02*
X252233D01*
X251533Y-70732D02*
X252433D01*
X251533Y-70832D02*
X252333D01*
X251433Y-71032D02*
X252133D01*
X251433Y-71132D02*
X252133D01*
X251433Y-71232D02*
X252133D01*
X251433Y-71532D02*
X252133D01*
X251433Y-71332D02*
X252133D01*
X251433Y-71732D02*
X252133D01*
X251433Y-71832D02*
X252233D01*
X251533Y-72032D02*
X252433D01*
X249733Y-72132D02*
X250333D01*
X249733Y-71732D02*
X250333D01*
X249733Y-71832D02*
X250333D01*
X249733Y-71932D02*
X250333D01*
X249733Y-72032D02*
X250333D01*
X246433Y-63832D02*
X247133D01*
X246433Y-63532D02*
X247133D01*
X246433Y-63632D02*
X247133D01*
X246433Y-63732D02*
X247133D01*
X246433Y-63932D02*
X247133D01*
X246433Y-60132D02*
X247233D01*
X246433Y-61032D02*
X247133D01*
X246433Y-60332D02*
X247133D01*
X246433Y-60232D02*
X247233D01*
X246433Y-60432D02*
X247133D01*
X246433Y-60532D02*
X247133D01*
X246433Y-60632D02*
X247133D01*
X246433Y-60732D02*
X247133D01*
X246433Y-60832D02*
X247133D01*
X246433Y-60932D02*
X247133D01*
X246433Y-60032D02*
X247333D01*
X249633Y-59832D02*
X250433D01*
X249333Y-62332D02*
X250033D01*
X249433Y-62432D02*
X250133D01*
X249433Y-62532D02*
X250133D01*
X249733Y-63132D02*
X250633D01*
X249833Y-63232D02*
X250733D01*
X249833Y-63332D02*
X250933D01*
X249933Y-63432D02*
X251233D01*
X250033Y-63532D02*
X253033D01*
X250233Y-63632D02*
X252933D01*
X250333Y-63732D02*
X252733D01*
X250533Y-63832D02*
X252633D01*
X250733Y-63932D02*
X252333D01*
X251233Y-64032D02*
X251933D01*
Y-63432D02*
X253133D01*
X246433Y-62232D02*
X247133D01*
X246433Y-62732D02*
X247133D01*
X246433Y-62332D02*
X247133D01*
X246433Y-62432D02*
X247133D01*
X246433Y-62532D02*
X247133D01*
X246433Y-62632D02*
X247133D01*
X246433Y-62832D02*
X247133D01*
X246433Y-62932D02*
X247133D01*
X246433Y-63032D02*
X247133D01*
X246433Y-63132D02*
X247133D01*
X246433Y-63232D02*
X247133D01*
X246433Y-63332D02*
X247133D01*
X246433Y-63432D02*
X247133D01*
X249233Y-61132D02*
X249933D01*
X249233Y-61532D02*
X249933D01*
X249233Y-61232D02*
X249933D01*
X249233Y-61332D02*
X249933D01*
X249233Y-61432D02*
X249933D01*
X249233Y-61632D02*
X249933D01*
X249233Y-61732D02*
X249933D01*
X249233Y-61832D02*
X249933D01*
X249333Y-61932D02*
X249933D01*
X249333Y-62032D02*
X250033D01*
X249333Y-62132D02*
X250033D01*
X249333Y-62232D02*
X250033D01*
X253233Y-61132D02*
X253833D01*
X253233Y-61632D02*
X253833D01*
X253233Y-61432D02*
X253833D01*
X253233Y-61232D02*
X253833D01*
X253233Y-61332D02*
X253833D01*
X253233Y-61532D02*
X253833D01*
X253233Y-61732D02*
X253833D01*
X253133Y-61832D02*
X253833D01*
X253133Y-61932D02*
X253833D01*
X253133Y-62032D02*
X253833D01*
X253133Y-62132D02*
X253833D01*
X253033Y-62432D02*
X253733D01*
X253133Y-62232D02*
X253733D01*
X254933Y-61132D02*
X255533D01*
X254933Y-61432D02*
X255533D01*
X254933Y-61232D02*
X255533D01*
X254933Y-61332D02*
X255533D01*
X254933Y-61532D02*
X255533D01*
X254933Y-61632D02*
X255533D01*
X254933Y-61732D02*
X255533D01*
X254933Y-61832D02*
X255533D01*
X254933Y-61932D02*
X255533D01*
X254933Y-62032D02*
X255533D01*
X254933Y-62132D02*
X255533D01*
X254933Y-62232D02*
X255533D01*
X254933Y-62332D02*
X255533D01*
X254933Y-62432D02*
X255533D01*
X254933Y-62732D02*
X255633D01*
X254933Y-62532D02*
X255533D01*
X254933Y-62632D02*
X255633D01*
X254933Y-62832D02*
X255733D01*
X254933Y-62932D02*
X255833D01*
X254933Y-63032D02*
X255933D01*
X254933Y-63132D02*
X256033D01*
X254933Y-63232D02*
X256133D01*
X254933Y-63332D02*
X256333D01*
X254933Y-63432D02*
X256633D01*
X254933Y-63532D02*
X255533D01*
X254933Y-63832D02*
X255533D01*
X254933Y-63632D02*
X255533D01*
X254933Y-63732D02*
X255533D01*
X255633Y-63532D02*
X258433D01*
X255733Y-63632D02*
X258333D01*
X255933Y-63732D02*
X258133D01*
X256033Y-63832D02*
X258033D01*
X257233Y-63432D02*
X258433D01*
X256733Y-64032D02*
X257333D01*
X254933Y-63932D02*
X255533D01*
X256333D02*
X257833D01*
X267333Y-74732D02*
X267633D01*
X267133Y-75832D02*
X267733D01*
X267133Y-75932D02*
X267733D01*
X267133Y-76032D02*
X267733D01*
X267133Y-76132D02*
X267733D01*
X267133Y-76232D02*
X267733D01*
X267133Y-76332D02*
X267733D01*
X267133Y-76432D02*
X267733D01*
X267133Y-75732D02*
X267733D01*
X267133Y-76532D02*
X267733D01*
X267133Y-76632D02*
X267733D01*
X267133Y-76732D02*
X267733D01*
X267133Y-76832D02*
X267733D01*
X263633Y-62332D02*
X264333D01*
X263233Y-63032D02*
X264133D01*
X263433Y-62732D02*
X264233D01*
X263533Y-62632D02*
X264233D01*
X263633Y-62432D02*
X264333D01*
X263333Y-62932D02*
X264133D01*
X263433Y-62832D02*
X264233D01*
X263633Y-62532D02*
X264333D01*
X263133Y-63132D02*
X264033D01*
X262833Y-63332D02*
X263833D01*
X263033Y-63232D02*
X263933D01*
X265933Y-63532D02*
X267633D01*
X265833Y-63232D02*
X266633D01*
X265933Y-63332D02*
X266733D01*
X265933Y-63432D02*
X266933D01*
X267333D02*
X267633D01*
X266033Y-63632D02*
X267633D01*
X266133Y-63732D02*
X267633D01*
X266233Y-63832D02*
X267633D01*
X266333Y-63932D02*
X267633D01*
X266733Y-64032D02*
X267333D01*
X264333Y-74532D02*
X264933D01*
X264333Y-75632D02*
X264933D01*
X264333Y-74832D02*
X264933D01*
X264333Y-74932D02*
X264933D01*
X264333Y-75432D02*
X264933D01*
X264333Y-75332D02*
X264933D01*
X264333Y-75232D02*
X264933D01*
X264333Y-75032D02*
X264933D01*
X264333Y-74632D02*
X264933D01*
X264333Y-75132D02*
X264933D01*
X264333Y-75532D02*
X264933D01*
X264333Y-74732D02*
X264933D01*
X267133Y-74632D02*
X267833D01*
X267133Y-77232D02*
X267733D01*
X267133Y-76932D02*
X267733D01*
X267133Y-77032D02*
X267733D01*
X267133Y-77132D02*
X267733D01*
X263233Y-65632D02*
X263833D01*
X263233Y-65732D02*
X263833D01*
X263233Y-66732D02*
X263833D01*
X263233Y-67432D02*
X263833D01*
X263233Y-66232D02*
X263833D01*
X263233Y-66332D02*
X263833D01*
X263233Y-66432D02*
X263833D01*
X263233Y-65832D02*
X263833D01*
X263233Y-66132D02*
X263833D01*
X263233Y-66032D02*
X263833D01*
X263233Y-65932D02*
X263833D01*
X263233Y-66532D02*
X263833D01*
X263233Y-68132D02*
X263833D01*
X263233Y-67532D02*
X263833D01*
X263233Y-67332D02*
X263833D01*
X263233Y-67132D02*
X263833D01*
X263233Y-66932D02*
X263833D01*
X263233Y-66832D02*
X263833D01*
X263233Y-67232D02*
X263833D01*
X263233Y-67032D02*
X263833D01*
X263233Y-66632D02*
X263833D01*
X263233Y-67732D02*
X263833D01*
X263233Y-67932D02*
X263833D01*
X263233Y-68032D02*
X263833D01*
X263233Y-67632D02*
X263833D01*
X263233Y-68232D02*
X263833D01*
X263233Y-67832D02*
X263833D01*
X264733Y-67732D02*
X265433D01*
X264833Y-68032D02*
X265533D01*
X264833Y-67932D02*
X265533D01*
X264833Y-67832D02*
X265533D01*
X264833Y-68132D02*
X265533D01*
X264933Y-68232D02*
X265633D01*
X264933Y-68332D02*
X265633D01*
X265233Y-69532D02*
X265933D01*
X265133Y-68932D02*
X265833D01*
X265133Y-69032D02*
X265833D01*
X265133Y-69132D02*
X265833D01*
X265233Y-69232D02*
X265833D01*
X265233Y-69332D02*
X265933D01*
X265233Y-69432D02*
X265933D01*
X265333Y-69632D02*
X265933D01*
X265333Y-69732D02*
X266033D01*
X265333Y-69832D02*
X266033D01*
X265433Y-69932D02*
X266033D01*
X265433Y-70032D02*
X266133D01*
X265433Y-70232D02*
X266133D01*
X265433Y-70132D02*
X266133D01*
X264333Y-79932D02*
X265033D01*
X264333Y-80132D02*
X265033D01*
X264533Y-80532D02*
X266033D01*
X264333Y-80232D02*
X265133D01*
X264433Y-80332D02*
X265333D01*
X264433Y-80432D02*
X266033D01*
X264533Y-80632D02*
X266033D01*
X264633Y-80732D02*
X266133D01*
X265133Y-80932D02*
X265833D01*
X264833Y-80832D02*
X266133D01*
X265933Y-80332D02*
X266033D01*
X264333Y-76732D02*
X264933D01*
X263333Y-75732D02*
X266033D01*
X263333Y-75832D02*
X266033D01*
X263333Y-75932D02*
X266033D01*
X263333Y-76032D02*
X266033D01*
X263333Y-76132D02*
X266033D01*
X263333Y-76232D02*
X266033D01*
X264333Y-76632D02*
X264933D01*
X264333Y-76832D02*
X264933D01*
X262033Y-77532D02*
X262633D01*
X264333D02*
X264933D01*
X264333Y-77632D02*
X264933D01*
X264333Y-77732D02*
X264933D01*
X264333Y-77832D02*
X264933D01*
X264333Y-77932D02*
X264933D01*
X264333Y-78732D02*
X264933D01*
X264333Y-78532D02*
X264933D01*
X264333Y-78232D02*
X264933D01*
X264333Y-78032D02*
X264933D01*
X264333Y-78132D02*
X264933D01*
X264333Y-78332D02*
X264933D01*
X264333Y-78432D02*
X264933D01*
X264333Y-78632D02*
X264933D01*
X264333Y-78832D02*
X264933D01*
X264333Y-78932D02*
X264933D01*
X264333Y-79832D02*
X264933D01*
X264333Y-79632D02*
X264933D01*
X264333Y-79432D02*
X264933D01*
X264333Y-79332D02*
X264933D01*
X264333Y-79232D02*
X264933D01*
X264333Y-79132D02*
X264933D01*
X264333Y-79032D02*
X264933D01*
X264333Y-79732D02*
X264933D01*
X264333Y-79532D02*
X264933D01*
X264333Y-80032D02*
X265033D01*
X252733Y-62932D02*
X253533D01*
X253033Y-62332D02*
X253733D01*
X252833Y-62732D02*
X253633D01*
X252833Y-62832D02*
X253533D01*
X252633Y-63032D02*
X253433D01*
X252533Y-63132D02*
X253433D01*
X252333Y-63232D02*
X253333D01*
X252233Y-63332D02*
X253233D01*
X252933Y-62532D02*
X253733D01*
X252933Y-62632D02*
X253633D01*
X254933Y-61032D02*
X255533D01*
X258433D02*
X259033D01*
X258433Y-61432D02*
X259033D01*
X258433Y-61132D02*
X259033D01*
X258433Y-61232D02*
X259033D01*
X258433Y-61332D02*
X259033D01*
X259933Y-62032D02*
X260633D01*
X257733Y-63232D02*
X258633D01*
X257833Y-63132D02*
X258733D01*
X257933Y-63032D02*
X258733D01*
X257533Y-63332D02*
X258533D01*
X258033Y-62832D02*
X258833D01*
X258133Y-62732D02*
X258833D01*
X258133Y-62632D02*
X258933D01*
X258233Y-62432D02*
X258933D01*
X258033Y-62932D02*
X258833D01*
X258233Y-62332D02*
X258933D01*
X258233Y-62532D02*
X258933D01*
X259933Y-62132D02*
X260633D01*
X259933Y-62232D02*
X260633D01*
X259933Y-62332D02*
X260733D01*
X260033Y-62432D02*
X260733D01*
X260033Y-62532D02*
X260733D01*
X260033Y-62632D02*
X260833D01*
X260133Y-62732D02*
X260933D01*
X260133Y-62832D02*
X260933D01*
X260233Y-62932D02*
X261033D01*
X260233Y-63032D02*
X261133D01*
X260333Y-63132D02*
X261233D01*
X260433Y-63232D02*
X261333D01*
X260533Y-63332D02*
X261533D01*
X265833Y-63132D02*
X266533D01*
X265833Y-62832D02*
X266533D01*
X265833Y-62732D02*
X266533D01*
X265833Y-62932D02*
X266533D01*
X265833Y-63032D02*
X266533D01*
X258333Y-62232D02*
X259033D01*
X258433Y-61532D02*
X259033D01*
X258433Y-61632D02*
X259033D01*
X258333Y-61932D02*
X259033D01*
X258333Y-62032D02*
X259033D01*
X258333Y-61832D02*
X259033D01*
X258433Y-61732D02*
X259033D01*
X258333Y-62132D02*
X259033D01*
X259933Y-61932D02*
X260533D01*
X259933Y-60932D02*
X260533D01*
X259833Y-61532D02*
X260533D01*
X259933Y-61632D02*
X260533D01*
X259933Y-61832D02*
X260533D01*
X259933Y-61732D02*
X260533D01*
X259833Y-61432D02*
X260533D01*
X259933Y-61132D02*
X260533D01*
X259933Y-61032D02*
X260533D01*
X259833Y-61232D02*
X260533D01*
X259833Y-61332D02*
X260533D01*
X263733Y-62232D02*
X264433D01*
X263833Y-61532D02*
X264433D01*
X263733Y-61932D02*
X264433D01*
X263733Y-62032D02*
X264433D01*
X263733Y-62132D02*
X264433D01*
X263833Y-61632D02*
X264433D01*
X263833Y-61832D02*
X264433D01*
X263833Y-61732D02*
X264433D01*
X263833Y-61432D02*
X264433D01*
X263833Y-61132D02*
X264433D01*
X263833Y-61332D02*
X264433D01*
X263833Y-61032D02*
X264433D01*
X263833Y-60932D02*
X264433D01*
X263833Y-61232D02*
X264433D01*
X265833Y-62632D02*
X266533D01*
X265833Y-62032D02*
X266533D01*
X265833Y-62132D02*
X266533D01*
X265833Y-62232D02*
X266533D01*
X265833Y-62332D02*
X266533D01*
X265833Y-62432D02*
X266533D01*
X265833Y-62532D02*
X266533D01*
X265833Y-61932D02*
X266533D01*
X265833Y-61632D02*
X266533D01*
X265833Y-61732D02*
X266533D01*
X265833Y-61832D02*
X266533D01*
X265833Y-61532D02*
X266533D01*
X265833Y-60532D02*
X266533D01*
X265833Y-61332D02*
X266533D01*
X265833Y-61432D02*
X266533D01*
X265833Y-61232D02*
X266533D01*
X265833Y-61132D02*
X266533D01*
X265833Y-60632D02*
X266533D01*
X265833Y-60432D02*
X266533D01*
X265833Y-60732D02*
X266533D01*
X265833Y-60832D02*
X266533D01*
X265833Y-60932D02*
X266533D01*
X265833Y-61032D02*
X266533D01*
D19*
X262315Y-41690D02*
X262766Y-41240D01*
X261889Y-41690D02*
X262315D01*
X262766Y-41240D02*
X266437D01*
X272047Y-133169D02*
X272979Y-132237D01*
X274062D02*
X276181Y-130118D01*
X272979Y-132237D02*
X274062D01*
X276181Y-130118D02*
X276181D01*
X272835Y-137992D02*
X274968D01*
X275952Y-137008D02*
X276378D01*
X274968Y-137992D02*
X275952Y-137008D01*
X272244Y-138806D02*
Y-138583D01*
X272835Y-137992D01*
X272244Y-139173D02*
Y-138583D01*
X204134Y-127067D02*
X208858D01*
X209055Y-127264D01*
X204617Y-122253D02*
X205906Y-120965D01*
X204134Y-122736D02*
X204617Y-122253D01*
Y-122253D01*
X204134Y-127067D02*
Y-122736D01*
X148819Y-172441D02*
X158760D01*
X148721Y-172343D02*
X148819Y-172441D01*
X178347Y-61417D02*
X178347Y-61417D01*
Y-64468D02*
Y-61417D01*
X178347Y-61417D02*
Y-59646D01*
X208760Y-68898D02*
X209186D01*
X209776Y-69488D02*
X213779D01*
X209186Y-68898D02*
X209776Y-69488D01*
X178347Y-101442D02*
X179382Y-100407D01*
Y-100022D01*
X178347Y-104921D02*
Y-101442D01*
X203937Y-110728D02*
X204035Y-110827D01*
X203937Y-110728D02*
Y-104921D01*
X173031Y-89173D02*
X173031Y-89173D01*
X168504Y-89173D02*
X173031D01*
X170965Y-66831D02*
Y-48819D01*
X168504Y-67520D02*
X170276D01*
X170965Y-66831D01*
X161441Y-94671D02*
X164970Y-91142D01*
X168504D01*
X167215Y-45069D02*
X170965Y-48819D01*
X205906Y-108563D02*
Y-104921D01*
X180315Y-110925D02*
Y-104921D01*
X180315Y-110925D02*
X180315Y-110925D01*
X205906Y-108563D02*
X208169Y-110827D01*
X176378Y-59646D02*
Y-53150D01*
X161441Y-96528D02*
Y-94671D01*
X161324Y-96645D02*
X161441Y-96528D01*
X205906Y-115059D02*
X206890Y-114075D01*
Y-112532D02*
X208169Y-111253D01*
X206890Y-114075D02*
Y-112532D01*
X208169Y-111253D02*
Y-110827D01*
X283241Y-195052D02*
X288720Y-200532D01*
X281201Y-194461D02*
X281791Y-195052D01*
X288720Y-200532D02*
X291634D01*
X281791Y-195052D02*
X283241D01*
X281201Y-194461D02*
Y-193996D01*
X291634Y-168032D02*
X295551D01*
X298256Y-165327D01*
X314075Y-173031D02*
X321949D01*
X317521Y-185531D02*
X322342Y-180710D01*
Y-175197D01*
X314075Y-185531D02*
X317521D01*
X317815Y-194847D02*
Y-192990D01*
Y-192404D01*
Y-190490D02*
Y-189961D01*
Y-192404D02*
Y-190490D01*
X309547Y-187992D02*
X309587Y-188031D01*
X314075D01*
X321949Y-173031D02*
X322342Y-173425D01*
X314117Y-190490D02*
X317286D01*
X314075Y-190532D02*
X314117Y-190490D01*
X317286D02*
X317815Y-189961D01*
X314075Y-193032D02*
X314117Y-192990D01*
X317229D01*
X317815Y-192404D01*
X314117Y-195490D02*
X317172D01*
X317815Y-194847D01*
X314075Y-195531D02*
X314117Y-195490D01*
X344980Y-106693D02*
X354823D01*
X344980Y-92913D02*
X354823D01*
X272047Y-193996D02*
X275295D01*
X163232Y-45069D02*
X167215D01*
X266437Y-41240D02*
X268406Y-39272D01*
Y-35138D01*
X218888Y-32929D02*
X218893Y-32924D01*
Y-29139D02*
X218898Y-29134D01*
X218893Y-32924D02*
Y-29139D01*
X178248Y-197441D02*
Y-193602D01*
Y-197441D02*
X179183Y-198376D01*
X178248Y-193602D02*
X179429Y-192421D01*
X181791D02*
X181890Y-192323D01*
X179429Y-192421D02*
X181791D01*
X179183Y-198376D02*
X184420D01*
X193799Y-195571D02*
Y-191732D01*
X193799Y-191732D01*
X181890Y-192323D02*
X187303D01*
X187894Y-191732D01*
Y-191732D01*
X184420Y-198376D02*
X184646Y-198602D01*
X205807Y-191732D02*
X207966Y-193892D01*
Y-195565D02*
Y-193892D01*
Y-195565D02*
X208268Y-195866D01*
X197835Y-201043D02*
Y-193799D01*
X199902Y-191732D01*
X200394Y-203602D02*
X203543D01*
X197835Y-201043D02*
X200394Y-203602D01*
X207966Y-196168D02*
X208268Y-195866D01*
X203543Y-198602D02*
X206373D01*
X207966Y-197009D01*
Y-196168D01*
X193799Y-191732D02*
X193799Y-191732D01*
X226230Y-125443D02*
X226279Y-125492D01*
X226230Y-125443D02*
Y-121211D01*
X216437Y-121161D02*
X220276D01*
X329263Y-100886D02*
X332874D01*
X329232Y-100917D02*
X329263Y-100886D01*
X329232Y-84252D02*
Y-82512D01*
X329232Y-82511D02*
X329232Y-82512D01*
Y-84252D02*
X332185Y-87205D01*
X139563Y-182283D02*
Y-176185D01*
X142815Y-172933D01*
Y-172343D01*
X138524Y-183322D02*
X139563Y-182283D01*
X146841Y-45069D02*
X163232D01*
X146555Y-44783D02*
X146841Y-45069D01*
X176526Y-53002D02*
Y-47884D01*
X176378Y-53150D02*
X176526Y-53002D01*
Y-47884D02*
X176673Y-47736D01*
X154183Y-41270D02*
Y-37648D01*
X154134Y-37598D02*
X154183Y-37648D01*
Y-41270D02*
X154232Y-41319D01*
X332305Y-32665D02*
Y-28762D01*
X332283Y-28740D02*
X332305Y-28762D01*
Y-32665D02*
X332327Y-32687D01*
X93228Y-136417D02*
X93504Y-136142D01*
X85433Y-136417D02*
X93228D01*
X93504Y-136142D02*
X93819Y-135827D01*
X96260D01*
Y-129724D01*
X96850Y-129134D01*
X93504Y-136142D02*
X106378D01*
X108858Y-133661D01*
Y-129134D01*
X108858Y-129134D02*
X108858Y-129134D01*
X188878Y-38484D02*
X188878Y-38484D01*
X188878Y-41831D02*
Y-38484D01*
X292618Y-132382D02*
Y-127854D01*
X114764Y-129134D02*
Y-126378D01*
X113583Y-125197D02*
X114764Y-126378D01*
X102756Y-125197D02*
X113583D01*
X102756Y-129134D02*
Y-125197D01*
X93504Y-141142D02*
X99409D01*
X99410Y-141142D01*
X102756Y-148228D02*
Y-144095D01*
X110827D01*
X114764Y-148031D01*
X93504Y-216614D02*
X98347D01*
X111024Y-201181D02*
X114764Y-204921D01*
X102559Y-201181D02*
X111024D01*
X102559Y-204724D02*
Y-201181D01*
Y-204724D02*
X102756Y-204921D01*
X93504Y-198228D02*
X99606D01*
X110630Y-182480D02*
X114370Y-186221D01*
X102362Y-182480D02*
X110630D01*
X102362Y-186221D02*
Y-182480D01*
X93504Y-179213D02*
X99331D01*
X99410Y-179134D01*
X111221Y-163976D02*
X114764Y-167520D01*
X102756Y-163976D02*
X111221D01*
X102756Y-167323D02*
Y-163976D01*
X93504Y-160039D02*
X99409D01*
X99410Y-160039D01*
X102362Y-186221D02*
X102362Y-186221D01*
X98347Y-216614D02*
X100787Y-214173D01*
Y-211417D01*
X84252Y-211614D02*
X93504D01*
X84055Y-211811D02*
X84252Y-211614D01*
X93504D02*
X95669D01*
X96850Y-210433D01*
Y-208465D02*
X105315D01*
X108858Y-204921D01*
X96850Y-210433D02*
Y-208465D01*
Y-204921D01*
X96653Y-193228D02*
X105984D01*
X93504D02*
X96653D01*
X96457Y-193032D02*
X96653Y-193228D01*
X96457Y-193032D02*
Y-186221D01*
X108268Y-186417D02*
X108465Y-186221D01*
X108268Y-190945D02*
Y-186417D01*
X105984Y-193228D02*
X108268Y-190945D01*
X93425Y-193307D02*
X93504Y-193228D01*
X84055Y-193307D02*
X93425D01*
X96850Y-174213D02*
X106299D01*
X108858Y-171653D02*
Y-167520D01*
X106299Y-174213D02*
X108858Y-171653D01*
X84646Y-174213D02*
X93504D01*
X96850D01*
X84055Y-174803D02*
X84646Y-174213D01*
X96850D02*
Y-167323D01*
X108858Y-152559D02*
Y-148031D01*
X106102Y-155315D02*
X108858Y-152559D01*
X93779Y-155315D02*
X106102D01*
X93504Y-155039D02*
X93779Y-155315D01*
X86496Y-155039D02*
X93504D01*
X84449Y-157087D02*
X86496Y-155039D01*
X93504D02*
X96850D01*
Y-148228D01*
X138524Y-195562D02*
Y-183322D01*
X73917Y-43878D02*
X77185D01*
X78543Y-42520D01*
X81299D01*
X73819Y-30236D02*
X80827D01*
X81299Y-30709D01*
X73819Y-35236D02*
X77953Y-39370D01*
X90158D01*
X94685Y-34843D01*
Y-26870D01*
X89862Y-22047D02*
X94685Y-26870D01*
X73819Y-20236D02*
X75157Y-18898D01*
X81299D01*
Y-48425D02*
X84045D01*
X89862Y-54242D01*
X81299Y-60236D02*
X83868D01*
X89862Y-54242D01*
X82618Y-24803D02*
X89862Y-32047D01*
X81299Y-24803D02*
X82618D01*
X81299Y-36614D02*
X85295D01*
X89862Y-32047D01*
X40748Y-207087D02*
X44882D01*
X37205Y-203543D02*
X40748Y-207087D01*
X37205Y-203543D02*
Y-187795D01*
X29528Y-180118D02*
X37205Y-187795D01*
X29528Y-166339D02*
X38189Y-175000D01*
Y-184646D02*
Y-175000D01*
Y-184646D02*
X43455Y-189911D01*
X45669D01*
X42421Y-172736D02*
X45669D01*
X36417Y-166732D02*
X42421Y-172736D01*
X36417Y-166732D02*
Y-159449D01*
X29528Y-152559D02*
X36417Y-159449D01*
X29528Y-125000D02*
X29921D01*
X43307Y-138386D01*
X45669D01*
X182776Y-41831D02*
Y-38484D01*
X182776Y-38484D01*
D23*
X233760Y-128150D02*
D03*
X235728D02*
D03*
X239665D02*
D03*
X241634D02*
D03*
X243602D02*
D03*
X245571D02*
D03*
X247539D02*
D03*
X249508D02*
D03*
X247539Y-159843D02*
D03*
X245571D02*
D03*
X241634D02*
D03*
X237697D02*
D03*
X235728D02*
D03*
X231791D02*
D03*
X239665D02*
D03*
X233760D02*
D03*
X229823D02*
D03*
Y-128150D02*
D03*
X251476Y-159843D02*
D03*
X237697Y-128150D02*
D03*
X231791D02*
D03*
X249508Y-159843D02*
D03*
X243602D02*
D03*
X251476Y-128150D02*
D03*
D24*
X256496Y-148917D02*
D03*
X224803Y-152854D02*
D03*
Y-139075D02*
D03*
Y-137106D02*
D03*
X256496Y-139075D02*
D03*
Y-141043D02*
D03*
Y-143012D02*
D03*
Y-154823D02*
D03*
Y-150886D02*
D03*
Y-152854D02*
D03*
X224803Y-154823D02*
D03*
X256496Y-133169D02*
D03*
X224803Y-148917D02*
D03*
Y-133169D02*
D03*
Y-135138D02*
D03*
Y-150886D02*
D03*
Y-141043D02*
D03*
Y-143012D02*
D03*
X256496Y-146949D02*
D03*
Y-144980D02*
D03*
Y-135138D02*
D03*
X224803Y-146949D02*
D03*
X256496Y-137106D02*
D03*
X224803Y-144980D02*
D03*
D25*
X191496Y-175492D02*
D03*
X215984D02*
D03*
D26*
X168504Y-97047D02*
D03*
Y-95079D02*
D03*
Y-93110D02*
D03*
Y-87205D02*
D03*
Y-85236D02*
D03*
Y-83268D02*
D03*
Y-81299D02*
D03*
Y-69488D02*
D03*
X213779Y-97047D02*
D03*
Y-95079D02*
D03*
Y-93110D02*
D03*
Y-91142D02*
D03*
Y-89173D02*
D03*
Y-87205D02*
D03*
Y-85236D02*
D03*
Y-83268D02*
D03*
Y-81299D02*
D03*
Y-79331D02*
D03*
Y-77362D02*
D03*
Y-71457D02*
D03*
Y-67520D02*
D03*
X168504Y-91142D02*
D03*
Y-79331D02*
D03*
X213779Y-69488D02*
D03*
X168504Y-89173D02*
D03*
Y-71457D02*
D03*
Y-73425D02*
D03*
Y-67520D02*
D03*
X213779Y-75394D02*
D03*
Y-73425D02*
D03*
X168504Y-75394D02*
D03*
Y-77362D02*
D03*
D27*
X176378Y-104921D02*
D03*
X182283D02*
D03*
X184252D02*
D03*
X186221D02*
D03*
X188189D02*
D03*
X190157D02*
D03*
X192126D02*
D03*
X194095D02*
D03*
X196063D02*
D03*
X198031D02*
D03*
X200000D02*
D03*
X201969D02*
D03*
X205906Y-59646D02*
D03*
X203937D02*
D03*
X201969D02*
D03*
X200000D02*
D03*
X198031D02*
D03*
X196063D02*
D03*
X194095D02*
D03*
X192126D02*
D03*
X190157D02*
D03*
X188189D02*
D03*
X186221D02*
D03*
X182283D02*
D03*
X180315D02*
D03*
X176378D02*
D03*
X205906Y-104921D02*
D03*
X180315D02*
D03*
X184252Y-59646D02*
D03*
X178347D02*
D03*
X203937Y-104921D02*
D03*
X178347D02*
D03*
D28*
X203937Y-149508D02*
D03*
X146063Y-89665D02*
D03*
D29*
X203937Y-140847D02*
D03*
X210236Y-149508D02*
D03*
Y-140847D02*
D03*
X146063Y-81004D02*
D03*
X152362Y-89665D02*
D03*
Y-81004D02*
D03*
D30*
X147244Y-150000D02*
D03*
Y-155905D02*
D03*
X153248Y-150000D02*
D03*
Y-155905D02*
D03*
X192815Y-121063D02*
D03*
Y-115157D02*
D03*
X186713Y-121063D02*
D03*
Y-115157D02*
D03*
X198917Y-121063D02*
D03*
Y-115157D02*
D03*
X338386Y-177657D02*
D03*
Y-183563D02*
D03*
X264075Y-158661D02*
D03*
Y-152756D02*
D03*
X270768D02*
D03*
Y-158661D02*
D03*
X264075Y-163484D02*
D03*
Y-169390D02*
D03*
X148917Y-106496D02*
D03*
Y-100591D02*
D03*
X327854Y-59449D02*
D03*
Y-53543D02*
D03*
X338386Y-201279D02*
D03*
X239075Y-170669D02*
D03*
X121653Y-32480D02*
D03*
X76772Y-140551D02*
D03*
Y-146457D02*
D03*
X127362Y-135827D02*
D03*
Y-192667D02*
D03*
X84449Y-136614D02*
D03*
X188878Y-41831D02*
D03*
X338386Y-207185D02*
D03*
X251083Y-176575D02*
D03*
X81299Y-54331D02*
D03*
X188878Y-47736D02*
D03*
X84055Y-205906D02*
D03*
Y-187402D02*
D03*
Y-168701D02*
D03*
X84449Y-151181D02*
D03*
Y-142520D02*
D03*
X84055Y-211811D02*
D03*
Y-193307D02*
D03*
Y-174606D02*
D03*
X84449Y-157087D02*
D03*
X81299Y-125197D02*
D03*
Y-113386D02*
D03*
Y-101575D02*
D03*
Y-89764D02*
D03*
Y-77953D02*
D03*
Y-66142D02*
D03*
Y-42520D02*
D03*
Y-30709D02*
D03*
Y-18898D02*
D03*
X127362Y-217520D02*
D03*
Y-173721D02*
D03*
Y-154774D02*
D03*
X76772Y-214961D02*
D03*
Y-209055D02*
D03*
Y-197736D02*
D03*
Y-191831D02*
D03*
X121063Y-114764D02*
D03*
Y-120669D02*
D03*
X81299Y-119291D02*
D03*
Y-131102D02*
D03*
X76772Y-180512D02*
D03*
Y-174606D02*
D03*
Y-163287D02*
D03*
Y-157382D02*
D03*
X121063Y-93209D02*
D03*
Y-99114D02*
D03*
X81299Y-95669D02*
D03*
Y-107480D02*
D03*
X121063Y-70079D02*
D03*
Y-75984D02*
D03*
X81299Y-72047D02*
D03*
Y-83858D02*
D03*
X121063Y-60039D02*
D03*
Y-54134D02*
D03*
X81299Y-48425D02*
D03*
Y-60236D02*
D03*
X121653Y-38386D02*
D03*
X81299Y-24803D02*
D03*
Y-36614D02*
D03*
X181890Y-192323D02*
D03*
X251083Y-170669D02*
D03*
X245079Y-170669D02*
D03*
X239075Y-176575D02*
D03*
X127362Y-141732D02*
D03*
Y-179626D02*
D03*
Y-198573D02*
D03*
Y-211614D02*
D03*
X245079Y-176575D02*
D03*
X127362Y-160679D02*
D03*
X181890Y-186417D02*
D03*
D31*
X151417Y-118996D02*
D03*
X156417D02*
D03*
X146417Y-138287D02*
D03*
X151417D02*
D03*
X161417D02*
D03*
X156417D02*
D03*
X146417Y-118996D02*
D03*
X161417D02*
D03*
X153524Y-214854D02*
D03*
X148524D02*
D03*
X143524D02*
D03*
X138524D02*
D03*
Y-195562D02*
D03*
X153524D02*
D03*
X148524D02*
D03*
X143524D02*
D03*
D32*
X180413Y-137697D02*
D03*
Y-149508D02*
D03*
X191240Y-137697D02*
D03*
Y-149508D02*
D03*
X169488Y-137697D02*
D03*
Y-149508D02*
D03*
X282677Y-127854D02*
D03*
Y-116043D02*
D03*
X292618Y-127854D02*
D03*
Y-116043D02*
D03*
D33*
X314075Y-200532D02*
D03*
Y-198031D02*
D03*
Y-195531D02*
D03*
Y-193032D02*
D03*
Y-190532D02*
D03*
Y-188031D02*
D03*
Y-185531D02*
D03*
Y-183031D02*
D03*
Y-180532D02*
D03*
Y-178032D02*
D03*
Y-175531D02*
D03*
Y-173031D02*
D03*
Y-170531D02*
D03*
Y-168032D02*
D03*
X291634Y-200532D02*
D03*
Y-198031D02*
D03*
Y-195531D02*
D03*
Y-193032D02*
D03*
Y-190532D02*
D03*
Y-188031D02*
D03*
Y-185531D02*
D03*
Y-183031D02*
D03*
Y-180532D02*
D03*
Y-178032D02*
D03*
Y-175531D02*
D03*
Y-173031D02*
D03*
Y-170531D02*
D03*
Y-168032D02*
D03*
D34*
X308071Y-156890D02*
D03*
D35*
X299410D02*
D03*
X308071Y-150591D02*
D03*
X299410D02*
D03*
D36*
X328248Y-175197D02*
D03*
X322342D02*
D03*
X275295Y-193996D02*
D03*
X281201D02*
D03*
X266339Y-145276D02*
D03*
X272244D02*
D03*
X214961Y-127264D02*
D03*
X209055D02*
D03*
X329232Y-82511D02*
D03*
X323326D02*
D03*
Y-100917D02*
D03*
X213091Y-34843D02*
D03*
X108858Y-129134D02*
D03*
X193799Y-191732D02*
D03*
X231594Y-121161D02*
D03*
X148721Y-172343D02*
D03*
X207185Y-34843D02*
D03*
X266142Y-127165D02*
D03*
Y-121161D02*
D03*
X213091Y-40846D02*
D03*
X114370Y-186221D02*
D03*
X114764Y-129134D02*
D03*
Y-204921D02*
D03*
Y-167520D02*
D03*
Y-148031D02*
D03*
X108858Y-204921D02*
D03*
X108465Y-186221D02*
D03*
X108858Y-167520D02*
D03*
Y-148031D02*
D03*
X142815Y-172343D02*
D03*
X272047Y-121161D02*
D03*
Y-127165D02*
D03*
X187894Y-191732D02*
D03*
X237500Y-121161D02*
D03*
X272244Y-139173D02*
D03*
X207185Y-40846D02*
D03*
X266339Y-139173D02*
D03*
X329232Y-100917D02*
D03*
D37*
X328150Y-169095D02*
D03*
X322244D02*
D03*
X328150Y-163091D02*
D03*
X322244D02*
D03*
X226181Y-121161D02*
D03*
X220276D02*
D03*
X301969Y-47343D02*
D03*
X307874D02*
D03*
Y-18701D02*
D03*
X301969D02*
D03*
X138484Y-80512D02*
D03*
Y-90354D02*
D03*
X141043Y-69390D02*
D03*
Y-59350D02*
D03*
X286024Y-220866D02*
D03*
X96850Y-129134D02*
D03*
X210138Y-156890D02*
D03*
X204232Y-133366D02*
D03*
X135138Y-59350D02*
D03*
Y-69390D02*
D03*
X301772Y-77264D02*
D03*
X258071Y-220866D02*
D03*
X291929Y-215354D02*
D03*
Y-220866D02*
D03*
X132579Y-80512D02*
D03*
Y-90354D02*
D03*
X272047Y-133169D02*
D03*
X210236Y-54134D02*
D03*
X205807Y-191732D02*
D03*
X102756Y-204921D02*
D03*
Y-129134D02*
D03*
X102362Y-186221D02*
D03*
X102756Y-167323D02*
D03*
Y-148228D02*
D03*
X96850Y-204921D02*
D03*
X96457Y-186221D02*
D03*
X96850Y-167323D02*
D03*
Y-148228D02*
D03*
X199902Y-191732D02*
D03*
X204232Y-156890D02*
D03*
X210138Y-133366D02*
D03*
X286024Y-215354D02*
D03*
X266142Y-133169D02*
D03*
X216142Y-54134D02*
D03*
X307677Y-77264D02*
D03*
X263976Y-220866D02*
D03*
D38*
X167520Y-198031D02*
D03*
Y-173425D02*
D03*
D39*
X205906Y-120965D02*
D03*
Y-115059D02*
D03*
X169882Y-41831D02*
D03*
Y-47736D02*
D03*
X155020Y-100492D02*
D03*
Y-106398D02*
D03*
X233071Y-170669D02*
D03*
X328740Y-146653D02*
D03*
X316929D02*
D03*
X322835D02*
D03*
Y-152559D02*
D03*
X307874Y-132480D02*
D03*
Y-138386D02*
D03*
X328740Y-152559D02*
D03*
X316929D02*
D03*
X307874Y-125394D02*
D03*
X161122Y-106398D02*
D03*
X257087Y-176476D02*
D03*
X233071Y-176575D02*
D03*
X180315Y-121063D02*
D03*
X176673Y-41831D02*
D03*
X182776Y-47736D02*
D03*
X161122Y-100492D02*
D03*
X257087Y-170571D02*
D03*
X180315Y-115157D02*
D03*
X176673Y-47736D02*
D03*
X182776Y-41831D02*
D03*
X307874Y-119488D02*
D03*
D40*
X89862Y-120827D02*
D03*
X114468D02*
D03*
Y-110827D02*
D03*
X89862D02*
D03*
Y-76437D02*
D03*
X114468D02*
D03*
X89862Y-66437D02*
D03*
X114468D02*
D03*
Y-32047D02*
D03*
X89862Y-44242D02*
D03*
X114468Y-88632D02*
D03*
Y-44242D02*
D03*
Y-22047D02*
D03*
X89862Y-88632D02*
D03*
Y-22047D02*
D03*
X114468Y-98632D02*
D03*
X89862D02*
D03*
X114468Y-54242D02*
D03*
X89862D02*
D03*
Y-32047D02*
D03*
D41*
X45669Y-217087D02*
D03*
Y-207087D02*
D03*
X67669Y-217087D02*
D03*
Y-207087D02*
D03*
X118504Y-211614D02*
D03*
X93504D02*
D03*
Y-216614D02*
D03*
X118504D02*
D03*
X67669Y-148386D02*
D03*
X118504Y-136142D02*
D03*
Y-193228D02*
D03*
X93504Y-136142D02*
D03*
X67669Y-138386D02*
D03*
Y-155561D02*
D03*
Y-172736D02*
D03*
Y-189911D02*
D03*
X118504Y-141142D02*
D03*
Y-198228D02*
D03*
Y-179213D02*
D03*
Y-160039D02*
D03*
X93504Y-141142D02*
D03*
Y-198228D02*
D03*
Y-179213D02*
D03*
Y-160039D02*
D03*
Y-193228D02*
D03*
Y-174213D02*
D03*
Y-155039D02*
D03*
X118504Y-174213D02*
D03*
Y-155039D02*
D03*
X67669Y-199911D02*
D03*
Y-182736D02*
D03*
Y-165561D02*
D03*
X45669Y-189911D02*
D03*
Y-172736D02*
D03*
Y-155561D02*
D03*
Y-138386D02*
D03*
Y-148386D02*
D03*
Y-165561D02*
D03*
Y-182736D02*
D03*
Y-199911D02*
D03*
D42*
X162402Y-212402D02*
D03*
X174213D02*
D03*
D43*
X73721Y-115138D02*
D03*
Y-125138D02*
D03*
X60433Y-117913D02*
D03*
Y-127362D02*
D03*
X73721Y-120138D02*
D03*
Y-130138D02*
D03*
X73917Y-48878D02*
D03*
Y-58878D02*
D03*
Y-53878D02*
D03*
X60630Y-103543D02*
D03*
Y-94095D02*
D03*
Y-79724D02*
D03*
Y-70276D02*
D03*
Y-56102D02*
D03*
Y-46654D02*
D03*
X60532Y-32461D02*
D03*
Y-23012D02*
D03*
X73917Y-101319D02*
D03*
Y-96319D02*
D03*
Y-106319D02*
D03*
Y-91319D02*
D03*
Y-77500D02*
D03*
Y-82500D02*
D03*
Y-72500D02*
D03*
Y-67500D02*
D03*
Y-43878D02*
D03*
X73819Y-30236D02*
D03*
Y-35236D02*
D03*
Y-25236D02*
D03*
Y-20236D02*
D03*
D44*
X55709Y-113976D02*
D03*
X55797Y-131238D02*
D03*
X55994Y-107419D02*
D03*
X55905Y-90158D02*
D03*
X55994Y-83600D02*
D03*
X55905Y-66339D02*
D03*
X55994Y-59978D02*
D03*
X55905Y-42717D02*
D03*
X55895Y-36336D02*
D03*
X55807Y-19075D02*
D03*
D45*
X65354Y-113976D02*
D03*
X65397Y-131238D02*
D03*
X65594Y-107419D02*
D03*
X65551Y-90158D02*
D03*
X65594Y-83600D02*
D03*
X65551Y-66339D02*
D03*
X65594Y-59978D02*
D03*
X65551Y-42717D02*
D03*
X65495Y-36336D02*
D03*
X65453Y-19075D02*
D03*
D46*
X52165Y-114961D02*
D03*
X52362Y-91142D02*
D03*
Y-67323D02*
D03*
Y-43701D02*
D03*
X52264Y-20059D02*
D03*
D47*
Y-120374D02*
D03*
X52461Y-96555D02*
D03*
Y-72736D02*
D03*
Y-49114D02*
D03*
X52362Y-25473D02*
D03*
D48*
X52165Y-130266D02*
D03*
X52197Y-124938D02*
D03*
X52362Y-106447D02*
D03*
X52394Y-101119D02*
D03*
Y-77300D02*
D03*
X52362Y-82628D02*
D03*
Y-59006D02*
D03*
X52394Y-53678D02*
D03*
X52295Y-30036D02*
D03*
X52264Y-35364D02*
D03*
D49*
X222441Y-197441D02*
D03*
Y-212598D02*
D03*
D50*
X139563Y-182283D02*
D03*
X152563D02*
D03*
D51*
X268406Y-35138D02*
D03*
X234154D02*
D03*
D52*
X320571Y-212795D02*
D03*
X307185D02*
D03*
X254134Y-212795D02*
D03*
X240748D02*
D03*
D53*
X271258Y-219685D02*
D03*
Y-212205D02*
D03*
X279919D02*
D03*
X271258Y-215945D02*
D03*
X279919Y-219685D02*
D03*
D54*
X332326Y-91753D02*
D03*
X323326Y-88003D02*
D03*
Y-95503D02*
D03*
X154232Y-48819D02*
D03*
Y-41319D02*
D03*
X163232Y-45069D02*
D03*
X323327Y-28937D02*
D03*
Y-36437D02*
D03*
X332327Y-32687D02*
D03*
D55*
X315158Y-115976D02*
D03*
X317717D02*
D03*
X333071Y-138583D02*
D03*
X315158D02*
D03*
X320276D02*
D03*
X322835D02*
D03*
X325394D02*
D03*
X317717D02*
D03*
X327953D02*
D03*
X320276Y-115976D02*
D03*
X322835D02*
D03*
X330512Y-138583D02*
D03*
X333071Y-115976D02*
D03*
X330512D02*
D03*
X327953D02*
D03*
X325394D02*
D03*
D56*
X295177Y-64114D02*
D03*
Y-59114D02*
D03*
X314469Y-69114D02*
D03*
Y-64114D02*
D03*
Y-54114D02*
D03*
Y-59114D02*
D03*
X295177Y-69114D02*
D03*
Y-54114D02*
D03*
X314469Y-40177D02*
D03*
Y-25177D02*
D03*
X295177Y-35177D02*
D03*
Y-30177D02*
D03*
X314469Y-35177D02*
D03*
Y-30177D02*
D03*
X295177Y-40177D02*
D03*
Y-25177D02*
D03*
D57*
X314272Y-84232D02*
D03*
Y-99232D02*
D03*
Y-89232D02*
D03*
Y-94232D02*
D03*
X295374Y-84232D02*
D03*
Y-94232D02*
D03*
Y-89232D02*
D03*
Y-99232D02*
D03*
X184646Y-208602D02*
D03*
Y-213602D02*
D03*
X203543D02*
D03*
X184646Y-203602D02*
D03*
X203543Y-198602D02*
D03*
Y-203602D02*
D03*
Y-208602D02*
D03*
X184646Y-198602D02*
D03*
D58*
X140650Y-44783D02*
D03*
X146555D02*
D03*
D59*
X148917Y-69291D02*
D03*
Y-59449D02*
D03*
D60*
X338760Y-192028D02*
D03*
X328878Y-188287D02*
D03*
Y-195768D02*
D03*
Y-192028D02*
D03*
X338760Y-195768D02*
D03*
Y-188287D02*
D03*
D61*
X347854Y-193012D02*
D03*
Y-189075D02*
D03*
Y-194980D02*
D03*
Y-191043D02*
D03*
Y-185138D02*
D03*
Y-196949D02*
D03*
Y-198917D02*
D03*
Y-187106D02*
D03*
D62*
Y-204823D02*
D03*
Y-179232D02*
D03*
Y-201673D02*
D03*
Y-182382D02*
D03*
D63*
X226388Y-32929D02*
D03*
X218888D02*
D03*
X222638Y-41929D02*
D03*
D107*
X29528Y-111221D02*
D03*
Y-125000D02*
D03*
Y-138779D02*
D03*
Y-152559D02*
D03*
Y-166339D02*
D03*
Y-180118D02*
D03*
X19685Y-193898D02*
D03*
Y-111221D02*
D03*
Y-42323D02*
D03*
X29528D02*
D03*
X19685Y-56102D02*
D03*
X29528D02*
D03*
X19685Y-69882D02*
D03*
X29528D02*
D03*
X19685Y-83661D02*
D03*
X29528D02*
D03*
X19685Y-97441D02*
D03*
X29528Y-97441D02*
D03*
X19685Y-125000D02*
D03*
Y-138779D02*
D03*
Y-152559D02*
D03*
Y-166339D02*
D03*
Y-180118D02*
D03*
X29528Y-193898D02*
D03*
X344980Y-134252D02*
D03*
X354823D02*
D03*
X344980Y-51575D02*
D03*
X354823D02*
D03*
X344980Y-37795D02*
D03*
X354823D02*
D03*
Y-65354D02*
D03*
X344980D02*
D03*
Y-79134D02*
D03*
X354823D02*
D03*
X344980Y-92913D02*
D03*
X354823D02*
D03*
X344980Y-106693D02*
D03*
X354823D02*
D03*
X344980Y-120472D02*
D03*
X354823D02*
D03*
D110*
X213821Y-73467D02*
X217289D01*
X219363Y-75541D01*
X217478Y-82955D02*
Y-76322D01*
X219363Y-82174D02*
Y-75541D01*
X226969Y-88728D02*
X228463Y-90222D01*
X229751D02*
X230394Y-89579D01*
X213821Y-75435D02*
X216592D01*
X220778Y-83589D02*
X228773D01*
X213779Y-75394D02*
X213821Y-75435D01*
X228463Y-92107D02*
X230532D01*
X219363Y-82174D02*
X220778Y-83589D01*
X228463Y-90222D02*
X229751D01*
X232279Y-90360D02*
Y-87095D01*
X227992Y-85474D02*
X230394Y-87876D01*
X217478Y-82955D02*
X219997Y-85474D01*
X228773Y-83589D02*
X232279Y-87095D01*
X216592Y-75435D02*
X217478Y-76322D01*
X230532Y-92107D02*
X232279Y-90360D01*
X226969Y-93602D02*
X228463Y-92107D01*
X230394Y-89579D02*
Y-87876D01*
X219997Y-85474D02*
X227992D01*
X213779Y-73425D02*
X213821Y-73467D01*
X257322Y-139063D02*
X266229D01*
X266339Y-139173D01*
X288614Y-187990D02*
X291592D01*
X283506Y-184777D02*
Y-145569D01*
X286453Y-187724D02*
X288348D01*
X283506Y-184777D02*
X286453Y-187724D01*
X288348D02*
X288614Y-187990D01*
X285391Y-183996D02*
Y-145569D01*
Y-183996D02*
X287234Y-185839D01*
X288348D01*
X288614Y-185573D01*
X285391Y-145569D02*
X286221Y-144740D01*
X282677D02*
Y-144291D01*
X286221Y-144740D02*
Y-144291D01*
X282677Y-144740D02*
X283506Y-145569D01*
X288614Y-185573D02*
X291592D01*
X291634Y-185531D01*
X291592Y-187990D02*
X291634Y-188031D01*
X277419Y-181356D02*
X286902Y-190839D01*
X288614Y-190573D02*
X291592D01*
X277419Y-179034D02*
X278248Y-178205D01*
X291592Y-190573D02*
X291634Y-190532D01*
X288348Y-190839D02*
X288614Y-190573D01*
X275534Y-182137D02*
X286121Y-192724D01*
X288348D01*
X288614Y-192990D01*
X277419Y-181356D02*
Y-179034D01*
X278248Y-178205D02*
Y-177756D01*
X288614Y-192990D02*
X291592D01*
X286902Y-190839D02*
X288348D01*
X291592Y-192990D02*
X291634Y-193032D01*
X274705Y-178205D02*
Y-177756D01*
X275534Y-182137D02*
Y-179034D01*
X274705Y-178205D02*
X275534Y-179034D01*
X314097Y-198054D02*
X318965D01*
X318768Y-200532D02*
X318829Y-200470D01*
X314075Y-200532D02*
X318768D01*
X314075Y-198031D02*
X314097Y-198054D01*
X318829Y-200470D02*
X318965D01*
X327658Y-188287D02*
X328878D01*
X326415Y-189530D02*
X327658Y-188287D01*
X326113Y-189530D02*
X326415D01*
X324557Y-191085D02*
X326113Y-189530D01*
X322867Y-191085D02*
X324557D01*
X321120Y-192832D02*
X322867Y-191085D01*
X321120Y-195773D02*
Y-192832D01*
Y-195773D02*
X321320Y-195973D01*
Y-197676D02*
Y-195973D01*
X320677Y-198319D02*
X321320Y-197676D01*
X319231Y-198319D02*
X320677D01*
X318965Y-198054D02*
X319231Y-198319D01*
X327658Y-195768D02*
X328878D01*
X326415Y-194525D02*
X327658Y-195768D01*
X326113Y-194525D02*
X326415D01*
X324557Y-192970D02*
X326113Y-194525D01*
X323648Y-192970D02*
X324557D01*
X323005Y-193613D02*
X323648Y-192970D01*
X323005Y-194993D02*
Y-193613D01*
Y-194993D02*
X323205Y-195193D01*
Y-198457D02*
Y-195193D01*
X321458Y-200204D02*
X323205Y-198457D01*
X319231Y-200204D02*
X321458D01*
X318965Y-200470D02*
X319231Y-200204D01*
X256454Y-141002D02*
X256496Y-141043D01*
X247369Y-140820D02*
X249875D01*
X244954Y-138405D02*
Y-137363D01*
X248214Y-137795D02*
X248622D01*
X245598Y-136720D02*
X247139D01*
X251578Y-139117D02*
X256454D01*
X243069Y-139186D02*
X246588Y-142705D01*
X250656D02*
X252359Y-141002D01*
X247305Y-134835D02*
X247554Y-134586D01*
X247139Y-136720D02*
X248214Y-137795D01*
X248647Y-134586D02*
X248964Y-134268D01*
X243069Y-136583D02*
X244817Y-134835D01*
X244954Y-137363D02*
X245598Y-136720D01*
X247554Y-134586D02*
X248647D01*
X252359Y-141002D02*
X256454D01*
X244817Y-134835D02*
X247305D01*
X249875Y-140820D02*
X251578Y-139117D01*
X256454D02*
X256496Y-139075D01*
X243069Y-139186D02*
Y-136583D01*
X244954Y-138405D02*
X247369Y-140820D01*
X246588Y-142705D02*
X250656D01*
D111*
X298917Y-212795D02*
X307185D01*
X296358Y-210236D02*
X298917Y-212795D01*
X290650Y-210236D02*
X296358D01*
X281791Y-201378D02*
X290650Y-210236D01*
X19685Y-69882D02*
X26378Y-63189D01*
X36417D01*
X37795Y-49213D02*
X40945Y-46063D01*
X19685Y-56102D02*
X26575Y-49213D01*
X37795D01*
D112*
X271063Y-201378D02*
X281791D01*
X215984Y-175925D02*
X222244Y-182185D01*
Y-185630D02*
Y-182185D01*
X215984Y-175925D02*
Y-175492D01*
X173228Y-203740D02*
X176969D01*
X167717Y-198228D02*
X173228Y-203740D01*
X162402Y-212402D02*
Y-203543D01*
X167717Y-198228D01*
X46850Y-125394D02*
X47835Y-126378D01*
X43701Y-119095D02*
X46457Y-121850D01*
X40551Y-119095D02*
X43701D01*
X46457Y-121850D02*
X46850D01*
Y-125394D02*
Y-121850D01*
X51575Y-116388D02*
X52903Y-117717D01*
X46850Y-113386D02*
X51575D01*
Y-116388D02*
Y-113386D01*
X50984Y-68701D02*
Y-63779D01*
X47638D02*
X50984D01*
X45669D02*
X47638D01*
X44882Y-64567D02*
X45669Y-63779D01*
X50000Y-69685D02*
X50984Y-68701D01*
X148544Y-207660D02*
X153544D01*
X143544D02*
X148544D01*
X138544D02*
X143544D01*
X234449Y-201378D02*
X271063D01*
X222244Y-197244D02*
Y-185630D01*
X230315Y-197244D02*
X234449Y-201378D01*
X222244Y-197244D02*
X230315D01*
D113*
X328150Y-169095D02*
Y-158382D01*
X328740Y-157792D01*
Y-157579D01*
X191240Y-149508D02*
X192520D01*
X189961D02*
X191240D01*
X180413D02*
X189961D01*
X188681Y-151402D02*
Y-150787D01*
X186339Y-153957D02*
Y-153744D01*
X188681Y-150787D02*
X189961Y-149508D01*
X186339Y-153744D02*
X188681Y-151402D01*
X169488Y-149508D02*
X180413D01*
X322244Y-169095D02*
X322293D01*
Y-163140D01*
Y-173425D02*
Y-169095D01*
Y-174557D02*
Y-173425D01*
Y-175148D02*
Y-174557D01*
Y-175148D02*
X322342Y-175197D01*
X322244Y-163091D02*
X322293Y-163140D01*
X271258Y-212205D02*
Y-206247D01*
Y-201573D01*
X311063Y-84232D02*
X314272D01*
X307736Y-80905D02*
X311063Y-84232D01*
X307677Y-80905D02*
X307736D01*
X307677D02*
Y-77264D01*
X286024Y-220866D02*
X286614D01*
X284252D02*
X286024D01*
X283071Y-219685D02*
X284252Y-220866D01*
X279919Y-219685D02*
X283071D01*
X176969Y-203740D02*
X184508D01*
X152563Y-182283D02*
X153524Y-183245D01*
Y-195562D02*
Y-183245D01*
Y-202736D02*
Y-195562D01*
X148524Y-202736D02*
Y-195562D01*
X143524Y-202736D02*
X143544Y-202756D01*
X143524Y-202736D02*
Y-195562D01*
X161614Y-202756D02*
X162402Y-203543D01*
X203543Y-208602D02*
X210965D01*
X153524Y-214660D02*
Y-207680D01*
X143524Y-214854D02*
Y-207680D01*
Y-215641D02*
Y-214854D01*
X148524D02*
Y-207680D01*
Y-215641D02*
Y-214854D01*
X138524D02*
Y-207680D01*
Y-215641D02*
Y-214854D01*
X280118Y-208465D02*
Y-205512D01*
X271258Y-206247D02*
X271258Y-206247D01*
X268458Y-206247D02*
X271258D01*
X268307Y-206398D02*
X268458Y-206247D01*
X264862Y-206594D02*
X268307D01*
X271063Y-201378D02*
X271258Y-201573D01*
X270866Y-201181D02*
X271063Y-201378D01*
X271260Y-219685D02*
X273014D01*
X275116Y-217583D01*
Y-213305D01*
X274016Y-212205D02*
X275116Y-213305D01*
X271258Y-212205D02*
X274016D01*
X264173Y-220866D02*
X265354Y-219685D01*
X271258D01*
D114*
X188976Y-178051D02*
X191535Y-175492D01*
X188976Y-172933D02*
X191535Y-175492D01*
X167717Y-173819D02*
X170276Y-171260D01*
X165157D02*
X167717Y-173819D01*
X184449Y-172933D02*
X188976D01*
X184449Y-178051D02*
X188976D01*
X184449D02*
Y-172933D01*
X143544Y-202756D02*
X148524D01*
X153524D01*
X161614D01*
X170276Y-171260D02*
Y-166732D01*
X165157D02*
X170276D01*
X165157Y-171260D02*
Y-166732D01*
X254134Y-216535D02*
X254134Y-216535D01*
Y-212795D01*
X215354D02*
X240748D01*
X210965Y-208602D02*
X216732Y-214370D01*
D115*
X52197Y-126378D02*
X52362D01*
X47047Y-79724D02*
X60630D01*
X39764Y-72441D02*
X47047Y-79724D01*
X50591Y-70276D02*
X60630D01*
X44882Y-64567D02*
X50000Y-69685D01*
X50591Y-70276D01*
X37008Y-64567D02*
X44882D01*
X55895Y-34055D02*
X57480D01*
D116*
X47835Y-126378D02*
X52197D01*
X40551Y-119095D02*
Y-110827D01*
Y-119095D02*
X46850Y-125394D01*
X29528Y-99803D02*
Y-97441D01*
Y-99803D02*
X40551Y-110827D01*
X52903Y-117717D02*
X56102D01*
X46850Y-111663D02*
X51575Y-116388D01*
X37992Y-99410D02*
X46850Y-108268D01*
Y-113386D02*
Y-108268D01*
X49803Y-102165D02*
X56496D01*
X29331Y-71260D02*
X38583D01*
X29528Y-69882D02*
X30709Y-71063D01*
X38583Y-71260D02*
X39764Y-72441D01*
D117*
X19685Y-97441D02*
Y-95866D01*
X25000Y-90551D01*
X32874D01*
X37992Y-95669D01*
Y-99410D02*
Y-95669D01*
X44094Y-96457D02*
Y-94685D01*
X29528Y-83661D02*
X33071D01*
X44094Y-94685D01*
X47441Y-87795D02*
X51378D01*
X51772Y-91732D02*
X59449D01*
X51378Y-91634D02*
Y-87795D01*
X33661Y-76772D02*
X48622Y-91732D01*
X19685Y-83661D02*
Y-81496D01*
X24409Y-76772D01*
X51378Y-91634D02*
X51476Y-91732D01*
X51772D01*
X52362Y-91142D01*
X24409Y-76772D02*
X33661D01*
X48622Y-91732D02*
X51476D01*
D118*
X43996Y-96457D02*
X49705Y-102165D01*
D119*
X54331Y-56102D02*
X55118Y-56890D01*
X29528Y-56102D02*
X54331D01*
X40945Y-46063D02*
X57480D01*
X55905Y-46260D02*
X57284D01*
X57480Y-46063D02*
X58661D01*
X57284Y-46260D02*
X57480Y-46063D01*
X57874Y-45669D01*
X37421Y-32461D02*
X60532D01*
X29528Y-40354D02*
X37421Y-32461D01*
X29528Y-42323D02*
Y-40354D01*
X29528Y-22638D02*
X55807D01*
X19685Y-32480D02*
X29528Y-22638D01*
X19685Y-42323D02*
Y-32480D01*
D120*
X179823Y-21752D02*
D03*
X199823D02*
D03*
X189823D02*
D03*
X209823D02*
D03*
X239409Y-111713D02*
D03*
X259409D02*
D03*
X249410D02*
D03*
X269409D02*
D03*
D121*
X169823Y-21752D02*
D03*
X229410Y-111713D02*
D03*
D122*
X351457Y-209035D02*
D03*
Y-175020D02*
D03*
X367913Y-209035D02*
D03*
Y-175020D02*
D03*
D123*
X353543Y-203405D02*
D03*
Y-180650D02*
D03*
X205512Y-53642D02*
D03*
X218290Y-70187D02*
D03*
X226969Y-93602D02*
D03*
Y-88728D02*
D03*
X261889Y-41690D02*
D03*
X333858Y-213071D02*
D03*
X296654Y-218110D02*
D03*
X286947Y-84214D02*
D03*
X286910Y-91831D02*
D03*
Y-99311D02*
D03*
X118701Y-106988D02*
D03*
X125886Y-95276D02*
D03*
X144980Y-107382D02*
D03*
X311713Y-18701D02*
D03*
X328740Y-157579D02*
D03*
X302067Y-116043D02*
D03*
X276181Y-130118D02*
D03*
X276378Y-137008D02*
D03*
X262106Y-130020D02*
D03*
X204134Y-127067D02*
D03*
X184449Y-172933D02*
D03*
Y-178051D02*
D03*
X143405Y-153937D02*
D03*
X158760Y-172441D02*
D03*
X209154Y-81595D02*
D03*
X205610D02*
D03*
X175492Y-100000D02*
D03*
X178347Y-64468D02*
D03*
X173031Y-89173D02*
D03*
X208760Y-68898D02*
D03*
X179382Y-100022D02*
D03*
X204035Y-110827D02*
D03*
X163189Y-88779D02*
D03*
X163264Y-85237D02*
D03*
X193318Y-54736D02*
D03*
X188484Y-54724D02*
D03*
X176378Y-110925D02*
D03*
X180315D02*
D03*
X184153D02*
D03*
X182382Y-64468D02*
D03*
X208858Y-93110D02*
D03*
X197736Y-92913D02*
D03*
X195177Y-89567D02*
D03*
X194980Y-65354D02*
D03*
X161324Y-96645D02*
D03*
X198524Y-65354D02*
D03*
X213189Y-159252D02*
D03*
X186339Y-153957D02*
D03*
X185827Y-34055D02*
D03*
X164075Y-131102D02*
D03*
X152223Y-111565D02*
D03*
X156466Y-111568D02*
D03*
X172542Y-160138D02*
D03*
X208169Y-110827D02*
D03*
X175197Y-162697D02*
D03*
X298256Y-165327D02*
D03*
X286221Y-144291D02*
D03*
X282677D02*
D03*
X278248Y-177756D02*
D03*
X274705D02*
D03*
X309547Y-187992D02*
D03*
X317126Y-156398D02*
D03*
X248622Y-137795D02*
D03*
X248964Y-134268D02*
D03*
X269291Y-148917D02*
D03*
X274705Y-166732D02*
D03*
X272047Y-193996D02*
D03*
X218898Y-29134D02*
D03*
X193799Y-195571D02*
D03*
X208268Y-195866D02*
D03*
X270866Y-166634D02*
D03*
X203150Y-71653D02*
D03*
X199606Y-71653D02*
D03*
X204232Y-40551D02*
D03*
X180118Y-51673D02*
D03*
X252658Y-165059D02*
D03*
X219390Y-149016D02*
D03*
X233940Y-150509D02*
D03*
X230807Y-152165D02*
D03*
X270669Y-162795D02*
D03*
X262303Y-135835D02*
D03*
X248524Y-165059D02*
D03*
X243602D02*
D03*
X230610Y-146949D02*
D03*
X226279Y-125492D02*
D03*
X257087Y-179823D02*
D03*
X251083Y-179724D02*
D03*
X216437Y-121161D02*
D03*
X204035Y-65354D02*
D03*
X332874Y-100886D02*
D03*
X307677Y-80905D02*
D03*
X297638Y-77264D02*
D03*
X174409Y-69390D02*
D03*
X173622Y-83858D02*
D03*
Y-80020D02*
D03*
X125492Y-39665D02*
D03*
X125000Y-60236D02*
D03*
Y-70079D02*
D03*
X216865Y-102131D02*
D03*
X112303Y-198228D02*
D03*
X175394Y-93110D02*
D03*
X177362Y-96653D02*
D03*
X188285Y-96535D02*
D03*
X184252Y-96553D02*
D03*
X192794Y-96533D02*
D03*
X190845Y-99491D02*
D03*
X183661Y-100047D02*
D03*
X176575Y-121063D02*
D03*
X154134Y-37598D02*
D03*
X176378Y-53150D02*
D03*
X131201Y-117913D02*
D03*
Y-121555D02*
D03*
Y-125197D02*
D03*
Y-128937D02*
D03*
Y-132579D02*
D03*
X332185Y-87205D02*
D03*
X306299Y-99213D02*
D03*
X297933Y-47343D02*
D03*
X311614Y-47441D02*
D03*
X297441Y-18701D02*
D03*
X176575Y-37992D02*
D03*
X169882Y-37697D02*
D03*
X76772Y-137795D02*
D03*
X233046Y-180118D02*
D03*
X188878Y-38484D02*
D03*
X332283Y-28740D02*
D03*
X342815Y-207283D02*
D03*
X342618Y-177559D02*
D03*
X333661Y-189764D02*
D03*
X165157Y-166732D02*
D03*
X170276D02*
D03*
X135138Y-64272D02*
D03*
X140650Y-35925D02*
D03*
X5512Y-5709D02*
D03*
X292618Y-132382D02*
D03*
X317717Y-121752D02*
D03*
X118898Y-88585D02*
D03*
X112795Y-216779D02*
D03*
X67716Y-210039D02*
D03*
X118551Y-182165D02*
D03*
Y-162992D02*
D03*
Y-144095D02*
D03*
X67716Y-192864D02*
D03*
Y-175689D02*
D03*
Y-158514D02*
D03*
Y-141339D02*
D03*
X254134Y-216535D02*
D03*
X262402Y-212205D02*
D03*
X5512Y-230512D02*
D03*
X17196D02*
D03*
X28880D02*
D03*
X40564D02*
D03*
X52248D02*
D03*
X63932D02*
D03*
X75616D02*
D03*
X87300D02*
D03*
X98984D02*
D03*
X110668D02*
D03*
X122352D02*
D03*
X134036D02*
D03*
X145720D02*
D03*
X157404D02*
D03*
X169088D02*
D03*
X180772D02*
D03*
X192456D02*
D03*
X204140D02*
D03*
X215824D02*
D03*
X227508D02*
D03*
X239192D02*
D03*
X250876D02*
D03*
X262560D02*
D03*
X274244D02*
D03*
X285928D02*
D03*
X297612D02*
D03*
X309296D02*
D03*
X320980D02*
D03*
X332664D02*
D03*
X344348D02*
D03*
X356032D02*
D03*
X367716D02*
D03*
Y-5709D02*
D03*
X356032D02*
D03*
X344348D02*
D03*
X332664D02*
D03*
X320980D02*
D03*
X309296D02*
D03*
X297612D02*
D03*
X285928D02*
D03*
X274244D02*
D03*
X262560D02*
D03*
X250876D02*
D03*
X239192D02*
D03*
X227508D02*
D03*
X215824D02*
D03*
X204140D02*
D03*
X192456D02*
D03*
X180772D02*
D03*
X169088D02*
D03*
X157404D02*
D03*
X145720D02*
D03*
X134036D02*
D03*
X122352D02*
D03*
X110668D02*
D03*
X98984D02*
D03*
X87300D02*
D03*
X75616D02*
D03*
X63932D02*
D03*
X52248D02*
D03*
X40564D02*
D03*
X28880D02*
D03*
X17196D02*
D03*
X132579Y-85433D02*
D03*
X118898Y-22000D02*
D03*
Y-44195D02*
D03*
Y-66390D02*
D03*
X84055Y-201969D02*
D03*
Y-183465D02*
D03*
Y-164764D02*
D03*
X84449Y-147244D02*
D03*
X88386Y-145669D02*
D03*
X102756Y-144095D02*
D03*
X99410Y-141142D02*
D03*
X102756Y-125197D02*
D03*
X100787Y-211417D02*
D03*
X99410Y-160039D02*
D03*
X102756Y-163976D02*
D03*
X99410Y-179134D02*
D03*
X102362Y-182480D02*
D03*
X99606Y-198228D02*
D03*
X102559Y-201181D02*
D03*
X138544Y-207660D02*
D03*
X143544D02*
D03*
X148544D02*
D03*
X153544D02*
D03*
X76772Y-206299D02*
D03*
Y-189075D02*
D03*
X126181Y-114764D02*
D03*
X76772Y-171850D02*
D03*
Y-154626D02*
D03*
X239062Y-179823D02*
D03*
X245066Y-179724D02*
D03*
X127362Y-207087D02*
D03*
Y-182874D02*
D03*
Y-164370D02*
D03*
Y-145276D02*
D03*
X280118Y-208465D02*
D03*
Y-205512D02*
D03*
X182776Y-38484D02*
D03*
X268307Y-206398D02*
D03*
X264862Y-206594D02*
D03*
D124*
X43701Y-119095D02*
D03*
X46850Y-121850D02*
D03*
X46457Y-109843D02*
D03*
X47638Y-113386D02*
D03*
X46949Y-98917D02*
D03*
X43701Y-96260D02*
D03*
X48819Y-87303D02*
D03*
X44882D02*
D03*
X45276Y-76575D02*
D03*
X42323Y-73819D02*
D03*
X47638Y-63779D02*
D03*
X43701D02*
D03*
X46850Y-54134D02*
D03*
X42913D02*
D03*
X47441Y-44094D02*
D03*
X43504D02*
D03*
X47835Y-30512D02*
D03*
X43898D02*
D03*
Y-20669D02*
D03*
X47835D02*
D03*
M02*
