G04*
G04 #@! TF.GenerationSoftware,Altium Limited,Altium Designer,24.4.1 (13)*
G04*
G04 Layer_Color=32896*
%FSLAX25Y25*%
%MOIN*%
G70*
G04*
G04 #@! TF.SameCoordinates,E746E4B7-F6AA-4F53-916A-F77BCC048612*
G04*
G04*
G04 #@! TF.FilePolarity,Positive*
G04*
G01*
G75*
%ADD14C,0.01000*%
%ADD17C,0.00100*%
%ADD21C,0.00709*%
%ADD22R,3.74016X0.11811*%
%ADD129C,0.00472*%
G36*
X276748Y-54772D02*
X277128Y-54789D01*
X277854Y-54888D01*
X278184Y-54937D01*
X278514Y-55003D01*
X278811Y-55086D01*
X279091Y-55152D01*
X279339Y-55234D01*
X279570Y-55300D01*
X279768Y-55383D01*
X279949Y-55432D01*
X280081Y-55482D01*
X280180Y-55531D01*
X280246Y-55548D01*
X280263Y-55564D01*
X280923Y-55878D01*
X281533Y-56241D01*
X281814Y-56422D01*
X282078Y-56604D01*
X282325Y-56769D01*
X282556Y-56934D01*
X282771Y-57099D01*
X282952Y-57247D01*
X283101Y-57379D01*
X283233Y-57495D01*
X283332Y-57594D01*
X283414Y-57660D01*
X283464Y-57709D01*
X283480Y-57726D01*
X283975Y-58254D01*
X284404Y-58798D01*
X284767Y-59343D01*
X285081Y-59838D01*
X285213Y-60052D01*
X285328Y-60267D01*
X285427Y-60448D01*
X285493Y-60597D01*
X285559Y-60729D01*
X285609Y-60828D01*
X285625Y-60894D01*
X285642Y-60910D01*
X285774Y-61257D01*
X285889Y-61603D01*
X286087Y-62280D01*
X286219Y-62940D01*
X286285Y-63253D01*
X286318Y-63550D01*
X286351Y-63814D01*
X286368Y-64062D01*
X286401Y-64276D01*
Y-64458D01*
X286417Y-64623D01*
Y-64722D01*
Y-64804D01*
Y-64821D01*
X286401Y-65200D01*
X286384Y-65580D01*
X286302Y-66289D01*
X286236Y-66636D01*
X286170Y-66949D01*
X286104Y-67246D01*
X286021Y-67527D01*
X285955Y-67791D01*
X285889Y-68022D01*
X285823Y-68220D01*
X285757Y-68401D01*
X285708Y-68533D01*
X285675Y-68632D01*
X285642Y-68698D01*
Y-68715D01*
X285328Y-69375D01*
X284982Y-69985D01*
X284800Y-70266D01*
X284619Y-70530D01*
X284437Y-70777D01*
X284272Y-71008D01*
X284107Y-71223D01*
X283959Y-71404D01*
X283827Y-71553D01*
X283711Y-71685D01*
X283612Y-71784D01*
X283546Y-71866D01*
X283497Y-71916D01*
X283480Y-71932D01*
X282952Y-72411D01*
X282391Y-72840D01*
X281863Y-73219D01*
X281352Y-73516D01*
X281137Y-73648D01*
X280923Y-73764D01*
X280741Y-73863D01*
X280576Y-73929D01*
X280461Y-73995D01*
X280362Y-74044D01*
X280296Y-74061D01*
X280279Y-74077D01*
X279933Y-74209D01*
X279586Y-74325D01*
X278893Y-74523D01*
X278233Y-74655D01*
X277920Y-74721D01*
X277639Y-74754D01*
X277375Y-74787D01*
X277128Y-74803D01*
X276913Y-74836D01*
X276715D01*
X276567Y-74853D01*
X276369D01*
X275989Y-74836D01*
X275610Y-74820D01*
X274900Y-74737D01*
X274554Y-74671D01*
X274240Y-74605D01*
X273927Y-74539D01*
X273646Y-74457D01*
X273399Y-74391D01*
X273168Y-74325D01*
X272970Y-74259D01*
X272788Y-74193D01*
X272656Y-74143D01*
X272557Y-74110D01*
X272491Y-74077D01*
X272475D01*
X271798Y-73764D01*
X271485Y-73599D01*
X271188Y-73417D01*
X270907Y-73236D01*
X270643Y-73054D01*
X270412Y-72889D01*
X270181Y-72708D01*
X269983Y-72559D01*
X269802Y-72411D01*
X269637Y-72279D01*
X269521Y-72163D01*
X269406Y-72064D01*
X269340Y-71998D01*
X269290Y-71949D01*
X269274Y-71932D01*
X268795Y-71404D01*
X268350Y-70843D01*
X267987Y-70315D01*
X267673Y-69804D01*
X267541Y-69589D01*
X267442Y-69375D01*
X267343Y-69193D01*
X267261Y-69028D01*
X267195Y-68913D01*
X267145Y-68814D01*
X267129Y-68748D01*
X267112Y-68731D01*
X266980Y-68385D01*
X266848Y-68038D01*
X266650Y-67345D01*
X266518Y-66685D01*
X266469Y-66372D01*
X266419Y-66091D01*
X266386Y-65827D01*
X266353Y-65580D01*
X266337Y-65365D01*
Y-65167D01*
X266320Y-65019D01*
Y-64920D01*
Y-64837D01*
Y-64821D01*
X266337Y-64425D01*
X266353Y-64045D01*
X266436Y-63319D01*
X266502Y-62989D01*
X266568Y-62659D01*
X266634Y-62362D01*
X266716Y-62082D01*
X266782Y-61818D01*
X266865Y-61587D01*
X266931Y-61389D01*
X266980Y-61224D01*
X267046Y-61092D01*
X267079Y-60993D01*
X267096Y-60927D01*
X267112Y-60910D01*
X267426Y-60250D01*
X267789Y-59640D01*
X267970Y-59359D01*
X268152Y-59112D01*
X268317Y-58864D01*
X268482Y-58633D01*
X268647Y-58435D01*
X268795Y-58254D01*
X268927Y-58105D01*
X269043Y-57973D01*
X269142Y-57858D01*
X269208Y-57792D01*
X269257Y-57742D01*
X269274Y-57726D01*
X269802Y-57247D01*
X270346Y-56802D01*
X270874Y-56439D01*
X271369Y-56125D01*
X271600Y-55993D01*
X271815Y-55894D01*
X271996Y-55795D01*
X272145Y-55713D01*
X272277Y-55647D01*
X272376Y-55597D01*
X272442Y-55581D01*
X272458Y-55564D01*
X272805Y-55416D01*
X273151Y-55300D01*
X273498Y-55185D01*
X273844Y-55102D01*
X274504Y-54954D01*
X274801Y-54904D01*
X275098Y-54855D01*
X275362Y-54822D01*
X275610Y-54805D01*
X275824Y-54772D01*
X276022D01*
X276171Y-54756D01*
X276369D01*
X276748Y-54772D01*
D02*
G37*
G36*
X260827Y-53381D02*
X256118Y-58485D01*
X255651Y-64495D01*
X260671Y-69627D01*
X260388Y-69882D01*
X255595Y-64989D01*
X255510Y-66106D01*
X255482Y-66432D01*
X255468Y-66573D01*
X255454Y-66686D01*
Y-66799D01*
Y-66870D01*
Y-66927D01*
Y-66941D01*
Y-67068D01*
X255439Y-67153D01*
Y-67238D01*
X255425Y-67280D01*
Y-67323D01*
X255411Y-67337D01*
Y-67351D01*
X255397Y-67436D01*
X255369Y-67506D01*
X255341Y-67535D01*
X255326Y-67549D01*
X255270Y-67577D01*
X255241Y-67591D01*
X255227Y-67605D01*
Y-68242D01*
X254407D01*
Y-67605D01*
X251028D01*
X250957Y-67718D01*
X250872Y-67817D01*
X250688Y-67987D01*
X250490Y-68100D01*
X250292Y-68185D01*
X250123Y-68227D01*
X249981Y-68256D01*
X249925Y-68270D01*
X249854D01*
X249656Y-68256D01*
X249458Y-68213D01*
X249303Y-68143D01*
X249161Y-68072D01*
X249048Y-68015D01*
X248963Y-67945D01*
X248907Y-67902D01*
X248893Y-67888D01*
X248751Y-67733D01*
X248652Y-67563D01*
X248582Y-67407D01*
X248539Y-67252D01*
X248497Y-67111D01*
X248482Y-67011D01*
Y-66941D01*
Y-66913D01*
Y-66743D01*
X245527Y-69938D01*
X245202Y-69684D01*
X249543Y-64989D01*
X248949Y-58782D01*
X247832D01*
Y-57113D01*
X247874D01*
X244255Y-53437D01*
Y-52843D01*
X248468Y-57113D01*
X248808D01*
X248751Y-56322D01*
X248638Y-56378D01*
X248539Y-56406D01*
X248468Y-56421D01*
X248440D01*
X248341Y-56406D01*
X248242Y-56392D01*
X248101Y-56322D01*
X248044Y-56293D01*
X248002Y-56265D01*
X247988Y-56251D01*
X247973Y-56237D01*
X247903Y-56166D01*
X247860Y-56081D01*
X247804Y-55940D01*
X247790Y-55869D01*
X247776Y-55827D01*
Y-55799D01*
Y-55784D01*
X247790Y-55685D01*
X247804Y-55601D01*
X247874Y-55459D01*
X247917Y-55402D01*
X247959Y-55360D01*
X247973Y-55346D01*
X247988Y-55332D01*
X248058Y-55275D01*
X248143Y-55219D01*
X248285Y-55176D01*
X248355Y-55162D01*
X248398Y-55148D01*
X248440D01*
X248553Y-55162D01*
X248652Y-55205D01*
X248737Y-55247D01*
X248822Y-55304D01*
X248879Y-55346D01*
X248921Y-55388D01*
X248935Y-55417D01*
X248949Y-55431D01*
X249034Y-55332D01*
X249147Y-55247D01*
X249373Y-55077D01*
X249472Y-55007D01*
X249557Y-54950D01*
X249614Y-54922D01*
X249642Y-54908D01*
X249840Y-54809D01*
X250080Y-54724D01*
X250321Y-54653D01*
X250561Y-54597D01*
X250773Y-54568D01*
X250872Y-54540D01*
X250943D01*
X251014Y-54526D01*
X251070Y-54512D01*
X251113D01*
Y-54300D01*
X253389D01*
Y-54441D01*
X253644Y-54469D01*
X253757D01*
X253856Y-54483D01*
X253941Y-54498D01*
X254011D01*
X254054Y-54512D01*
X254068D01*
X254280Y-54540D01*
X254379Y-54568D01*
X254464Y-54582D01*
X254535Y-54597D01*
X254591D01*
X254619Y-54611D01*
X254633D01*
Y-54540D01*
X255482D01*
Y-54865D01*
X255694Y-54978D01*
X255864Y-55091D01*
X255991Y-55205D01*
X256104Y-55289D01*
X256175Y-55374D01*
X256217Y-55431D01*
X256245Y-55473D01*
X256259Y-55487D01*
X256316Y-55586D01*
X256359Y-55671D01*
X256387Y-55728D01*
X256415Y-55770D01*
X256429Y-55813D01*
X256443Y-55827D01*
X256938D01*
Y-56350D01*
X256302D01*
X256161Y-57778D01*
X260827Y-52730D01*
Y-53381D01*
D02*
G37*
G36*
X260247Y-75722D02*
X245739D01*
Y-73558D01*
X260247D01*
Y-75722D01*
D02*
G37*
%LPC*%
G36*
X282787Y-57808D02*
X282166Y-58428D01*
X282507Y-58732D01*
X282523Y-58749D01*
X282556Y-58782D01*
X282622Y-58848D01*
X282705Y-58930D01*
X282760Y-59008D01*
X283365Y-58402D01*
X282787Y-57808D01*
D02*
G37*
G36*
X276550Y-56191D02*
X276369D01*
X275709Y-56224D01*
X275098Y-56307D01*
X274801Y-56356D01*
X274521Y-56406D01*
X274257Y-56472D01*
X274009Y-56538D01*
X273795Y-56604D01*
X273597Y-56670D01*
X273432Y-56719D01*
X273283Y-56769D01*
X273168Y-56818D01*
X273069Y-56851D01*
X273019Y-56868D01*
X273003Y-56884D01*
X272425Y-57165D01*
X271914Y-57462D01*
X271435Y-57759D01*
X271237Y-57924D01*
X271039Y-58056D01*
X270858Y-58204D01*
X270709Y-58320D01*
X270577Y-58435D01*
X270462Y-58534D01*
X270379Y-58617D01*
X270313Y-58683D01*
X270280Y-58716D01*
X270264Y-58732D01*
X269851Y-59178D01*
X269488Y-59640D01*
X269175Y-60102D01*
X268911Y-60531D01*
X268812Y-60729D01*
X268713Y-60910D01*
X268630Y-61075D01*
X268548Y-61207D01*
X268498Y-61323D01*
X268465Y-61405D01*
X268432Y-61455D01*
Y-61471D01*
X268201Y-62065D01*
X268036Y-62659D01*
X267904Y-63220D01*
X267855Y-63484D01*
X267822Y-63732D01*
X267789Y-63963D01*
X267772Y-64177D01*
X267756Y-64359D01*
Y-64524D01*
X267739Y-64639D01*
Y-64738D01*
Y-64804D01*
Y-64821D01*
X267772Y-65464D01*
X267855Y-66091D01*
X267954Y-66669D01*
X268020Y-66916D01*
X268086Y-67164D01*
X268152Y-67395D01*
X268218Y-67593D01*
X268267Y-67758D01*
X268317Y-67906D01*
X268366Y-68022D01*
X268399Y-68121D01*
X268416Y-68170D01*
X268432Y-68187D01*
X268713Y-68764D01*
X269010Y-69292D01*
X269307Y-69754D01*
X269455Y-69969D01*
X269604Y-70150D01*
X269736Y-70332D01*
X269868Y-70480D01*
X269960Y-70619D01*
X269356Y-71223D01*
X269967Y-71833D01*
X270571Y-71227D01*
X270264Y-70942D01*
X270247Y-70926D01*
X270214Y-70893D01*
X270148Y-70827D01*
X270066Y-70728D01*
X269967Y-70629D01*
X269960Y-70619D01*
X271444Y-69138D01*
X271501Y-69177D01*
X271782Y-69325D01*
X271930Y-69391D01*
X272095Y-69441D01*
X272260Y-69457D01*
X272330Y-69464D01*
X275626Y-66160D01*
Y-69309D01*
X274240D01*
Y-68319D01*
X274092Y-68517D01*
X273943Y-68698D01*
X273811Y-68830D01*
X273679Y-68962D01*
X273564Y-69045D01*
X273481Y-69111D01*
X273432Y-69144D01*
X273415Y-69160D01*
X273234Y-69259D01*
X273052Y-69342D01*
X272887Y-69391D01*
X272739Y-69441D01*
X272607Y-69457D01*
X272508Y-69474D01*
X272425D01*
X272330Y-69464D01*
X270571Y-71227D01*
X270709Y-71355D01*
X271171Y-71718D01*
X271633Y-72031D01*
X272062Y-72295D01*
X272260Y-72394D01*
X272442Y-72493D01*
X272607Y-72576D01*
X272739Y-72642D01*
X272854Y-72708D01*
X272937Y-72741D01*
X272986Y-72757D01*
X273003Y-72774D01*
X273597Y-72988D01*
X274191Y-73153D01*
X274768Y-73269D01*
X275032Y-73318D01*
X275280Y-73351D01*
X275511Y-73384D01*
X275725Y-73401D01*
X275907Y-73417D01*
X276072D01*
X276187Y-73434D01*
X276369D01*
X277029Y-73401D01*
X277656Y-73335D01*
X277936Y-73285D01*
X278217Y-73219D01*
X278481Y-73170D01*
X278728Y-73104D01*
X278943Y-73038D01*
X279157Y-72988D01*
X279322Y-72922D01*
X279471Y-72873D01*
X279586Y-72840D01*
X279685Y-72807D01*
X279735Y-72774D01*
X279751D01*
X280329Y-72493D01*
X280857Y-72196D01*
X281319Y-71899D01*
X281533Y-71751D01*
X281715Y-71602D01*
X281896Y-71470D01*
X282045Y-71338D01*
X282193Y-71223D01*
X282292Y-71140D01*
X282391Y-71058D01*
X282457Y-70992D01*
X282490Y-70959D01*
X282507Y-70942D01*
X282919Y-70480D01*
X283282Y-70018D01*
X283596Y-69556D01*
X283860Y-69127D01*
X283959Y-68929D01*
X284058Y-68748D01*
X284140Y-68583D01*
X284206Y-68451D01*
X284272Y-68335D01*
X284305Y-68253D01*
X284322Y-68203D01*
X284338Y-68187D01*
X284553Y-67576D01*
X284718Y-66982D01*
X284833Y-66421D01*
X284883Y-66157D01*
X284916Y-65910D01*
X284949Y-65679D01*
X284965Y-65464D01*
X284982Y-65283D01*
Y-65118D01*
X284998Y-64986D01*
Y-64903D01*
Y-64837D01*
Y-64821D01*
X284965Y-64161D01*
X284899Y-63550D01*
X284850Y-63253D01*
X284784Y-62973D01*
X284734Y-62725D01*
X284668Y-62478D01*
X284602Y-62263D01*
X284553Y-62065D01*
X284487Y-61884D01*
X284437Y-61735D01*
X284404Y-61620D01*
X284371Y-61537D01*
X284338Y-61488D01*
Y-61471D01*
X284058Y-60894D01*
X283761Y-60382D01*
X283464Y-59904D01*
X283315Y-59706D01*
X283167Y-59508D01*
X283035Y-59326D01*
X282903Y-59178D01*
X282787Y-59046D01*
X282760Y-59008D01*
X281752Y-60019D01*
X280574D01*
X278687Y-61904D01*
X278629Y-61950D01*
X278580Y-61999D01*
X278547Y-62032D01*
X278530Y-62049D01*
X278521Y-62069D01*
X276791Y-63797D01*
X276765Y-63616D01*
X276732Y-63385D01*
X276715Y-63187D01*
X276699Y-63022D01*
Y-62956D01*
Y-62907D01*
Y-62890D01*
Y-62874D01*
X276715Y-62494D01*
X276765Y-62131D01*
X276847Y-61834D01*
X276913Y-61570D01*
X276996Y-61356D01*
X277078Y-61191D01*
X277128Y-61092D01*
X277144Y-61059D01*
X277309Y-60828D01*
X277491Y-60630D01*
X277672Y-60481D01*
X277854Y-60349D01*
X278019Y-60267D01*
X278151Y-60201D01*
X278233Y-60168D01*
X278250Y-60151D01*
X278266D01*
X278349Y-60135D01*
X278464Y-60102D01*
X278596Y-60085D01*
X278728Y-60069D01*
X279042Y-60052D01*
X279355Y-60036D01*
X279652Y-60019D01*
X280574D01*
X282166Y-58428D01*
X282045Y-58320D01*
X281583Y-57957D01*
X281121Y-57627D01*
X280692Y-57363D01*
X280494Y-57264D01*
X280312Y-57165D01*
X280147Y-57082D01*
X280015Y-57000D01*
X279900Y-56950D01*
X279817Y-56917D01*
X279768Y-56884D01*
X279751D01*
X279141Y-56653D01*
X278547Y-56488D01*
X277969Y-56356D01*
X277705Y-56307D01*
X277458Y-56274D01*
X277227Y-56241D01*
X277012Y-56224D01*
X276831Y-56208D01*
X276666D01*
X276550Y-56191D01*
D02*
G37*
%LPD*%
G36*
X275626Y-64960D02*
X274130Y-66455D01*
X274108Y-66619D01*
X274042Y-66883D01*
X273976Y-67131D01*
X273877Y-67362D01*
X273861Y-67395D01*
X273811Y-67477D01*
X273729Y-67593D01*
X273613Y-67725D01*
X273465Y-67857D01*
X273283Y-67956D01*
X273052Y-68022D01*
X272937Y-68038D01*
X272722D01*
X272640Y-68005D01*
X272592Y-67991D01*
X274130Y-66455D01*
X274141Y-66372D01*
X274158Y-66141D01*
X274174Y-65943D01*
Y-65877D01*
Y-65827D01*
Y-65794D01*
Y-65778D01*
X274158Y-65431D01*
X274108Y-65134D01*
X274042Y-64870D01*
X273960Y-64656D01*
X273894Y-64507D01*
X273828Y-64392D01*
X273778Y-64309D01*
X273762Y-64293D01*
X273646Y-64144D01*
X273514Y-64029D01*
X273366Y-63946D01*
X273217Y-63880D01*
X273085Y-63847D01*
X272970Y-63831D01*
X272871D01*
X272673Y-63847D01*
X272491Y-63897D01*
X272343Y-63979D01*
X272211Y-64062D01*
X272128Y-64144D01*
X272046Y-64227D01*
X272013Y-64276D01*
X271996Y-64293D01*
X271864Y-64507D01*
X271765Y-64755D01*
X271699Y-65035D01*
X271650Y-65316D01*
X271617Y-65563D01*
Y-65679D01*
X271600Y-65761D01*
Y-65844D01*
Y-65910D01*
Y-65943D01*
Y-65959D01*
X271617Y-66174D01*
X271633Y-66355D01*
X271683Y-66702D01*
X271732Y-66966D01*
X271815Y-67197D01*
X271881Y-67362D01*
X271930Y-67477D01*
X271980Y-67543D01*
X271996Y-67560D01*
X272128Y-67725D01*
X272260Y-67840D01*
X272409Y-67923D01*
X272524Y-67972D01*
X272592Y-67991D01*
X271444Y-69138D01*
X271254Y-69012D01*
X271072Y-68830D01*
X270924Y-68682D01*
X270858Y-68616D01*
X270825Y-68566D01*
X270792Y-68550D01*
Y-68533D01*
X270660Y-68352D01*
X270544Y-68154D01*
X270379Y-67725D01*
X270247Y-67279D01*
X270148Y-66850D01*
X270132Y-66652D01*
X270099Y-66471D01*
X270082Y-66306D01*
Y-66157D01*
X270066Y-66042D01*
Y-65959D01*
Y-65893D01*
Y-65877D01*
Y-65563D01*
X270099Y-65283D01*
X270132Y-65002D01*
X270181Y-64755D01*
X270231Y-64524D01*
X270280Y-64309D01*
X270346Y-64128D01*
X270412Y-63946D01*
X270478Y-63798D01*
X270544Y-63666D01*
X270594Y-63550D01*
X270643Y-63468D01*
X270693Y-63402D01*
X270726Y-63336D01*
X270742Y-63319D01*
X270759Y-63303D01*
X270891Y-63154D01*
X271023Y-63006D01*
X271155Y-62890D01*
X271303Y-62791D01*
X271584Y-62643D01*
X271848Y-62544D01*
X272095Y-62478D01*
X272277Y-62445D01*
X272359Y-62428D01*
X272640D01*
X272805Y-62461D01*
X272970Y-62494D01*
X273118Y-62560D01*
X273399Y-62709D01*
X273646Y-62890D01*
X273844Y-63055D01*
X273993Y-63220D01*
X274059Y-63286D01*
X274092Y-63319D01*
X274108Y-63352D01*
X274125Y-63369D01*
Y-60019D01*
X275626D01*
Y-64960D01*
D02*
G37*
G36*
X276798Y-63847D02*
X276864Y-64095D01*
X276946Y-64326D01*
X276963Y-64342D01*
X276996Y-64408D01*
X277045Y-64524D01*
X277128Y-64639D01*
X277133Y-64649D01*
X275626Y-66160D01*
Y-64960D01*
X276791Y-63797D01*
X276798Y-63847D01*
D02*
G37*
G36*
X282705Y-69309D02*
X281104D01*
Y-65778D01*
X279685D01*
X279504Y-65761D01*
X279322D01*
X279042Y-65745D01*
X278811Y-65712D01*
X278646Y-65695D01*
X278514Y-65679D01*
X278448Y-65662D01*
X278431D01*
X278250Y-65613D01*
X278085Y-65530D01*
X277953Y-65464D01*
X277837Y-65382D01*
X277738Y-65316D01*
X277672Y-65266D01*
X277623Y-65233D01*
X277606Y-65217D01*
X277458Y-65085D01*
X277326Y-64936D01*
X277210Y-64788D01*
X277133Y-64649D01*
X278390Y-63389D01*
X278365Y-63303D01*
X278349Y-63187D01*
X278316Y-63055D01*
Y-62890D01*
Y-62874D01*
Y-62824D01*
X278332Y-62725D01*
X278349Y-62626D01*
X278365Y-62494D01*
X278398Y-62346D01*
X278464Y-62197D01*
X278521Y-62069D01*
X278687Y-61904D01*
X278712Y-61884D01*
X278811Y-61818D01*
X278926Y-61768D01*
X279058Y-61702D01*
X279223Y-61669D01*
X279240Y-61653D01*
X279322Y-61636D01*
X279454Y-61620D01*
X279636Y-61603D01*
X280172D01*
X281752Y-60019D01*
X282705D01*
Y-69309D01*
D02*
G37*
%LPC*%
G36*
X281104Y-61603D02*
X280172D01*
X278390Y-63389D01*
X278398Y-63418D01*
X278431Y-63484D01*
X278448Y-63550D01*
X278481Y-63583D01*
Y-63600D01*
X278563Y-63715D01*
X278646Y-63814D01*
X278827Y-63963D01*
X278893Y-64012D01*
X278959Y-64045D01*
X278992Y-64078D01*
X279009D01*
X279058Y-64095D01*
X279141Y-64128D01*
X279306Y-64161D01*
X279520Y-64177D01*
X279735Y-64194D01*
X279933Y-64210D01*
X281104D01*
Y-61603D01*
D02*
G37*
G36*
X252965Y-54681D02*
X251508D01*
Y-55035D01*
X252965D01*
Y-54681D01*
D02*
G37*
G36*
X253516Y-54908D02*
X253389D01*
Y-55388D01*
X251113D01*
Y-54964D01*
X250901Y-54993D01*
X250703Y-55035D01*
X250533Y-55077D01*
X250391Y-55106D01*
X250278Y-55134D01*
X250208Y-55162D01*
X250151Y-55190D01*
X250137D01*
X249995Y-55233D01*
X249882Y-55289D01*
X249783Y-55332D01*
X249699Y-55360D01*
X249642Y-55402D01*
X249600Y-55417D01*
X249571Y-55445D01*
X249557D01*
X249430Y-55530D01*
X249345Y-55615D01*
X249303Y-55671D01*
X249289Y-55685D01*
X249246Y-55742D01*
X249218Y-55799D01*
X249190Y-55813D01*
Y-55827D01*
X254633D01*
Y-55077D01*
X254435Y-55035D01*
X254223Y-54993D01*
X254025Y-54964D01*
X253828Y-54936D01*
X253658Y-54922D01*
X253516Y-54908D01*
D02*
G37*
G36*
X255496Y-55388D02*
X255482D01*
Y-55827D01*
X255934D01*
X255920Y-55784D01*
X255878Y-55728D01*
X255850Y-55671D01*
X255835Y-55657D01*
X255793Y-55601D01*
X255736Y-55558D01*
X255623Y-55473D01*
X255567Y-55431D01*
X255524Y-55417D01*
X255496Y-55388D01*
D02*
G37*
G36*
X248256Y-57495D02*
Y-58414D01*
X248907D01*
Y-58174D01*
X248256Y-57495D01*
D02*
G37*
G36*
X255864Y-56350D02*
X249161D01*
X249218Y-57113D01*
X249444D01*
Y-58146D01*
X250604Y-59305D01*
Y-58768D01*
X253446D01*
Y-59701D01*
X250957D01*
X252739Y-61525D01*
X255694Y-58315D01*
X255864Y-56350D01*
D02*
G37*
G36*
X255651Y-58994D02*
X253022Y-61808D01*
X255227Y-64042D01*
X255651Y-58994D01*
D02*
G37*
G36*
X249444Y-58711D02*
Y-58782D01*
X249402D01*
X249897Y-64579D01*
X252470Y-61808D01*
X249444Y-58711D01*
D02*
G37*
G36*
X252753Y-62091D02*
X249939Y-65145D01*
X249981Y-65569D01*
X250179Y-65597D01*
X250349Y-65654D01*
X250505Y-65711D01*
X250646Y-65795D01*
X250745Y-65866D01*
X250816Y-65923D01*
X250872Y-65965D01*
X250886Y-65979D01*
X250999Y-66121D01*
X251084Y-66276D01*
X251141Y-66432D01*
X251183Y-66587D01*
X251212Y-66715D01*
X251226Y-66813D01*
Y-66884D01*
Y-66913D01*
Y-66983D01*
Y-66997D01*
Y-67011D01*
X251212Y-67082D01*
Y-67111D01*
Y-67125D01*
X254959D01*
X255157Y-64579D01*
X252753Y-62091D01*
D02*
G37*
G36*
X249897Y-66163D02*
X249854D01*
X249741Y-66177D01*
X249642Y-66191D01*
X249557Y-66234D01*
X249472Y-66276D01*
X249416Y-66319D01*
X249373Y-66347D01*
X249345Y-66375D01*
X249331Y-66389D01*
X249260Y-66474D01*
X249204Y-66559D01*
X249175Y-66644D01*
X249147Y-66729D01*
X249133Y-66799D01*
X249119Y-66856D01*
Y-66898D01*
Y-66913D01*
X249133Y-67026D01*
X249147Y-67125D01*
X249218Y-67280D01*
X249260Y-67351D01*
X249303Y-67393D01*
X249317Y-67422D01*
X249331Y-67436D01*
X249416Y-67506D01*
X249501Y-67563D01*
X249586Y-67605D01*
X249670Y-67634D01*
X249741Y-67648D01*
X249798Y-67662D01*
X249854D01*
X249967Y-67648D01*
X250066Y-67620D01*
X250222Y-67549D01*
X250292Y-67506D01*
X250335Y-67464D01*
X250363Y-67450D01*
X250377Y-67436D01*
X250448Y-67351D01*
X250505Y-67252D01*
X250547Y-67167D01*
X250575Y-67082D01*
X250589Y-67011D01*
X250604Y-66955D01*
Y-66927D01*
Y-66913D01*
X250589Y-66799D01*
X250561Y-66700D01*
X250533Y-66615D01*
X250476Y-66531D01*
X250434Y-66474D01*
X250406Y-66432D01*
X250377Y-66403D01*
X250363Y-66389D01*
X250278Y-66319D01*
X250179Y-66262D01*
X250095Y-66220D01*
X250024Y-66191D01*
X249953Y-66177D01*
X249897Y-66163D01*
D02*
G37*
%LPD*%
G36*
X249981Y-66474D02*
X250095Y-66517D01*
X250165Y-66573D01*
X250179Y-66587D01*
X250194D01*
X250278Y-66686D01*
X250321Y-66799D01*
X250335Y-66884D01*
Y-66898D01*
Y-66913D01*
X250307Y-67040D01*
X250264Y-67153D01*
X250222Y-67224D01*
X250194Y-67238D01*
Y-67252D01*
X250137Y-67308D01*
X250080Y-67337D01*
X249967Y-67393D01*
X249882Y-67407D01*
X249854D01*
X249699Y-67365D01*
X249586Y-67308D01*
X249515Y-67224D01*
X249458Y-67139D01*
X249430Y-67054D01*
X249402Y-66983D01*
Y-66927D01*
Y-66913D01*
X249416Y-66771D01*
X249458Y-66672D01*
X249515Y-66615D01*
X249529Y-66587D01*
X249628Y-66517D01*
X249741Y-66474D01*
X249826Y-66460D01*
X249854D01*
X249981Y-66474D01*
D02*
G37*
D14*
X338671Y-120235D02*
G03*
X338671Y-120235I-3828J0D01*
G01*
Y-134077D02*
G03*
X338671Y-134077I-3828J0D01*
G01*
X328829D02*
G03*
X328829Y-134077I-3828J0D01*
G01*
Y-120235D02*
G03*
X328829Y-120235I-3828J0D01*
G01*
Y-106394D02*
G03*
X328829Y-106394I-3828J0D01*
G01*
X338671D02*
G03*
X338671Y-106394I-3828J0D01*
G01*
X328829Y-92894D02*
G03*
X328829Y-92894I-3828J0D01*
G01*
X338671D02*
G03*
X338671Y-92894I-3828J0D01*
G01*
X328829Y-78894D02*
G03*
X328829Y-78894I-3828J0D01*
G01*
X338671D02*
G03*
X338671Y-78894I-3828J0D01*
G01*
X328829Y-65394D02*
G03*
X328829Y-65394I-3828J0D01*
G01*
X338671D02*
G03*
X338671Y-65394I-3828J0D01*
G01*
X328829Y-51394D02*
G03*
X328829Y-51394I-3828J0D01*
G01*
X338671D02*
G03*
X338671Y-51394I-3828J0D01*
G01*
Y-37894D02*
G03*
X338671Y-37894I-3828J0D01*
G01*
X328829D02*
G03*
X328829Y-37894I-3828J0D01*
G01*
X59242Y-41929D02*
G03*
X59242Y-41929I-3828J0D01*
G01*
X69084D02*
G03*
X69084Y-41929I-3828J0D01*
G01*
X59242Y-55709D02*
G03*
X59242Y-55709I-3828J0D01*
G01*
X69084D02*
G03*
X69084Y-55709I-3828J0D01*
G01*
X59242Y-69488D02*
G03*
X59242Y-69488I-3828J0D01*
G01*
X69084D02*
G03*
X69084Y-69488I-3828J0D01*
G01*
X59242Y-83268D02*
G03*
X59242Y-83268I-3828J0D01*
G01*
X69084D02*
G03*
X69084Y-83268I-3828J0D01*
G01*
X59242Y-97047D02*
G03*
X59242Y-97047I-3828J0D01*
G01*
X69084D02*
G03*
X69084Y-97047I-3828J0D01*
G01*
X59242Y-110827D02*
G03*
X59242Y-110827I-3828J0D01*
G01*
X69084D02*
G03*
X69084Y-110827I-3828J0D01*
G01*
Y-124327D02*
G03*
X69084Y-124327I-3828J0D01*
G01*
X59242D02*
G03*
X59242Y-124327I-3828J0D01*
G01*
X69084Y-138327D02*
G03*
X69084Y-138327I-3828J0D01*
G01*
X59242D02*
G03*
X59242Y-138327I-3828J0D01*
G01*
X69084Y-151827D02*
G03*
X69084Y-151827I-3828J0D01*
G01*
X59242D02*
G03*
X59242Y-151827I-3828J0D01*
G01*
X69084Y-165827D02*
G03*
X69084Y-165827I-3828J0D01*
G01*
X59242D02*
G03*
X59242Y-165827I-3828J0D01*
G01*
X69084Y-179327D02*
G03*
X69084Y-179327I-3828J0D01*
G01*
X59242D02*
G03*
X59242Y-179327I-3828J0D01*
G01*
X69084Y-193327D02*
G03*
X69084Y-193327I-3828J0D01*
G01*
X59242D02*
G03*
X59242Y-193327I-3828J0D01*
G01*
X294291Y-40356D02*
Y-44291D01*
X292323D01*
X291668Y-43635D01*
Y-42979D01*
X292323Y-42323D01*
X294291D01*
X292323D01*
X291668Y-41668D01*
Y-41012D01*
X292323Y-40356D01*
X294291D01*
X289700Y-41668D02*
X288388D01*
X287732Y-42323D01*
Y-44291D01*
X289700D01*
X290356Y-43635D01*
X289700Y-42979D01*
X287732D01*
X286420Y-41668D02*
Y-44291D01*
Y-42979D01*
X285764Y-42323D01*
X285108Y-41668D01*
X284452D01*
X280516Y-44291D02*
X281828D01*
X282484Y-43635D01*
Y-42323D01*
X281828Y-41668D01*
X280516D01*
X279860Y-42323D01*
Y-42979D01*
X282484D01*
X278548Y-44291D02*
Y-40356D01*
X277237Y-41668D01*
X275925Y-40356D01*
Y-44291D01*
X272645D02*
X273957D01*
X274613Y-43635D01*
Y-42323D01*
X273957Y-41668D01*
X272645D01*
X271989Y-42323D01*
Y-42979D01*
X274613D01*
X270021Y-41012D02*
Y-41668D01*
X270677D01*
X269365D01*
X270021D01*
Y-43635D01*
X269365Y-44291D01*
X266741Y-41668D02*
X265429D01*
X264773Y-42323D01*
Y-44291D01*
X266741D01*
X267397Y-43635D01*
X266741Y-42979D01*
X264773D01*
X263461Y-44291D02*
X262150D01*
X262805D01*
Y-40356D01*
X263461D01*
X256246Y-44291D02*
Y-40356D01*
X254278D01*
X253622Y-41012D01*
Y-42323D01*
X254278Y-42979D01*
X256246D01*
X252310Y-40356D02*
Y-44291D01*
X249686D01*
X245751Y-41012D02*
X246407Y-40356D01*
X247718D01*
X248374Y-41012D01*
Y-43635D01*
X247718Y-44291D01*
X246407D01*
X245751Y-43635D01*
X240503Y-42323D02*
X237879D01*
X232631Y-44291D02*
Y-40356D01*
X231319Y-41668D01*
X230008Y-40356D01*
Y-44291D01*
X294291Y-47245D02*
Y-51181D01*
Y-49213D01*
X291668D01*
Y-47245D01*
Y-51181D01*
X290356Y-47245D02*
Y-51181D01*
X289044Y-49869D01*
X287732Y-51181D01*
Y-47245D01*
X282484Y-47901D02*
X281828Y-47245D01*
X280516D01*
X279860Y-47901D01*
Y-50525D01*
X280516Y-51181D01*
X281828D01*
X282484Y-50525D01*
Y-47901D01*
X278548Y-51181D02*
Y-50525D01*
X277892D01*
Y-51181D01*
X278548D01*
X275269D02*
X273957D01*
X274613D01*
Y-47245D01*
X275269Y-47901D01*
X271989Y-51181D02*
Y-50525D01*
X271333D01*
Y-51181D01*
X271989D01*
X268709Y-47901D02*
X268053Y-47245D01*
X266741D01*
X266085Y-47901D01*
Y-50525D01*
X266741Y-51181D01*
X268053D01*
X268709Y-50525D01*
Y-47901D01*
D17*
X275051Y-33165D02*
X282651D01*
X274951Y-33265D02*
X282651D01*
X274951Y-33365D02*
X282551D01*
X274851Y-33465D02*
X282551D01*
X274851Y-33565D02*
X282451D01*
X274751Y-33665D02*
X282451D01*
X274651Y-33765D02*
X282351D01*
X274651Y-33865D02*
X282351D01*
X274551Y-33965D02*
X282251D01*
X274551Y-34065D02*
X282251D01*
X274451Y-34165D02*
X282151D01*
X274451Y-34265D02*
X282151D01*
X274351Y-34365D02*
X282051D01*
X274351Y-34465D02*
X282051D01*
X274251Y-34565D02*
X281951D01*
X274251Y-34665D02*
X281951D01*
X273351Y-27065D02*
X294551D01*
X282951Y-19965D02*
X283351D01*
X282851Y-19665D02*
X283451D01*
X282951Y-19765D02*
X283351D01*
X282951Y-19865D02*
X283351D01*
X282951Y-20365D02*
X283351D01*
X282951Y-20265D02*
X283351D01*
X282951Y-20165D02*
X283351D01*
X282951Y-20065D02*
X283351D01*
X282651Y-19465D02*
X283551D01*
X282751Y-19565D02*
X283451D01*
X275951Y-31465D02*
X284351D01*
X274051Y-19465D02*
X282151D01*
X273951Y-19565D02*
X282051D01*
X273851Y-19665D02*
X282051D01*
X273751Y-19765D02*
X281951D01*
X273651Y-19865D02*
X281951D01*
X273651Y-19965D02*
X281951D01*
X273551Y-20065D02*
X281951D01*
X273451Y-20265D02*
X281951D01*
X273451Y-20165D02*
X281951D01*
X273351Y-20365D02*
X281951D01*
X273351Y-26965D02*
X281851D01*
X273351Y-26865D02*
X281551D01*
X273251Y-26765D02*
X281351D01*
X273251Y-26665D02*
X281251D01*
X273251Y-26565D02*
X281151D01*
X273251Y-26465D02*
X281051D01*
X273251Y-26365D02*
X280951D01*
X273151Y-26265D02*
X280851D01*
X273151Y-26165D02*
X280851D01*
X273151Y-25965D02*
X280751D01*
X273351Y-20465D02*
X280551D01*
X273251Y-20765D02*
X280551D01*
X273251Y-20665D02*
X280551D01*
X273251Y-20565D02*
X280551D01*
X273251Y-20865D02*
X280551D01*
X273251Y-20965D02*
X280551D01*
X273151Y-22765D02*
X280551D01*
X273151Y-22065D02*
X280551D01*
X273151Y-21765D02*
X280551D01*
X273151Y-21865D02*
X280551D01*
X273151Y-21965D02*
X280551D01*
X273151Y-21665D02*
X280551D01*
X273151Y-22365D02*
X280551D01*
X273151Y-21565D02*
X280551D01*
X273151Y-21365D02*
X280551D01*
X273151Y-21265D02*
X280551D01*
X273151Y-22165D02*
X280551D01*
X273151Y-21465D02*
X280551D01*
X273151Y-22265D02*
X280551D01*
X273151Y-21165D02*
X280551D01*
X273151Y-21065D02*
X280551D01*
X273151Y-22465D02*
X280551D01*
X273151Y-22565D02*
X280551D01*
X273151Y-22665D02*
X280551D01*
X273151Y-22865D02*
X280551D01*
X273151Y-22965D02*
X280551D01*
X273151Y-26065D02*
X280751D01*
X273151Y-25565D02*
X280651D01*
X273151Y-25765D02*
X280651D01*
X273151Y-25865D02*
X280651D01*
X273151Y-25665D02*
X280651D01*
X273151Y-23065D02*
X280551D01*
X273151Y-23165D02*
X280551D01*
X273151Y-23265D02*
X280551D01*
X273151Y-23365D02*
X280551D01*
X273151Y-23465D02*
X280551D01*
X273151Y-23565D02*
X280551D01*
X273151Y-23665D02*
X280551D01*
X273151Y-23765D02*
X280551D01*
X273151Y-23865D02*
X280551D01*
X273151Y-23965D02*
X280551D01*
X273151Y-24065D02*
X280551D01*
X273151Y-24165D02*
X280551D01*
X273151Y-24265D02*
X280551D01*
X273151Y-24365D02*
X280551D01*
X273151Y-24465D02*
X280551D01*
X273151Y-24565D02*
X280551D01*
X273151Y-24665D02*
X280551D01*
X273151Y-24765D02*
X280551D01*
X273151Y-24865D02*
X280551D01*
X273151Y-24965D02*
X280551D01*
X273151Y-25065D02*
X280551D01*
X273151Y-25165D02*
X280551D01*
X273151Y-25265D02*
X280551D01*
X273151Y-25365D02*
X280551D01*
X273151Y-25465D02*
X280551D01*
X274151Y-34765D02*
X281951D01*
X274051Y-34865D02*
X281851D01*
X274051Y-34965D02*
X281851D01*
X273951Y-35065D02*
X281751D01*
X273951Y-35165D02*
X281751D01*
X273951Y-35265D02*
X281651D01*
X273851Y-35365D02*
X281651D01*
X273851Y-35465D02*
X281551D01*
X273851Y-35565D02*
X281551D01*
X273851Y-35665D02*
X281451D01*
X273851Y-35765D02*
X281451D01*
X273851Y-35865D02*
X281351D01*
X273851Y-35965D02*
X281351D01*
X273851Y-36165D02*
X281251D01*
X273851Y-36065D02*
X281251D01*
X273851Y-36365D02*
X281151D01*
X275351Y-37965D02*
X279551D01*
X273851Y-36265D02*
X281151D01*
X274051Y-36865D02*
X280951D01*
X273851Y-36465D02*
X281051D01*
X273851Y-36565D02*
X281051D01*
X273951Y-36665D02*
X280951D01*
X273951Y-36765D02*
X280951D01*
X274051Y-36965D02*
X280851D01*
X274151Y-37065D02*
X280751D01*
X274151Y-37165D02*
X280751D01*
X274251Y-37265D02*
X280651D01*
X274351Y-37365D02*
X280551D01*
X274451Y-37465D02*
X280451D01*
X274551Y-37565D02*
X280351D01*
X274651Y-37665D02*
X280251D01*
X274851Y-37765D02*
X280051D01*
X275051Y-37865D02*
X279851D01*
X275851Y-31565D02*
X284051D01*
X275851Y-31665D02*
X283851D01*
X275751Y-31765D02*
X283651D01*
X275751Y-31865D02*
X283551D01*
X275651Y-31965D02*
X283351D01*
X275651Y-32065D02*
X283251D01*
X275551Y-32165D02*
X283251D01*
X275551Y-32265D02*
X283151D01*
X275451Y-32365D02*
X283051D01*
X275351Y-32465D02*
X283051D01*
X275351Y-32565D02*
X282951D01*
X275251Y-32665D02*
X282951D01*
X275251Y-32765D02*
X282851D01*
X275151Y-32865D02*
X282851D01*
X275151Y-32965D02*
X282751D01*
X275051Y-33065D02*
X282751D01*
X288151Y-22465D02*
X294551D01*
X288151Y-22565D02*
X294551D01*
X288051Y-22665D02*
X294551D01*
X288151Y-23565D02*
X294551D01*
X288151Y-23665D02*
X294551D01*
X288151Y-23765D02*
X294551D01*
X288151Y-23865D02*
X294551D01*
X288151Y-23965D02*
X294551D01*
X288051Y-24065D02*
X294551D01*
X288151Y-24965D02*
X294551D01*
X288151Y-25065D02*
X294551D01*
X288151Y-25165D02*
X294551D01*
X288151Y-25265D02*
X294551D01*
X288151Y-25365D02*
X294551D01*
X287151Y-21465D02*
X294551D01*
X287151Y-21565D02*
X294551D01*
X287151Y-21665D02*
X294551D01*
X287151Y-21765D02*
X294551D01*
X287151Y-21865D02*
X294551D01*
X287951Y-21965D02*
X294551D01*
X287951Y-22765D02*
X294551D01*
X287151Y-22865D02*
X294551D01*
X287151Y-22965D02*
X294551D01*
X287151Y-23065D02*
X294551D01*
X287951Y-23365D02*
X294551D01*
X288051Y-23465D02*
X294551D01*
X287951Y-24165D02*
X294551D01*
X287151Y-24265D02*
X294551D01*
X287151Y-24365D02*
X294551D01*
X287151Y-24465D02*
X294551D01*
X287151Y-24565D02*
X294551D01*
X287151Y-24665D02*
X294551D01*
X287951Y-24765D02*
X294551D01*
X288051Y-24865D02*
X294551D01*
X288051Y-25465D02*
X294551D01*
X287951Y-25565D02*
X294551D01*
X287151Y-25665D02*
X294551D01*
X287151Y-25765D02*
X294551D01*
X287151Y-25865D02*
X294551D01*
X287151Y-25965D02*
X294551D01*
X287151Y-26065D02*
X294551D01*
X287151Y-26165D02*
X294551D01*
X287151Y-26265D02*
X294551D01*
X287151Y-26365D02*
X294551D01*
X287151Y-26465D02*
X294551D01*
X287151Y-26565D02*
X294551D01*
X287151Y-26665D02*
X294551D01*
X287151Y-26765D02*
X294551D01*
X287151Y-26865D02*
X294551D01*
X287151Y-26965D02*
X294551D01*
X287151Y-34065D02*
X294551D01*
X287151Y-21365D02*
X294551D01*
X287151Y-23165D02*
X294551D01*
X287151Y-23265D02*
X294551D01*
X276051Y-30265D02*
X294551D01*
X276051Y-30365D02*
X294551D01*
X276051Y-30465D02*
X294551D01*
X276051Y-30565D02*
X294551D01*
X276051Y-30665D02*
X294551D01*
X276051Y-30765D02*
X294551D01*
X276051Y-30865D02*
X294551D01*
X276051Y-30965D02*
X294551D01*
X276051Y-31065D02*
X294551D01*
X276051Y-31165D02*
X294551D01*
X276051Y-31265D02*
X294551D01*
X285451Y-31465D02*
X294551D01*
X285851Y-31565D02*
X294551D01*
X286051Y-31665D02*
X294551D01*
X286251Y-31765D02*
X294551D01*
X286351Y-31865D02*
X294551D01*
X286451Y-31965D02*
X294551D01*
X286551Y-32065D02*
X294551D01*
X286651Y-32165D02*
X294551D01*
X286751Y-32265D02*
X294551D01*
X286751Y-32365D02*
X294551D01*
X286851Y-32465D02*
X294551D01*
X286951Y-32565D02*
X294551D01*
X286951Y-32665D02*
X294551D01*
X286951Y-32765D02*
X294551D01*
X287051Y-32865D02*
X294551D01*
X287051Y-32965D02*
X294551D01*
X287051Y-33065D02*
X294551D01*
X287051Y-33165D02*
X294551D01*
X273451Y-27165D02*
X294551D01*
X273551Y-27265D02*
X294551D01*
X273551Y-27365D02*
X294551D01*
X273651Y-27465D02*
X294551D01*
X273751Y-27565D02*
X294551D01*
X273851Y-27665D02*
X294551D01*
X273951Y-27765D02*
X294551D01*
X274051Y-27865D02*
X294551D01*
X274151Y-27965D02*
X294551D01*
X274251Y-28065D02*
X294551D01*
X274351Y-28165D02*
X294551D01*
X274451Y-28265D02*
X294551D01*
X274551Y-28365D02*
X294551D01*
X274651Y-28465D02*
X294551D01*
X274751Y-28565D02*
X294551D01*
X274851Y-28665D02*
X294551D01*
X274951Y-28765D02*
X294551D01*
X275051Y-28865D02*
X294551D01*
X275151Y-28965D02*
X294551D01*
X275251Y-29065D02*
X294551D01*
X275351Y-29165D02*
X294551D01*
X275451Y-29265D02*
X294551D01*
X275551Y-29365D02*
X294551D01*
X275651Y-29465D02*
X294551D01*
X275751Y-29565D02*
X294551D01*
X275751Y-29665D02*
X294551D01*
X275851Y-29765D02*
X294551D01*
X275851Y-29865D02*
X294551D01*
X275951Y-29965D02*
X294551D01*
X275951Y-30065D02*
X294551D01*
X276051Y-30165D02*
X294551D01*
X275951Y-31365D02*
X294551D01*
X287051Y-33265D02*
X294551D01*
X287151Y-33365D02*
X294551D01*
X287151Y-33465D02*
X294551D01*
X287151Y-33565D02*
X294551D01*
X287151Y-33665D02*
X294551D01*
X287151Y-33765D02*
X294551D01*
X287151Y-33865D02*
X294551D01*
X287151Y-33965D02*
X294551D01*
X287151Y-34165D02*
X294551D01*
X287151Y-34265D02*
X294551D01*
X287151Y-34365D02*
X294551D01*
X287151Y-34465D02*
X294551D01*
X287151Y-34565D02*
X294551D01*
X287151Y-34665D02*
X294551D01*
X287151Y-34765D02*
X294551D01*
X287151Y-34865D02*
X294551D01*
X287151Y-34965D02*
X294551D01*
X287151Y-35065D02*
X294551D01*
X287151Y-35165D02*
X294551D01*
X287151Y-35265D02*
X294551D01*
X287151Y-35365D02*
X294551D01*
X287151Y-35465D02*
X294551D01*
X287151Y-35565D02*
X294551D01*
X287151Y-35665D02*
X294551D01*
X287151Y-35765D02*
X294551D01*
X287151Y-35865D02*
X294551D01*
X287151Y-35965D02*
X294551D01*
X287151Y-36065D02*
X294551D01*
X287151Y-36165D02*
X294551D01*
X287451Y-37065D02*
X294251D01*
X287951Y-37665D02*
X293651D01*
X288351Y-37865D02*
X293251D01*
X287151Y-36365D02*
X294451D01*
X287851Y-37565D02*
X293751D01*
X287251Y-36665D02*
X294351D01*
X288151Y-37765D02*
X293451D01*
X287451Y-37165D02*
X294151D01*
X287151Y-36465D02*
X294451D01*
X287551Y-37265D02*
X294051D01*
X287151Y-36565D02*
X294451D01*
X287351Y-36965D02*
X294251D01*
X287651Y-37365D02*
X293951D01*
X287751Y-37465D02*
X293851D01*
X287151Y-36265D02*
X294451D01*
X287251Y-36765D02*
X294351D01*
X288651Y-37965D02*
X292951D01*
X287251Y-36865D02*
X294351D01*
X288051Y-22065D02*
X294551D01*
X288151Y-22165D02*
X294551D01*
X288151Y-22265D02*
X294551D01*
X288151Y-22365D02*
X294551D01*
X284051Y-19465D02*
X284951D01*
X284151Y-19565D02*
X284851D01*
X284251Y-19665D02*
X284751D01*
X284251Y-19765D02*
X284751D01*
X284351Y-19865D02*
X284751D01*
X284351Y-19965D02*
X284751D01*
X284351Y-20065D02*
X284751D01*
X284351Y-20165D02*
X284751D01*
X284351Y-20265D02*
X284751D01*
X284351Y-20365D02*
X284751D01*
X277751Y-16065D02*
X293151D01*
X277551Y-16165D02*
X293351D01*
X277351Y-16265D02*
X293551D01*
X277251Y-16365D02*
X293751D01*
X277051Y-16465D02*
X293851D01*
X276951Y-16565D02*
X293951D01*
X276851Y-16665D02*
X294051D01*
X276751Y-16765D02*
X294151D01*
X276651Y-16865D02*
X294151D01*
X276551Y-16965D02*
X294251D01*
X276451Y-17065D02*
X294251D01*
X278351Y-15965D02*
X292551D01*
X276351Y-17165D02*
X294351D01*
X276251Y-17265D02*
X294351D01*
X276151Y-17365D02*
X294451D01*
X276051Y-17465D02*
X294451D01*
X285451Y-19465D02*
X294551D01*
X285551Y-19565D02*
X294551D01*
X285651Y-19665D02*
X294551D01*
X275951Y-17565D02*
X294451D01*
X275851Y-17665D02*
X294451D01*
X275751Y-17765D02*
X294551D01*
X275651Y-17865D02*
X294551D01*
X275551Y-17965D02*
X294551D01*
X275451Y-18065D02*
X294551D01*
X275351Y-18165D02*
X294551D01*
X275251Y-18265D02*
X294551D01*
X275151Y-18365D02*
X294551D01*
X275051Y-18465D02*
X294551D01*
X274951Y-18565D02*
X294551D01*
X274851Y-18665D02*
X294551D01*
X274751Y-18765D02*
X294551D01*
X285651Y-19765D02*
X294551D01*
X274551Y-18965D02*
X294551D01*
X274451Y-19065D02*
X294551D01*
X274351Y-19165D02*
X294551D01*
X274251Y-19265D02*
X294551D01*
X274151Y-19365D02*
X294551D01*
X274651Y-18865D02*
X294551D01*
X285751Y-19965D02*
X294551D01*
X285751Y-19865D02*
X294551D01*
X285751Y-20065D02*
X294551D01*
X285751Y-20165D02*
X294551D01*
X285751Y-20265D02*
X294551D01*
X285751Y-20365D02*
X294551D01*
X287151Y-20465D02*
X294551D01*
X287151Y-20565D02*
X294551D01*
X287151Y-20665D02*
X294551D01*
X287151Y-20765D02*
X294551D01*
X287151Y-20865D02*
X294551D01*
X287151Y-20965D02*
X294551D01*
X287151Y-21065D02*
X294551D01*
X287151Y-21165D02*
X294551D01*
X287151Y-21265D02*
X294551D01*
D21*
X321041Y-140125D02*
X339741D01*
X320768Y-113189D02*
X339469D01*
X320768Y-85630D02*
X339469D01*
X320768Y-58071D02*
X339469D01*
X320768Y-31201D02*
X339469D01*
X60236Y-104331D02*
X70079D01*
X50394D02*
X60236D01*
Y-198031D02*
Y-104331D01*
X50394Y-90551D02*
X60236D01*
X70079D01*
X50394Y-76378D02*
X60236D01*
X70079D01*
X50394Y-62992D02*
X60236D01*
X70079D01*
X50394Y-48819D02*
X60236D01*
X70079D01*
X50394Y-35039D02*
X60236D01*
X70079D01*
X327309Y-121735D02*
Y-118980D01*
X325932D01*
X325473Y-119439D01*
Y-120358D01*
X325932Y-120817D01*
X327309D01*
X326391D02*
X325473Y-121735D01*
X324554Y-118980D02*
X322718Y-121735D01*
Y-118980D02*
X324554Y-121735D01*
X327309Y-107994D02*
Y-105239D01*
X325932D01*
X325473Y-105699D01*
Y-106617D01*
X325932Y-107076D01*
X327309D01*
X326391D02*
X325473Y-107994D01*
X324554D02*
Y-106158D01*
X323636Y-105239D01*
X322718Y-106158D01*
Y-107994D01*
Y-106617D01*
X324554D01*
X327309Y-94254D02*
Y-91499D01*
X325932D01*
X325473Y-91958D01*
Y-92876D01*
X325932Y-93336D01*
X327309D01*
X326391D02*
X325473Y-94254D01*
X324554Y-91499D02*
Y-94254D01*
X323177D01*
X322718Y-93795D01*
Y-93336D01*
X323177Y-92876D01*
X324554D01*
X323177D01*
X322718Y-92417D01*
Y-91958D01*
X323177Y-91499D01*
X324554D01*
X327309Y-77759D02*
X325473D01*
X326391D01*
Y-80514D01*
X324554Y-77759D02*
Y-80514D01*
X323177D01*
X322718Y-80054D01*
Y-79595D01*
X323177Y-79136D01*
X324554D01*
X323177D01*
X322718Y-78677D01*
Y-78218D01*
X323177Y-77759D01*
X324554D01*
X327309Y-66773D02*
Y-64018D01*
X325932D01*
X325473Y-64477D01*
Y-65396D01*
X325932Y-65855D01*
X327309D01*
X326391D02*
X325473Y-66773D01*
X324554D02*
Y-64936D01*
X323636Y-64018D01*
X322718Y-64936D01*
Y-66773D01*
Y-65396D01*
X324554D01*
X325473Y-50737D02*
X325932Y-50278D01*
X326850D01*
X327309Y-50737D01*
Y-52573D01*
X326850Y-53033D01*
X325932D01*
X325473Y-52573D01*
X324554Y-50278D02*
Y-53033D01*
X322718D01*
X325473Y-36996D02*
X325932Y-36537D01*
X326850D01*
X327309Y-36996D01*
Y-38833D01*
X326850Y-39292D01*
X325932D01*
X325473Y-38833D01*
X324554Y-36537D02*
Y-39292D01*
Y-37915D01*
X322718D01*
Y-36537D01*
Y-39292D01*
X337210Y-118880D02*
X335373D01*
X336291D01*
Y-121635D01*
X334454Y-118880D02*
X332618Y-121635D01*
Y-118880D02*
X334454Y-121635D01*
X337210Y-107895D02*
Y-105140D01*
X335832D01*
X335373Y-105599D01*
Y-106517D01*
X335832Y-106976D01*
X337210D01*
X336291D02*
X335373Y-107895D01*
X334454D02*
Y-106058D01*
X333536Y-105140D01*
X332618Y-106058D01*
Y-107895D01*
Y-106517D01*
X334454D01*
X337210Y-94154D02*
Y-91399D01*
X335832D01*
X335373Y-91858D01*
Y-92777D01*
X335832Y-93236D01*
X337210D01*
X336291D02*
X335373Y-94154D01*
X334454Y-91399D02*
Y-94154D01*
X333077D01*
X332618Y-93695D01*
Y-93236D01*
X333077Y-92777D01*
X334454D01*
X333077D01*
X332618Y-92317D01*
Y-91858D01*
X333077Y-91399D01*
X334454D01*
X337210Y-77659D02*
X335373D01*
X336291D01*
Y-80414D01*
X334454D02*
Y-78577D01*
X333536Y-77659D01*
X332618Y-78577D01*
Y-80414D01*
Y-79036D01*
X334454D01*
X337210Y-66673D02*
Y-63918D01*
X335832D01*
X335373Y-64377D01*
Y-65296D01*
X335832Y-65755D01*
X337210D01*
X336291D02*
X335373Y-66673D01*
X334454Y-63918D02*
Y-66673D01*
X333077D01*
X332618Y-66214D01*
Y-65755D01*
X333077Y-65296D01*
X334454D01*
X333077D01*
X332618Y-64836D01*
Y-64377D01*
X333077Y-63918D01*
X334454D01*
X335373Y-50637D02*
X335832Y-50178D01*
X336750D01*
X337210Y-50637D01*
Y-52473D01*
X336750Y-52933D01*
X335832D01*
X335373Y-52473D01*
X334454Y-50178D02*
Y-52933D01*
X332618D01*
X335373Y-36896D02*
X335832Y-36437D01*
X336750D01*
X337210Y-36896D01*
Y-38733D01*
X336750Y-39192D01*
X335832D01*
X335373Y-38733D01*
X334454Y-36437D02*
Y-39192D01*
Y-37815D01*
X332618D01*
Y-36437D01*
Y-39192D01*
X56103Y-43307D02*
Y-40552D01*
X57480Y-41930D01*
X55644D01*
X54725Y-43307D02*
X53807D01*
X54266D01*
Y-40552D01*
X54725Y-41011D01*
X66339Y-43307D02*
Y-40552D01*
X67716Y-41930D01*
X65880D01*
X64961Y-41011D02*
X64502Y-40552D01*
X63584D01*
X63125Y-41011D01*
Y-42848D01*
X63584Y-43307D01*
X64502D01*
X64961Y-42848D01*
Y-41011D01*
X57480Y-54791D02*
X57021Y-54332D01*
X56103D01*
X55644Y-54791D01*
Y-55250D01*
X56103Y-55709D01*
X56562D01*
X56103D01*
X55644Y-56168D01*
Y-56627D01*
X56103Y-57087D01*
X57021D01*
X57480Y-56627D01*
X54725Y-57087D02*
X53807D01*
X54266D01*
Y-54332D01*
X54725Y-54791D01*
X67716D02*
X67257Y-54332D01*
X66339D01*
X65880Y-54791D01*
Y-55250D01*
X66339Y-55709D01*
X66798D01*
X66339D01*
X65880Y-56168D01*
Y-56627D01*
X66339Y-57087D01*
X67257D01*
X67716Y-56627D01*
X64961Y-54791D02*
X64502Y-54332D01*
X63584D01*
X63125Y-54791D01*
Y-56627D01*
X63584Y-57087D01*
X64502D01*
X64961Y-56627D01*
Y-54791D01*
X55644Y-70866D02*
X57480D01*
X55644Y-69029D01*
Y-68570D01*
X56103Y-68111D01*
X57021D01*
X57480Y-68570D01*
X54725Y-70866D02*
X53807D01*
X54266D01*
Y-68111D01*
X54725Y-68570D01*
X65486Y-70866D02*
X67323D01*
X65486Y-69029D01*
Y-68570D01*
X65945Y-68111D01*
X66864D01*
X67323Y-68570D01*
X64568D02*
X64109Y-68111D01*
X63190D01*
X62731Y-68570D01*
Y-70407D01*
X63190Y-70866D01*
X64109D01*
X64568Y-70407D01*
Y-68570D01*
X57087Y-84646D02*
X56168D01*
X56627D01*
Y-81891D01*
X57087Y-82350D01*
X54791Y-84646D02*
X53872D01*
X54332D01*
Y-81891D01*
X54791Y-82350D01*
X67323Y-84646D02*
X66404D01*
X66864D01*
Y-81891D01*
X67323Y-82350D01*
X65027D02*
X64568Y-81891D01*
X63649D01*
X63190Y-82350D01*
Y-84187D01*
X63649Y-84646D01*
X64568D01*
X65027Y-84187D01*
Y-82350D01*
X57480Y-96129D02*
X57021Y-95670D01*
X56103D01*
X55644Y-96129D01*
Y-97966D01*
X56103Y-98425D01*
X57021D01*
X57480Y-97966D01*
Y-96129D01*
X54725Y-98425D02*
X53807D01*
X54266D01*
Y-95670D01*
X54725Y-96129D01*
X67323D02*
X66864Y-95670D01*
X65945D01*
X65486Y-96129D01*
Y-97966D01*
X65945Y-98425D01*
X66864D01*
X67323Y-97966D01*
Y-96129D01*
X64568D02*
X64109Y-95670D01*
X63190D01*
X62731Y-96129D01*
Y-97966D01*
X63190Y-98425D01*
X64109D01*
X64568Y-97966D01*
Y-96129D01*
X66245Y-109370D02*
X67164D01*
X67623Y-109829D01*
Y-111666D01*
X67164Y-112125D01*
X66245D01*
X65786Y-111666D01*
Y-109829D01*
X66245Y-109370D01*
X63031Y-109829D02*
X63490Y-109370D01*
X64409D01*
X64868Y-109829D01*
Y-111666D01*
X64409Y-112125D01*
X63490D01*
X63031Y-111666D01*
X57623Y-109470D02*
X56704D01*
X57164D01*
Y-112225D01*
X57623D01*
X56704D01*
X53490Y-109929D02*
X53949Y-109470D01*
X54868D01*
X55327Y-109929D01*
Y-111766D01*
X54868Y-112225D01*
X53949D01*
X53490Y-111766D01*
X66245Y-122770D02*
X67164D01*
X67623Y-123229D01*
Y-125066D01*
X67164Y-125525D01*
X66245D01*
X65786Y-125066D01*
Y-123229D01*
X66245Y-122770D01*
X63490Y-125525D02*
Y-122770D01*
X64868Y-124148D01*
X63031D01*
X57723Y-122870D02*
X56805D01*
X57264D01*
Y-125625D01*
X57723D01*
X56805D01*
X54049D02*
Y-122870D01*
X55427Y-124248D01*
X53590D01*
X57623Y-136970D02*
X56704D01*
X57164D01*
Y-139725D01*
X57623D01*
X56704D01*
X55327Y-137429D02*
X54868Y-136970D01*
X53949D01*
X53490Y-137429D01*
Y-137889D01*
X53949Y-138348D01*
X54409D01*
X53949D01*
X53490Y-138807D01*
Y-139266D01*
X53949Y-139725D01*
X54868D01*
X55327Y-139266D01*
X66145Y-136970D02*
X67064D01*
X67523Y-137429D01*
Y-139266D01*
X67064Y-139725D01*
X66145D01*
X65686Y-139266D01*
Y-137429D01*
X66145Y-136970D01*
X64768Y-137429D02*
X64309Y-136970D01*
X63390D01*
X62931Y-137429D01*
Y-137889D01*
X63390Y-138348D01*
X63850D01*
X63390D01*
X62931Y-138807D01*
Y-139266D01*
X63390Y-139725D01*
X64309D01*
X64768Y-139266D01*
X66145Y-150270D02*
X67064D01*
X67523Y-150729D01*
Y-152566D01*
X67064Y-153025D01*
X66145D01*
X65686Y-152566D01*
Y-150729D01*
X66145Y-150270D01*
X62931Y-153025D02*
X64768D01*
X62931Y-151189D01*
Y-150729D01*
X63390Y-150270D01*
X64309D01*
X64768Y-150729D01*
X57523Y-150370D02*
X56604D01*
X57064D01*
Y-153125D01*
X57523D01*
X56604D01*
X53390D02*
X55227D01*
X53390Y-151288D01*
Y-150829D01*
X53850Y-150370D01*
X54768D01*
X55227Y-150829D01*
X65623Y-164245D02*
X66541D01*
X67000Y-164704D01*
Y-166541D01*
X66541Y-167000D01*
X65623D01*
X65163Y-166541D01*
Y-164704D01*
X65623Y-164245D01*
X64245Y-167000D02*
X63327D01*
X63786D01*
Y-164245D01*
X64245Y-164704D01*
X57100Y-164445D02*
X56182D01*
X56641D01*
Y-167200D01*
X57100D01*
X56182D01*
X54804D02*
X53886D01*
X54345D01*
Y-164445D01*
X54804Y-164904D01*
X66245Y-177870D02*
X67164D01*
X67623Y-178329D01*
Y-180166D01*
X67164Y-180625D01*
X66245D01*
X65786Y-180166D01*
Y-178329D01*
X66245Y-177870D01*
X64868Y-178329D02*
X64409Y-177870D01*
X63490D01*
X63031Y-178329D01*
Y-180166D01*
X63490Y-180625D01*
X64409D01*
X64868Y-180166D01*
Y-178329D01*
X57623Y-177970D02*
X56704D01*
X57164D01*
Y-180725D01*
X57623D01*
X56704D01*
X55327Y-178429D02*
X54868Y-177970D01*
X53949D01*
X53490Y-178429D01*
Y-180266D01*
X53949Y-180725D01*
X54868D01*
X55327Y-180266D01*
Y-178429D01*
X68110Y-204331D02*
X67192D01*
X67651D01*
Y-201576D01*
X68110Y-202035D01*
X63978Y-204331D02*
X65814D01*
X63978Y-202494D01*
Y-202035D01*
X64437Y-201576D01*
X65355D01*
X65814Y-202035D01*
X63059Y-202953D02*
X61223D01*
X58468Y-204331D02*
X60304D01*
X58468Y-202494D01*
Y-202035D01*
X58927Y-201576D01*
X59845D01*
X60304Y-202035D01*
X56172Y-204331D02*
Y-201576D01*
X57549Y-202953D01*
X55713D01*
X54794Y-201576D02*
Y-203412D01*
X53876Y-204331D01*
X52958Y-203412D01*
Y-201576D01*
D22*
X187008Y-5906D02*
D03*
Y-230315D02*
D03*
D129*
X326149Y-133399D02*
X326477Y-133071D01*
X327133D01*
X327461Y-133399D01*
Y-134711D01*
X327133Y-135039D01*
X326477D01*
X326149Y-134711D01*
Y-134055D01*
X326805D01*
X325493Y-135039D02*
Y-133071D01*
X324181Y-135039D01*
Y-133071D01*
X323525D02*
Y-135039D01*
X322541D01*
X322213Y-134711D01*
Y-133399D01*
X322541Y-133071D01*
X323525D01*
X336188Y-133498D02*
X336516Y-133170D01*
X337172D01*
X337500Y-133498D01*
Y-134810D01*
X337172Y-135138D01*
X336516D01*
X336188Y-134810D01*
Y-134154D01*
X336844D01*
X335532Y-135138D02*
Y-133170D01*
X334220Y-135138D01*
Y-133170D01*
X333564D02*
Y-135138D01*
X332580D01*
X332252Y-134810D01*
Y-133498D01*
X332580Y-133170D01*
X333564D01*
X57800Y-192532D02*
Y-193844D01*
X57144Y-194500D01*
X56488Y-193844D01*
Y-192532D01*
X54520Y-192860D02*
X54848Y-192532D01*
X55504D01*
X55832Y-192860D01*
Y-194172D01*
X55504Y-194500D01*
X54848D01*
X54520Y-194172D01*
X52552Y-192860D02*
X52880Y-192532D01*
X53536D01*
X53864Y-192860D01*
Y-194172D01*
X53536Y-194500D01*
X52880D01*
X52552Y-194172D01*
X66488Y-192760D02*
X66816Y-192432D01*
X67472D01*
X67800Y-192760D01*
Y-194072D01*
X67472Y-194400D01*
X66816D01*
X66488Y-194072D01*
Y-193416D01*
X67144D01*
X65832Y-194400D02*
Y-192432D01*
X64520Y-194400D01*
Y-192432D01*
X63864D02*
Y-194400D01*
X62880D01*
X62552Y-194072D01*
Y-192760D01*
X62880Y-192432D01*
X63864D01*
M02*
