G04*
G04 #@! TF.GenerationSoftware,Altium Limited,Altium Designer,23.1.1 (15)*
G04*
G04 Layer_Color=32896*
%FSLAX25Y25*%
%MOIN*%
G70*
G04*
G04 #@! TF.SameCoordinates,A81DB7C9-DF45-4C20-951E-7269B8873665*
G04*
G04*
G04 #@! TF.FilePolarity,Positive*
G04*
G01*
G75*
%ADD10C,0.01000*%
%ADD20C,0.00100*%
%ADD21C,0.00709*%
%ADD22R,3.74016X0.11811*%
%ADD131C,0.00472*%
G36*
X286077Y-63080D02*
X286804Y-63176D01*
X287129Y-63233D01*
X287454Y-63290D01*
X287760Y-63367D01*
X288047Y-63443D01*
X288296Y-63520D01*
X288526Y-63596D01*
X288717Y-63654D01*
X288889Y-63711D01*
X289023Y-63769D01*
X289138Y-63807D01*
X289195Y-63826D01*
X289214Y-63845D01*
X289884Y-64170D01*
X290496Y-64515D01*
X291051Y-64878D01*
X291299Y-65050D01*
X291510Y-65223D01*
X291720Y-65376D01*
X291912Y-65529D01*
X292064Y-65663D01*
X292198Y-65777D01*
X292313Y-65873D01*
X292390Y-65949D01*
X292428Y-65988D01*
X292447Y-66007D01*
X292925Y-66523D01*
X293365Y-67078D01*
X293729Y-67614D01*
X294035Y-68111D01*
X294169Y-68322D01*
X294284Y-68532D01*
X294379Y-68723D01*
X294456Y-68876D01*
X294532Y-69010D01*
X294571Y-69106D01*
X294590Y-69163D01*
X294609Y-69182D01*
X294858Y-69871D01*
X295049Y-70560D01*
X295183Y-71210D01*
X295240Y-71516D01*
X295278Y-71822D01*
X295317Y-72090D01*
X295336Y-72320D01*
X295355Y-72549D01*
Y-72721D01*
X295374Y-72875D01*
Y-72989D01*
Y-73066D01*
Y-73085D01*
X295336Y-73831D01*
X295259Y-74558D01*
X295202Y-74883D01*
X295125Y-75208D01*
X295068Y-75515D01*
X294991Y-75801D01*
X294915Y-76050D01*
X294858Y-76280D01*
X294781Y-76471D01*
X294724Y-76643D01*
X294685Y-76777D01*
X294647Y-76892D01*
X294609Y-76949D01*
Y-76968D01*
X294284Y-77638D01*
X293939Y-78250D01*
X293576Y-78805D01*
X293404Y-79054D01*
X293231Y-79264D01*
X293078Y-79474D01*
X292925Y-79666D01*
X292792Y-79819D01*
X292677Y-79953D01*
X292581Y-80067D01*
X292505Y-80144D01*
X292466Y-80182D01*
X292447Y-80201D01*
X291912Y-80680D01*
X291357Y-81120D01*
X290821Y-81483D01*
X290324Y-81789D01*
X290094Y-81923D01*
X289884Y-82038D01*
X289692Y-82114D01*
X289539Y-82210D01*
X289405Y-82267D01*
X289310Y-82306D01*
X289252Y-82344D01*
X289233D01*
X288545Y-82593D01*
X287856Y-82784D01*
X287206Y-82918D01*
X286899Y-82975D01*
X286593Y-83013D01*
X286326Y-83052D01*
X286077Y-83071D01*
X285866Y-83090D01*
X285675D01*
X285541Y-83109D01*
X285331D01*
X284566Y-83071D01*
X283858Y-82994D01*
X283188Y-82860D01*
X282901Y-82803D01*
X282614Y-82727D01*
X282347Y-82650D01*
X282117Y-82593D01*
X281926Y-82516D01*
X281753Y-82459D01*
X281620Y-82420D01*
X281505Y-82382D01*
X281447Y-82344D01*
X281428D01*
X280759Y-82038D01*
X280147Y-81694D01*
X279860Y-81502D01*
X279611Y-81330D01*
X279362Y-81158D01*
X279133Y-80986D01*
X278941Y-80833D01*
X278750Y-80680D01*
X278597Y-80546D01*
X278463Y-80431D01*
X278367Y-80335D01*
X278291Y-80259D01*
X278253Y-80221D01*
X278234Y-80201D01*
X277755Y-79666D01*
X277334Y-79111D01*
X276952Y-78575D01*
X276646Y-78078D01*
X276531Y-77848D01*
X276416Y-77638D01*
X276321Y-77447D01*
X276225Y-77294D01*
X276167Y-77160D01*
X276129Y-77064D01*
X276091Y-77007D01*
Y-76987D01*
X275823Y-76299D01*
X275632Y-75610D01*
X275479Y-74960D01*
X275421Y-74654D01*
X275383Y-74348D01*
X275345Y-74080D01*
X275326Y-73831D01*
X275307Y-73621D01*
Y-73429D01*
X275288Y-73295D01*
Y-73181D01*
Y-73104D01*
Y-73085D01*
X275326Y-72320D01*
X275421Y-71593D01*
X275479Y-71249D01*
X275536Y-70942D01*
X275613Y-70636D01*
X275689Y-70349D01*
X275766Y-70101D01*
X275842Y-69871D01*
X275900Y-69661D01*
X275957Y-69508D01*
X276014Y-69355D01*
X276053Y-69259D01*
X276072Y-69202D01*
X276091Y-69182D01*
X276416Y-68532D01*
X276761Y-67920D01*
X277105Y-67384D01*
X277296Y-67136D01*
X277449Y-66906D01*
X277621Y-66715D01*
X277755Y-66523D01*
X277889Y-66370D01*
X278004Y-66256D01*
X278100Y-66141D01*
X278176Y-66064D01*
X278214Y-66026D01*
X278234Y-66007D01*
X278750Y-65509D01*
X279286Y-65089D01*
X279821Y-64725D01*
X280319Y-64400D01*
X280548Y-64285D01*
X280759Y-64170D01*
X280950Y-64075D01*
X281103Y-63979D01*
X281237Y-63922D01*
X281333Y-63884D01*
X281390Y-63845D01*
X281409D01*
X282098Y-63577D01*
X282786Y-63386D01*
X283456Y-63233D01*
X283762Y-63176D01*
X284049Y-63137D01*
X284336Y-63099D01*
X284566Y-63080D01*
X284795Y-63061D01*
X284967D01*
X285120Y-63042D01*
X285331D01*
X286077Y-63080D01*
D02*
G37*
G36*
X269783Y-61651D02*
X265077Y-66752D01*
X264601Y-72754D01*
X269619Y-77904D01*
X269341Y-78150D01*
X264552Y-73246D01*
X264470Y-74378D01*
X264437Y-74689D01*
X264421Y-74837D01*
Y-74952D01*
X264404Y-75050D01*
Y-75132D01*
Y-75181D01*
Y-75198D01*
Y-75329D01*
X264388Y-75427D01*
Y-75493D01*
Y-75558D01*
X264371Y-75591D01*
Y-75608D01*
Y-75624D01*
X264355Y-75706D01*
X264322Y-75772D01*
X264306Y-75804D01*
X264289Y-75821D01*
X264240Y-75854D01*
X264208Y-75870D01*
X264175Y-75886D01*
Y-76510D01*
X263355D01*
Y-75886D01*
X259976D01*
X259812Y-76100D01*
X259632Y-76264D01*
X259435Y-76378D01*
X259238Y-76460D01*
X259074Y-76510D01*
X258927Y-76526D01*
X258828Y-76542D01*
X258795D01*
X258599Y-76526D01*
X258418Y-76477D01*
X258254Y-76411D01*
X258107Y-76346D01*
X257992Y-76280D01*
X257910Y-76214D01*
X257861Y-76165D01*
X257844Y-76149D01*
X257713Y-76001D01*
X257615Y-75837D01*
X257533Y-75673D01*
X257484Y-75509D01*
X257451Y-75378D01*
X257434Y-75280D01*
Y-75214D01*
Y-75181D01*
Y-75017D01*
X254482Y-78215D01*
X254154Y-77953D01*
X258500Y-73246D01*
X257910Y-67047D01*
X256778D01*
Y-65390D01*
X256827D01*
X253220Y-61700D01*
Y-61110D01*
X257418Y-65390D01*
X257762D01*
X257697Y-64587D01*
X257598Y-64636D01*
X257500Y-64669D01*
X257434Y-64685D01*
X257401D01*
X257303Y-64669D01*
X257205Y-64652D01*
X257057Y-64587D01*
X256959Y-64538D01*
X256926Y-64505D01*
X256860Y-64423D01*
X256811Y-64357D01*
X256746Y-64193D01*
Y-64144D01*
X256729Y-64095D01*
Y-64062D01*
Y-64046D01*
X256746Y-63947D01*
X256762Y-63865D01*
X256827Y-63718D01*
X256909Y-63636D01*
X256926Y-63603D01*
X256942D01*
X257024Y-63537D01*
X257090Y-63488D01*
X257238Y-63422D01*
X257303D01*
X257352Y-63406D01*
X257401D01*
X257516Y-63422D01*
X257615Y-63472D01*
X257779Y-63570D01*
X257877Y-63652D01*
X257893Y-63685D01*
X257910Y-63701D01*
X258008Y-63603D01*
X258107Y-63504D01*
X258336Y-63340D01*
X258451Y-63275D01*
X258533Y-63226D01*
X258599Y-63193D01*
X258615Y-63176D01*
X258812Y-63078D01*
X259042Y-62996D01*
X259288Y-62930D01*
X259517Y-62881D01*
X259730Y-62832D01*
X259911Y-62799D01*
X259976D01*
X260026Y-62783D01*
X260075D01*
Y-62570D01*
X262354D01*
Y-62701D01*
X262600Y-62734D01*
X262813Y-62750D01*
X262912Y-62766D01*
X262978D01*
X263010Y-62783D01*
X263027D01*
X263240Y-62816D01*
X263437Y-62848D01*
X263502D01*
X263551Y-62865D01*
X263601D01*
Y-62799D01*
X264437D01*
Y-63127D01*
X264650Y-63242D01*
X264814Y-63357D01*
X264946Y-63455D01*
X265044Y-63554D01*
X265126Y-63636D01*
X265175Y-63701D01*
X265192Y-63734D01*
X265208Y-63750D01*
X265257Y-63849D01*
X265306Y-63931D01*
X265339Y-63996D01*
X265372Y-64029D01*
X265388Y-64078D01*
X265405Y-64095D01*
X265897D01*
Y-64603D01*
X265257D01*
X265126Y-66046D01*
X269783Y-60995D01*
Y-61651D01*
D02*
G37*
G36*
X269210Y-83988D02*
X254696D01*
Y-81823D01*
X269210D01*
Y-83988D01*
D02*
G37*
%LPC*%
G36*
X290075Y-69871D02*
X289123D01*
X287344Y-71653D01*
X287358Y-71688D01*
X287378Y-71765D01*
X287416Y-71822D01*
X287435Y-71861D01*
Y-71880D01*
X287607Y-72090D01*
X287779Y-72224D01*
X287856Y-72282D01*
X287913Y-72320D01*
X287952Y-72339D01*
X287971D01*
X288086Y-72377D01*
X288258Y-72416D01*
X288468Y-72435D01*
X288679Y-72454D01*
X288889Y-72473D01*
X290075D01*
Y-69871D01*
D02*
G37*
G36*
X287612Y-70198D02*
X287588Y-70215D01*
X287531Y-70273D01*
X287512Y-70292D01*
X287492Y-70311D01*
X287486Y-70323D01*
X285745Y-72067D01*
X285752Y-72109D01*
X285828Y-72358D01*
X285905Y-72588D01*
X285924Y-72607D01*
X285943Y-72683D01*
X286000Y-72779D01*
X286077Y-72913D01*
X286081Y-72918D01*
X287344Y-71653D01*
X287320Y-71593D01*
X287301Y-71459D01*
X287282Y-71172D01*
Y-71153D01*
Y-71096D01*
X287301Y-71019D01*
Y-70904D01*
X287339Y-70770D01*
X287378Y-70617D01*
X287416Y-70464D01*
X287486Y-70323D01*
X287612Y-70198D01*
D02*
G37*
G36*
X281926Y-72090D02*
X281830D01*
X281620Y-72109D01*
X281447Y-72167D01*
X281294Y-72243D01*
X281180Y-72320D01*
X281084Y-72416D01*
X281007Y-72492D01*
X280969Y-72549D01*
X280950Y-72569D01*
X280816Y-72779D01*
X280720Y-73047D01*
X280663Y-73315D01*
X280606Y-73582D01*
X280587Y-73831D01*
X280567Y-74041D01*
Y-74118D01*
Y-74175D01*
Y-74214D01*
Y-74233D01*
X280587Y-74634D01*
X280644Y-74960D01*
X280701Y-75247D01*
X280759Y-75457D01*
X280835Y-75629D01*
X280893Y-75725D01*
X280931Y-75801D01*
X280950Y-75821D01*
X281084Y-75993D01*
X281237Y-76108D01*
X281371Y-76203D01*
X281505Y-76261D01*
X281542Y-76276D01*
X283099Y-74717D01*
X283112Y-74634D01*
X283131Y-74405D01*
X283150Y-74214D01*
Y-74137D01*
Y-74080D01*
Y-74061D01*
Y-74041D01*
X283131Y-73697D01*
X283092Y-73391D01*
X283016Y-73142D01*
X282940Y-72932D01*
X282863Y-72779D01*
X282786Y-72664D01*
X282748Y-72588D01*
X282729Y-72569D01*
X282614Y-72416D01*
X282480Y-72301D01*
X282327Y-72205D01*
X282174Y-72148D01*
X282040Y-72109D01*
X281926Y-72090D01*
D02*
G37*
G36*
X284585Y-73229D02*
X283099Y-74717D01*
X283073Y-74883D01*
X283016Y-75151D01*
X282940Y-75400D01*
X282844Y-75629D01*
X282825Y-75668D01*
X282767Y-75744D01*
X282691Y-75859D01*
X282576Y-75993D01*
X282423Y-76127D01*
X282232Y-76241D01*
X282021Y-76299D01*
X281773Y-76318D01*
X281696D01*
X281600Y-76299D01*
X281542Y-76276D01*
X280396Y-77424D01*
X280453Y-77466D01*
X280740Y-77600D01*
X281046Y-77695D01*
X281218Y-77734D01*
X281272D01*
X284585Y-74416D01*
Y-73229D01*
D02*
G37*
G36*
X285503Y-64457D02*
X285331D01*
X284680Y-64496D01*
X284049Y-64572D01*
X283475Y-64668D01*
X283226Y-64744D01*
X282978Y-64802D01*
X282767Y-64859D01*
X282557Y-64936D01*
X282385Y-64993D01*
X282232Y-65031D01*
X282117Y-65089D01*
X282040Y-65108D01*
X281983Y-65146D01*
X281964D01*
X281390Y-65414D01*
X280873Y-65720D01*
X280395Y-66026D01*
X279994Y-66332D01*
X279821Y-66466D01*
X279668Y-66600D01*
X279534Y-66715D01*
X279439Y-66810D01*
X279343Y-66887D01*
X279286Y-66944D01*
X279247Y-66983D01*
X279228Y-67002D01*
X278827Y-67442D01*
X278463Y-67920D01*
X278138Y-68379D01*
X277870Y-68800D01*
X277774Y-68991D01*
X277679Y-69182D01*
X277583Y-69336D01*
X277526Y-69469D01*
X277468Y-69584D01*
X277430Y-69661D01*
X277392Y-69718D01*
Y-69737D01*
X277162Y-70330D01*
X276990Y-70923D01*
X276875Y-71478D01*
X276780Y-71995D01*
X276761Y-72224D01*
X276741Y-72435D01*
X276722Y-72626D01*
Y-72779D01*
X276703Y-72913D01*
Y-73009D01*
Y-73066D01*
Y-73085D01*
X276741Y-73735D01*
X276818Y-74367D01*
X276914Y-74941D01*
X276990Y-75189D01*
X277047Y-75438D01*
X277105Y-75648D01*
X277181Y-75859D01*
X277239Y-76031D01*
X277277Y-76184D01*
X277334Y-76299D01*
X277354Y-76375D01*
X277392Y-76433D01*
Y-76452D01*
X277660Y-77026D01*
X277966Y-77542D01*
X278272Y-78021D01*
X278559Y-78422D01*
X278712Y-78594D01*
X278827Y-78747D01*
X278941Y-78881D01*
X280396Y-77424D01*
X280223Y-77294D01*
X280013Y-77121D01*
X279879Y-76968D01*
X279783Y-76854D01*
X279745Y-76834D01*
Y-76815D01*
X279515Y-76433D01*
X279343Y-76012D01*
X279209Y-75553D01*
X279133Y-75132D01*
X279075Y-74749D01*
X279056Y-74577D01*
Y-74443D01*
X279037Y-74329D01*
Y-74233D01*
Y-74175D01*
Y-74156D01*
Y-73850D01*
X279075Y-73563D01*
X279094Y-73276D01*
X279152Y-73028D01*
X279190Y-72798D01*
X279247Y-72588D01*
X279324Y-72396D01*
X279381Y-72224D01*
X279439Y-72071D01*
X279515Y-71937D01*
X279573Y-71822D01*
X279611Y-71746D01*
X279668Y-71669D01*
X279687Y-71612D01*
X279726Y-71593D01*
Y-71574D01*
X279860Y-71421D01*
X279994Y-71287D01*
X280261Y-71057D01*
X280548Y-70904D01*
X280816Y-70809D01*
X281046Y-70732D01*
X281237Y-70713D01*
X281313Y-70694D01*
X281581D01*
X281753Y-70732D01*
X282079Y-70828D01*
X282366Y-70981D01*
X282614Y-71153D01*
X282806Y-71325D01*
X282959Y-71478D01*
X283054Y-71593D01*
X283092Y-71612D01*
Y-68283D01*
X284585D01*
Y-73229D01*
X285745Y-72067D01*
X285713Y-71880D01*
X285694Y-71650D01*
X285675Y-71440D01*
X285656Y-71287D01*
Y-71172D01*
Y-71134D01*
X285675Y-70751D01*
X285733Y-70407D01*
X285790Y-70101D01*
X285866Y-69833D01*
X285962Y-69622D01*
X286019Y-69469D01*
X286077Y-69374D01*
X286096Y-69336D01*
X286268Y-69106D01*
X286440Y-68896D01*
X286632Y-68743D01*
X286823Y-68628D01*
X286976Y-68532D01*
X287110Y-68475D01*
X287186Y-68456D01*
X287225Y-68436D01*
X287320Y-68417D01*
X287416Y-68379D01*
X287684Y-68341D01*
X288009Y-68322D01*
X288315Y-68303D01*
X288621Y-68283D01*
X289523D01*
X291113Y-66691D01*
X291452Y-67002D01*
X291472Y-67021D01*
X291510Y-67059D01*
X291567Y-67116D01*
X291644Y-67212D01*
X291711Y-67279D01*
X290709Y-68283D01*
X289523D01*
X287612Y-70198D01*
X287665Y-70158D01*
X287760Y-70082D01*
X287894Y-70024D01*
X288028Y-69967D01*
X288181Y-69929D01*
X288200Y-69909D01*
X288277Y-69890D01*
X288411Y-69871D01*
X289123D01*
X290709Y-68283D01*
X291663D01*
Y-77581D01*
X290075D01*
Y-74041D01*
X288640D01*
X288296Y-74022D01*
X287990Y-74003D01*
X287760Y-73984D01*
X287588Y-73965D01*
X287473Y-73946D01*
X287397Y-73927D01*
X287378D01*
X287052Y-73793D01*
X286919Y-73735D01*
X286804Y-73659D01*
X286708Y-73582D01*
X286632Y-73544D01*
X286593Y-73506D01*
X286574Y-73487D01*
X286421Y-73353D01*
X286287Y-73200D01*
X286173Y-73047D01*
X286081Y-72918D01*
X284585Y-74416D01*
Y-77581D01*
X283188D01*
Y-76586D01*
X283035Y-76796D01*
X282901Y-76968D01*
X282767Y-77102D01*
X282633Y-77236D01*
X282519Y-77332D01*
X282442Y-77389D01*
X282385Y-77428D01*
X282366Y-77447D01*
X282193Y-77542D01*
X282002Y-77619D01*
X281849Y-77657D01*
X281696Y-77695D01*
X281581Y-77715D01*
X281467Y-77734D01*
X281272D01*
X279521Y-79487D01*
X279228Y-79207D01*
X279209Y-79188D01*
X279171Y-79149D01*
X279114Y-79092D01*
X279037Y-78996D01*
X278941Y-78881D01*
X278941Y-78881D01*
X278329Y-79494D01*
X278922Y-80087D01*
X279521Y-79487D01*
X279668Y-79628D01*
X280147Y-79991D01*
X280606Y-80297D01*
X281027Y-80565D01*
X281218Y-80680D01*
X281409Y-80775D01*
X281562Y-80852D01*
X281696Y-80928D01*
X281811Y-80967D01*
X281887Y-81005D01*
X281945Y-81043D01*
X281964D01*
X282557Y-81273D01*
X283150Y-81426D01*
X283724Y-81541D01*
X284240Y-81636D01*
X284470Y-81655D01*
X284680Y-81674D01*
X284872Y-81694D01*
X285025D01*
X285159Y-81713D01*
X285331D01*
X285981Y-81674D01*
X286613Y-81598D01*
X287186Y-81502D01*
X287435Y-81445D01*
X287684Y-81368D01*
X287894Y-81311D01*
X288105Y-81253D01*
X288277Y-81196D01*
X288430Y-81139D01*
X288545Y-81100D01*
X288621Y-81062D01*
X288679Y-81043D01*
X288698D01*
X289271Y-80775D01*
X289788Y-80469D01*
X290266Y-80163D01*
X290668Y-79876D01*
X290840Y-79742D01*
X290993Y-79608D01*
X291127Y-79494D01*
X291242Y-79398D01*
X291338Y-79321D01*
X291395Y-79264D01*
X291433Y-79226D01*
X291452Y-79207D01*
X291873Y-78747D01*
X292237Y-78288D01*
X292543Y-77829D01*
X292811Y-77389D01*
X292925Y-77198D01*
X293021Y-77007D01*
X293097Y-76854D01*
X293174Y-76720D01*
X293212Y-76605D01*
X293251Y-76528D01*
X293289Y-76471D01*
Y-76452D01*
X293518Y-75859D01*
X293671Y-75247D01*
X293786Y-74692D01*
X293882Y-74175D01*
X293901Y-73946D01*
X293920Y-73735D01*
X293939Y-73544D01*
Y-73391D01*
X293958Y-73257D01*
Y-73162D01*
Y-73104D01*
Y-73085D01*
X293920Y-72435D01*
X293844Y-71803D01*
X293748Y-71249D01*
X293691Y-70981D01*
X293614Y-70751D01*
X293557Y-70522D01*
X293499Y-70330D01*
X293442Y-70158D01*
X293385Y-70005D01*
X293346Y-69890D01*
X293308Y-69814D01*
X293289Y-69756D01*
Y-69737D01*
X293021Y-69163D01*
X292715Y-68647D01*
X292409Y-68169D01*
X292122Y-67767D01*
X291988Y-67595D01*
X291854Y-67442D01*
X291739Y-67308D01*
X291711Y-67279D01*
X292313Y-66676D01*
X291739Y-66064D01*
X291113Y-66691D01*
X290993Y-66581D01*
X290534Y-66217D01*
X290075Y-65892D01*
X289635Y-65643D01*
X289444Y-65529D01*
X289252Y-65433D01*
X289099Y-65337D01*
X288966Y-65280D01*
X288851Y-65223D01*
X288774Y-65184D01*
X288717Y-65146D01*
X288698D01*
X288105Y-64916D01*
X287492Y-64744D01*
X286938Y-64630D01*
X286421Y-64534D01*
X286192Y-64515D01*
X285981Y-64496D01*
X285790Y-64477D01*
X285637D01*
X285503Y-64457D01*
D02*
G37*
G36*
X261928Y-62947D02*
X260468D01*
Y-63291D01*
X261928D01*
Y-62947D01*
D02*
G37*
G36*
X262469Y-63176D02*
X262354D01*
Y-63652D01*
X260075D01*
Y-63226D01*
X259861Y-63258D01*
X259665Y-63308D01*
X259501Y-63340D01*
X259353Y-63373D01*
X259238Y-63406D01*
X259156Y-63439D01*
X259107Y-63455D01*
X259091D01*
X258960Y-63504D01*
X258845Y-63537D01*
X258746Y-63586D01*
X258664Y-63619D01*
X258599Y-63652D01*
X258549Y-63685D01*
X258533Y-63701D01*
X258517D01*
X258385Y-63800D01*
X258303Y-63865D01*
X258254Y-63931D01*
X258238Y-63947D01*
X258189Y-64013D01*
X258156Y-64062D01*
X258139Y-64078D01*
Y-64095D01*
X263601D01*
Y-63340D01*
X263404Y-63291D01*
X263191Y-63258D01*
X262978Y-63226D01*
X262781Y-63209D01*
X262617Y-63193D01*
X262469Y-63176D01*
D02*
G37*
G36*
X264454Y-63652D02*
X264437D01*
Y-64095D01*
X264880D01*
X264863Y-64046D01*
X264831Y-63980D01*
X264814Y-63931D01*
X264798Y-63914D01*
X264700Y-63816D01*
X264585Y-63734D01*
X264486Y-63668D01*
X264454Y-63652D01*
D02*
G37*
G36*
X257205Y-65768D02*
Y-66670D01*
X257861D01*
Y-66440D01*
X257205Y-65768D01*
D02*
G37*
G36*
X264814Y-64603D02*
X258123D01*
X258172Y-65390D01*
X258402D01*
Y-66424D01*
X259550Y-67572D01*
Y-67030D01*
X262403D01*
Y-67965D01*
X259911D01*
X261698Y-69802D01*
X264650Y-66588D01*
X264814Y-64603D01*
D02*
G37*
G36*
X264601Y-67260D02*
X261977Y-70081D01*
X264175Y-72311D01*
X264601Y-67260D01*
D02*
G37*
G36*
X258402Y-66981D02*
Y-67047D01*
X258353D01*
X258845Y-72852D01*
X261436Y-70081D01*
X258402Y-66981D01*
D02*
G37*
G36*
X261715Y-70360D02*
X258894Y-73410D01*
X258943Y-73836D01*
X259140Y-73869D01*
X259304Y-73918D01*
X259468Y-73984D01*
X259599Y-74066D01*
X259698Y-74132D01*
X259780Y-74181D01*
X259829Y-74230D01*
X259845Y-74246D01*
X259960Y-74394D01*
X260042Y-74542D01*
X260107Y-74706D01*
X260140Y-74853D01*
X260173Y-74984D01*
X260190Y-75083D01*
Y-75148D01*
Y-75181D01*
Y-75263D01*
Y-75280D01*
Y-75296D01*
X260173Y-75362D01*
Y-75378D01*
Y-75394D01*
X263929D01*
X264109Y-72852D01*
X261715Y-70360D01*
D02*
G37*
G36*
X258845Y-74427D02*
X258795D01*
X258681Y-74443D01*
X258599Y-74460D01*
X258435Y-74542D01*
X258369Y-74591D01*
X258320Y-74624D01*
X258303Y-74640D01*
X258287Y-74656D01*
X258222Y-74738D01*
X258156Y-74820D01*
X258107Y-75001D01*
X258090Y-75066D01*
X258074Y-75132D01*
Y-75165D01*
Y-75181D01*
X258090Y-75296D01*
X258107Y-75394D01*
X258172Y-75558D01*
X258222Y-75624D01*
X258254Y-75657D01*
X258271Y-75690D01*
X258287Y-75706D01*
X258369Y-75772D01*
X258451Y-75821D01*
X258615Y-75886D01*
X258697Y-75903D01*
X258746Y-75919D01*
X258795D01*
X258910Y-75903D01*
X259009Y-75886D01*
X259189Y-75804D01*
X259255Y-75772D01*
X259288Y-75739D01*
X259320Y-75722D01*
X259337Y-75706D01*
X259402Y-75624D01*
X259452Y-75526D01*
X259517Y-75362D01*
X259534Y-75280D01*
X259550Y-75230D01*
Y-75198D01*
Y-75181D01*
X259534Y-75066D01*
X259517Y-74968D01*
X259435Y-74804D01*
X259386Y-74738D01*
X259353Y-74689D01*
X259337Y-74673D01*
X259320Y-74656D01*
X259238Y-74574D01*
X259140Y-74525D01*
X258976Y-74460D01*
X258894Y-74443D01*
X258845Y-74427D01*
D02*
G37*
%LPD*%
G36*
X258927Y-74738D02*
X259042Y-74788D01*
X259123Y-74837D01*
X259156Y-74853D01*
X259238Y-74952D01*
X259288Y-75066D01*
X259304Y-75148D01*
Y-75165D01*
Y-75181D01*
X259288Y-75312D01*
X259222Y-75427D01*
X259173Y-75493D01*
X259156Y-75526D01*
X259025Y-75608D01*
X258910Y-75657D01*
X258828Y-75673D01*
X258795D01*
X258648Y-75640D01*
X258533Y-75575D01*
X258468Y-75493D01*
X258402Y-75411D01*
X258369Y-75329D01*
X258353Y-75247D01*
Y-75198D01*
Y-75181D01*
X258369Y-75050D01*
X258418Y-74935D01*
X258468Y-74870D01*
X258484Y-74853D01*
X258582Y-74771D01*
X258681Y-74738D01*
X258763Y-74722D01*
X258795D01*
X258927Y-74738D01*
D02*
G37*
D10*
X338671Y-120235D02*
G03*
X338671Y-120235I-3828J0D01*
G01*
Y-134077D02*
G03*
X338671Y-134077I-3828J0D01*
G01*
X328829D02*
G03*
X328829Y-134077I-3828J0D01*
G01*
Y-120235D02*
G03*
X328829Y-120235I-3828J0D01*
G01*
Y-106394D02*
G03*
X328829Y-106394I-3828J0D01*
G01*
X338671D02*
G03*
X338671Y-106394I-3828J0D01*
G01*
X328829Y-92894D02*
G03*
X328829Y-92894I-3828J0D01*
G01*
X338671D02*
G03*
X338671Y-92894I-3828J0D01*
G01*
X328829Y-78894D02*
G03*
X328829Y-78894I-3828J0D01*
G01*
X338671D02*
G03*
X338671Y-78894I-3828J0D01*
G01*
X328829Y-65394D02*
G03*
X328829Y-65394I-3828J0D01*
G01*
X338671D02*
G03*
X338671Y-65394I-3828J0D01*
G01*
X328829Y-51394D02*
G03*
X328829Y-51394I-3828J0D01*
G01*
X338671D02*
G03*
X338671Y-51394I-3828J0D01*
G01*
Y-37894D02*
G03*
X338671Y-37894I-3828J0D01*
G01*
X328829D02*
G03*
X328829Y-37894I-3828J0D01*
G01*
X59242Y-41929D02*
G03*
X59242Y-41929I-3828J0D01*
G01*
X69084D02*
G03*
X69084Y-41929I-3828J0D01*
G01*
X59242Y-55709D02*
G03*
X59242Y-55709I-3828J0D01*
G01*
X69084D02*
G03*
X69084Y-55709I-3828J0D01*
G01*
X59242Y-69488D02*
G03*
X59242Y-69488I-3828J0D01*
G01*
X69084D02*
G03*
X69084Y-69488I-3828J0D01*
G01*
X59242Y-83268D02*
G03*
X59242Y-83268I-3828J0D01*
G01*
X69084D02*
G03*
X69084Y-83268I-3828J0D01*
G01*
X59242Y-97047D02*
G03*
X59242Y-97047I-3828J0D01*
G01*
X69084D02*
G03*
X69084Y-97047I-3828J0D01*
G01*
X59242Y-110827D02*
G03*
X59242Y-110827I-3828J0D01*
G01*
X69084D02*
G03*
X69084Y-110827I-3828J0D01*
G01*
Y-124327D02*
G03*
X69084Y-124327I-3828J0D01*
G01*
X59242D02*
G03*
X59242Y-124327I-3828J0D01*
G01*
X69084Y-138327D02*
G03*
X69084Y-138327I-3828J0D01*
G01*
X59242D02*
G03*
X59242Y-138327I-3828J0D01*
G01*
X69084Y-151827D02*
G03*
X69084Y-151827I-3828J0D01*
G01*
X59242D02*
G03*
X59242Y-151827I-3828J0D01*
G01*
X69084Y-165827D02*
G03*
X69084Y-165827I-3828J0D01*
G01*
X59242D02*
G03*
X59242Y-165827I-3828J0D01*
G01*
X69084Y-179327D02*
G03*
X69084Y-179327I-3828J0D01*
G01*
X59242D02*
G03*
X59242Y-179327I-3828J0D01*
G01*
X69084Y-193327D02*
G03*
X69084Y-193327I-3828J0D01*
G01*
X59242D02*
G03*
X59242Y-193327I-3828J0D01*
G01*
X294390Y-51476D02*
Y-47541D01*
X292422D01*
X291766Y-48197D01*
Y-49509D01*
X292422Y-50165D01*
X294390D01*
X293078D02*
X291766Y-51476D01*
X290454Y-47541D02*
Y-51476D01*
Y-49509D01*
X287830D01*
Y-47541D01*
Y-51476D01*
X286518Y-47541D02*
Y-51476D01*
X284550D01*
X283894Y-50820D01*
Y-50165D01*
X284550Y-49509D01*
X286518D01*
X284550D01*
X283894Y-48853D01*
Y-48197D01*
X284550Y-47541D01*
X286518D01*
X282582Y-51476D02*
Y-50820D01*
X281927D01*
Y-51476D01*
X282582D01*
X279303D02*
Y-47541D01*
X277335D01*
X276679Y-48197D01*
Y-49509D01*
X277335Y-50165D01*
X279303D01*
X275367Y-47541D02*
Y-51476D01*
X272743D01*
X271431D02*
Y-50820D01*
X270775D01*
Y-51476D01*
X271431D01*
X268151Y-48197D02*
X267495Y-47541D01*
X266184D01*
X265528Y-48197D01*
Y-50820D01*
X266184Y-51476D01*
X267495D01*
X268151Y-50820D01*
Y-48197D01*
X264216D02*
X263560Y-47541D01*
X262248D01*
X261592Y-48197D01*
Y-50820D01*
X262248Y-51476D01*
X263560D01*
X264216Y-50820D01*
Y-48197D01*
X260280D02*
X259624Y-47541D01*
X258312D01*
X257656Y-48197D01*
Y-50820D01*
X258312Y-51476D01*
X259624D01*
X260280Y-50820D01*
Y-48197D01*
X256344D02*
X255688Y-47541D01*
X254376D01*
X253720Y-48197D01*
Y-50820D01*
X254376Y-51476D01*
X255688D01*
X256344Y-50820D01*
Y-48197D01*
X252409Y-51476D02*
X251097D01*
X251753D01*
Y-47541D01*
X252409Y-48197D01*
X294291Y-40356D02*
Y-44291D01*
X292323D01*
X291668Y-43635D01*
Y-42979D01*
X292323Y-42323D01*
X294291D01*
X292323D01*
X291668Y-41668D01*
Y-41012D01*
X292323Y-40356D01*
X294291D01*
X289700Y-41668D02*
X288388D01*
X287732Y-42323D01*
Y-44291D01*
X289700D01*
X290356Y-43635D01*
X289700Y-42979D01*
X287732D01*
X286420Y-41668D02*
Y-44291D01*
Y-42979D01*
X285764Y-42323D01*
X285108Y-41668D01*
X284452D01*
X280516Y-44291D02*
X281828D01*
X282484Y-43635D01*
Y-42323D01*
X281828Y-41668D01*
X280516D01*
X279860Y-42323D01*
Y-42979D01*
X282484D01*
X278548Y-44291D02*
Y-40356D01*
X277237Y-41668D01*
X275925Y-40356D01*
Y-44291D01*
X272645D02*
X273957D01*
X274613Y-43635D01*
Y-42323D01*
X273957Y-41668D01*
X272645D01*
X271989Y-42323D01*
Y-42979D01*
X274613D01*
X270021Y-41012D02*
Y-41668D01*
X270677D01*
X269365D01*
X270021D01*
Y-43635D01*
X269365Y-44291D01*
X266741Y-41668D02*
X265429D01*
X264773Y-42323D01*
Y-44291D01*
X266741D01*
X267397Y-43635D01*
X266741Y-42979D01*
X264773D01*
X263461Y-44291D02*
X262150D01*
X262805D01*
Y-40356D01*
X263461D01*
X256246Y-44291D02*
Y-40356D01*
X254278D01*
X253622Y-41012D01*
Y-42323D01*
X254278Y-42979D01*
X256246D01*
X252310Y-40356D02*
Y-44291D01*
X249686D01*
X245751Y-41012D02*
X246407Y-40356D01*
X247718D01*
X248374Y-41012D01*
Y-43635D01*
X247718Y-44291D01*
X246407D01*
X245751Y-43635D01*
X240503Y-42323D02*
X237879D01*
X232631Y-44291D02*
Y-40356D01*
X231319Y-41668D01*
X230008Y-40356D01*
Y-44291D01*
X294488Y-54726D02*
Y-58661D01*
Y-56694D01*
X291864D01*
Y-54726D01*
Y-58661D01*
X290552Y-54726D02*
Y-58661D01*
X289241Y-57349D01*
X287929Y-58661D01*
Y-54726D01*
X282681Y-55382D02*
X282025Y-54726D01*
X280713D01*
X280057Y-55382D01*
Y-58005D01*
X280713Y-58661D01*
X282025D01*
X282681Y-58005D01*
Y-55382D01*
X278745Y-58661D02*
Y-58005D01*
X278089D01*
Y-58661D01*
X278745D01*
X275465D02*
X274153D01*
X274810D01*
Y-54726D01*
X275465Y-55382D01*
X272186Y-58661D02*
Y-58005D01*
X271530D01*
Y-58661D01*
X272186D01*
X268906D02*
X267594D01*
X268250D01*
Y-54726D01*
X268906Y-55382D01*
D20*
X275051Y-33165D02*
X282651D01*
X274951Y-33265D02*
X282651D01*
X274951Y-33365D02*
X282551D01*
X274851Y-33465D02*
X282551D01*
X274851Y-33565D02*
X282451D01*
X274751Y-33665D02*
X282451D01*
X274651Y-33765D02*
X282351D01*
X274651Y-33865D02*
X282351D01*
X274551Y-33965D02*
X282251D01*
X274551Y-34065D02*
X282251D01*
X274451Y-34165D02*
X282151D01*
X274451Y-34265D02*
X282151D01*
X274351Y-34365D02*
X282051D01*
X274351Y-34465D02*
X282051D01*
X274251Y-34565D02*
X281951D01*
X274251Y-34665D02*
X281951D01*
X273351Y-27065D02*
X294551D01*
X282951Y-19965D02*
X283351D01*
X282851Y-19665D02*
X283451D01*
X282951Y-19765D02*
X283351D01*
X282951Y-19865D02*
X283351D01*
X282951Y-20365D02*
X283351D01*
X282951Y-20265D02*
X283351D01*
X282951Y-20165D02*
X283351D01*
X282951Y-20065D02*
X283351D01*
X282651Y-19465D02*
X283551D01*
X282751Y-19565D02*
X283451D01*
X275951Y-31465D02*
X284351D01*
X274051Y-19465D02*
X282151D01*
X273951Y-19565D02*
X282051D01*
X273851Y-19665D02*
X282051D01*
X273751Y-19765D02*
X281951D01*
X273651Y-19865D02*
X281951D01*
X273651Y-19965D02*
X281951D01*
X273551Y-20065D02*
X281951D01*
X273451Y-20265D02*
X281951D01*
X273451Y-20165D02*
X281951D01*
X273351Y-20365D02*
X281951D01*
X273351Y-26965D02*
X281851D01*
X273351Y-26865D02*
X281551D01*
X273251Y-26765D02*
X281351D01*
X273251Y-26665D02*
X281251D01*
X273251Y-26565D02*
X281151D01*
X273251Y-26465D02*
X281051D01*
X273251Y-26365D02*
X280951D01*
X273151Y-26265D02*
X280851D01*
X273151Y-26165D02*
X280851D01*
X273151Y-25965D02*
X280751D01*
X273351Y-20465D02*
X280551D01*
X273251Y-20765D02*
X280551D01*
X273251Y-20665D02*
X280551D01*
X273251Y-20565D02*
X280551D01*
X273251Y-20865D02*
X280551D01*
X273251Y-20965D02*
X280551D01*
X273151Y-22765D02*
X280551D01*
X273151Y-22065D02*
X280551D01*
X273151Y-21765D02*
X280551D01*
X273151Y-21865D02*
X280551D01*
X273151Y-21965D02*
X280551D01*
X273151Y-21665D02*
X280551D01*
X273151Y-22365D02*
X280551D01*
X273151Y-21565D02*
X280551D01*
X273151Y-21365D02*
X280551D01*
X273151Y-21265D02*
X280551D01*
X273151Y-22165D02*
X280551D01*
X273151Y-21465D02*
X280551D01*
X273151Y-22265D02*
X280551D01*
X273151Y-21165D02*
X280551D01*
X273151Y-21065D02*
X280551D01*
X273151Y-22465D02*
X280551D01*
X273151Y-22565D02*
X280551D01*
X273151Y-22665D02*
X280551D01*
X273151Y-22865D02*
X280551D01*
X273151Y-22965D02*
X280551D01*
X273151Y-26065D02*
X280751D01*
X273151Y-25565D02*
X280651D01*
X273151Y-25765D02*
X280651D01*
X273151Y-25865D02*
X280651D01*
X273151Y-25665D02*
X280651D01*
X273151Y-23065D02*
X280551D01*
X273151Y-23165D02*
X280551D01*
X273151Y-23265D02*
X280551D01*
X273151Y-23365D02*
X280551D01*
X273151Y-23465D02*
X280551D01*
X273151Y-23565D02*
X280551D01*
X273151Y-23665D02*
X280551D01*
X273151Y-23765D02*
X280551D01*
X273151Y-23865D02*
X280551D01*
X273151Y-23965D02*
X280551D01*
X273151Y-24065D02*
X280551D01*
X273151Y-24165D02*
X280551D01*
X273151Y-24265D02*
X280551D01*
X273151Y-24365D02*
X280551D01*
X273151Y-24465D02*
X280551D01*
X273151Y-24565D02*
X280551D01*
X273151Y-24665D02*
X280551D01*
X273151Y-24765D02*
X280551D01*
X273151Y-24865D02*
X280551D01*
X273151Y-24965D02*
X280551D01*
X273151Y-25065D02*
X280551D01*
X273151Y-25165D02*
X280551D01*
X273151Y-25265D02*
X280551D01*
X273151Y-25365D02*
X280551D01*
X273151Y-25465D02*
X280551D01*
X274151Y-34765D02*
X281951D01*
X274051Y-34865D02*
X281851D01*
X274051Y-34965D02*
X281851D01*
X273951Y-35065D02*
X281751D01*
X273951Y-35165D02*
X281751D01*
X273951Y-35265D02*
X281651D01*
X273851Y-35365D02*
X281651D01*
X273851Y-35465D02*
X281551D01*
X273851Y-35565D02*
X281551D01*
X273851Y-35665D02*
X281451D01*
X273851Y-35765D02*
X281451D01*
X273851Y-35865D02*
X281351D01*
X273851Y-35965D02*
X281351D01*
X273851Y-36165D02*
X281251D01*
X273851Y-36065D02*
X281251D01*
X273851Y-36365D02*
X281151D01*
X275351Y-37965D02*
X279551D01*
X273851Y-36265D02*
X281151D01*
X274051Y-36865D02*
X280951D01*
X273851Y-36465D02*
X281051D01*
X273851Y-36565D02*
X281051D01*
X273951Y-36665D02*
X280951D01*
X273951Y-36765D02*
X280951D01*
X274051Y-36965D02*
X280851D01*
X274151Y-37065D02*
X280751D01*
X274151Y-37165D02*
X280751D01*
X274251Y-37265D02*
X280651D01*
X274351Y-37365D02*
X280551D01*
X274451Y-37465D02*
X280451D01*
X274551Y-37565D02*
X280351D01*
X274651Y-37665D02*
X280251D01*
X274851Y-37765D02*
X280051D01*
X275051Y-37865D02*
X279851D01*
X275851Y-31565D02*
X284051D01*
X275851Y-31665D02*
X283851D01*
X275751Y-31765D02*
X283651D01*
X275751Y-31865D02*
X283551D01*
X275651Y-31965D02*
X283351D01*
X275651Y-32065D02*
X283251D01*
X275551Y-32165D02*
X283251D01*
X275551Y-32265D02*
X283151D01*
X275451Y-32365D02*
X283051D01*
X275351Y-32465D02*
X283051D01*
X275351Y-32565D02*
X282951D01*
X275251Y-32665D02*
X282951D01*
X275251Y-32765D02*
X282851D01*
X275151Y-32865D02*
X282851D01*
X275151Y-32965D02*
X282751D01*
X275051Y-33065D02*
X282751D01*
X288151Y-22465D02*
X294551D01*
X288151Y-22565D02*
X294551D01*
X288051Y-22665D02*
X294551D01*
X288151Y-23565D02*
X294551D01*
X288151Y-23665D02*
X294551D01*
X288151Y-23765D02*
X294551D01*
X288151Y-23865D02*
X294551D01*
X288151Y-23965D02*
X294551D01*
X288051Y-24065D02*
X294551D01*
X288151Y-24965D02*
X294551D01*
X288151Y-25065D02*
X294551D01*
X288151Y-25165D02*
X294551D01*
X288151Y-25265D02*
X294551D01*
X288151Y-25365D02*
X294551D01*
X287151Y-21465D02*
X294551D01*
X287151Y-21565D02*
X294551D01*
X287151Y-21665D02*
X294551D01*
X287151Y-21765D02*
X294551D01*
X287151Y-21865D02*
X294551D01*
X287951Y-21965D02*
X294551D01*
X287951Y-22765D02*
X294551D01*
X287151Y-22865D02*
X294551D01*
X287151Y-22965D02*
X294551D01*
X287151Y-23065D02*
X294551D01*
X287951Y-23365D02*
X294551D01*
X288051Y-23465D02*
X294551D01*
X287951Y-24165D02*
X294551D01*
X287151Y-24265D02*
X294551D01*
X287151Y-24365D02*
X294551D01*
X287151Y-24465D02*
X294551D01*
X287151Y-24565D02*
X294551D01*
X287151Y-24665D02*
X294551D01*
X287951Y-24765D02*
X294551D01*
X288051Y-24865D02*
X294551D01*
X288051Y-25465D02*
X294551D01*
X287951Y-25565D02*
X294551D01*
X287151Y-25665D02*
X294551D01*
X287151Y-25765D02*
X294551D01*
X287151Y-25865D02*
X294551D01*
X287151Y-25965D02*
X294551D01*
X287151Y-26065D02*
X294551D01*
X287151Y-26165D02*
X294551D01*
X287151Y-26265D02*
X294551D01*
X287151Y-26365D02*
X294551D01*
X287151Y-26465D02*
X294551D01*
X287151Y-26565D02*
X294551D01*
X287151Y-26665D02*
X294551D01*
X287151Y-26765D02*
X294551D01*
X287151Y-26865D02*
X294551D01*
X287151Y-26965D02*
X294551D01*
X287151Y-34065D02*
X294551D01*
X287151Y-21365D02*
X294551D01*
X287151Y-23165D02*
X294551D01*
X287151Y-23265D02*
X294551D01*
X276051Y-30265D02*
X294551D01*
X276051Y-30365D02*
X294551D01*
X276051Y-30465D02*
X294551D01*
X276051Y-30565D02*
X294551D01*
X276051Y-30665D02*
X294551D01*
X276051Y-30765D02*
X294551D01*
X276051Y-30865D02*
X294551D01*
X276051Y-30965D02*
X294551D01*
X276051Y-31065D02*
X294551D01*
X276051Y-31165D02*
X294551D01*
X276051Y-31265D02*
X294551D01*
X285451Y-31465D02*
X294551D01*
X285851Y-31565D02*
X294551D01*
X286051Y-31665D02*
X294551D01*
X286251Y-31765D02*
X294551D01*
X286351Y-31865D02*
X294551D01*
X286451Y-31965D02*
X294551D01*
X286551Y-32065D02*
X294551D01*
X286651Y-32165D02*
X294551D01*
X286751Y-32265D02*
X294551D01*
X286751Y-32365D02*
X294551D01*
X286851Y-32465D02*
X294551D01*
X286951Y-32565D02*
X294551D01*
X286951Y-32665D02*
X294551D01*
X286951Y-32765D02*
X294551D01*
X287051Y-32865D02*
X294551D01*
X287051Y-32965D02*
X294551D01*
X287051Y-33065D02*
X294551D01*
X287051Y-33165D02*
X294551D01*
X273451Y-27165D02*
X294551D01*
X273551Y-27265D02*
X294551D01*
X273551Y-27365D02*
X294551D01*
X273651Y-27465D02*
X294551D01*
X273751Y-27565D02*
X294551D01*
X273851Y-27665D02*
X294551D01*
X273951Y-27765D02*
X294551D01*
X274051Y-27865D02*
X294551D01*
X274151Y-27965D02*
X294551D01*
X274251Y-28065D02*
X294551D01*
X274351Y-28165D02*
X294551D01*
X274451Y-28265D02*
X294551D01*
X274551Y-28365D02*
X294551D01*
X274651Y-28465D02*
X294551D01*
X274751Y-28565D02*
X294551D01*
X274851Y-28665D02*
X294551D01*
X274951Y-28765D02*
X294551D01*
X275051Y-28865D02*
X294551D01*
X275151Y-28965D02*
X294551D01*
X275251Y-29065D02*
X294551D01*
X275351Y-29165D02*
X294551D01*
X275451Y-29265D02*
X294551D01*
X275551Y-29365D02*
X294551D01*
X275651Y-29465D02*
X294551D01*
X275751Y-29565D02*
X294551D01*
X275751Y-29665D02*
X294551D01*
X275851Y-29765D02*
X294551D01*
X275851Y-29865D02*
X294551D01*
X275951Y-29965D02*
X294551D01*
X275951Y-30065D02*
X294551D01*
X276051Y-30165D02*
X294551D01*
X275951Y-31365D02*
X294551D01*
X287051Y-33265D02*
X294551D01*
X287151Y-33365D02*
X294551D01*
X287151Y-33465D02*
X294551D01*
X287151Y-33565D02*
X294551D01*
X287151Y-33665D02*
X294551D01*
X287151Y-33765D02*
X294551D01*
X287151Y-33865D02*
X294551D01*
X287151Y-33965D02*
X294551D01*
X287151Y-34165D02*
X294551D01*
X287151Y-34265D02*
X294551D01*
X287151Y-34365D02*
X294551D01*
X287151Y-34465D02*
X294551D01*
X287151Y-34565D02*
X294551D01*
X287151Y-34665D02*
X294551D01*
X287151Y-34765D02*
X294551D01*
X287151Y-34865D02*
X294551D01*
X287151Y-34965D02*
X294551D01*
X287151Y-35065D02*
X294551D01*
X287151Y-35165D02*
X294551D01*
X287151Y-35265D02*
X294551D01*
X287151Y-35365D02*
X294551D01*
X287151Y-35465D02*
X294551D01*
X287151Y-35565D02*
X294551D01*
X287151Y-35665D02*
X294551D01*
X287151Y-35765D02*
X294551D01*
X287151Y-35865D02*
X294551D01*
X287151Y-35965D02*
X294551D01*
X287151Y-36065D02*
X294551D01*
X287151Y-36165D02*
X294551D01*
X287451Y-37065D02*
X294251D01*
X287951Y-37665D02*
X293651D01*
X288351Y-37865D02*
X293251D01*
X287151Y-36365D02*
X294451D01*
X287851Y-37565D02*
X293751D01*
X287251Y-36665D02*
X294351D01*
X288151Y-37765D02*
X293451D01*
X287451Y-37165D02*
X294151D01*
X287151Y-36465D02*
X294451D01*
X287551Y-37265D02*
X294051D01*
X287151Y-36565D02*
X294451D01*
X287351Y-36965D02*
X294251D01*
X287651Y-37365D02*
X293951D01*
X287751Y-37465D02*
X293851D01*
X287151Y-36265D02*
X294451D01*
X287251Y-36765D02*
X294351D01*
X288651Y-37965D02*
X292951D01*
X287251Y-36865D02*
X294351D01*
X288051Y-22065D02*
X294551D01*
X288151Y-22165D02*
X294551D01*
X288151Y-22265D02*
X294551D01*
X288151Y-22365D02*
X294551D01*
X284051Y-19465D02*
X284951D01*
X284151Y-19565D02*
X284851D01*
X284251Y-19665D02*
X284751D01*
X284251Y-19765D02*
X284751D01*
X284351Y-19865D02*
X284751D01*
X284351Y-19965D02*
X284751D01*
X284351Y-20065D02*
X284751D01*
X284351Y-20165D02*
X284751D01*
X284351Y-20265D02*
X284751D01*
X284351Y-20365D02*
X284751D01*
X277751Y-16065D02*
X293151D01*
X277551Y-16165D02*
X293351D01*
X277351Y-16265D02*
X293551D01*
X277251Y-16365D02*
X293751D01*
X277051Y-16465D02*
X293851D01*
X276951Y-16565D02*
X293951D01*
X276851Y-16665D02*
X294051D01*
X276751Y-16765D02*
X294151D01*
X276651Y-16865D02*
X294151D01*
X276551Y-16965D02*
X294251D01*
X276451Y-17065D02*
X294251D01*
X278351Y-15965D02*
X292551D01*
X276351Y-17165D02*
X294351D01*
X276251Y-17265D02*
X294351D01*
X276151Y-17365D02*
X294451D01*
X276051Y-17465D02*
X294451D01*
X285451Y-19465D02*
X294551D01*
X285551Y-19565D02*
X294551D01*
X285651Y-19665D02*
X294551D01*
X275951Y-17565D02*
X294451D01*
X275851Y-17665D02*
X294451D01*
X275751Y-17765D02*
X294551D01*
X275651Y-17865D02*
X294551D01*
X275551Y-17965D02*
X294551D01*
X275451Y-18065D02*
X294551D01*
X275351Y-18165D02*
X294551D01*
X275251Y-18265D02*
X294551D01*
X275151Y-18365D02*
X294551D01*
X275051Y-18465D02*
X294551D01*
X274951Y-18565D02*
X294551D01*
X274851Y-18665D02*
X294551D01*
X274751Y-18765D02*
X294551D01*
X285651Y-19765D02*
X294551D01*
X274551Y-18965D02*
X294551D01*
X274451Y-19065D02*
X294551D01*
X274351Y-19165D02*
X294551D01*
X274251Y-19265D02*
X294551D01*
X274151Y-19365D02*
X294551D01*
X274651Y-18865D02*
X294551D01*
X285751Y-19965D02*
X294551D01*
X285751Y-19865D02*
X294551D01*
X285751Y-20065D02*
X294551D01*
X285751Y-20165D02*
X294551D01*
X285751Y-20265D02*
X294551D01*
X285751Y-20365D02*
X294551D01*
X287151Y-20465D02*
X294551D01*
X287151Y-20565D02*
X294551D01*
X287151Y-20665D02*
X294551D01*
X287151Y-20765D02*
X294551D01*
X287151Y-20865D02*
X294551D01*
X287151Y-20965D02*
X294551D01*
X287151Y-21065D02*
X294551D01*
X287151Y-21165D02*
X294551D01*
X287151Y-21265D02*
X294551D01*
D21*
X321041Y-140125D02*
X339741D01*
X320768Y-113189D02*
X339469D01*
X320768Y-85630D02*
X339469D01*
X320768Y-58071D02*
X339469D01*
X320768Y-31201D02*
X339469D01*
X60236Y-104331D02*
X70079D01*
X50394D02*
X60236D01*
Y-198031D02*
Y-104331D01*
X50394Y-90551D02*
X60236D01*
X70079D01*
X50394Y-76378D02*
X60236D01*
X70079D01*
X50394Y-62992D02*
X60236D01*
X70079D01*
X50394Y-48819D02*
X60236D01*
X70079D01*
X50394Y-35039D02*
X60236D01*
X70079D01*
X230150Y-118766D02*
X230609Y-118307D01*
Y-117388D01*
X230150Y-116929D01*
X228313D01*
X227854Y-117388D01*
Y-118307D01*
X228313Y-118766D01*
X229232D01*
Y-117848D01*
X227854Y-119684D02*
X230609D01*
X227854Y-121521D01*
X230609D01*
Y-122439D02*
X227854D01*
Y-123817D01*
X228313Y-124276D01*
X230150D01*
X230609Y-123817D01*
Y-122439D01*
X250918Y-118963D02*
X251377Y-118503D01*
Y-117585D01*
X250918Y-117126D01*
X250459D01*
X250000Y-117585D01*
Y-118503D01*
X249540Y-118963D01*
X249081D01*
X248622Y-118503D01*
Y-117585D01*
X249081Y-117126D01*
X251377Y-119881D02*
X248622D01*
X249540Y-120799D01*
X248622Y-121718D01*
X251377D01*
X250918Y-124473D02*
X251377Y-124013D01*
Y-123095D01*
X250918Y-122636D01*
X249081D01*
X248622Y-123095D01*
Y-124013D01*
X249081Y-124473D01*
X251377Y-125391D02*
X248622D01*
Y-127228D01*
X251377Y-128146D02*
X248622D01*
X249540D01*
X251377Y-129983D01*
X250000Y-128605D01*
X248622Y-129983D01*
X260662Y-118864D02*
X261121Y-118405D01*
Y-117487D01*
X260662Y-117028D01*
X260203D01*
X259744Y-117487D01*
Y-118405D01*
X259284Y-118864D01*
X258825D01*
X258366Y-118405D01*
Y-117487D01*
X258825Y-117028D01*
X261121Y-119783D02*
X258366D01*
Y-121160D01*
X258825Y-121619D01*
X260662D01*
X261121Y-121160D01*
Y-119783D01*
Y-122538D02*
Y-123456D01*
Y-122997D01*
X258366D01*
Y-122538D01*
Y-123456D01*
X261121Y-126211D02*
Y-125293D01*
X260662Y-124833D01*
X258825D01*
X258366Y-125293D01*
Y-126211D01*
X258825Y-126670D01*
X260662D01*
X261121Y-126211D01*
X270800Y-116634D02*
X271259Y-117093D01*
Y-118011D01*
X270800Y-118471D01*
X270341D01*
X269881Y-118011D01*
Y-117552D01*
Y-118011D01*
X269422Y-118471D01*
X268963D01*
X268504Y-118011D01*
Y-117093D01*
X268963Y-116634D01*
X268504Y-119389D02*
X268963D01*
Y-119848D01*
X268504D01*
Y-119389D01*
X270800Y-121685D02*
X271259Y-122144D01*
Y-123062D01*
X270800Y-123521D01*
X270341D01*
X269881Y-123062D01*
Y-122603D01*
Y-123062D01*
X269422Y-123521D01*
X268963D01*
X268504Y-123062D01*
Y-122144D01*
X268963Y-121685D01*
X271259Y-124440D02*
X269422D01*
X268504Y-125358D01*
X269422Y-126276D01*
X271259D01*
X218930Y-29035D02*
X219389Y-29495D01*
Y-30413D01*
X218930Y-30872D01*
X218471D01*
X218011Y-30413D01*
Y-29954D01*
Y-30413D01*
X217552Y-30872D01*
X217093D01*
X216634Y-30413D01*
Y-29495D01*
X217093Y-29035D01*
X216634Y-31790D02*
X217093D01*
Y-32250D01*
X216634D01*
Y-31790D01*
X218930Y-34086D02*
X219389Y-34545D01*
Y-35464D01*
X218930Y-35923D01*
X218471D01*
X218011Y-35464D01*
Y-35005D01*
Y-35464D01*
X217552Y-35923D01*
X217093D01*
X216634Y-35464D01*
Y-34545D01*
X217093Y-34086D01*
X219389Y-36841D02*
X217552D01*
X216634Y-37760D01*
X217552Y-38678D01*
X219389D01*
X208989Y-30478D02*
X209448Y-30019D01*
Y-29101D01*
X208989Y-28642D01*
X208530D01*
X208070Y-29101D01*
Y-30019D01*
X207611Y-30478D01*
X207152D01*
X206693Y-30019D01*
Y-29101D01*
X207152Y-28642D01*
X209448Y-31397D02*
X206693D01*
Y-32774D01*
X207152Y-33233D01*
X208989D01*
X209448Y-32774D01*
Y-31397D01*
Y-34152D02*
Y-35070D01*
Y-34611D01*
X206693D01*
Y-34152D01*
Y-35070D01*
X209448Y-37825D02*
Y-36907D01*
X208989Y-36448D01*
X207152D01*
X206693Y-36907D01*
Y-37825D01*
X207152Y-38284D01*
X208989D01*
X209448Y-37825D01*
X198949Y-30478D02*
X199409Y-30019D01*
Y-29101D01*
X198949Y-28642D01*
X198490D01*
X198031Y-29101D01*
Y-30019D01*
X197572Y-30478D01*
X197113D01*
X196653Y-30019D01*
Y-29101D01*
X197113Y-28642D01*
X199409Y-31397D02*
X196653D01*
X197572Y-32315D01*
X196653Y-33233D01*
X199409D01*
X198949Y-35989D02*
X199409Y-35529D01*
Y-34611D01*
X198949Y-34152D01*
X197113D01*
X196653Y-34611D01*
Y-35529D01*
X197113Y-35989D01*
X199409Y-36907D02*
X196653D01*
Y-38743D01*
X199409Y-39662D02*
X196653D01*
X197572D01*
X199409Y-41499D01*
X198031Y-40121D01*
X196653Y-41499D01*
X188812Y-30675D02*
X189271Y-30216D01*
Y-29298D01*
X188812Y-28839D01*
X188352D01*
X187893Y-29298D01*
Y-30216D01*
X187434Y-30675D01*
X186975D01*
X186516Y-30216D01*
Y-29298D01*
X186975Y-28839D01*
X189271Y-31594D02*
X186516D01*
X187434Y-32512D01*
X186516Y-33430D01*
X189271D01*
Y-35726D02*
Y-34808D01*
X188812Y-34349D01*
X186975D01*
X186516Y-34808D01*
Y-35726D01*
X186975Y-36185D01*
X188812D01*
X189271Y-35726D01*
X178280Y-30577D02*
X178739Y-30118D01*
Y-29199D01*
X178280Y-28740D01*
X176443D01*
X175984Y-29199D01*
Y-30118D01*
X176443Y-30577D01*
X177362D01*
Y-29658D01*
X175984Y-31495D02*
X178739D01*
X175984Y-33332D01*
X178739D01*
Y-34250D02*
X175984D01*
Y-35628D01*
X176443Y-36087D01*
X178280D01*
X178739Y-35628D01*
Y-34250D01*
X327309Y-121735D02*
Y-118980D01*
X325932D01*
X325473Y-119439D01*
Y-120358D01*
X325932Y-120817D01*
X327309D01*
X326391D02*
X325473Y-121735D01*
X324554Y-118980D02*
X322718Y-121735D01*
Y-118980D02*
X324554Y-121735D01*
X327309Y-107994D02*
Y-105239D01*
X325932D01*
X325473Y-105699D01*
Y-106617D01*
X325932Y-107076D01*
X327309D01*
X326391D02*
X325473Y-107994D01*
X324554D02*
Y-106158D01*
X323636Y-105239D01*
X322718Y-106158D01*
Y-107994D01*
Y-106617D01*
X324554D01*
X327309Y-94254D02*
Y-91499D01*
X325932D01*
X325473Y-91958D01*
Y-92876D01*
X325932Y-93336D01*
X327309D01*
X326391D02*
X325473Y-94254D01*
X324554Y-91499D02*
Y-94254D01*
X323177D01*
X322718Y-93795D01*
Y-93336D01*
X323177Y-92876D01*
X324554D01*
X323177D01*
X322718Y-92417D01*
Y-91958D01*
X323177Y-91499D01*
X324554D01*
X327309Y-77759D02*
X325473D01*
X326391D01*
Y-80514D01*
X324554Y-77759D02*
Y-80514D01*
X323177D01*
X322718Y-80054D01*
Y-79595D01*
X323177Y-79136D01*
X324554D01*
X323177D01*
X322718Y-78677D01*
Y-78218D01*
X323177Y-77759D01*
X324554D01*
X327309Y-66773D02*
Y-64018D01*
X325932D01*
X325473Y-64477D01*
Y-65396D01*
X325932Y-65855D01*
X327309D01*
X326391D02*
X325473Y-66773D01*
X324554D02*
Y-64936D01*
X323636Y-64018D01*
X322718Y-64936D01*
Y-66773D01*
Y-65396D01*
X324554D01*
X325473Y-50737D02*
X325932Y-50278D01*
X326850D01*
X327309Y-50737D01*
Y-52573D01*
X326850Y-53033D01*
X325932D01*
X325473Y-52573D01*
X324554Y-50278D02*
Y-53033D01*
X322718D01*
X325473Y-36996D02*
X325932Y-36537D01*
X326850D01*
X327309Y-36996D01*
Y-38833D01*
X326850Y-39292D01*
X325932D01*
X325473Y-38833D01*
X324554Y-36537D02*
Y-39292D01*
Y-37915D01*
X322718D01*
Y-36537D01*
Y-39292D01*
X337210Y-118880D02*
X335373D01*
X336291D01*
Y-121635D01*
X334454Y-118880D02*
X332618Y-121635D01*
Y-118880D02*
X334454Y-121635D01*
X337210Y-107895D02*
Y-105140D01*
X335832D01*
X335373Y-105599D01*
Y-106517D01*
X335832Y-106976D01*
X337210D01*
X336291D02*
X335373Y-107895D01*
X334454D02*
Y-106058D01*
X333536Y-105140D01*
X332618Y-106058D01*
Y-107895D01*
Y-106517D01*
X334454D01*
X337210Y-94154D02*
Y-91399D01*
X335832D01*
X335373Y-91858D01*
Y-92777D01*
X335832Y-93236D01*
X337210D01*
X336291D02*
X335373Y-94154D01*
X334454Y-91399D02*
Y-94154D01*
X333077D01*
X332618Y-93695D01*
Y-93236D01*
X333077Y-92777D01*
X334454D01*
X333077D01*
X332618Y-92317D01*
Y-91858D01*
X333077Y-91399D01*
X334454D01*
X337210Y-77659D02*
X335373D01*
X336291D01*
Y-80414D01*
X334454D02*
Y-78577D01*
X333536Y-77659D01*
X332618Y-78577D01*
Y-80414D01*
Y-79036D01*
X334454D01*
X337210Y-66673D02*
Y-63918D01*
X335832D01*
X335373Y-64377D01*
Y-65296D01*
X335832Y-65755D01*
X337210D01*
X336291D02*
X335373Y-66673D01*
X334454Y-63918D02*
Y-66673D01*
X333077D01*
X332618Y-66214D01*
Y-65755D01*
X333077Y-65296D01*
X334454D01*
X333077D01*
X332618Y-64836D01*
Y-64377D01*
X333077Y-63918D01*
X334454D01*
X335373Y-50637D02*
X335832Y-50178D01*
X336750D01*
X337210Y-50637D01*
Y-52473D01*
X336750Y-52933D01*
X335832D01*
X335373Y-52473D01*
X334454Y-50178D02*
Y-52933D01*
X332618D01*
X335373Y-36896D02*
X335832Y-36437D01*
X336750D01*
X337210Y-36896D01*
Y-38733D01*
X336750Y-39192D01*
X335832D01*
X335373Y-38733D01*
X334454Y-36437D02*
Y-39192D01*
Y-37815D01*
X332618D01*
Y-36437D01*
Y-39192D01*
X56103Y-43307D02*
Y-40552D01*
X57480Y-41930D01*
X55644D01*
X54725Y-43307D02*
X53807D01*
X54266D01*
Y-40552D01*
X54725Y-41011D01*
X66339Y-43307D02*
Y-40552D01*
X67716Y-41930D01*
X65880D01*
X64961Y-41011D02*
X64502Y-40552D01*
X63584D01*
X63125Y-41011D01*
Y-42848D01*
X63584Y-43307D01*
X64502D01*
X64961Y-42848D01*
Y-41011D01*
X57480Y-54791D02*
X57021Y-54332D01*
X56103D01*
X55644Y-54791D01*
Y-55250D01*
X56103Y-55709D01*
X56562D01*
X56103D01*
X55644Y-56168D01*
Y-56627D01*
X56103Y-57087D01*
X57021D01*
X57480Y-56627D01*
X54725Y-57087D02*
X53807D01*
X54266D01*
Y-54332D01*
X54725Y-54791D01*
X67716D02*
X67257Y-54332D01*
X66339D01*
X65880Y-54791D01*
Y-55250D01*
X66339Y-55709D01*
X66798D01*
X66339D01*
X65880Y-56168D01*
Y-56627D01*
X66339Y-57087D01*
X67257D01*
X67716Y-56627D01*
X64961Y-54791D02*
X64502Y-54332D01*
X63584D01*
X63125Y-54791D01*
Y-56627D01*
X63584Y-57087D01*
X64502D01*
X64961Y-56627D01*
Y-54791D01*
X55644Y-70866D02*
X57480D01*
X55644Y-69029D01*
Y-68570D01*
X56103Y-68111D01*
X57021D01*
X57480Y-68570D01*
X54725Y-70866D02*
X53807D01*
X54266D01*
Y-68111D01*
X54725Y-68570D01*
X65486Y-70866D02*
X67323D01*
X65486Y-69029D01*
Y-68570D01*
X65945Y-68111D01*
X66864D01*
X67323Y-68570D01*
X64568D02*
X64109Y-68111D01*
X63190D01*
X62731Y-68570D01*
Y-70407D01*
X63190Y-70866D01*
X64109D01*
X64568Y-70407D01*
Y-68570D01*
X57087Y-84646D02*
X56168D01*
X56627D01*
Y-81891D01*
X57087Y-82350D01*
X54791Y-84646D02*
X53872D01*
X54332D01*
Y-81891D01*
X54791Y-82350D01*
X67323Y-84646D02*
X66404D01*
X66864D01*
Y-81891D01*
X67323Y-82350D01*
X65027D02*
X64568Y-81891D01*
X63649D01*
X63190Y-82350D01*
Y-84187D01*
X63649Y-84646D01*
X64568D01*
X65027Y-84187D01*
Y-82350D01*
X57480Y-96129D02*
X57021Y-95670D01*
X56103D01*
X55644Y-96129D01*
Y-97966D01*
X56103Y-98425D01*
X57021D01*
X57480Y-97966D01*
Y-96129D01*
X54725Y-98425D02*
X53807D01*
X54266D01*
Y-95670D01*
X54725Y-96129D01*
X67323D02*
X66864Y-95670D01*
X65945D01*
X65486Y-96129D01*
Y-97966D01*
X65945Y-98425D01*
X66864D01*
X67323Y-97966D01*
Y-96129D01*
X64568D02*
X64109Y-95670D01*
X63190D01*
X62731Y-96129D01*
Y-97966D01*
X63190Y-98425D01*
X64109D01*
X64568Y-97966D01*
Y-96129D01*
X66245Y-109370D02*
X67164D01*
X67623Y-109829D01*
Y-111666D01*
X67164Y-112125D01*
X66245D01*
X65786Y-111666D01*
Y-109829D01*
X66245Y-109370D01*
X63031Y-109829D02*
X63490Y-109370D01*
X64409D01*
X64868Y-109829D01*
Y-111666D01*
X64409Y-112125D01*
X63490D01*
X63031Y-111666D01*
X57623Y-109470D02*
X56704D01*
X57164D01*
Y-112225D01*
X57623D01*
X56704D01*
X53490Y-109929D02*
X53949Y-109470D01*
X54868D01*
X55327Y-109929D01*
Y-111766D01*
X54868Y-112225D01*
X53949D01*
X53490Y-111766D01*
X66245Y-122770D02*
X67164D01*
X67623Y-123229D01*
Y-125066D01*
X67164Y-125525D01*
X66245D01*
X65786Y-125066D01*
Y-123229D01*
X66245Y-122770D01*
X63490Y-125525D02*
Y-122770D01*
X64868Y-124148D01*
X63031D01*
X57723Y-122870D02*
X56805D01*
X57264D01*
Y-125625D01*
X57723D01*
X56805D01*
X54049D02*
Y-122870D01*
X55427Y-124248D01*
X53590D01*
X57623Y-136970D02*
X56704D01*
X57164D01*
Y-139725D01*
X57623D01*
X56704D01*
X55327Y-137429D02*
X54868Y-136970D01*
X53949D01*
X53490Y-137429D01*
Y-137889D01*
X53949Y-138348D01*
X54409D01*
X53949D01*
X53490Y-138807D01*
Y-139266D01*
X53949Y-139725D01*
X54868D01*
X55327Y-139266D01*
X66145Y-136970D02*
X67064D01*
X67523Y-137429D01*
Y-139266D01*
X67064Y-139725D01*
X66145D01*
X65686Y-139266D01*
Y-137429D01*
X66145Y-136970D01*
X64768Y-137429D02*
X64309Y-136970D01*
X63390D01*
X62931Y-137429D01*
Y-137889D01*
X63390Y-138348D01*
X63850D01*
X63390D01*
X62931Y-138807D01*
Y-139266D01*
X63390Y-139725D01*
X64309D01*
X64768Y-139266D01*
X66145Y-150270D02*
X67064D01*
X67523Y-150729D01*
Y-152566D01*
X67064Y-153025D01*
X66145D01*
X65686Y-152566D01*
Y-150729D01*
X66145Y-150270D01*
X62931Y-153025D02*
X64768D01*
X62931Y-151189D01*
Y-150729D01*
X63390Y-150270D01*
X64309D01*
X64768Y-150729D01*
X57523Y-150370D02*
X56604D01*
X57064D01*
Y-153125D01*
X57523D01*
X56604D01*
X53390D02*
X55227D01*
X53390Y-151288D01*
Y-150829D01*
X53850Y-150370D01*
X54768D01*
X55227Y-150829D01*
X65623Y-164245D02*
X66541D01*
X67000Y-164704D01*
Y-166541D01*
X66541Y-167000D01*
X65623D01*
X65163Y-166541D01*
Y-164704D01*
X65623Y-164245D01*
X64245Y-167000D02*
X63327D01*
X63786D01*
Y-164245D01*
X64245Y-164704D01*
X57100Y-164445D02*
X56182D01*
X56641D01*
Y-167200D01*
X57100D01*
X56182D01*
X54804D02*
X53886D01*
X54345D01*
Y-164445D01*
X54804Y-164904D01*
X66245Y-177870D02*
X67164D01*
X67623Y-178329D01*
Y-180166D01*
X67164Y-180625D01*
X66245D01*
X65786Y-180166D01*
Y-178329D01*
X66245Y-177870D01*
X64868Y-178329D02*
X64409Y-177870D01*
X63490D01*
X63031Y-178329D01*
Y-180166D01*
X63490Y-180625D01*
X64409D01*
X64868Y-180166D01*
Y-178329D01*
X57623Y-177970D02*
X56704D01*
X57164D01*
Y-180725D01*
X57623D01*
X56704D01*
X55327Y-178429D02*
X54868Y-177970D01*
X53949D01*
X53490Y-178429D01*
Y-180266D01*
X53949Y-180725D01*
X54868D01*
X55327Y-180266D01*
Y-178429D01*
X68110Y-204331D02*
X67192D01*
X67651D01*
Y-201576D01*
X68110Y-202035D01*
X63978Y-204331D02*
X65814D01*
X63978Y-202494D01*
Y-202035D01*
X64437Y-201576D01*
X65355D01*
X65814Y-202035D01*
X63059Y-202953D02*
X61223D01*
X58468Y-204331D02*
X60304D01*
X58468Y-202494D01*
Y-202035D01*
X58927Y-201576D01*
X59845D01*
X60304Y-202035D01*
X56172Y-204331D02*
Y-201576D01*
X57549Y-202953D01*
X55713D01*
X54794Y-201576D02*
Y-203412D01*
X53876Y-204331D01*
X52958Y-203412D01*
Y-201576D01*
D22*
X187008Y-5906D02*
D03*
Y-230315D02*
D03*
D131*
X326149Y-133399D02*
X326477Y-133071D01*
X327133D01*
X327461Y-133399D01*
Y-134711D01*
X327133Y-135039D01*
X326477D01*
X326149Y-134711D01*
Y-134055D01*
X326805D01*
X325493Y-135039D02*
Y-133071D01*
X324181Y-135039D01*
Y-133071D01*
X323525D02*
Y-135039D01*
X322541D01*
X322213Y-134711D01*
Y-133399D01*
X322541Y-133071D01*
X323525D01*
X336188Y-133498D02*
X336516Y-133170D01*
X337172D01*
X337500Y-133498D01*
Y-134810D01*
X337172Y-135138D01*
X336516D01*
X336188Y-134810D01*
Y-134154D01*
X336844D01*
X335532Y-135138D02*
Y-133170D01*
X334220Y-135138D01*
Y-133170D01*
X333564D02*
Y-135138D01*
X332580D01*
X332252Y-134810D01*
Y-133498D01*
X332580Y-133170D01*
X333564D01*
X57800Y-192532D02*
Y-193844D01*
X57144Y-194500D01*
X56488Y-193844D01*
Y-192532D01*
X54520Y-192860D02*
X54848Y-192532D01*
X55504D01*
X55832Y-192860D01*
Y-194172D01*
X55504Y-194500D01*
X54848D01*
X54520Y-194172D01*
X52552Y-192860D02*
X52880Y-192532D01*
X53536D01*
X53864Y-192860D01*
Y-194172D01*
X53536Y-194500D01*
X52880D01*
X52552Y-194172D01*
X66488Y-192760D02*
X66816Y-192432D01*
X67472D01*
X67800Y-192760D01*
Y-194072D01*
X67472Y-194400D01*
X66816D01*
X66488Y-194072D01*
Y-193416D01*
X67144D01*
X65832Y-194400D02*
Y-192432D01*
X64520Y-194400D01*
Y-192432D01*
X63864D02*
Y-194400D01*
X62880D01*
X62552Y-194072D01*
Y-192760D01*
X62880Y-192432D01*
X63864D01*
M02*
