G04*
G04 #@! TF.GenerationSoftware,Altium Limited,Altium Designer,23.1.1 (15)*
G04*
G04 Layer_Color=65535*
%FSLAX25Y25*%
%MOIN*%
G70*
G04*
G04 #@! TF.SameCoordinates,5E512CB6-7A9D-4867-B672-3E4038189C0E*
G04*
G04*
G04 #@! TF.FilePolarity,Positive*
G04*
G01*
G75*
%ADD10C,0.02362*%
%ADD11C,0.00984*%
%ADD12C,0.00787*%
%ADD13C,0.01575*%
%ADD14C,0.01000*%
%ADD15C,0.00100*%
%ADD16C,0.00500*%
%ADD17C,0.00591*%
%ADD18C,0.00394*%
%ADD19C,0.01181*%
%ADD20C,0.00600*%
%ADD21C,0.00709*%
%ADD22R,3.74016X0.11811*%
G36*
X71358Y-219124D02*
X68858D01*
Y-221624D01*
X71358D01*
Y-219124D01*
D02*
G37*
G36*
X71624Y-201831D02*
X69124D01*
Y-204331D01*
X71624D01*
Y-201831D01*
D02*
G37*
G36*
X71398Y-184774D02*
X68898D01*
Y-187274D01*
X71398D01*
Y-184774D01*
D02*
G37*
G36*
X71496Y-167549D02*
X68996D01*
Y-170049D01*
X71496D01*
Y-167549D01*
D02*
G37*
G36*
X71329Y-150256D02*
X68829D01*
Y-152756D01*
X71329D01*
Y-150256D01*
D02*
G37*
G36*
X93504Y-133642D02*
X91004D01*
Y-131142D01*
X93504D01*
Y-133642D01*
D02*
G37*
G36*
X312953Y-139097D02*
X311453D01*
Y-138097D01*
X312953D01*
Y-139097D01*
D02*
G37*
G36*
X93504Y-152539D02*
X91004D01*
Y-150039D01*
X93504D01*
Y-152539D01*
D02*
G37*
G36*
Y-171713D02*
X91004D01*
Y-169213D01*
X93504D01*
Y-171713D01*
D02*
G37*
G36*
Y-190728D02*
X91004D01*
Y-188228D01*
X93504D01*
Y-190728D01*
D02*
G37*
G36*
Y-209114D02*
X91004D01*
Y-206614D01*
X93504D01*
Y-209114D01*
D02*
G37*
D10*
X234547Y-136713D02*
G03*
X234547Y-136713I-1181J0D01*
G01*
D11*
X225295Y-130512D02*
G03*
X225295Y-130512I-492J0D01*
G01*
X165453Y-118996D02*
G03*
X165453Y-118996I-492J0D01*
G01*
X157560Y-195562D02*
G03*
X157560Y-195562I-492J0D01*
G01*
X270765Y-208661D02*
G03*
X270765Y-208661I-394J0D01*
G01*
X295669Y-50571D02*
G03*
X295669Y-50571I-492J0D01*
G01*
X295866Y-80886D02*
G03*
X295866Y-80886I-492J0D01*
G01*
X295669Y-21634D02*
G03*
X295669Y-21634I-492J0D01*
G01*
X204035Y-216949D02*
G03*
X204035Y-216949I-492J0D01*
G01*
D12*
X224134Y-175492D02*
G03*
X224134Y-175492I-394J0D01*
G01*
X168898Y-65551D02*
G03*
X168898Y-65551I-394J0D01*
G01*
X302229Y-166781D02*
G03*
X303479Y-166781I625J0D01*
G01*
X167913Y-204665D02*
G03*
X167913Y-204665I-394J0D01*
G01*
X271358Y-26476D02*
G03*
X271358Y-26476I-394J0D01*
G01*
X156988Y-25492D02*
G03*
X156988Y-25492I-13386J0D01*
G01*
X154298Y-69463D02*
G03*
X154298Y-69463I-394J0D01*
G01*
X324153Y-188307D02*
G03*
X324153Y-188307I-394J0D01*
G01*
X343110Y-205413D02*
G03*
X343110Y-205413I-394J0D01*
G01*
X229429Y-155217D02*
X251870D01*
X229429Y-132776D02*
X251870D01*
Y-155217D02*
Y-132776D01*
X229429Y-155217D02*
Y-132776D01*
X200394Y-153445D02*
X213779D01*
X200394D02*
Y-136909D01*
X213779D01*
Y-153445D02*
Y-136909D01*
X142520Y-93602D02*
X155905D01*
X142520D02*
Y-77067D01*
X155905D01*
Y-93602D02*
Y-77067D01*
X144075Y-125492D02*
X163760D01*
X144075Y-131791D02*
X163760D01*
Y-125492D01*
X144075Y-131791D02*
Y-125492D01*
X178413Y-141602D02*
X182413D01*
X175886Y-134449D02*
X184941D01*
X175886Y-152756D02*
X184941D01*
X175886D02*
Y-134449D01*
X184941Y-152756D02*
Y-134449D01*
X189240Y-141602D02*
X193240D01*
X186713Y-134449D02*
X195768D01*
X186713Y-152756D02*
X195768D01*
X186713D02*
Y-134449D01*
X195768Y-152756D02*
Y-134449D01*
X167488Y-141602D02*
X171488D01*
X164961Y-134449D02*
X174016D01*
X164961Y-152756D02*
X174016D01*
X164961D02*
Y-134449D01*
X174016Y-152756D02*
Y-134449D01*
X297874Y-201782D02*
Y-166781D01*
Y-201782D02*
X307835D01*
Y-166781D01*
X303479D02*
X307835D01*
X297874D02*
X302229D01*
X312008Y-160433D02*
Y-147047D01*
X295472Y-160433D02*
X312008D01*
X295472D02*
Y-147047D01*
X312008D01*
X114165Y-117945D02*
Y-113945D01*
X90165Y-117945D02*
Y-113945D01*
Y-123945D02*
X114165D01*
X90165Y-107945D02*
X114165D01*
X159153Y-207874D02*
X177461D01*
X159153Y-216929D02*
X177461D01*
Y-207874D01*
X159153Y-216929D02*
Y-207874D01*
X166307Y-210402D02*
X170307D01*
Y-214402D02*
Y-210402D01*
X166307Y-214402D02*
X170307D01*
X166307D02*
Y-210402D01*
X136182Y-202058D02*
X155867D01*
X136182Y-208358D02*
X155867D01*
Y-202058D01*
X136182Y-208358D02*
Y-202058D01*
X280677Y-123949D02*
X284677D01*
X278150Y-131102D02*
X287205D01*
X278150Y-112795D02*
X287205D01*
Y-131102D02*
Y-112795D01*
X278150Y-131102D02*
Y-112795D01*
X136063Y-187284D02*
Y-177284D01*
X144063Y-183283D02*
Y-181283D01*
X143063Y-182283D02*
X145063D01*
X149311Y-187284D02*
Y-177284D01*
X136063Y-187284D02*
X156063D01*
Y-177284D01*
X136063D02*
X156063D01*
X164823Y-26752D02*
Y-16752D01*
X214823D01*
X164823Y-26752D02*
X214823D01*
Y-16752D01*
X12402Y-159449D02*
Y-21260D01*
Y-215354D02*
Y-159449D01*
X591D02*
Y-21260D01*
Y-215354D02*
Y-159449D01*
X321555Y-217224D02*
Y-215453D01*
X306289Y-217224D02*
X321555D01*
X306289Y-208366D02*
X321555D01*
Y-210138D02*
Y-208366D01*
X305056Y-209856D02*
X306289Y-208366D01*
X305087Y-215773D02*
X306289Y-217224D01*
X276179Y-222047D02*
Y-209842D01*
X274998Y-222047D02*
Y-209842D01*
Y-222047D02*
X276179D01*
X274998Y-209842D02*
X276179D01*
X301673Y-71457D02*
Y-51772D01*
X307972Y-71457D02*
Y-51772D01*
X301673D02*
X307972D01*
X301673Y-71457D02*
X307972D01*
X301279Y-101575D02*
X308366D01*
X301279Y-81890D02*
X308366D01*
Y-101575D02*
Y-81890D01*
X301279Y-101575D02*
Y-81890D01*
X362008Y-155512D02*
Y-58071D01*
Y-16831D01*
X373819Y-155118D02*
Y-98917D01*
Y-16732D01*
X137697Y-51083D02*
Y-37697D01*
Y-51083D02*
X149508D01*
Y-37697D01*
X114165Y-73555D02*
Y-69555D01*
X90165Y-73555D02*
Y-69555D01*
Y-79555D02*
X114165D01*
X90165Y-63555D02*
X114165D01*
X301673Y-42520D02*
X307972D01*
X301673Y-22835D02*
X307972D01*
Y-42520D02*
Y-22835D01*
X301673Y-42520D02*
Y-22835D01*
X114165Y-95750D02*
Y-91750D01*
X90165Y-95750D02*
Y-91750D01*
Y-101750D02*
X114165D01*
X90165Y-85750D02*
X114165D01*
X197638Y-215945D02*
Y-196260D01*
X190551Y-215945D02*
Y-196260D01*
Y-215945D02*
X197638D01*
X190551Y-196260D02*
X197638D01*
X90165Y-41360D02*
X114165D01*
X90165Y-57360D02*
X114165D01*
X90165Y-51360D02*
Y-47360D01*
X114165Y-51360D02*
Y-47360D01*
X90165Y-19165D02*
X114165D01*
X90165Y-35165D02*
X114165D01*
X90165Y-29165D02*
Y-25165D01*
X114165Y-29165D02*
Y-25165D01*
X297146Y-131102D02*
Y-112795D01*
X288090Y-131102D02*
Y-112795D01*
Y-131102D02*
X297146D01*
X288090Y-112795D02*
X297146D01*
X290618Y-119949D02*
X294618D01*
X238650Y-215773D02*
X239852Y-217224D01*
X238619Y-209855D02*
X239852Y-208366D01*
X255118Y-210138D02*
Y-208366D01*
X239852D02*
X255118D01*
X239852Y-217224D02*
X255118D01*
Y-215453D01*
X274410Y-116713D02*
Y-106713D01*
X224410Y-116713D02*
X274410D01*
X224410Y-106713D02*
X274410D01*
X224410Y-116713D02*
Y-106713D01*
D13*
X177165Y-67520D02*
G03*
X177165Y-67520I-787J0D01*
G01*
X-11811Y-214961D02*
Y-21260D01*
Y-214961D02*
X34449D01*
X-11811Y-21260D02*
X34449D01*
Y-214961D02*
Y-21260D01*
X386221Y-155413D02*
Y-16732D01*
X339961D02*
X386221D01*
X339961Y-155413D02*
X386221D01*
X339961D02*
Y-16732D01*
D14*
X114255Y-126279D02*
G03*
X114255Y-126279I-278J0D01*
G01*
Y-81890D02*
G03*
X114255Y-81890I-278J0D01*
G01*
Y-104085D02*
G03*
X114255Y-104085I-278J0D01*
G01*
Y-59695D02*
G03*
X114255Y-59695I-278J0D01*
G01*
Y-37500D02*
G03*
X114255Y-37500I-278J0D01*
G01*
X178413Y-141602D02*
X182413D01*
Y-142783D02*
Y-141602D01*
X180413Y-144783D02*
X182413Y-142783D01*
X178413D02*
X180413Y-144783D01*
X178413Y-142783D02*
Y-141602D01*
X178445Y-145177D02*
X182413D01*
X189240Y-141602D02*
X193240D01*
Y-142783D02*
Y-141602D01*
X191240Y-144783D02*
X193240Y-142783D01*
X189240D02*
X191240Y-144783D01*
X189240Y-142783D02*
Y-141602D01*
X189272Y-145177D02*
X193240D01*
X167488Y-141602D02*
X171488D01*
Y-142783D02*
Y-141602D01*
X169488Y-144783D02*
X171488Y-142783D01*
X167488D02*
X169488Y-144783D01*
X167488Y-142783D02*
Y-141602D01*
X167520Y-145177D02*
X171488D01*
X48669Y-220087D02*
X64669D01*
X48669Y-204087D02*
X64669D01*
X234252Y-216831D02*
X234252D01*
X235039Y-216043D01*
Y-194193D01*
Y-193898D01*
X234154Y-193012D02*
X235039Y-193898D01*
X209842Y-216142D02*
X210728Y-217028D01*
X209842Y-216142D02*
Y-215846D01*
Y-193996D01*
X210630Y-193209D01*
X210630D01*
X280677Y-123949D02*
X284677D01*
X280677D02*
Y-122768D01*
X282677Y-120768D01*
X284677Y-122768D01*
Y-123949D02*
Y-122768D01*
X280677Y-120374D02*
X284646D01*
X326082Y-96665D02*
Y-86822D01*
Y-96665D02*
X329626D01*
Y-86822D01*
X326082D02*
X329626D01*
X156988Y-49980D02*
Y-40138D01*
Y-49980D02*
X160531D01*
Y-40138D01*
X156988D02*
X160531D01*
X227569Y-39228D02*
Y-35685D01*
X217726Y-39228D02*
X227569D01*
X217726D02*
Y-35685D01*
X227569D01*
X326083Y-27756D02*
X329626D01*
Y-37598D02*
Y-27756D01*
X326083Y-37598D02*
X329626D01*
X326083D02*
Y-27756D01*
X48669Y-135386D02*
X64669D01*
X48669Y-151386D02*
X64669D01*
X48669Y-152561D02*
X64669D01*
X48669Y-168561D02*
X64669D01*
X48669Y-169736D02*
X64669D01*
X48669Y-185736D02*
X64669D01*
X48669Y-186911D02*
X64669D01*
X48669Y-202911D02*
X64669D01*
X290650Y-123524D02*
X294618D01*
X290618Y-121130D02*
Y-119949D01*
Y-121130D02*
X292618Y-123130D01*
X294618Y-121130D01*
Y-119949D01*
X290618D02*
X294618D01*
D15*
X235457Y-75956D02*
X243057D01*
X235658Y-76356D02*
X243357D01*
X235558Y-76156D02*
X243257D01*
X235658Y-76456D02*
X243357D01*
X235558Y-76256D02*
X243257D01*
X235457Y-76056D02*
X243158D01*
X235357Y-75756D02*
X242957D01*
X235258Y-75656D02*
X242957D01*
X235157Y-75456D02*
X242858D01*
X235157Y-75356D02*
X242758D01*
X235258Y-75556D02*
X242858D01*
X235357Y-75856D02*
X243057D01*
X223358Y-76356D02*
X230757D01*
X223358Y-76456D02*
X230757D01*
X223358Y-75956D02*
X230757D01*
X223358Y-75856D02*
X230757D01*
X223358Y-76056D02*
X230757D01*
X223358Y-76156D02*
X230757D01*
X223358Y-75756D02*
X230757D01*
X223358Y-76256D02*
X230757D01*
X223358Y-75656D02*
X230857D01*
X223358Y-76556D02*
X230757D01*
X238357Y-80356D02*
X242558D01*
X237858Y-80156D02*
X243057D01*
X237657Y-80056D02*
X243257D01*
X237558Y-79956D02*
X243357D01*
X237457Y-79856D02*
X243458D01*
X237357Y-79756D02*
X243558D01*
X237158Y-79556D02*
X243758D01*
X237158Y-79456D02*
X243758D01*
X238057Y-80256D02*
X242858D01*
X237258Y-79656D02*
X243657D01*
X237057Y-79356D02*
X243858D01*
X236958Y-79256D02*
X243858D01*
X236757Y-78656D02*
X244057D01*
X236958Y-79056D02*
X243957D01*
X236958Y-79156D02*
X243957D01*
X236858Y-78956D02*
X244057D01*
X236858Y-78856D02*
X244057D01*
X236757Y-78756D02*
X244057D01*
X236658Y-78556D02*
X244057D01*
X236658Y-78456D02*
X244057D01*
X236558Y-78256D02*
X244057D01*
X236457Y-78156D02*
X244057D01*
X236558Y-78356D02*
X244057D01*
X236457Y-78056D02*
X244057D01*
X223957Y-79756D02*
X230258D01*
X223857Y-79656D02*
X230358D01*
X223758Y-79556D02*
X230457D01*
X223657Y-79356D02*
X230557D01*
X223458Y-78956D02*
X230757D01*
X223557Y-79156D02*
X230658D01*
X223557Y-79056D02*
X230658D01*
X223657Y-79456D02*
X230457D01*
X223458Y-78856D02*
X230757D01*
X223458Y-78756D02*
X230757D01*
X223458Y-78656D02*
X230757D01*
X223557Y-79256D02*
X230658D01*
X223358Y-78456D02*
X230757D01*
X223358Y-78356D02*
X230757D01*
X223358Y-78256D02*
X230757D01*
X223358Y-78156D02*
X230757D01*
X223358Y-78556D02*
X230757D01*
X223358Y-78056D02*
X230757D01*
X223358Y-74956D02*
X230958D01*
X223358Y-75456D02*
X230857D01*
X223358Y-75356D02*
X230857D01*
X223358Y-75256D02*
X230857D01*
X223358Y-75156D02*
X230958D01*
X235057Y-75256D02*
X242758D01*
X234958Y-74956D02*
X242558D01*
X223358Y-75556D02*
X230857D01*
X235057Y-75156D02*
X242657D01*
X234958Y-75056D02*
X242657D01*
X223358D02*
X230958D01*
X223358Y-74356D02*
X231457D01*
X223358Y-74556D02*
X231258D01*
X223358Y-74456D02*
X231358D01*
X234858Y-74856D02*
X242558D01*
X234858Y-74756D02*
X242458D01*
X234757Y-74656D02*
X242357D01*
X234658Y-74556D02*
X242357D01*
X223358Y-74656D02*
X231157D01*
X234658Y-74456D02*
X242257D01*
X234558Y-74356D02*
X242257D01*
X223358Y-74756D02*
X231157D01*
X223358Y-74856D02*
X231058D01*
X223358Y-77856D02*
X230757D01*
X236258Y-77756D02*
X244057D01*
X236258Y-77656D02*
X243957D01*
X223358Y-77956D02*
X230757D01*
X223358Y-77456D02*
X230757D01*
X223358Y-77756D02*
X230757D01*
X223358Y-77656D02*
X230757D01*
X236357Y-77856D02*
X244057D01*
X236157Y-77556D02*
X243957D01*
X236357Y-77956D02*
X244057D01*
X236157Y-77456D02*
X243957D01*
X223358Y-77556D02*
X230757D01*
X235958Y-77056D02*
X243657D01*
X223358Y-77256D02*
X230757D01*
X223358Y-77156D02*
X230757D01*
X223358Y-77356D02*
X230757D01*
X235757Y-76656D02*
X243458D01*
X235858Y-76756D02*
X243558D01*
X235858Y-76856D02*
X243558D01*
X236057Y-77356D02*
X243858D01*
X236057Y-77256D02*
X243858D01*
X235958Y-77156D02*
X243758D01*
X223358Y-77056D02*
X230757D01*
X223358Y-76956D02*
X230757D01*
X223358Y-76856D02*
X230757D01*
X235958Y-76956D02*
X243657D01*
X223358Y-76756D02*
X230757D01*
X223358Y-76656D02*
X230757D01*
X235757Y-76556D02*
X243458D01*
X223358Y-73656D02*
X241858D01*
X234258Y-74156D02*
X242158D01*
X223358Y-73756D02*
X241957D01*
X223358Y-73956D02*
X232057D01*
X223358Y-73856D02*
X232457D01*
X234057Y-74056D02*
X242057D01*
X233857Y-73956D02*
X242057D01*
X233558Y-73856D02*
X241957D01*
X223358Y-74056D02*
X231857D01*
X223358Y-74256D02*
X231557D01*
X223358Y-74156D02*
X231658D01*
X234358Y-74256D02*
X242158D01*
X223358Y-73556D02*
X241858D01*
X223358Y-73456D02*
X241858D01*
X223358Y-72556D02*
X241858D01*
X223358Y-73056D02*
X241858D01*
X223358Y-73156D02*
X241858D01*
X223358Y-73256D02*
X241858D01*
X223358Y-73356D02*
X241858D01*
X223358Y-72856D02*
X241858D01*
X223358Y-72656D02*
X241858D01*
X223358Y-72956D02*
X241858D01*
X223358Y-72756D02*
X241858D01*
X224957Y-80356D02*
X229257D01*
X224058Y-79856D02*
X230157D01*
X224257Y-80056D02*
X229958D01*
X224658Y-80256D02*
X229557D01*
X224158Y-79956D02*
X230058D01*
X224458Y-80156D02*
X229757D01*
X223358Y-71456D02*
X242657D01*
X223358Y-71356D02*
X242758D01*
X223358Y-71156D02*
X242957D01*
X223358Y-71056D02*
X243057D01*
X223358Y-70956D02*
X243158D01*
X223358Y-70856D02*
X243257D01*
X223358Y-70756D02*
X243357D01*
X223358Y-70656D02*
X243458D01*
X223358Y-70556D02*
X243558D01*
X223358Y-71256D02*
X242858D01*
X223358Y-70456D02*
X243657D01*
X223358Y-70356D02*
X243758D01*
X223358Y-70256D02*
X243858D01*
X223358Y-69956D02*
X244158D01*
X223358Y-70156D02*
X243957D01*
X223358Y-70056D02*
X244057D01*
X223358Y-69856D02*
X244257D01*
X223358Y-69756D02*
X244357D01*
X223358Y-69656D02*
X244357D01*
X223358Y-68756D02*
X230757D01*
X223358Y-68656D02*
X230757D01*
X223358Y-69256D02*
X230757D01*
X223358Y-69056D02*
X230757D01*
X223358Y-69156D02*
X230757D01*
X223358Y-68956D02*
X230757D01*
X223358Y-68856D02*
X230757D01*
X223358Y-69356D02*
X230757D01*
X223358Y-68556D02*
X230757D01*
X223358Y-66856D02*
X230757D01*
X223358Y-67056D02*
X230757D01*
X223358Y-66956D02*
X230757D01*
X223358Y-66756D02*
X230757D01*
X223358Y-66656D02*
X230757D01*
X223358Y-66456D02*
X229857D01*
X223358Y-66356D02*
X229757D01*
X223358Y-66256D02*
X229757D01*
X223358Y-66156D02*
X229757D01*
X223358Y-66056D02*
X229757D01*
X223358Y-65956D02*
X229757D01*
X223358Y-65556D02*
X230757D01*
X223358Y-65756D02*
X229958D01*
X223358Y-65656D02*
X230757D01*
X223358Y-65856D02*
X229857D01*
X223358Y-66556D02*
X229958D01*
X223358Y-65256D02*
X230757D01*
X223358Y-65156D02*
X229958D01*
X223358Y-65056D02*
X229857D01*
X223358Y-64956D02*
X229757D01*
X223358Y-65356D02*
X230757D01*
X223358Y-65456D02*
X230757D01*
X223358Y-68256D02*
X230757D01*
X223358Y-68456D02*
X230757D01*
X223358Y-68356D02*
X230757D01*
X223358Y-67456D02*
X229757D01*
X223358Y-67256D02*
X229857D01*
X223358Y-67356D02*
X229757D01*
X223358Y-68156D02*
X230757D01*
X223358Y-67856D02*
X229857D01*
X223358Y-67656D02*
X229757D01*
X223358Y-67756D02*
X229757D01*
X223358Y-67956D02*
X229958D01*
X223358Y-67556D02*
X229757D01*
X223358Y-68056D02*
X230757D01*
X223358Y-67156D02*
X229958D01*
X223358Y-62856D02*
X230757D01*
X223358Y-62956D02*
X230757D01*
X223358Y-63756D02*
X230757D01*
X223358Y-63556D02*
X230757D01*
X223358Y-63656D02*
X230757D01*
X223358Y-63456D02*
X230757D01*
X223358Y-63356D02*
X230757D01*
X223358Y-63256D02*
X230757D01*
X223358Y-63156D02*
X230757D01*
X223358Y-63056D02*
X230757D01*
X223358Y-64056D02*
X230757D01*
X223358Y-63956D02*
X230757D01*
X223358Y-63856D02*
X230757D01*
X223358Y-64156D02*
X230757D01*
X223358Y-64256D02*
X230757D01*
X223358Y-64656D02*
X229757D01*
X223358Y-64856D02*
X229757D01*
X223358Y-64556D02*
X229757D01*
X223358Y-64756D02*
X229757D01*
X223358Y-64356D02*
X229958D01*
X223358Y-64456D02*
X229857D01*
X233157Y-62056D02*
X233658D01*
X233057Y-61956D02*
X233757D01*
X232958Y-61856D02*
X233857D01*
X234558Y-62456D02*
X234958D01*
X233157D02*
X233558D01*
X234558Y-62256D02*
X234958D01*
X234558Y-62156D02*
X234958D01*
X233157Y-62256D02*
X233558D01*
X233157Y-62156D02*
X233658D01*
X234558Y-62356D02*
X234958D01*
X233157D02*
X233558D01*
X235858Y-62056D02*
X244057D01*
X234358Y-61856D02*
X235258D01*
X234457Y-62056D02*
X235057D01*
X235757Y-61856D02*
X243858D01*
X235958Y-62256D02*
X244257D01*
X235958Y-62356D02*
X244257D01*
X235958Y-62456D02*
X244357D01*
X235958Y-62156D02*
X244158D01*
X234457Y-61956D02*
X235157D01*
X235858D02*
X243957D01*
X223358Y-61856D02*
X232457D01*
X223358Y-61956D02*
X232358D01*
X223358Y-62056D02*
X232258D01*
X223358Y-62156D02*
X232258D01*
X223358Y-62756D02*
X232157D01*
X234558Y-62556D02*
X234958D01*
X234558Y-62656D02*
X234958D01*
X233157Y-62756D02*
X233558D01*
X233157Y-62656D02*
X233558D01*
X233157Y-62556D02*
X233558D01*
X223358Y-62256D02*
X232157D01*
X223358Y-62656D02*
X232157D01*
X223358Y-62556D02*
X232157D01*
X223358Y-62456D02*
X232157D01*
X223358Y-62356D02*
X232157D01*
X234558Y-62756D02*
X234958D01*
X223358Y-71756D02*
X242357D01*
X223358Y-71556D02*
X242558D01*
X223358Y-72456D02*
X241957D01*
X223358Y-72356D02*
X241957D01*
X223358Y-72256D02*
X242057D01*
X223358Y-72156D02*
X242057D01*
X223358Y-72056D02*
X242158D01*
X223358Y-71956D02*
X242158D01*
X223358Y-71656D02*
X242458D01*
X223358Y-71856D02*
X242257D01*
X236057Y-69356D02*
X244557D01*
X236357Y-69256D02*
X244557D01*
X223358Y-69456D02*
X244557D01*
X223358Y-69556D02*
X244458D01*
X223358Y-61356D02*
X243357D01*
X223358Y-61656D02*
X243657D01*
X223358Y-61456D02*
X243458D01*
X223358Y-61256D02*
X243257D01*
X223358Y-60756D02*
X242758D01*
X223358Y-60856D02*
X242858D01*
X223358Y-60956D02*
X242957D01*
X223358Y-61156D02*
X243158D01*
X223358Y-61056D02*
X243057D01*
X223358Y-61556D02*
X243558D01*
X223358Y-61756D02*
X243758D01*
X237357Y-64956D02*
X244758D01*
X237357Y-65056D02*
X244758D01*
X237357Y-65556D02*
X244758D01*
X237357Y-65256D02*
X244758D01*
X237357Y-65456D02*
X244758D01*
X237357Y-65356D02*
X244758D01*
X237357Y-65156D02*
X244758D01*
X237357Y-65656D02*
X244758D01*
X237357Y-65756D02*
X244758D01*
X237357Y-67056D02*
X244758D01*
X237357Y-67756D02*
X244758D01*
X237357Y-67556D02*
X244758D01*
X237357Y-67256D02*
X244758D01*
X237357Y-67156D02*
X244758D01*
X237357Y-67356D02*
X244758D01*
X237357Y-67456D02*
X244758D01*
X237357Y-66856D02*
X244758D01*
X237357Y-67656D02*
X244758D01*
X237357Y-67856D02*
X244758D01*
X237357Y-66956D02*
X244758D01*
X223557Y-59656D02*
X241657D01*
X223458Y-59856D02*
X241858D01*
X223358Y-60656D02*
X242657D01*
X223458Y-59756D02*
X241757D01*
X223358Y-60556D02*
X242558D01*
X223358Y-60456D02*
X242458D01*
X223358Y-60256D02*
X242257D01*
X223358Y-60156D02*
X242158D01*
X223458Y-60056D02*
X242057D01*
X223458Y-59956D02*
X241957D01*
X223358Y-60356D02*
X242357D01*
X237158Y-68456D02*
X244758D01*
X237258Y-67956D02*
X244758D01*
X237158Y-68356D02*
X244758D01*
X236958Y-68756D02*
X244657D01*
X237057Y-68656D02*
X244758D01*
X237057Y-68556D02*
X244758D01*
X236858Y-68856D02*
X244657D01*
X236757Y-68956D02*
X244657D01*
X236658Y-69056D02*
X244657D01*
X237258Y-68256D02*
X244758D01*
X237258Y-68056D02*
X244758D01*
X237258Y-68156D02*
X244758D01*
X236558Y-69156D02*
X244657D01*
X237357Y-64156D02*
X244758D01*
X237357Y-64056D02*
X244758D01*
X237357Y-64456D02*
X244758D01*
X237357Y-64256D02*
X244758D01*
X237357Y-64756D02*
X244758D01*
X237357Y-64656D02*
X244758D01*
X237357Y-64556D02*
X244758D01*
X237357Y-63956D02*
X244758D01*
X237357Y-64356D02*
X244758D01*
X237357Y-64856D02*
X244758D01*
X237357Y-65956D02*
X244758D01*
X237357Y-66256D02*
X244758D01*
X237357Y-66156D02*
X244758D01*
X237357Y-66056D02*
X244758D01*
X237357Y-66756D02*
X244758D01*
X237357Y-66556D02*
X244758D01*
X237357Y-66456D02*
X244758D01*
X237357Y-66356D02*
X244758D01*
X237357Y-66656D02*
X244758D01*
X237357Y-65856D02*
X244758D01*
X235958Y-62556D02*
X244458D01*
X237357Y-62856D02*
X244557D01*
X235958Y-62656D02*
X244458D01*
X237357Y-63856D02*
X244758D01*
X237357Y-63756D02*
X244758D01*
X237357Y-63656D02*
X244758D01*
X237357Y-63556D02*
X244758D01*
X237357Y-63256D02*
X244657D01*
X237357Y-63456D02*
X244758D01*
X237357Y-63356D02*
X244657D01*
X237357Y-63156D02*
X244657D01*
X237357Y-63056D02*
X244657D01*
X237357Y-62956D02*
X244657D01*
X235958Y-62756D02*
X244557D01*
X225358Y-58356D02*
X239558D01*
X224358Y-58656D02*
X240558D01*
X224758Y-58456D02*
X240158D01*
X223857Y-59056D02*
X241057D01*
X223657Y-59356D02*
X241357D01*
X223758Y-59256D02*
X241258D01*
X223758Y-59156D02*
X241158D01*
X223957Y-58956D02*
X240957D01*
X224058Y-58856D02*
X240858D01*
X223557Y-59556D02*
X241558D01*
X223657Y-59456D02*
X241458D01*
X224557Y-58556D02*
X240357D01*
X224158Y-58756D02*
X240657D01*
D16*
X189370Y-167027D02*
X218110D01*
X189370Y-183957D02*
X218110D01*
X159055Y-200098D02*
Y-171358D01*
X175984Y-200098D02*
Y-171358D01*
X268996Y-27185D02*
Y-17421D01*
X233563D02*
X268996D01*
X233563Y-27185D02*
Y-17421D01*
Y-52854D02*
Y-43091D01*
Y-52854D02*
X268996D01*
Y-43091D01*
X145965Y-66063D02*
Y-62677D01*
X151870Y-66063D02*
Y-62677D01*
X330620Y-185866D02*
X337018D01*
X330620Y-198189D02*
X337018D01*
X356850Y-209626D02*
X362520D01*
X356850Y-174429D02*
X362520D01*
X373307D02*
X378150D01*
Y-209626D02*
Y-174429D01*
X373307Y-209626D02*
X378150D01*
D17*
X172047Y-97638D02*
Y-66929D01*
Y-97638D02*
X175787Y-101378D01*
X206496D01*
X210236Y-97638D01*
Y-66929D01*
X206496Y-63189D02*
X210236Y-66929D01*
X175787Y-63189D02*
X206496D01*
X172047Y-66929D02*
X175787Y-63189D01*
D18*
X144488Y-147835D02*
X150000D01*
X144488Y-158071D02*
Y-147835D01*
Y-158071D02*
X150000D01*
Y-147835D01*
X149044Y-153553D02*
Y-152353D01*
X145344Y-153553D02*
X149044D01*
X145344D02*
Y-152353D01*
X149044D01*
X150492Y-147835D02*
X156004D01*
X150492Y-158071D02*
Y-147835D01*
Y-158071D02*
X156004D01*
Y-147835D01*
X155048Y-153553D02*
Y-152353D01*
X151348Y-153553D02*
X155048D01*
X151348D02*
Y-152353D01*
X155048D01*
X190059Y-123228D02*
X195571D01*
Y-112992D01*
X190059D02*
X195571D01*
X190059Y-123228D02*
Y-112992D01*
X191015Y-118710D02*
Y-117510D01*
X194715D01*
Y-118710D02*
Y-117510D01*
X191015Y-118710D02*
X194715D01*
X183957Y-123228D02*
X189469D01*
Y-112992D01*
X183957D02*
X189469D01*
X183957Y-123228D02*
Y-112992D01*
X184913Y-118710D02*
Y-117510D01*
X188613D01*
Y-118710D02*
Y-117510D01*
X184913Y-118710D02*
X188613D01*
X196161Y-123228D02*
X201673D01*
Y-112992D01*
X196161D02*
X201673D01*
X196161Y-123228D02*
Y-112992D01*
X197117Y-118710D02*
Y-117510D01*
X200817D01*
Y-118710D02*
Y-117510D01*
X197117Y-118710D02*
X200817D01*
X330413Y-177953D02*
Y-172441D01*
X320177D02*
X330413D01*
X320177Y-177953D02*
Y-172441D01*
Y-177953D02*
X330413D01*
X324695Y-176997D02*
X325895D01*
X324695D02*
Y-173297D01*
X325895D01*
Y-176997D02*
Y-173297D01*
X325797Y-170794D02*
Y-167394D01*
X324597Y-170794D02*
Y-167394D01*
X319685Y-171850D02*
X330709D01*
X319685D02*
Y-166339D01*
X330709D01*
Y-171850D02*
Y-166339D01*
X325797Y-164791D02*
Y-161391D01*
X324597Y-164791D02*
Y-161391D01*
X319685Y-165847D02*
X330709D01*
X319685D02*
Y-160335D01*
X330709D01*
Y-165847D02*
Y-160335D01*
X273130Y-196752D02*
Y-191240D01*
Y-196752D02*
X283366D01*
Y-191240D01*
X273130D02*
X283366D01*
X277648Y-192196D02*
X278848D01*
Y-195896D02*
Y-192196D01*
X277648Y-195896D02*
X278848D01*
X277648D02*
Y-192196D01*
X204205Y-118612D02*
X207606D01*
X204205Y-117412D02*
X207606D01*
X203150Y-123524D02*
Y-112500D01*
X208661D01*
Y-123524D02*
Y-112500D01*
X203150Y-123524D02*
X208661D01*
X51181Y-134449D02*
X60039D01*
X49213Y-132480D02*
X51181Y-134449D01*
X49213Y-132480D02*
Y-112795D01*
X51181Y-110827D01*
X75787D01*
X77756Y-112795D01*
X77756D01*
Y-132480D02*
Y-112795D01*
X75787Y-134449D02*
X77756Y-132480D01*
X60039Y-134449D02*
X75787D01*
X168182Y-44183D02*
X171582D01*
X168182Y-45384D02*
X171582D01*
X172638Y-50295D02*
Y-39272D01*
X167126Y-50295D02*
X172638D01*
X167126D02*
Y-39272D01*
X172638D01*
X335630Y-175492D02*
X341142D01*
X335630Y-185728D02*
Y-175492D01*
Y-185728D02*
X341142D01*
Y-175492D01*
X340186Y-181210D02*
Y-180010D01*
X336486Y-181210D02*
X340186D01*
X336486D02*
Y-180010D01*
X340186D01*
X261319Y-160827D02*
X266831D01*
Y-150591D01*
X261319D02*
X266831D01*
X261319Y-160827D02*
Y-150591D01*
X262275Y-156309D02*
Y-155109D01*
X265975D01*
Y-156309D02*
Y-155109D01*
X262275Y-156309D02*
X265975D01*
X274410Y-148031D02*
Y-142520D01*
X264173D02*
X274410D01*
X264173Y-148031D02*
Y-142520D01*
Y-148031D02*
X274410D01*
X268691Y-147076D02*
X269891D01*
X268691D02*
Y-143376D01*
X269891D01*
Y-147076D02*
Y-143376D01*
X268012Y-160827D02*
X273524D01*
Y-150591D01*
X268012D02*
X273524D01*
X268012Y-160827D02*
Y-150591D01*
X268968Y-156309D02*
Y-155109D01*
X272668D01*
Y-156309D02*
Y-155109D01*
X268968Y-156309D02*
X272668D01*
X261319Y-171555D02*
X266831D01*
Y-161319D01*
X261319D02*
X266831D01*
X261319Y-171555D02*
Y-161319D01*
X262275Y-167037D02*
Y-165837D01*
X265975D01*
Y-167037D02*
Y-165837D01*
X262275Y-167037D02*
X265975D01*
X212608Y-129064D02*
Y-125364D01*
X211408D02*
X212608D01*
X211408Y-129064D02*
Y-125364D01*
Y-129064D02*
X212608D01*
X206890Y-130020D02*
X217126D01*
X206890D02*
Y-124508D01*
X217126D01*
Y-130020D02*
Y-124508D01*
X217717Y-123917D02*
Y-118405D01*
Y-123917D02*
X228740D01*
Y-118405D01*
X217717D02*
X228740D01*
X223828Y-122861D02*
Y-119461D01*
X222628Y-122861D02*
Y-119461D01*
X325679Y-84411D02*
Y-80711D01*
Y-84411D02*
X326879D01*
Y-80711D01*
X325679D02*
X326879D01*
X321161Y-79755D02*
X331397D01*
Y-85267D02*
Y-79755D01*
X321161Y-85267D02*
X331397D01*
X321161D02*
Y-79755D01*
X146161Y-98425D02*
X151673D01*
X146161Y-108661D02*
Y-98425D01*
Y-108661D02*
X151673D01*
Y-98425D01*
X150717Y-104143D02*
Y-102943D01*
X147017Y-104143D02*
X150717D01*
X147017D02*
Y-102943D01*
X150717D01*
X152264Y-108957D02*
X157776D01*
Y-97933D01*
X152264D02*
X157776D01*
X152264Y-108957D02*
Y-97933D01*
X153320Y-102845D02*
X156720D01*
X153320Y-104045D02*
X156720D01*
X310433Y-50098D02*
Y-44587D01*
X299410D02*
X310433D01*
X299410Y-50098D02*
Y-44587D01*
Y-50098D02*
X310433D01*
X304321Y-49042D02*
Y-45643D01*
X305521Y-49042D02*
Y-45643D01*
X325098Y-51378D02*
X330610D01*
X325098Y-61614D02*
Y-51378D01*
Y-61614D02*
X330610D01*
Y-51378D01*
X329654Y-57096D02*
Y-55896D01*
X325954Y-57096D02*
X329654D01*
X325954D02*
Y-55896D01*
X329654D01*
X299410Y-21457D02*
Y-15945D01*
Y-21457D02*
X310433D01*
Y-15945D01*
X299410D02*
X310433D01*
X305521Y-20401D02*
Y-17001D01*
X304321Y-20401D02*
Y-17001D01*
X212697Y-159646D02*
Y-154134D01*
X201673D02*
X212697D01*
X201673Y-159646D02*
Y-154134D01*
Y-159646D02*
X212697D01*
X206585Y-158590D02*
Y-155190D01*
X207785Y-158590D02*
Y-155190D01*
X201673Y-136122D02*
Y-130610D01*
Y-136122D02*
X212697D01*
Y-130610D01*
X201673D02*
X212697D01*
X207785Y-135066D02*
Y-131666D01*
X206585Y-135066D02*
Y-131666D01*
X191446Y-193532D02*
Y-189832D01*
X190246D02*
X191446D01*
X190246Y-193532D02*
Y-189832D01*
Y-193532D02*
X191446D01*
X185728Y-194488D02*
X195965D01*
X185728D02*
Y-188976D01*
X195965D01*
Y-194488D02*
Y-188976D01*
X236319Y-168504D02*
X241831D01*
X236319Y-178740D02*
Y-168504D01*
Y-178740D02*
X241831D01*
Y-168504D01*
X240875Y-174222D02*
Y-173022D01*
X237175Y-174222D02*
X240875D01*
X237175D02*
Y-173022D01*
X240875D01*
X239665Y-123917D02*
Y-118405D01*
X229429D02*
X239665D01*
X229429Y-123917D02*
Y-118405D01*
Y-123917D02*
X239665D01*
X233947Y-122961D02*
X235147D01*
X233947D02*
Y-119261D01*
X235147D01*
Y-122961D02*
Y-119261D01*
X186122Y-39665D02*
X191634D01*
X186122Y-49902D02*
Y-39665D01*
Y-49902D02*
X191634D01*
Y-39665D01*
X190678Y-45384D02*
Y-44183D01*
X186978Y-45384D02*
X190678D01*
X186978D02*
Y-44183D01*
X190678D01*
X274213Y-129921D02*
Y-124409D01*
X263976D02*
X274213D01*
X263976Y-129921D02*
Y-124409D01*
Y-129921D02*
X274213D01*
X268495Y-128965D02*
X269694D01*
X268495D02*
Y-125265D01*
X269694D01*
Y-128965D02*
Y-125265D01*
X336586Y-204832D02*
X340286D01*
Y-203632D01*
X336586D02*
X340286D01*
X336586Y-204832D02*
Y-203632D01*
X335630Y-209350D02*
Y-199114D01*
X341142D01*
Y-209350D02*
Y-199114D01*
X335630Y-209350D02*
X341142D01*
X137490Y-61050D02*
Y-57650D01*
X138690Y-61050D02*
Y-57650D01*
X132579Y-56595D02*
X143602D01*
Y-62106D02*
Y-56595D01*
X132579Y-62106D02*
X143602D01*
X132579D02*
Y-56595D01*
X137490Y-71090D02*
Y-67690D01*
X138690Y-71090D02*
Y-67690D01*
X132579Y-66634D02*
X143602D01*
Y-72146D02*
Y-66634D01*
X132579Y-72146D02*
X143602D01*
X132579D02*
Y-66634D01*
X304124Y-78964D02*
Y-75564D01*
X305324Y-78964D02*
Y-75564D01*
X299213Y-74508D02*
X310236D01*
Y-80020D02*
Y-74508D01*
X299213Y-80020D02*
X310236D01*
X299213D02*
Y-74508D01*
X327040Y-150206D02*
X330440D01*
X327040Y-149006D02*
X330440D01*
X325984Y-155118D02*
Y-144095D01*
X331496D01*
Y-155118D02*
Y-144095D01*
X325984Y-155118D02*
X331496D01*
X321135Y-150206D02*
X324535D01*
X321135Y-149006D02*
X324535D01*
X320079Y-155118D02*
Y-144095D01*
X325591D01*
Y-155118D02*
Y-144095D01*
X320079Y-155118D02*
X325591D01*
X315229Y-150206D02*
X318629D01*
X315229Y-149006D02*
X318629D01*
X314173Y-155118D02*
Y-144095D01*
X319685D01*
Y-155118D02*
Y-144095D01*
X314173Y-155118D02*
X319685D01*
X306174Y-123041D02*
X309574D01*
X306174Y-121841D02*
X309574D01*
X305118Y-127953D02*
Y-116929D01*
X310630D01*
Y-127953D02*
Y-116929D01*
X305118Y-127953D02*
X310630D01*
X306174Y-136033D02*
X309574D01*
X306174Y-134833D02*
X309574D01*
X305118Y-140945D02*
Y-129921D01*
X310630D01*
Y-140945D02*
Y-129921D01*
X305118Y-140945D02*
X310630D01*
X215256Y-43602D02*
Y-38091D01*
X205020D02*
X215256D01*
X205020Y-43602D02*
Y-38091D01*
Y-43602D02*
X215256D01*
X209538Y-42647D02*
X210738D01*
X209538D02*
Y-38947D01*
X210738D01*
Y-42647D02*
Y-38947D01*
X205020Y-37598D02*
Y-32087D01*
Y-37598D02*
X215256D01*
Y-32087D01*
X205020D02*
X215256D01*
X209538Y-33042D02*
X210738D01*
Y-36742D02*
Y-33042D01*
X209538Y-36742D02*
X210738D01*
X209538D02*
Y-33042D01*
X331397Y-103673D02*
Y-98161D01*
X321161D02*
X331397D01*
X321161Y-103673D02*
Y-98161D01*
Y-103673D02*
X331397D01*
X325679Y-102717D02*
X326879D01*
X325679D02*
Y-99017D01*
X326879D01*
Y-102717D02*
Y-99017D01*
X255512Y-223622D02*
Y-218110D01*
Y-223622D02*
X266535D01*
Y-218110D01*
X255512D02*
X266535D01*
X261624Y-222566D02*
Y-219166D01*
X260424Y-222566D02*
Y-219166D01*
X294488Y-218110D02*
Y-212598D01*
X283465D02*
X294488D01*
X283465Y-218110D02*
Y-212598D01*
Y-218110D02*
X294488D01*
X288376Y-217054D02*
Y-213654D01*
X289576Y-217054D02*
Y-213654D01*
X294488Y-223622D02*
Y-218110D01*
X283465D02*
X294488D01*
X283465Y-223622D02*
Y-218110D01*
Y-223622D02*
X294488D01*
X288376Y-222566D02*
Y-219166D01*
X289576Y-222566D02*
Y-219166D01*
X60138Y-39547D02*
X75886D01*
X77854Y-37579D01*
Y-17894D01*
X77854D02*
X77854D01*
X75886Y-15925D02*
X77854Y-17894D01*
X51279Y-15925D02*
X75886D01*
X49311Y-17894D02*
X51279Y-15925D01*
X49311Y-37579D02*
Y-17894D01*
Y-37579D02*
X51279Y-39547D01*
X60138D01*
X51378Y-63189D02*
X60236D01*
X49409Y-61221D02*
X51378Y-63189D01*
X49409Y-61221D02*
Y-41535D01*
X51378Y-39567D01*
X75984D01*
X77953Y-41535D01*
X77953D01*
Y-61221D02*
Y-41535D01*
X75984Y-63189D02*
X77953Y-61221D01*
X60236Y-63189D02*
X75984D01*
X60236Y-86811D02*
X75984D01*
X77953Y-84842D01*
Y-65158D01*
X77953D02*
X77953D01*
X75984Y-63189D02*
X77953Y-65158D01*
X51378Y-63189D02*
X75984D01*
X49409Y-65158D02*
X51378Y-63189D01*
X49409Y-84842D02*
Y-65158D01*
Y-84842D02*
X51378Y-86811D01*
X60236D01*
X51378Y-110630D02*
X60236D01*
X49409Y-108661D02*
X51378Y-110630D01*
X49409Y-108661D02*
Y-88976D01*
X51378Y-87008D01*
X75984D01*
X77953Y-88976D01*
X77953D01*
Y-108661D02*
Y-88976D01*
X75984Y-110630D02*
X77953Y-108661D01*
X60236Y-110630D02*
X75984D01*
X134932Y-82212D02*
Y-78812D01*
X136132Y-82212D02*
Y-78812D01*
X130020Y-77756D02*
X141043D01*
Y-83268D02*
Y-77756D01*
X130020Y-83268D02*
X141043D01*
X130020D02*
Y-77756D01*
X79499Y-22450D02*
X83199D01*
Y-21250D01*
X79499D02*
X83199D01*
X79499Y-22450D02*
Y-21250D01*
X78543Y-26969D02*
Y-16732D01*
X84055D01*
Y-26969D02*
Y-16732D01*
X78543Y-26969D02*
X84055D01*
X79499Y-34262D02*
X83199D01*
Y-33062D01*
X79499D02*
X83199D01*
X79499Y-34262D02*
Y-33062D01*
X78543Y-38780D02*
Y-28543D01*
X84055D01*
Y-38780D02*
Y-28543D01*
X78543Y-38780D02*
X84055D01*
X79499Y-46073D02*
X83199D01*
Y-44872D01*
X79499D02*
X83199D01*
X79499Y-46073D02*
Y-44872D01*
X78543Y-50591D02*
Y-40354D01*
X84055D01*
Y-50591D02*
Y-40354D01*
X78543Y-50591D02*
X84055D01*
X79499Y-57884D02*
X83199D01*
Y-56683D01*
X79499D02*
X83199D01*
X79499Y-57884D02*
Y-56683D01*
X78543Y-62402D02*
Y-52165D01*
X84055D01*
Y-62402D02*
Y-52165D01*
X78543Y-62402D02*
X84055D01*
X74972Y-212608D02*
X78672D01*
Y-211408D01*
X74972D02*
X78672D01*
X74972Y-212608D02*
Y-211408D01*
X74016Y-217126D02*
Y-206890D01*
X79528D01*
Y-217126D02*
Y-206890D01*
X74016Y-217126D02*
X79528D01*
X82155Y-208258D02*
X85855D01*
X82155Y-209458D02*
Y-208258D01*
Y-209458D02*
X85855D01*
Y-208258D01*
X86811Y-213976D02*
Y-203740D01*
X81299Y-213976D02*
X86811D01*
X81299D02*
Y-203740D01*
X86811D01*
X74972Y-195384D02*
X78672D01*
Y-194184D01*
X74972D02*
X78672D01*
X74972Y-195384D02*
Y-194184D01*
X74016Y-199902D02*
Y-189665D01*
X79528D01*
Y-199902D02*
Y-189665D01*
X74016Y-199902D02*
X79528D01*
X82155Y-189754D02*
X85855D01*
X82155Y-190954D02*
Y-189754D01*
Y-190954D02*
X85855D01*
Y-189754D01*
X86811Y-195472D02*
Y-185236D01*
X81299Y-195472D02*
X86811D01*
X81299D02*
Y-185236D01*
X86811D01*
X112017Y-188021D02*
Y-184320D01*
X110817D02*
X112017D01*
X110817Y-188021D02*
Y-184320D01*
Y-188021D02*
X112017D01*
X106299Y-188976D02*
X116535D01*
X106299D02*
Y-183465D01*
X116535D01*
Y-188976D02*
Y-183465D01*
X100403Y-206621D02*
Y-203221D01*
X99203Y-206621D02*
Y-203221D01*
X94291Y-207677D02*
X105315D01*
X94291D02*
Y-202165D01*
X105315D01*
Y-207677D02*
Y-202165D01*
X134932Y-92054D02*
Y-88654D01*
X136132Y-92054D02*
Y-88654D01*
X130020Y-87598D02*
X141043D01*
Y-93110D02*
Y-87598D01*
X130020Y-93110D02*
X141043D01*
X130020D02*
Y-87598D01*
X159422Y-104045D02*
X162822D01*
X159422Y-102845D02*
X162822D01*
X158366Y-108957D02*
Y-97933D01*
X163878D01*
Y-108957D02*
Y-97933D01*
X158366Y-108957D02*
X163878D01*
X119163Y-95561D02*
X122863D01*
X119163Y-96761D02*
Y-95561D01*
Y-96761D02*
X122863D01*
Y-95561D01*
X123819Y-101279D02*
Y-91043D01*
X118307Y-101279D02*
X123819D01*
X118307D02*
Y-91043D01*
X123819D01*
X119163Y-117116D02*
X122863D01*
X119163Y-118316D02*
Y-117116D01*
Y-118316D02*
X122863D01*
Y-117116D01*
X123819Y-122835D02*
Y-112598D01*
X118307Y-122835D02*
X123819D01*
X118307D02*
Y-112598D01*
X123819D01*
X112411Y-130934D02*
Y-127234D01*
X111211D02*
X112411D01*
X111211Y-130934D02*
Y-127234D01*
Y-130934D02*
X112411D01*
X106693Y-131890D02*
X116929D01*
X106693D02*
Y-126378D01*
X116929D01*
Y-131890D02*
Y-126378D01*
X125462Y-138180D02*
X129162D01*
X125462Y-139380D02*
Y-138180D01*
Y-139380D02*
X129162D01*
Y-138180D01*
X130118Y-143898D02*
Y-133661D01*
X124606Y-143898D02*
X130118D01*
X124606D02*
Y-133661D01*
X130118D01*
X100403Y-130834D02*
Y-127434D01*
X99203Y-130834D02*
Y-127434D01*
X94291Y-131890D02*
X105315D01*
X94291D02*
Y-126378D01*
X105315D01*
Y-131890D02*
Y-126378D01*
X79499Y-69695D02*
X83199D01*
Y-68494D01*
X79499D02*
X83199D01*
X79499Y-69695D02*
Y-68494D01*
X78543Y-74213D02*
Y-63976D01*
X84055D01*
Y-74213D02*
Y-63976D01*
X78543Y-74213D02*
X84055D01*
X79499Y-81506D02*
X83199D01*
Y-80305D01*
X79499D02*
X83199D01*
X79499Y-81506D02*
Y-80305D01*
X78543Y-86024D02*
Y-75787D01*
X84055D01*
Y-86024D02*
Y-75787D01*
X78543Y-86024D02*
X84055D01*
X79499Y-93317D02*
X83199D01*
Y-92117D01*
X79499D02*
X83199D01*
X79499Y-93317D02*
Y-92117D01*
X78543Y-97835D02*
Y-87599D01*
X84055D01*
Y-97835D02*
Y-87599D01*
X78543Y-97835D02*
X84055D01*
X79499Y-105128D02*
X83199D01*
Y-103928D01*
X79499D02*
X83199D01*
X79499Y-105128D02*
Y-103928D01*
X78543Y-109646D02*
Y-99410D01*
X84055D01*
Y-109646D02*
Y-99410D01*
X78543Y-109646D02*
X84055D01*
X79499Y-116939D02*
X83199D01*
Y-115739D01*
X79499D02*
X83199D01*
X79499Y-116939D02*
Y-115739D01*
X78543Y-121457D02*
Y-111221D01*
X84055D01*
Y-121457D02*
Y-111221D01*
X78543Y-121457D02*
X84055D01*
X79499Y-128750D02*
X83199D01*
Y-127550D01*
X79499D02*
X83199D01*
X79499Y-128750D02*
Y-127550D01*
X78543Y-133268D02*
Y-123031D01*
X84055D01*
Y-133268D02*
Y-123031D01*
X78543Y-133268D02*
X84055D01*
X74972Y-144104D02*
X78672D01*
Y-142904D01*
X74972D02*
X78672D01*
X74972Y-144104D02*
Y-142904D01*
X74016Y-148622D02*
Y-138386D01*
X79528D01*
Y-148622D02*
Y-138386D01*
X74016Y-148622D02*
X79528D01*
X82649Y-140167D02*
X86349D01*
Y-138967D01*
X82649D02*
X86349D01*
X82649Y-140167D02*
Y-138967D01*
X81693Y-144685D02*
Y-134449D01*
X87205D01*
Y-144685D02*
Y-134449D01*
X81693Y-144685D02*
X87205D01*
X82549Y-153534D02*
X86249D01*
X82549Y-154734D02*
Y-153534D01*
Y-154734D02*
X86249D01*
Y-153534D01*
X87205Y-159252D02*
Y-149016D01*
X81693Y-159252D02*
X87205D01*
X81693D02*
Y-149016D01*
X87205D01*
X74972Y-160935D02*
X78672D01*
Y-159735D01*
X74972D02*
X78672D01*
X74972Y-160935D02*
Y-159735D01*
X74016Y-165453D02*
Y-155217D01*
X79528D01*
Y-165453D02*
Y-155217D01*
X74016Y-165453D02*
X79528D01*
X82155Y-171054D02*
X85855D01*
X82155Y-172254D02*
Y-171054D01*
Y-172254D02*
X85855D01*
Y-171054D01*
X86811Y-176772D02*
Y-166535D01*
X81299Y-176772D02*
X86811D01*
X81299D02*
Y-166535D01*
X86811D01*
X74972Y-178159D02*
X78672D01*
Y-176959D01*
X74972D02*
X78672D01*
X74972Y-178159D02*
Y-176959D01*
X74016Y-182677D02*
Y-172441D01*
X79528D01*
Y-182677D02*
Y-172441D01*
X74016Y-182677D02*
X79528D01*
X112411Y-206721D02*
Y-203021D01*
X111211D02*
X112411D01*
X111211Y-206721D02*
Y-203021D01*
Y-206721D02*
X112411D01*
X106693Y-207677D02*
X116929D01*
X106693D02*
Y-202165D01*
X116929D01*
Y-207677D02*
Y-202165D01*
X125462Y-176073D02*
X129162D01*
X125462Y-177273D02*
Y-176073D01*
Y-177273D02*
X129162D01*
Y-176073D01*
X130118Y-181791D02*
Y-171555D01*
X124606Y-181791D02*
X130118D01*
X124606D02*
Y-171555D01*
X130118D01*
X125462Y-195020D02*
X129162D01*
X125462Y-196220D02*
Y-195020D01*
Y-196220D02*
X129162D01*
Y-195020D01*
X130118Y-200738D02*
Y-190502D01*
X124606Y-200738D02*
X130118D01*
X124606D02*
Y-190502D01*
X130118D01*
X125562Y-215167D02*
X129262D01*
Y-213967D01*
X125562D02*
X129262D01*
X125562Y-215167D02*
Y-213967D01*
X124606Y-219685D02*
Y-209449D01*
X130118D01*
Y-219685D02*
Y-209449D01*
X124606Y-219685D02*
X130118D01*
X269694Y-134869D02*
Y-131469D01*
X268495Y-134869D02*
Y-131469D01*
X263583Y-135925D02*
X274606D01*
X263583D02*
Y-130413D01*
X274606D01*
Y-135925D02*
Y-130413D01*
X268691Y-141073D02*
Y-137373D01*
Y-141073D02*
X269891D01*
Y-137373D01*
X268691D02*
X269891D01*
X264173Y-136417D02*
X274410D01*
Y-141929D02*
Y-136417D01*
X264173Y-141929D02*
X274410D01*
X264173D02*
Y-136417D01*
X269694Y-122961D02*
Y-119261D01*
X268495D02*
X269694D01*
X268495Y-122961D02*
Y-119261D01*
Y-122961D02*
X269694D01*
X263976Y-123917D02*
X274213D01*
X263976D02*
Y-118405D01*
X274213D01*
Y-123917D02*
Y-118405D01*
X255387Y-174124D02*
X258787D01*
X255387Y-172924D02*
X258787D01*
X254331Y-179035D02*
Y-168012D01*
X259842D01*
Y-179035D02*
Y-168012D01*
X254331Y-179035D02*
X259842D01*
X249183Y-173022D02*
X252883D01*
X249183Y-174222D02*
Y-173022D01*
Y-174222D02*
X252883D01*
Y-173022D01*
X253839Y-178740D02*
Y-168504D01*
X248327Y-178740D02*
X253839D01*
X248327D02*
Y-168504D01*
X253839D01*
X243179Y-173022D02*
X246879D01*
X243179Y-174222D02*
Y-173022D01*
Y-174222D02*
X246879D01*
Y-173022D01*
X247835Y-178740D02*
Y-168504D01*
X242323Y-178740D02*
X247835D01*
X242323D02*
Y-168504D01*
X247835D01*
X231371Y-174222D02*
X234771D01*
X231371Y-173022D02*
X234771D01*
X230315Y-179134D02*
Y-168110D01*
X235827D01*
Y-179134D02*
Y-168110D01*
X230315Y-179134D02*
X235827D01*
X178615Y-118710D02*
X182015D01*
X178615Y-117510D02*
X182015D01*
X177559Y-123622D02*
Y-112598D01*
X183071D01*
Y-123622D02*
Y-112598D01*
X177559Y-123622D02*
X183071D01*
X212589Y-55834D02*
Y-52434D01*
X213789Y-55834D02*
Y-52434D01*
X207677Y-51378D02*
X218701D01*
Y-56890D02*
Y-51378D01*
X207677Y-56890D02*
X218701D01*
X207677D02*
Y-51378D01*
X174973Y-44183D02*
X178373D01*
X174973Y-45384D02*
X178373D01*
X179429Y-50295D02*
Y-39272D01*
X173917Y-50295D02*
X179429D01*
X173917D02*
Y-39272D01*
X179429D01*
X181076Y-44183D02*
X184476D01*
X181076Y-45384D02*
X184476D01*
X185531Y-50295D02*
Y-39272D01*
X180020Y-50295D02*
X185531D01*
X180020D02*
Y-39272D01*
X185531D01*
X203454Y-193432D02*
Y-190032D01*
X202254Y-193432D02*
Y-190032D01*
X197343Y-194488D02*
X208366D01*
X197343D02*
Y-188976D01*
X208366D01*
Y-194488D02*
Y-188976D01*
X179990Y-188770D02*
X183690D01*
X179990Y-189970D02*
Y-188770D01*
Y-189970D02*
X183690D01*
Y-188770D01*
X184646Y-194488D02*
Y-184252D01*
X179134Y-194488D02*
X184646D01*
X179134D02*
Y-184252D01*
X184646D01*
X145168Y-174242D02*
Y-170543D01*
Y-174242D02*
X146368D01*
Y-170543D01*
X145168D02*
X146368D01*
X140650Y-169587D02*
X150886D01*
Y-175098D02*
Y-169587D01*
X140650Y-175098D02*
X150886D01*
X140650D02*
Y-169587D01*
X125462Y-157126D02*
X129162D01*
X125462Y-158326D02*
Y-157126D01*
Y-158326D02*
X129162D01*
Y-157126D01*
X130118Y-162845D02*
Y-152608D01*
X124606Y-162845D02*
X130118D01*
X124606D02*
Y-152608D01*
X130118D01*
X119163Y-72431D02*
X122863D01*
X119163Y-73632D02*
Y-72431D01*
Y-73632D02*
X122863D01*
Y-72431D01*
X123819Y-78150D02*
Y-67913D01*
X118307Y-78150D02*
X123819D01*
X118307D02*
Y-67913D01*
X123819D01*
X119263Y-57687D02*
X122963D01*
Y-56487D01*
X119263D02*
X122963D01*
X119263Y-57687D02*
Y-56487D01*
X118307Y-62205D02*
Y-51968D01*
X123819D01*
Y-62205D02*
Y-51968D01*
X118307Y-62205D02*
X123819D01*
X119853Y-36033D02*
X123554D01*
Y-34833D01*
X119853D02*
X123554D01*
X119853Y-36033D02*
Y-34833D01*
X118898Y-40551D02*
Y-30315D01*
X124409D01*
Y-40551D02*
Y-30315D01*
X118898Y-40551D02*
X124409D01*
X100010Y-187920D02*
Y-184520D01*
X98809Y-187920D02*
Y-184520D01*
X93898Y-188976D02*
X104921D01*
X93898D02*
Y-183465D01*
X104921D01*
Y-188976D02*
Y-183465D01*
X112411Y-169320D02*
Y-165620D01*
X111211D02*
X112411D01*
X111211Y-169320D02*
Y-165620D01*
Y-169320D02*
X112411D01*
X106693Y-170276D02*
X116929D01*
X106693D02*
Y-164764D01*
X116929D01*
Y-170276D02*
Y-164764D01*
X100403Y-169023D02*
Y-165623D01*
X99203Y-169023D02*
Y-165623D01*
X94291Y-170079D02*
X105315D01*
X94291D02*
Y-164567D01*
X105315D01*
Y-170079D02*
Y-164567D01*
X112411Y-149831D02*
Y-146132D01*
X111211D02*
X112411D01*
X111211Y-149831D02*
Y-146132D01*
Y-149831D02*
X112411D01*
X106693Y-150787D02*
X116929D01*
X106693D02*
Y-145276D01*
X116929D01*
Y-150787D02*
Y-145276D01*
X100403Y-149928D02*
Y-146528D01*
X99203Y-149928D02*
Y-146528D01*
X94291Y-150984D02*
X105315D01*
X94291D02*
Y-145472D01*
X105315D01*
Y-150984D02*
Y-145472D01*
D19*
X94504Y-208614D02*
X117504D01*
X94504Y-219614D02*
X117504D01*
X94504Y-144142D02*
X117504D01*
X94504Y-133142D02*
X117504D01*
X94504Y-201228D02*
X117504D01*
X94504Y-190228D02*
X117504D01*
X94504Y-182213D02*
X117504D01*
X94504Y-171213D02*
X117504D01*
X94504Y-163039D02*
X117504D01*
X94504Y-152039D02*
X117504D01*
D20*
X313564Y-135441D02*
Y-119118D01*
X334664Y-135441D02*
Y-119118D01*
D21*
X280098Y-106968D02*
X277343D01*
Y-105591D01*
X277803Y-105132D01*
X278721D01*
X279180Y-105591D01*
Y-106968D01*
Y-106050D02*
X280098Y-105132D01*
X277343Y-104214D02*
X280098D01*
Y-102377D01*
X277343Y-101459D02*
Y-100540D01*
Y-100999D01*
X280098D01*
Y-101459D01*
Y-100540D01*
Y-99163D02*
X277343D01*
X280098Y-97326D01*
X277343D01*
Y-96408D02*
X280098D01*
X279180D01*
X277343Y-94571D01*
X278721Y-95948D01*
X280098Y-94571D01*
X127953Y-205020D02*
Y-202265D01*
X129330D01*
X129789Y-202724D01*
Y-203642D01*
X129330Y-204101D01*
X127953D01*
X128871D02*
X129789Y-205020D01*
X130708D02*
X131626D01*
X131167D01*
Y-202265D01*
X130708Y-202724D01*
X133004D02*
X133463Y-202265D01*
X134381D01*
X134840Y-202724D01*
Y-204560D01*
X134381Y-205020D01*
X133463D01*
X133004Y-204560D01*
Y-202724D01*
X231303Y-103786D02*
Y-103327D01*
X230844Y-102868D01*
X228548D01*
Y-104246D01*
X229007Y-104705D01*
X229925D01*
X230385Y-104246D01*
Y-102868D01*
Y-101950D02*
X228548D01*
Y-100572D01*
X229007Y-100113D01*
X230385D01*
X227630Y-97358D02*
X230385D01*
Y-98735D01*
X229925Y-99195D01*
X229007D01*
X228548Y-98735D01*
Y-97358D01*
X164796Y-16076D02*
X165255D01*
X165715Y-15617D01*
Y-13321D01*
X164337D01*
X163878Y-13780D01*
Y-14698D01*
X164337Y-15157D01*
X165715D01*
X166633D02*
Y-13321D01*
X168010D01*
X168470Y-13780D01*
Y-15157D01*
X171225Y-12403D02*
Y-15157D01*
X169847D01*
X169388Y-14698D01*
Y-13780D01*
X169847Y-13321D01*
X171225D01*
X197638Y-15157D02*
X199015D01*
X199475Y-14698D01*
X199015Y-14239D01*
X198097D01*
X197638Y-13780D01*
X198097Y-13321D01*
X199475D01*
X202229Y-12403D02*
Y-15157D01*
X200852D01*
X200393Y-14698D01*
Y-13780D01*
X200852Y-13321D01*
X202229D01*
X203148Y-15157D02*
X204066D01*
X203607D01*
Y-13321D01*
X203148D01*
X205903Y-15157D02*
X206821D01*
X207280Y-14698D01*
Y-13780D01*
X206821Y-13321D01*
X205903D01*
X205444Y-13780D01*
Y-14698D01*
X205903Y-15157D01*
X183760Y-15157D02*
X185137D01*
X185597Y-14698D01*
X185137Y-14239D01*
X184219D01*
X183760Y-13780D01*
X184219Y-13321D01*
X185597D01*
X186515D02*
Y-14698D01*
X186974Y-15157D01*
X187433Y-14698D01*
X187892Y-15157D01*
X188352Y-14698D01*
Y-13321D01*
X191107D02*
X189729D01*
X189270Y-13780D01*
Y-14698D01*
X189729Y-15157D01*
X191107D01*
X192025D02*
X192943D01*
X192484D01*
Y-12403D01*
X192025D01*
X194321Y-15157D02*
Y-12403D01*
Y-14239D02*
X195698Y-13321D01*
X194321Y-14239D02*
X195698Y-15157D01*
X173425Y-15157D02*
X174803D01*
X175262Y-14698D01*
X174803Y-14239D01*
X173884D01*
X173425Y-13780D01*
X173884Y-13321D01*
X175262D01*
X176180D02*
Y-14698D01*
X176639Y-15157D01*
X177099Y-14698D01*
X177558Y-15157D01*
X178017Y-14698D01*
Y-13321D01*
X179394Y-15157D02*
X180313D01*
X180772Y-14698D01*
Y-13780D01*
X180313Y-13321D01*
X179394D01*
X178935Y-13780D01*
Y-14698D01*
X179394Y-15157D01*
X209744Y-12960D02*
X210203Y-12501D01*
X211122D01*
X211581Y-12960D01*
Y-13419D01*
X211122Y-13878D01*
X210662D01*
X211122D01*
X211581Y-14338D01*
Y-14797D01*
X211122Y-15256D01*
X210203D01*
X209744Y-14797D01*
X212499Y-15256D02*
Y-14797D01*
X212958D01*
Y-15256D01*
X212499D01*
X214795Y-12960D02*
X215254Y-12501D01*
X216173D01*
X216632Y-12960D01*
Y-13419D01*
X216173Y-13878D01*
X215713D01*
X216173D01*
X216632Y-14338D01*
Y-14797D01*
X216173Y-15256D01*
X215254D01*
X214795Y-14797D01*
X217550Y-12501D02*
Y-14338D01*
X218468Y-15256D01*
X219387Y-14338D01*
Y-12501D01*
X268640Y-104705D02*
X268181Y-104246D01*
Y-103327D01*
X268640Y-102868D01*
X269099D01*
X269558Y-103327D01*
Y-103786D01*
Y-103327D01*
X270018Y-102868D01*
X270477D01*
X270936Y-103327D01*
Y-104246D01*
X270477Y-104705D01*
X270936Y-101950D02*
X270477D01*
Y-101490D01*
X270936D01*
Y-101950D01*
X268640Y-99654D02*
X268181Y-99195D01*
Y-98276D01*
X268640Y-97817D01*
X269099D01*
X269558Y-98276D01*
Y-98735D01*
Y-98276D01*
X270018Y-97817D01*
X270477D01*
X270936Y-98276D01*
Y-99195D01*
X270477Y-99654D01*
X268181Y-96899D02*
X270018D01*
X270936Y-95981D01*
X270018Y-95062D01*
X268181D01*
X239834Y-104705D02*
Y-103327D01*
X239374Y-102868D01*
X238915Y-103327D01*
Y-104246D01*
X238456Y-104705D01*
X237997Y-104246D01*
Y-102868D01*
Y-101950D02*
X239374D01*
X239834Y-101490D01*
X239374Y-101031D01*
X239834Y-100572D01*
X239374Y-100113D01*
X237997D01*
X239834Y-98735D02*
Y-97817D01*
X239374Y-97358D01*
X238456D01*
X237997Y-97817D01*
Y-98735D01*
X238456Y-99195D01*
X239374D01*
X239834Y-98735D01*
X250201Y-104705D02*
Y-103327D01*
X249742Y-102868D01*
X249283Y-103327D01*
Y-104246D01*
X248824Y-104705D01*
X248364Y-104246D01*
Y-102868D01*
Y-101950D02*
X249742D01*
X250201Y-101490D01*
X249742Y-101031D01*
X250201Y-100572D01*
X249742Y-100113D01*
X248364D01*
Y-97358D02*
Y-98735D01*
X248824Y-99195D01*
X249742D01*
X250201Y-98735D01*
Y-97358D01*
Y-96440D02*
Y-95521D01*
Y-95981D01*
X247446D01*
Y-96440D01*
X250201Y-94144D02*
X247446D01*
X249283D02*
X248364Y-92766D01*
X249283Y-94144D02*
X250201Y-92766D01*
X260568Y-104705D02*
Y-103327D01*
X260109Y-102868D01*
X259650Y-103327D01*
Y-104246D01*
X259191Y-104705D01*
X258732Y-104246D01*
Y-102868D01*
X257814Y-100113D02*
X260568D01*
Y-101490D01*
X260109Y-101950D01*
X259191D01*
X258732Y-101490D01*
Y-100113D01*
X260568Y-99195D02*
Y-98276D01*
Y-98735D01*
X258732D01*
Y-99195D01*
X260568Y-96440D02*
Y-95521D01*
X260109Y-95062D01*
X259191D01*
X258732Y-95521D01*
Y-96440D01*
X259191Y-96899D01*
X260109D01*
X260568Y-96440D01*
X163453Y-59548D02*
Y-61844D01*
X163912Y-62303D01*
X164830D01*
X165289Y-61844D01*
Y-59548D01*
X168044Y-62303D02*
X166208D01*
X168044Y-60466D01*
Y-60007D01*
X167585Y-59548D01*
X166667D01*
X166208Y-60007D01*
X168963Y-59548D02*
X170799D01*
Y-60007D01*
X168963Y-61844D01*
Y-62303D01*
X139666Y-132413D02*
X141962D01*
X142421Y-131954D01*
Y-131036D01*
X141962Y-130577D01*
X139666D01*
X142421Y-127822D02*
Y-129658D01*
X140584Y-127822D01*
X140125D01*
X139666Y-128281D01*
Y-129199D01*
X140125Y-129658D01*
X139666Y-125067D02*
X140125Y-125985D01*
X141043Y-126903D01*
X141962D01*
X142421Y-126444D01*
Y-125526D01*
X141962Y-125067D01*
X141502D01*
X141043Y-125526D01*
Y-126903D01*
X150756Y-161811D02*
Y-159056D01*
X152133D01*
X152593Y-159515D01*
Y-160433D01*
X152133Y-160892D01*
X150756D01*
X151674D02*
X152593Y-161811D01*
X155348Y-159056D02*
X154429Y-159515D01*
X153511Y-160433D01*
Y-161351D01*
X153970Y-161811D01*
X154888D01*
X155348Y-161351D01*
Y-160892D01*
X154888Y-160433D01*
X153511D01*
X156266Y-159056D02*
X158103D01*
Y-159515D01*
X156266Y-161351D01*
Y-161811D01*
X142291D02*
Y-159056D01*
X143669D01*
X144128Y-159515D01*
Y-160433D01*
X143669Y-160892D01*
X142291D01*
X143210D02*
X144128Y-161811D01*
X146883Y-159056D02*
X145965Y-159515D01*
X145046Y-160433D01*
Y-161351D01*
X145505Y-161811D01*
X146424D01*
X146883Y-161351D01*
Y-160892D01*
X146424Y-160433D01*
X145046D01*
X149638Y-159056D02*
X148720Y-159515D01*
X147801Y-160433D01*
Y-161351D01*
X148260Y-161811D01*
X149179D01*
X149638Y-161351D01*
Y-160892D01*
X149179Y-160433D01*
X147801D01*
X286287Y-163386D02*
Y-165682D01*
X286746Y-166141D01*
X287665D01*
X288124Y-165682D01*
Y-163386D01*
X290879Y-166141D02*
X289042D01*
X290879Y-164305D01*
Y-163845D01*
X290420Y-163386D01*
X289502D01*
X289042Y-163845D01*
X293175Y-166141D02*
Y-163386D01*
X291797Y-164764D01*
X293634D01*
X200295Y-131772D02*
X197540D01*
Y-130394D01*
X197999Y-129935D01*
X198917D01*
X199376Y-130394D01*
Y-131772D01*
Y-130853D02*
X200295Y-129935D01*
X197540Y-127180D02*
X197999Y-128098D01*
X198917Y-129017D01*
X199836D01*
X200295Y-128558D01*
Y-127639D01*
X199836Y-127180D01*
X199376D01*
X198917Y-127639D01*
Y-129017D01*
X197540Y-124425D02*
Y-126262D01*
X198917D01*
X198458Y-125343D01*
Y-124884D01*
X198917Y-124425D01*
X199836D01*
X200295Y-124884D01*
Y-125802D01*
X199836Y-126262D01*
X194291Y-131870D02*
X191536D01*
Y-130493D01*
X191995Y-130033D01*
X192913D01*
X193372Y-130493D01*
Y-131870D01*
Y-130952D02*
X194291Y-130033D01*
X191536Y-127278D02*
X191995Y-128197D01*
X192913Y-129115D01*
X193832D01*
X194291Y-128656D01*
Y-127738D01*
X193832Y-127278D01*
X193372D01*
X192913Y-127738D01*
Y-129115D01*
X194291Y-124983D02*
X191536D01*
X192913Y-126360D01*
Y-124523D01*
X187992Y-131870D02*
X185237D01*
Y-130493D01*
X185696Y-130033D01*
X186614D01*
X187073Y-130493D01*
Y-131870D01*
Y-130952D02*
X187992Y-130033D01*
X185237Y-127278D02*
X185696Y-128197D01*
X186614Y-129115D01*
X187532D01*
X187992Y-128656D01*
Y-127738D01*
X187532Y-127278D01*
X187073D01*
X186614Y-127738D01*
Y-129115D01*
X185696Y-126360D02*
X185237Y-125901D01*
Y-124983D01*
X185696Y-124523D01*
X186155D01*
X186614Y-124983D01*
Y-125442D01*
Y-124983D01*
X187073Y-124523D01*
X187532D01*
X187992Y-124983D01*
Y-125901D01*
X187532Y-126360D01*
X188504Y-154134D02*
Y-156889D01*
X189881D01*
X190341Y-156430D01*
Y-154594D01*
X189881Y-154134D01*
X188504D01*
X191259Y-156889D02*
X192177D01*
X191718D01*
Y-154134D01*
X191259Y-154594D01*
X193555Y-156889D02*
X194473D01*
X194014D01*
Y-154134D01*
X193555Y-154594D01*
X176791Y-154134D02*
Y-156889D01*
X178169D01*
X178628Y-156430D01*
Y-154594D01*
X178169Y-154134D01*
X176791D01*
X179546Y-156889D02*
X180465D01*
X180006D01*
Y-154134D01*
X179546Y-154594D01*
X181842D02*
X182301Y-154134D01*
X183220D01*
X183679Y-154594D01*
Y-156430D01*
X183220Y-156889D01*
X182301D01*
X181842Y-156430D01*
Y-154594D01*
X167539Y-154134D02*
Y-156889D01*
X168917D01*
X169376Y-156430D01*
Y-154594D01*
X168917Y-154134D01*
X167539D01*
X170294Y-156430D02*
X170754Y-156889D01*
X171672D01*
X172131Y-156430D01*
Y-154594D01*
X171672Y-154134D01*
X170754D01*
X170294Y-154594D01*
Y-155053D01*
X170754Y-155512D01*
X172131D01*
X295492Y-142796D02*
X297329Y-145551D01*
Y-142796D02*
X295492Y-145551D01*
X298247Y-142796D02*
X300084D01*
X299166D01*
Y-145551D01*
X301002D02*
Y-143714D01*
X301921Y-142796D01*
X302839Y-143714D01*
Y-145551D01*
Y-144174D01*
X301002D01*
X303757Y-142796D02*
Y-145551D01*
X305594D01*
X307890D02*
Y-142796D01*
X306512Y-144174D01*
X308349D01*
X273197Y-200492D02*
Y-197737D01*
X274574D01*
X275033Y-198196D01*
Y-199114D01*
X274574Y-199573D01*
X273197D01*
X274115D02*
X275033Y-200492D01*
X277788Y-197737D02*
X276870Y-198196D01*
X275952Y-199114D01*
Y-200032D01*
X276411Y-200492D01*
X277329D01*
X277788Y-200032D01*
Y-199573D01*
X277329Y-199114D01*
X275952D01*
X278707Y-198196D02*
X279166Y-197737D01*
X280084D01*
X280543Y-198196D01*
Y-200032D01*
X280084Y-200492D01*
X279166D01*
X278707Y-200032D01*
Y-198196D01*
X320441Y-181791D02*
Y-179036D01*
X321818D01*
X322277Y-179495D01*
Y-180413D01*
X321818Y-180873D01*
X320441D01*
X321359D02*
X322277Y-181791D01*
X325032Y-179036D02*
X323196D01*
Y-180413D01*
X324114Y-179954D01*
X324573D01*
X325032Y-180413D01*
Y-181332D01*
X324573Y-181791D01*
X323655D01*
X323196Y-181332D01*
X325951D02*
X326410Y-181791D01*
X327328D01*
X327787Y-181332D01*
Y-179495D01*
X327328Y-179036D01*
X326410D01*
X325951Y-179495D01*
Y-179954D01*
X326410Y-180413D01*
X327787D01*
X333400Y-162172D02*
X332940Y-161713D01*
X332022D01*
X331563Y-162172D01*
Y-164009D01*
X332022Y-164468D01*
X332940D01*
X333400Y-164009D01*
X334318Y-162172D02*
X334777Y-161713D01*
X335695D01*
X336155Y-162172D01*
Y-162631D01*
X335695Y-163091D01*
X335236D01*
X335695D01*
X336155Y-163550D01*
Y-164009D01*
X335695Y-164468D01*
X334777D01*
X334318Y-164009D01*
X337073D02*
X337532Y-164468D01*
X338450D01*
X338910Y-164009D01*
Y-162172D01*
X338450Y-161713D01*
X337532D01*
X337073Y-162172D01*
Y-162631D01*
X337532Y-163091D01*
X338910D01*
X333400Y-168275D02*
X332940Y-167815D01*
X332022D01*
X331563Y-168275D01*
Y-170111D01*
X332022Y-170570D01*
X332940D01*
X333400Y-170111D01*
X334318Y-168275D02*
X334777Y-167815D01*
X335695D01*
X336155Y-168275D01*
Y-168734D01*
X335695Y-169193D01*
X335236D01*
X335695D01*
X336155Y-169652D01*
Y-170111D01*
X335695Y-170570D01*
X334777D01*
X334318Y-170111D01*
X337073Y-168275D02*
X337532Y-167815D01*
X338450D01*
X338910Y-168275D01*
Y-168734D01*
X338450Y-169193D01*
X338910Y-169652D01*
Y-170111D01*
X338450Y-170570D01*
X337532D01*
X337073Y-170111D01*
Y-169652D01*
X337532Y-169193D01*
X337073Y-168734D01*
Y-168275D01*
X337532Y-169193D02*
X338450D01*
X210105Y-116502D02*
X209646Y-116961D01*
Y-117880D01*
X210105Y-118339D01*
X211942D01*
X212401Y-117880D01*
Y-116961D01*
X211942Y-116502D01*
X212401Y-115584D02*
Y-114666D01*
Y-115125D01*
X209646D01*
X210105Y-115584D01*
X212401Y-113288D02*
Y-112370D01*
Y-112829D01*
X209646D01*
X210105Y-113288D01*
X346326Y-168800D02*
X348163Y-171555D01*
Y-168800D02*
X346326Y-171555D01*
X349081Y-169259D02*
X349540Y-168800D01*
X350459D01*
X350918Y-169259D01*
Y-169718D01*
X350459Y-170177D01*
X350000D01*
X350459D01*
X350918Y-170636D01*
Y-171096D01*
X350459Y-171555D01*
X349540D01*
X349081Y-171096D01*
X321851Y-198457D02*
X324147D01*
X324606Y-197998D01*
Y-197079D01*
X324147Y-196620D01*
X321851D01*
X324606Y-193865D02*
Y-195702D01*
X322769Y-193865D01*
X322310D01*
X321851Y-194324D01*
Y-195243D01*
X322310Y-195702D01*
X321851Y-191110D02*
Y-192947D01*
X323228D01*
X322769Y-192028D01*
Y-191569D01*
X323228Y-191110D01*
X324147D01*
X324606Y-191569D01*
Y-192488D01*
X324147Y-192947D01*
X334645Y-184579D02*
X331890D01*
Y-183201D01*
X332349Y-182742D01*
X333268D01*
X333727Y-183201D01*
Y-184579D01*
Y-183660D02*
X334645Y-182742D01*
X331890Y-179987D02*
X332349Y-180905D01*
X333268Y-181824D01*
X334186D01*
X334645Y-181365D01*
Y-180446D01*
X334186Y-179987D01*
X333727D01*
X333268Y-180446D01*
Y-181824D01*
X334645Y-177232D02*
Y-179069D01*
X332809Y-177232D01*
X332349D01*
X331890Y-177691D01*
Y-178610D01*
X332349Y-179069D01*
X334645Y-209218D02*
X331890D01*
Y-207841D01*
X332349Y-207381D01*
X333268D01*
X333727Y-207841D01*
Y-209218D01*
Y-208300D02*
X334645Y-207381D01*
X331890Y-204626D02*
X332349Y-205545D01*
X333268Y-206463D01*
X334186D01*
X334645Y-206004D01*
Y-205086D01*
X334186Y-204626D01*
X333727D01*
X333268Y-205086D01*
Y-206463D01*
X334645Y-203708D02*
Y-202790D01*
Y-203249D01*
X331890D01*
X332349Y-203708D01*
X175033Y-165420D02*
X174574Y-164961D01*
X173656D01*
X173197Y-165420D01*
Y-167257D01*
X173656Y-167716D01*
X174574D01*
X175033Y-167257D01*
X177788Y-167716D02*
X175952D01*
X177788Y-165879D01*
Y-165420D01*
X177329Y-164961D01*
X176411D01*
X175952Y-165420D01*
X178707D02*
X179166Y-164961D01*
X180084D01*
X180543Y-165420D01*
Y-165879D01*
X180084Y-166339D01*
X180543Y-166798D01*
Y-167257D01*
X180084Y-167716D01*
X179166D01*
X178707Y-167257D01*
Y-166798D01*
X179166Y-166339D01*
X178707Y-165879D01*
Y-165420D01*
X179166Y-166339D02*
X180084D01*
X155414Y-68961D02*
X158169Y-67125D01*
X155414D02*
X158169Y-68961D01*
X155414Y-66206D02*
Y-64370D01*
Y-65288D01*
X158169D01*
Y-63451D02*
X156332D01*
X155414Y-62533D01*
X156332Y-61615D01*
X158169D01*
X156791D01*
Y-63451D01*
X155414Y-60696D02*
X158169D01*
Y-58860D01*
Y-57941D02*
Y-57023D01*
Y-57482D01*
X155414D01*
X155873Y-57941D01*
X157415Y-51477D02*
Y-54232D01*
X158793D01*
X159252Y-53773D01*
Y-51936D01*
X158793Y-51477D01*
X157415D01*
X160170Y-54232D02*
X161089D01*
X160629D01*
Y-51477D01*
X160170Y-51936D01*
X168767Y-33595D02*
X168307Y-34054D01*
Y-34973D01*
X168767Y-35432D01*
X170603D01*
X171063Y-34973D01*
Y-34054D01*
X170603Y-33595D01*
X171063Y-32677D02*
Y-31759D01*
Y-32218D01*
X168307D01*
X168767Y-32677D01*
X171063Y-28544D02*
Y-30381D01*
X169226Y-28544D01*
X168767D01*
X168307Y-29004D01*
Y-29922D01*
X168767Y-30381D01*
X121786Y-14174D02*
Y-16929D01*
X123164D01*
X123623Y-16469D01*
Y-16010D01*
X123164Y-15551D01*
X121786D01*
X123164D01*
X123623Y-15092D01*
Y-14633D01*
X123164Y-14174D01*
X121786D01*
X124541Y-16929D02*
Y-15092D01*
X125460Y-14174D01*
X126378Y-15092D01*
Y-16929D01*
Y-15551D01*
X124541D01*
X127296Y-14174D02*
X129133D01*
X128215D01*
Y-16929D01*
X130051D02*
X130970D01*
X130510D01*
Y-14174D01*
X130051Y-14633D01*
X129397Y-60105D02*
X128937Y-60564D01*
Y-61482D01*
X129397Y-61941D01*
X131233D01*
X131693Y-61482D01*
Y-60564D01*
X131233Y-60105D01*
X131693Y-57350D02*
Y-59187D01*
X129856Y-57350D01*
X129397D01*
X128937Y-57809D01*
Y-58727D01*
X129397Y-59187D01*
X129298Y-69291D02*
X128839Y-69750D01*
Y-70669D01*
X129298Y-71128D01*
X131135D01*
X131594Y-70669D01*
Y-69750D01*
X131135Y-69291D01*
X131594Y-68373D02*
Y-67455D01*
Y-67914D01*
X128839D01*
X129298Y-68373D01*
X334581Y-16536D02*
X336417Y-19291D01*
Y-16536D02*
X334581Y-19291D01*
X337336D02*
X338254D01*
X337795D01*
Y-16536D01*
X337336Y-16995D01*
X288846Y-78642D02*
Y-80938D01*
X289305Y-81397D01*
X290223D01*
X290683Y-80938D01*
Y-78642D01*
X293438D02*
X291601D01*
Y-80020D01*
X292519Y-79561D01*
X292978D01*
X293438Y-80020D01*
Y-80938D01*
X292978Y-81397D01*
X292060D01*
X291601Y-80938D01*
X288551Y-48327D02*
Y-50623D01*
X289010Y-51082D01*
X289928D01*
X290387Y-50623D01*
Y-48327D01*
X292683Y-51082D02*
Y-48327D01*
X291306Y-49705D01*
X293142D01*
X314535Y-109154D02*
Y-111450D01*
X314994Y-111909D01*
X315912D01*
X316371Y-111450D01*
Y-109154D01*
X317290Y-109613D02*
X317749Y-109154D01*
X318667D01*
X319127Y-109613D01*
Y-110072D01*
X318667Y-110531D01*
X318208D01*
X318667D01*
X319127Y-110991D01*
Y-111450D01*
X318667Y-111909D01*
X317749D01*
X317290Y-111450D01*
X334449Y-86843D02*
X337204D01*
Y-85466D01*
X336745Y-85006D01*
X334908D01*
X334449Y-85466D01*
Y-86843D01*
X334908Y-84088D02*
X334449Y-83629D01*
Y-82711D01*
X334908Y-82251D01*
X335368D01*
X335827Y-82711D01*
Y-83170D01*
Y-82711D01*
X336286Y-82251D01*
X336745D01*
X337204Y-82711D01*
Y-83629D01*
X336745Y-84088D01*
X315388Y-76247D02*
X314929Y-75788D01*
X314010D01*
X313551Y-76247D01*
Y-78084D01*
X314010Y-78543D01*
X314929D01*
X315388Y-78084D01*
X318143Y-78543D02*
X316306D01*
X318143Y-76706D01*
Y-76247D01*
X317684Y-75788D01*
X316765D01*
X316306Y-76247D01*
X319061D02*
X319520Y-75788D01*
X320439D01*
X320898Y-76247D01*
Y-78084D01*
X320439Y-78543D01*
X319520D01*
X319061Y-78084D01*
Y-76247D01*
X315617Y-46523D02*
X315158Y-46063D01*
X314240D01*
X313781Y-46523D01*
Y-48359D01*
X314240Y-48818D01*
X315158D01*
X315617Y-48359D01*
X316536Y-48818D02*
X317454D01*
X316995D01*
Y-46063D01*
X316536Y-46523D01*
X318831Y-48359D02*
X319291Y-48818D01*
X320209D01*
X320668Y-48359D01*
Y-46523D01*
X320209Y-46063D01*
X319291D01*
X318831Y-46523D01*
Y-46982D01*
X319291Y-47441D01*
X320668D01*
X332841Y-153182D02*
X332382Y-153641D01*
Y-154559D01*
X332841Y-155019D01*
X334678D01*
X335137Y-154559D01*
Y-153641D01*
X334678Y-153182D01*
X335137Y-152264D02*
Y-151345D01*
Y-151804D01*
X332382D01*
X332841Y-152264D01*
Y-149968D02*
X332382Y-149509D01*
Y-148590D01*
X332841Y-148131D01*
X333301D01*
X333760Y-148590D01*
X334219Y-148131D01*
X334678D01*
X335137Y-148590D01*
Y-149509D01*
X334678Y-149968D01*
X334219D01*
X333760Y-149509D01*
X333301Y-149968D01*
X332841D01*
X333760Y-149509D02*
Y-148590D01*
X315026Y-162335D02*
X314567Y-162795D01*
Y-163713D01*
X315026Y-164172D01*
X316863D01*
X317322Y-163713D01*
Y-162795D01*
X316863Y-162335D01*
X317322Y-161417D02*
Y-160499D01*
Y-160958D01*
X314567D01*
X315026Y-161417D01*
X314567Y-159121D02*
Y-157285D01*
X315026D01*
X316863Y-159121D01*
X317322D01*
X301542Y-125918D02*
X301083Y-126377D01*
Y-127296D01*
X301542Y-127755D01*
X303379D01*
X303838Y-127296D01*
Y-126377D01*
X303379Y-125918D01*
X303838Y-125000D02*
Y-124081D01*
Y-124541D01*
X301083D01*
X301542Y-125000D01*
X301083Y-120867D02*
X301542Y-121786D01*
X302461Y-122704D01*
X303379D01*
X303838Y-122245D01*
Y-121326D01*
X303379Y-120867D01*
X302920D01*
X302461Y-121326D01*
Y-122704D01*
X321326Y-156660D02*
X320867Y-156201D01*
X319949D01*
X319489Y-156660D01*
Y-158497D01*
X319949Y-158956D01*
X320867D01*
X321326Y-158497D01*
X322244Y-158956D02*
X323163D01*
X322704D01*
Y-156201D01*
X322244Y-156660D01*
X326377Y-156201D02*
X324540D01*
Y-157579D01*
X325459Y-157120D01*
X325918D01*
X326377Y-157579D01*
Y-158497D01*
X325918Y-158956D01*
X324999D01*
X324540Y-158497D01*
X301542Y-138910D02*
X301083Y-139369D01*
Y-140288D01*
X301542Y-140747D01*
X303379D01*
X303838Y-140288D01*
Y-139369D01*
X303379Y-138910D01*
X303838Y-137992D02*
Y-137074D01*
Y-137533D01*
X301083D01*
X301542Y-137992D01*
X303838Y-134318D02*
X301083D01*
X302461Y-135696D01*
Y-133859D01*
X297211Y-213255D02*
X296751Y-212796D01*
X295833D01*
X295374Y-213255D01*
Y-215092D01*
X295833Y-215551D01*
X296751D01*
X297211Y-215092D01*
X298129Y-213255D02*
X298588Y-212796D01*
X299507D01*
X299966Y-213255D01*
Y-213715D01*
X299507Y-214174D01*
X299047D01*
X299507D01*
X299966Y-214633D01*
Y-215092D01*
X299507Y-215551D01*
X298588D01*
X298129Y-215092D01*
X300884Y-215551D02*
X301802D01*
X301343D01*
Y-212796D01*
X300884Y-213255D01*
X297211Y-221129D02*
X296751Y-220670D01*
X295833D01*
X295374Y-221129D01*
Y-222966D01*
X295833Y-223425D01*
X296751D01*
X297211Y-222966D01*
X298129Y-221129D02*
X298588Y-220670D01*
X299507D01*
X299966Y-221129D01*
Y-221588D01*
X299507Y-222048D01*
X299047D01*
X299507D01*
X299966Y-222507D01*
Y-222966D01*
X299507Y-223425D01*
X298588D01*
X298129Y-222966D01*
X300884Y-221129D02*
X301343Y-220670D01*
X302262D01*
X302721Y-221129D01*
Y-222966D01*
X302262Y-223425D01*
X301343D01*
X300884Y-222966D01*
Y-221129D01*
X260990Y-214732D02*
X260531Y-214272D01*
X259613D01*
X259154Y-214732D01*
Y-216568D01*
X259613Y-217028D01*
X260531D01*
X260990Y-216568D01*
X263745Y-217028D02*
X261909D01*
X263745Y-215191D01*
Y-214732D01*
X263286Y-214272D01*
X262368D01*
X261909Y-214732D01*
X264664Y-216568D02*
X265123Y-217028D01*
X266041D01*
X266500Y-216568D01*
Y-214732D01*
X266041Y-214272D01*
X265123D01*
X264664Y-214732D01*
Y-215191D01*
X265123Y-215650D01*
X266500D01*
X270866Y-204725D02*
Y-207021D01*
X271325Y-207480D01*
X272244D01*
X272703Y-207021D01*
Y-204725D01*
X275458Y-207480D02*
X273621D01*
X275458Y-205644D01*
Y-205185D01*
X274999Y-204725D01*
X274080D01*
X273621Y-205185D01*
X278213Y-207480D02*
X276376D01*
X278213Y-205644D01*
Y-205185D01*
X277754Y-204725D01*
X276835D01*
X276376Y-205185D01*
X316831Y-204528D02*
Y-207283D01*
X318208D01*
X318667Y-206824D01*
Y-204988D01*
X318208Y-204528D01*
X316831D01*
X321422D02*
X320504Y-204988D01*
X319586Y-205906D01*
Y-206824D01*
X320045Y-207283D01*
X320963D01*
X321422Y-206824D01*
Y-206365D01*
X320963Y-205906D01*
X319586D01*
X36220Y-20867D02*
X38057Y-23622D01*
Y-20867D02*
X36220Y-23622D01*
X40812D02*
X38976D01*
X40812Y-21785D01*
Y-21326D01*
X40353Y-20867D01*
X39435D01*
X38976Y-21326D01*
X223819Y-26772D02*
X221064D01*
Y-25394D01*
X221523Y-24935D01*
X222441D01*
X222901Y-25394D01*
Y-26772D01*
X223819Y-24017D02*
X221064D01*
X221982Y-23098D01*
X221064Y-22180D01*
X223819D01*
X221523Y-19425D02*
X221064Y-19884D01*
Y-20802D01*
X221523Y-21262D01*
X223360D01*
X223819Y-20802D01*
Y-19884D01*
X223360Y-19425D01*
X221064Y-18507D02*
X223360D01*
X223819Y-18047D01*
Y-17129D01*
X223360Y-16670D01*
X221064D01*
X219488Y-158466D02*
Y-160761D01*
X219947Y-161221D01*
X220866D01*
X221325Y-160761D01*
Y-158466D01*
X224080Y-161221D02*
X222243D01*
X224080Y-159384D01*
Y-158925D01*
X223621Y-158466D01*
X222702D01*
X222243Y-158925D01*
X224998D02*
X225457Y-158466D01*
X226376D01*
X226835Y-158925D01*
Y-159384D01*
X226376Y-159843D01*
X225917D01*
X226376D01*
X226835Y-160302D01*
Y-160761D01*
X226376Y-161221D01*
X225457D01*
X224998Y-160761D01*
X233858Y-13091D02*
Y-15846D01*
X235236D01*
X235695Y-15387D01*
Y-14928D01*
X235236Y-14469D01*
X233858D01*
X235236D01*
X235695Y-14010D01*
Y-13551D01*
X235236Y-13091D01*
X233858D01*
X236613D02*
Y-15387D01*
X237072Y-15846D01*
X237991D01*
X238450Y-15387D01*
Y-13091D01*
X239368D02*
X241205D01*
Y-13551D01*
X239368Y-15387D01*
Y-15846D01*
X241205D01*
X242123D02*
X243042D01*
X242583D01*
Y-13091D01*
X242123Y-13551D01*
X126740Y-81037D02*
X126280Y-81497D01*
Y-82415D01*
X126740Y-82874D01*
X128576D01*
X129035Y-82415D01*
Y-81497D01*
X128576Y-81037D01*
X126280Y-78282D02*
Y-80119D01*
X127658D01*
X127199Y-79201D01*
Y-78742D01*
X127658Y-78282D01*
X128576D01*
X129035Y-78742D01*
Y-79660D01*
X128576Y-80119D01*
X126543Y-90683D02*
X126084Y-91142D01*
Y-92061D01*
X126543Y-92520D01*
X128379D01*
X128839Y-92061D01*
Y-91142D01*
X128379Y-90683D01*
X128839Y-88387D02*
X126084D01*
X127461Y-89765D01*
Y-87928D01*
X181267Y-33498D02*
X180808Y-33957D01*
Y-34876D01*
X181267Y-35335D01*
X183104D01*
X183563Y-34876D01*
Y-33957D01*
X183104Y-33498D01*
X181267Y-32580D02*
X180808Y-32120D01*
Y-31202D01*
X181267Y-30743D01*
X181726D01*
X182185Y-31202D01*
Y-31661D01*
Y-31202D01*
X182645Y-30743D01*
X183104D01*
X183563Y-31202D01*
Y-32120D01*
X183104Y-32580D01*
X154494Y-94948D02*
X154035Y-94489D01*
X153117D01*
X152657Y-94948D01*
Y-96785D01*
X153117Y-97244D01*
X154035D01*
X154494Y-96785D01*
X157249Y-94489D02*
X156331Y-94948D01*
X155412Y-95867D01*
Y-96785D01*
X155872Y-97244D01*
X156790D01*
X157249Y-96785D01*
Y-96326D01*
X156790Y-95867D01*
X155412D01*
X175657Y-33400D02*
X175198Y-33859D01*
Y-34777D01*
X175657Y-35236D01*
X177494D01*
X177953Y-34777D01*
Y-33859D01*
X177494Y-33400D01*
X175198Y-32481D02*
Y-30645D01*
X175657D01*
X177494Y-32481D01*
X177953D01*
X179200Y-127297D02*
X178741Y-127756D01*
Y-128675D01*
X179200Y-129134D01*
X181037D01*
X181496Y-128675D01*
Y-127756D01*
X181037Y-127297D01*
X179200Y-126379D02*
X178741Y-125920D01*
Y-125001D01*
X179200Y-124542D01*
X179659D01*
X180119Y-125001D01*
X180578Y-124542D01*
X181037D01*
X181496Y-125001D01*
Y-125920D01*
X181037Y-126379D01*
X180578D01*
X180119Y-125920D01*
X179659Y-126379D01*
X179200D01*
X180119Y-125920D02*
Y-125001D01*
X211089Y-58433D02*
X210630Y-57973D01*
X209711D01*
X209252Y-58433D01*
Y-60269D01*
X209711Y-60728D01*
X210630D01*
X211089Y-60269D01*
X212007D02*
X212466Y-60728D01*
X213385D01*
X213844Y-60269D01*
Y-58433D01*
X213385Y-57973D01*
X212466D01*
X212007Y-58433D01*
Y-58892D01*
X212466Y-59351D01*
X213844D01*
X165224Y-106923D02*
X164765Y-107382D01*
Y-108301D01*
X165224Y-108760D01*
X167060D01*
X167520Y-108301D01*
Y-107382D01*
X167060Y-106923D01*
X167520Y-106005D02*
Y-105087D01*
Y-105546D01*
X164765D01*
X165224Y-106005D01*
Y-103709D02*
X164765Y-103250D01*
Y-102331D01*
X165224Y-101872D01*
X167060D01*
X167520Y-102331D01*
Y-103250D01*
X167060Y-103709D01*
X165224D01*
X315616Y-17783D02*
X315157Y-17324D01*
X314239D01*
X313779Y-17783D01*
Y-19620D01*
X314239Y-20079D01*
X315157D01*
X315616Y-19620D01*
X316534Y-20079D02*
X317453D01*
X316994D01*
Y-17324D01*
X316534Y-17783D01*
X318830D02*
X319290Y-17324D01*
X320208D01*
X320667Y-17783D01*
Y-18242D01*
X320208Y-18701D01*
X319749D01*
X320208D01*
X320667Y-19160D01*
Y-19620D01*
X320208Y-20079D01*
X319290D01*
X318830Y-19620D01*
X120636Y-202724D02*
X120177Y-202265D01*
X119258D01*
X118799Y-202724D01*
Y-204560D01*
X119258Y-205020D01*
X120177D01*
X120636Y-204560D01*
X123391Y-205020D02*
X121554D01*
X123391Y-203183D01*
Y-202724D01*
X122932Y-202265D01*
X122013D01*
X121554Y-202724D01*
X124309Y-205020D02*
X125228D01*
X124768D01*
Y-202265D01*
X124309Y-202724D01*
X120734Y-184712D02*
X120275Y-184253D01*
X119357D01*
X118898Y-184712D01*
Y-186549D01*
X119357Y-187008D01*
X120275D01*
X120734Y-186549D01*
X123489Y-187008D02*
X121653D01*
X123489Y-185171D01*
Y-184712D01*
X123030Y-184253D01*
X122112D01*
X121653Y-184712D01*
X126244Y-187008D02*
X124408D01*
X126244Y-185171D01*
Y-184712D01*
X125785Y-184253D01*
X124867D01*
X124408Y-184712D01*
X120734Y-165618D02*
X120275Y-165158D01*
X119357D01*
X118898Y-165618D01*
Y-167454D01*
X119357Y-167913D01*
X120275D01*
X120734Y-167454D01*
X123489Y-167913D02*
X121653D01*
X123489Y-166077D01*
Y-165618D01*
X123030Y-165158D01*
X122112D01*
X121653Y-165618D01*
X124408D02*
X124867Y-165158D01*
X125785D01*
X126244Y-165618D01*
Y-166077D01*
X125785Y-166536D01*
X125326D01*
X125785D01*
X126244Y-166995D01*
Y-167454D01*
X125785Y-167913D01*
X124867D01*
X124408Y-167454D01*
X120341Y-146720D02*
X119881Y-146261D01*
X118963D01*
X118504Y-146720D01*
Y-148557D01*
X118963Y-149016D01*
X119881D01*
X120341Y-148557D01*
X123096Y-149016D02*
X121259D01*
X123096Y-147179D01*
Y-146720D01*
X122636Y-146261D01*
X121718D01*
X121259Y-146720D01*
X125391Y-149016D02*
Y-146261D01*
X124014Y-147638D01*
X125851D01*
X89141Y-130348D02*
X88682Y-130807D01*
Y-131726D01*
X89141Y-132185D01*
X90978D01*
X91437Y-131726D01*
Y-130807D01*
X90978Y-130348D01*
X91437Y-127593D02*
Y-129430D01*
X89600Y-127593D01*
X89141D01*
X88682Y-128052D01*
Y-128971D01*
X89141Y-129430D01*
X88682Y-124838D02*
Y-126675D01*
X90060D01*
X89600Y-125757D01*
Y-125297D01*
X90060Y-124838D01*
X90978D01*
X91437Y-125297D01*
Y-126216D01*
X90978Y-126675D01*
X199376Y-185598D02*
X198917Y-185139D01*
X197998D01*
X197539Y-185598D01*
Y-187434D01*
X197998Y-187894D01*
X198917D01*
X199376Y-187434D01*
X202131Y-187894D02*
X200294D01*
X202131Y-186057D01*
Y-185598D01*
X201672Y-185139D01*
X200754D01*
X200294Y-185598D01*
X204886Y-185139D02*
X203968Y-185598D01*
X203049Y-186516D01*
Y-187434D01*
X203509Y-187894D01*
X204427D01*
X204886Y-187434D01*
Y-186975D01*
X204427Y-186516D01*
X203049D01*
X191207Y-163551D02*
X190748Y-163091D01*
X189829D01*
X189370Y-163551D01*
Y-165387D01*
X189829Y-165847D01*
X190748D01*
X191207Y-165387D01*
X193962Y-165847D02*
X192125D01*
X193962Y-164010D01*
Y-163551D01*
X193503Y-163091D01*
X192584D01*
X192125Y-163551D01*
X194880Y-163091D02*
X196717D01*
Y-163551D01*
X194880Y-165387D01*
Y-165847D01*
X217706Y-115370D02*
X217247Y-114911D01*
X216328D01*
X215869Y-115370D01*
Y-117207D01*
X216328Y-117666D01*
X217247D01*
X217706Y-117207D01*
X218624Y-115370D02*
X219083Y-114911D01*
X220002D01*
X220461Y-115370D01*
Y-115829D01*
X220002Y-116289D01*
X219543D01*
X220002D01*
X220461Y-116748D01*
Y-117207D01*
X220002Y-117666D01*
X219083D01*
X218624Y-117207D01*
X223216Y-117666D02*
X221379D01*
X223216Y-115829D01*
Y-115370D01*
X222757Y-114911D01*
X221838D01*
X221379Y-115370D01*
X256267Y-187829D02*
X255808Y-188288D01*
Y-189206D01*
X256267Y-189665D01*
X258104D01*
X258563Y-189206D01*
Y-188288D01*
X258104Y-187829D01*
X256267Y-186910D02*
X255808Y-186451D01*
Y-185533D01*
X256267Y-185074D01*
X256726D01*
X257186Y-185533D01*
Y-185992D01*
Y-185533D01*
X257645Y-185074D01*
X258104D01*
X258563Y-185533D01*
Y-186451D01*
X258104Y-186910D01*
X256267Y-184155D02*
X255808Y-183696D01*
Y-182778D01*
X256267Y-182319D01*
X256726D01*
X257186Y-182778D01*
Y-183237D01*
Y-182778D01*
X257645Y-182319D01*
X258104D01*
X258563Y-182778D01*
Y-183696D01*
X258104Y-184155D01*
X277192Y-132749D02*
X276732Y-132290D01*
X275814D01*
X275355Y-132749D01*
Y-134586D01*
X275814Y-135045D01*
X276732D01*
X277192Y-134586D01*
X278110Y-132749D02*
X278569Y-132290D01*
X279488D01*
X279947Y-132749D01*
Y-133209D01*
X279488Y-133668D01*
X279028D01*
X279488D01*
X279947Y-134127D01*
Y-134586D01*
X279488Y-135045D01*
X278569D01*
X278110Y-134586D01*
X282243Y-135045D02*
Y-132290D01*
X280865Y-133668D01*
X282702D01*
X203805Y-161090D02*
X203346Y-160631D01*
X202428D01*
X201969Y-161090D01*
Y-162927D01*
X202428Y-163386D01*
X203346D01*
X203805Y-162927D01*
X204724Y-161090D02*
X205183Y-160631D01*
X206101D01*
X206560Y-161090D01*
Y-161549D01*
X206101Y-162008D01*
X205642D01*
X206101D01*
X206560Y-162468D01*
Y-162927D01*
X206101Y-163386D01*
X205183D01*
X204724Y-162927D01*
X209315Y-160631D02*
X208397Y-161090D01*
X207478Y-162008D01*
Y-162927D01*
X207938Y-163386D01*
X208856D01*
X209315Y-162927D01*
Y-162468D01*
X208856Y-162008D01*
X207478D01*
X232251Y-187927D02*
X231792Y-188386D01*
Y-189305D01*
X232251Y-189764D01*
X234088D01*
X234547Y-189305D01*
Y-188386D01*
X234088Y-187927D01*
X232251Y-187009D02*
X231792Y-186550D01*
Y-185631D01*
X232251Y-185172D01*
X232711D01*
X233170Y-185631D01*
Y-186090D01*
Y-185631D01*
X233629Y-185172D01*
X234088D01*
X234547Y-185631D01*
Y-186550D01*
X234088Y-187009D01*
X231792Y-182417D02*
Y-184254D01*
X233170D01*
X232711Y-183335D01*
Y-182876D01*
X233170Y-182417D01*
X234088D01*
X234547Y-182876D01*
Y-183795D01*
X234088Y-184254D01*
X215380Y-132246D02*
X214920Y-131787D01*
X214002D01*
X213543Y-132246D01*
Y-134083D01*
X214002Y-134542D01*
X214920D01*
X215380Y-134083D01*
X216298Y-132246D02*
X216757Y-131787D01*
X217675D01*
X218135Y-132246D01*
Y-132706D01*
X217675Y-133165D01*
X217216D01*
X217675D01*
X218135Y-133624D01*
Y-134083D01*
X217675Y-134542D01*
X216757D01*
X216298Y-134083D01*
X219053Y-131787D02*
X220890D01*
Y-132246D01*
X219053Y-134083D01*
Y-134542D01*
X326280Y-25984D02*
X329035D01*
Y-24607D01*
X328576Y-24148D01*
X326740D01*
X326280Y-24607D01*
Y-25984D01*
X329035Y-21393D02*
Y-23229D01*
X327199Y-21393D01*
X326740D01*
X326280Y-21852D01*
Y-22770D01*
X326740Y-23229D01*
X151969Y-170867D02*
Y-173622D01*
X153346D01*
X153805Y-173163D01*
Y-171326D01*
X153346Y-170867D01*
X151969D01*
X156101Y-173622D02*
Y-170867D01*
X154724Y-172245D01*
X156560D01*
X244783Y-218406D02*
Y-221161D01*
X246161D01*
X246620Y-220702D01*
Y-218866D01*
X246161Y-218406D01*
X244783D01*
X249375D02*
X247538D01*
Y-219784D01*
X248457Y-219325D01*
X248916D01*
X249375Y-219784D01*
Y-220702D01*
X248916Y-221161D01*
X247998D01*
X247538Y-220702D01*
X280906Y-108662D02*
Y-111417D01*
X282283D01*
X282742Y-110958D01*
Y-109122D01*
X282283Y-108662D01*
X280906D01*
X283661D02*
X285497D01*
Y-109122D01*
X283661Y-110958D01*
Y-111417D01*
X290551Y-108662D02*
Y-111417D01*
X291929D01*
X292388Y-110958D01*
Y-109122D01*
X291929Y-108662D01*
X290551D01*
X293306Y-109122D02*
X293765Y-108662D01*
X294684D01*
X295143Y-109122D01*
Y-109581D01*
X294684Y-110040D01*
X295143Y-110499D01*
Y-110958D01*
X294684Y-111417D01*
X293765D01*
X293306Y-110958D01*
Y-110499D01*
X293765Y-110040D01*
X293306Y-109581D01*
Y-109122D01*
X293765Y-110040D02*
X294684D01*
X237008Y-192717D02*
Y-195472D01*
X238844D01*
X239763D02*
X240681D01*
X240222D01*
Y-192717D01*
X239763Y-193177D01*
X159415Y-205250D02*
Y-203413D01*
X158956Y-202954D01*
X158038D01*
X157579Y-203413D01*
Y-205250D01*
X158038Y-205709D01*
X158956D01*
X158497Y-204790D02*
X159415Y-205709D01*
X158956D02*
X159415Y-205250D01*
X160334Y-205709D02*
X161252D01*
X160793D01*
Y-202954D01*
X160334Y-203413D01*
X45537Y-131726D02*
Y-129889D01*
X45078Y-129430D01*
X44160D01*
X43701Y-129889D01*
Y-131726D01*
X44160Y-132185D01*
X45078D01*
X44619Y-131267D02*
X45537Y-132185D01*
X45078D02*
X45537Y-131726D01*
X48292Y-132185D02*
X46456D01*
X48292Y-130348D01*
Y-129889D01*
X47833Y-129430D01*
X46915D01*
X46456Y-129889D01*
X45734Y-106627D02*
Y-104791D01*
X45275Y-104332D01*
X44357D01*
X43898Y-104791D01*
Y-106627D01*
X44357Y-107087D01*
X45275D01*
X44816Y-106168D02*
X45734Y-107087D01*
X45275D02*
X45734Y-106627D01*
X46653Y-104791D02*
X47112Y-104332D01*
X48030D01*
X48489Y-104791D01*
Y-105250D01*
X48030Y-105709D01*
X47571D01*
X48030D01*
X48489Y-106168D01*
Y-106627D01*
X48030Y-107087D01*
X47112D01*
X46653Y-106627D01*
X45833Y-84187D02*
Y-82350D01*
X45374Y-81891D01*
X44455D01*
X43996Y-82350D01*
Y-84187D01*
X44455Y-84646D01*
X45374D01*
X44914Y-83727D02*
X45833Y-84646D01*
X45374D02*
X45833Y-84187D01*
X48129Y-84646D02*
Y-81891D01*
X46751Y-83268D01*
X48588D01*
X45537Y-60466D02*
Y-58629D01*
X45078Y-58170D01*
X44160D01*
X43701Y-58629D01*
Y-60466D01*
X44160Y-60925D01*
X45078D01*
X44619Y-60007D02*
X45537Y-60925D01*
X45078D02*
X45537Y-60466D01*
X48292Y-58170D02*
X46456D01*
Y-59548D01*
X47374Y-59088D01*
X47833D01*
X48292Y-59548D01*
Y-60466D01*
X47833Y-60925D01*
X46915D01*
X46456Y-60466D01*
X45439Y-36942D02*
Y-35106D01*
X44980Y-34647D01*
X44061D01*
X43602Y-35106D01*
Y-36942D01*
X44061Y-37402D01*
X44980D01*
X44521Y-36483D02*
X45439Y-37402D01*
X44980D02*
X45439Y-36942D01*
X48194Y-34647D02*
X47276Y-35106D01*
X46357Y-36024D01*
Y-36942D01*
X46817Y-37402D01*
X47735D01*
X48194Y-36942D01*
Y-36483D01*
X47735Y-36024D01*
X46357D01*
X145079Y-103150D02*
X142324D01*
Y-101772D01*
X142783Y-101313D01*
X143701D01*
X144160Y-101772D01*
Y-103150D01*
Y-102231D02*
X145079Y-101313D01*
X142783Y-100395D02*
X142324Y-99935D01*
Y-99017D01*
X142783Y-98558D01*
X143242D01*
X143701Y-99017D01*
Y-99476D01*
Y-99017D01*
X144160Y-98558D01*
X144620D01*
X145079Y-99017D01*
Y-99935D01*
X144620Y-100395D01*
X190748Y-35335D02*
X187993D01*
Y-33957D01*
X188452Y-33498D01*
X189371D01*
X189830Y-33957D01*
Y-35335D01*
Y-34416D02*
X190748Y-33498D01*
Y-31202D02*
X187993D01*
X189371Y-32580D01*
Y-30743D01*
X197638Y-42224D02*
Y-39469D01*
X199015D01*
X199475Y-39929D01*
Y-40847D01*
X199015Y-41306D01*
X197638D01*
X198556D02*
X199475Y-42224D01*
X202229D02*
X200393D01*
X202229Y-40388D01*
Y-39929D01*
X201770Y-39469D01*
X200852D01*
X200393Y-39929D01*
X197638Y-36122D02*
Y-33367D01*
X199015D01*
X199475Y-33826D01*
Y-34745D01*
X199015Y-35204D01*
X197638D01*
X198556D02*
X199475Y-36122D01*
X200393D02*
X201311D01*
X200852D01*
Y-33367D01*
X200393Y-33826D01*
X329331Y-50000D02*
X326576D01*
Y-48623D01*
X327035Y-48163D01*
X327953D01*
X328412Y-48623D01*
Y-50000D01*
Y-49082D02*
X329331Y-48163D01*
X326576Y-45408D02*
Y-47245D01*
X327953D01*
X327494Y-46327D01*
Y-45867D01*
X327953Y-45408D01*
X328871D01*
X329331Y-45867D01*
Y-46786D01*
X328871Y-47245D01*
X326772Y-78740D02*
Y-75985D01*
X328149D01*
X328608Y-76444D01*
Y-77363D01*
X328149Y-77822D01*
X326772D01*
X327690D02*
X328608Y-78740D01*
X331363Y-75985D02*
X330445Y-76444D01*
X329527Y-77363D01*
Y-78281D01*
X329986Y-78740D01*
X330904D01*
X331363Y-78281D01*
Y-77822D01*
X330904Y-77363D01*
X329527D01*
X326476Y-107185D02*
Y-104430D01*
X327854D01*
X328313Y-104889D01*
Y-105807D01*
X327854Y-106267D01*
X326476D01*
X327395D02*
X328313Y-107185D01*
X329231Y-104430D02*
X331068D01*
Y-104889D01*
X329231Y-106726D01*
Y-107185D01*
X85827Y-219980D02*
X83072D01*
Y-218603D01*
X83531Y-218144D01*
X84449D01*
X84908Y-218603D01*
Y-219980D01*
Y-219062D02*
X85827Y-218144D01*
X83531Y-217225D02*
X83072Y-216766D01*
Y-215848D01*
X83531Y-215389D01*
X83990D01*
X84449Y-215848D01*
X84908Y-215389D01*
X85368D01*
X85827Y-215848D01*
Y-216766D01*
X85368Y-217225D01*
X84908D01*
X84449Y-216766D01*
X83990Y-217225D01*
X83531D01*
X84449Y-216766D02*
Y-215848D01*
X133661Y-219587D02*
X130906D01*
Y-218209D01*
X131366Y-217750D01*
X132284D01*
X132743Y-218209D01*
Y-219587D01*
Y-218668D02*
X133661Y-217750D01*
X133202Y-216832D02*
X133661Y-216372D01*
Y-215454D01*
X133202Y-214995D01*
X131366D01*
X130906Y-215454D01*
Y-216372D01*
X131366Y-216832D01*
X131825D01*
X132284Y-216372D01*
Y-214995D01*
X80315Y-199016D02*
Y-196261D01*
X81692D01*
X82152Y-196720D01*
Y-197638D01*
X81692Y-198097D01*
X80315D01*
X81233D02*
X82152Y-199016D01*
X83070D02*
X83988D01*
X83529D01*
Y-196261D01*
X83070Y-196720D01*
X87203Y-199016D02*
X85366D01*
X87203Y-197179D01*
Y-196720D01*
X86743Y-196261D01*
X85825D01*
X85366Y-196720D01*
X133465Y-199508D02*
X130710D01*
Y-198130D01*
X131169Y-197671D01*
X132087D01*
X132546Y-198130D01*
Y-199508D01*
Y-198590D02*
X133465Y-197671D01*
Y-196753D02*
Y-195835D01*
Y-196294D01*
X130710D01*
X131169Y-196753D01*
Y-194457D02*
X130710Y-193998D01*
Y-193079D01*
X131169Y-192620D01*
X131628D01*
X132087Y-193079D01*
Y-193539D01*
Y-193079D01*
X132546Y-192620D01*
X133005D01*
X133465Y-193079D01*
Y-193998D01*
X133005Y-194457D01*
X128543Y-187008D02*
Y-184253D01*
X129921D01*
X130380Y-184712D01*
Y-185630D01*
X129921Y-186090D01*
X128543D01*
X129462D02*
X130380Y-187008D01*
X131298D02*
X132217D01*
X131757D01*
Y-184253D01*
X131298Y-184712D01*
X134972Y-187008D02*
Y-184253D01*
X133594Y-185630D01*
X135431D01*
X140748Y-168504D02*
Y-165749D01*
X142125D01*
X142585Y-166208D01*
Y-167126D01*
X142125Y-167586D01*
X140748D01*
X141666D02*
X142585Y-168504D01*
X143503D02*
X144421D01*
X143962D01*
Y-165749D01*
X143503Y-166208D01*
X145799Y-168504D02*
X146717D01*
X146258D01*
Y-165749D01*
X145799Y-166208D01*
X73917Y-169685D02*
Y-166930D01*
X75295D01*
X75754Y-167389D01*
Y-168307D01*
X75295Y-168767D01*
X73917D01*
X74836D02*
X75754Y-169685D01*
X76672D02*
X77591D01*
X77131D01*
Y-166930D01*
X76672Y-167389D01*
X80805Y-166930D02*
X78968D01*
Y-168307D01*
X79887Y-167848D01*
X80346D01*
X80805Y-168307D01*
Y-169226D01*
X80346Y-169685D01*
X79427D01*
X78968Y-169226D01*
X133760Y-181693D02*
X131005D01*
Y-180315D01*
X131464Y-179856D01*
X132382D01*
X132842Y-180315D01*
Y-181693D01*
Y-180775D02*
X133760Y-179856D01*
Y-178938D02*
Y-178020D01*
Y-178479D01*
X131005D01*
X131464Y-178938D01*
X131005Y-174805D02*
X131464Y-175724D01*
X132382Y-176642D01*
X133301D01*
X133760Y-176183D01*
Y-175265D01*
X133301Y-174805D01*
X132842D01*
X132382Y-175265D01*
Y-176642D01*
X129528Y-168012D02*
Y-165257D01*
X130905D01*
X131364Y-165716D01*
Y-166634D01*
X130905Y-167094D01*
X129528D01*
X130446D02*
X131364Y-168012D01*
X132283D02*
X133201D01*
X132742D01*
Y-165257D01*
X132283Y-165716D01*
X134578Y-165257D02*
X136415D01*
Y-165716D01*
X134578Y-167553D01*
Y-168012D01*
X80807Y-162598D02*
Y-159843D01*
X82185D01*
X82644Y-160303D01*
Y-161221D01*
X82185Y-161680D01*
X80807D01*
X81725D02*
X82644Y-162598D01*
X83562D02*
X84480D01*
X84021D01*
Y-159843D01*
X83562Y-160303D01*
X85858D02*
X86317Y-159843D01*
X87235D01*
X87695Y-160303D01*
Y-160762D01*
X87235Y-161221D01*
X87695Y-161680D01*
Y-162139D01*
X87235Y-162598D01*
X86317D01*
X85858Y-162139D01*
Y-161680D01*
X86317Y-161221D01*
X85858Y-160762D01*
Y-160303D01*
X86317Y-161221D02*
X87235D01*
X133858Y-162697D02*
X131103D01*
Y-161319D01*
X131562Y-160860D01*
X132481D01*
X132940Y-161319D01*
Y-162697D01*
Y-161778D02*
X133858Y-160860D01*
Y-159942D02*
Y-159023D01*
Y-159483D01*
X131103D01*
X131562Y-159942D01*
X133399Y-157646D02*
X133858Y-157187D01*
Y-156269D01*
X133399Y-155809D01*
X131562D01*
X131103Y-156269D01*
Y-157187D01*
X131562Y-157646D01*
X132022D01*
X132481Y-157187D01*
Y-155809D01*
X129134Y-149016D02*
Y-146261D01*
X130511D01*
X130971Y-146720D01*
Y-147638D01*
X130511Y-148097D01*
X129134D01*
X130052D02*
X130971Y-149016D01*
X133726D02*
X131889D01*
X133726Y-147179D01*
Y-146720D01*
X133266Y-146261D01*
X132348D01*
X131889Y-146720D01*
X134644D02*
X135103Y-146261D01*
X136021D01*
X136481Y-146720D01*
Y-148557D01*
X136021Y-149016D01*
X135103D01*
X134644Y-148557D01*
Y-146720D01*
X80709Y-148228D02*
Y-145473D01*
X82086D01*
X82545Y-145932D01*
Y-146851D01*
X82086Y-147310D01*
X80709D01*
X81627D02*
X82545Y-148228D01*
X85300D02*
X83464D01*
X85300Y-146392D01*
Y-145932D01*
X84841Y-145473D01*
X83923D01*
X83464Y-145932D01*
X86219Y-148228D02*
X87137D01*
X86678D01*
Y-145473D01*
X86219Y-145932D01*
X133760Y-143701D02*
X131005D01*
Y-142323D01*
X131464Y-141864D01*
X132382D01*
X132842Y-142323D01*
Y-143701D01*
Y-142782D02*
X133760Y-141864D01*
Y-139109D02*
Y-140946D01*
X131923Y-139109D01*
X131464D01*
X131005Y-139568D01*
Y-140487D01*
X131464Y-140946D01*
X133760Y-136354D02*
Y-138191D01*
X131923Y-136354D01*
X131464D01*
X131005Y-136813D01*
Y-137732D01*
X131464Y-138191D01*
X118898Y-128740D02*
Y-125985D01*
X120275D01*
X120734Y-126444D01*
Y-127363D01*
X120275Y-127822D01*
X118898D01*
X119816D02*
X120734Y-128740D01*
X123489D02*
X121653D01*
X123489Y-126903D01*
Y-126444D01*
X123030Y-125985D01*
X122112D01*
X121653Y-126444D01*
X124408D02*
X124867Y-125985D01*
X125785D01*
X126244Y-126444D01*
Y-126903D01*
X125785Y-127363D01*
X125326D01*
X125785D01*
X126244Y-127822D01*
Y-128281D01*
X125785Y-128740D01*
X124867D01*
X124408Y-128281D01*
X73819Y-221457D02*
Y-218702D01*
X75196D01*
X75656Y-219161D01*
Y-220079D01*
X75196Y-220538D01*
X73819D01*
X74737D02*
X75656Y-221457D01*
X78411D02*
X76574D01*
X78411Y-219620D01*
Y-219161D01*
X77951Y-218702D01*
X77033D01*
X76574Y-219161D01*
X81166Y-218702D02*
X80247Y-219161D01*
X79329Y-220079D01*
Y-220998D01*
X79788Y-221457D01*
X80706D01*
X81166Y-220998D01*
Y-220538D01*
X80706Y-220079D01*
X79329D01*
X72835Y-187303D02*
Y-184548D01*
X74212D01*
X74671Y-185007D01*
Y-185926D01*
X74212Y-186385D01*
X72835D01*
X73753D02*
X74671Y-187303D01*
X77426D02*
X75590D01*
X77426Y-185467D01*
Y-185007D01*
X76967Y-184548D01*
X76049D01*
X75590Y-185007D01*
X78345D02*
X78804Y-184548D01*
X79722D01*
X80181Y-185007D01*
Y-185467D01*
X79722Y-185926D01*
X80181Y-186385D01*
Y-186844D01*
X79722Y-187303D01*
X78804D01*
X78345Y-186844D01*
Y-186385D01*
X78804Y-185926D01*
X78345Y-185467D01*
Y-185007D01*
X78804Y-185926D02*
X79722D01*
X118405Y-111811D02*
Y-109056D01*
X119783D01*
X120242Y-109515D01*
Y-110433D01*
X119783Y-110893D01*
X118405D01*
X119324D02*
X120242Y-111811D01*
X122997D02*
X121160D01*
X122997Y-109974D01*
Y-109515D01*
X122538Y-109056D01*
X121620D01*
X121160Y-109515D01*
X125293Y-111811D02*
Y-109056D01*
X123916Y-110433D01*
X125752D01*
X87500Y-131102D02*
X84745D01*
Y-129725D01*
X85204Y-129266D01*
X86123D01*
X86582Y-129725D01*
Y-131102D01*
Y-130184D02*
X87500Y-129266D01*
Y-126511D02*
Y-128347D01*
X85663Y-126511D01*
X85204D01*
X84745Y-126970D01*
Y-127888D01*
X85204Y-128347D01*
X84745Y-123756D02*
Y-125592D01*
X86123D01*
X85663Y-124674D01*
Y-124215D01*
X86123Y-123756D01*
X87041D01*
X87500Y-124215D01*
Y-125133D01*
X87041Y-125592D01*
X80709Y-181102D02*
Y-178347D01*
X82086D01*
X82545Y-178806D01*
Y-179725D01*
X82086Y-180184D01*
X80709D01*
X81627D02*
X82545Y-181102D01*
X85300D02*
X83464D01*
X85300Y-179266D01*
Y-178806D01*
X84841Y-178347D01*
X83923D01*
X83464Y-178806D01*
X86219Y-180643D02*
X86678Y-181102D01*
X87596D01*
X88055Y-180643D01*
Y-178806D01*
X87596Y-178347D01*
X86678D01*
X86219Y-178806D01*
Y-179266D01*
X86678Y-179725D01*
X88055D01*
X87106Y-119488D02*
X84351D01*
Y-118111D01*
X84811Y-117651D01*
X85729D01*
X86188Y-118111D01*
Y-119488D01*
Y-118570D02*
X87106Y-117651D01*
Y-114897D02*
Y-116733D01*
X85270Y-114897D01*
X84811D01*
X84351Y-115356D01*
Y-116274D01*
X84811Y-116733D01*
X84351Y-113978D02*
Y-112142D01*
X84811D01*
X86647Y-113978D01*
X87106D01*
X74016Y-153150D02*
Y-150395D01*
X75393D01*
X75852Y-150854D01*
Y-151772D01*
X75393Y-152231D01*
X74016D01*
X74934D02*
X75852Y-153150D01*
X76771Y-150854D02*
X77230Y-150395D01*
X78148D01*
X78607Y-150854D01*
Y-151313D01*
X78148Y-151772D01*
X77689D01*
X78148D01*
X78607Y-152231D01*
Y-152690D01*
X78148Y-153150D01*
X77230D01*
X76771Y-152690D01*
X81362Y-153150D02*
X79526D01*
X81362Y-151313D01*
Y-150854D01*
X80903Y-150395D01*
X79985D01*
X79526Y-150854D01*
X116339Y-105020D02*
Y-102265D01*
X117716D01*
X118175Y-102724D01*
Y-103642D01*
X117716Y-104101D01*
X116339D01*
X117257D02*
X118175Y-105020D01*
X119094Y-102724D02*
X119553Y-102265D01*
X120471D01*
X120930Y-102724D01*
Y-103183D01*
X120471Y-103642D01*
X120012D01*
X120471D01*
X120930Y-104101D01*
Y-104560D01*
X120471Y-105020D01*
X119553D01*
X119094Y-104560D01*
X121849Y-102724D02*
X122308Y-102265D01*
X123226D01*
X123685Y-102724D01*
Y-104560D01*
X123226Y-105020D01*
X122308D01*
X121849Y-104560D01*
Y-102724D01*
X85630Y-106496D02*
Y-103741D01*
X87007D01*
X87467Y-104200D01*
Y-105119D01*
X87007Y-105578D01*
X85630D01*
X86548D02*
X87467Y-106496D01*
X88385Y-104200D02*
X88844Y-103741D01*
X89763D01*
X90222Y-104200D01*
Y-104659D01*
X89763Y-105119D01*
X89303D01*
X89763D01*
X90222Y-105578D01*
Y-106037D01*
X89763Y-106496D01*
X88844D01*
X88385Y-106037D01*
X91140Y-106496D02*
X92058D01*
X91599D01*
Y-103741D01*
X91140Y-104200D01*
X73425Y-137795D02*
Y-135040D01*
X74803D01*
X75262Y-135499D01*
Y-136418D01*
X74803Y-136877D01*
X73425D01*
X74344D02*
X75262Y-137795D01*
X76180Y-135499D02*
X76639Y-135040D01*
X77558D01*
X78017Y-135499D01*
Y-135959D01*
X77558Y-136418D01*
X77099D01*
X77558D01*
X78017Y-136877D01*
Y-137336D01*
X77558Y-137795D01*
X76639D01*
X76180Y-137336D01*
X80313Y-137795D02*
Y-135040D01*
X78935Y-136418D01*
X80772D01*
X86910Y-97342D02*
X84154D01*
Y-95965D01*
X84614Y-95506D01*
X85532D01*
X85991Y-95965D01*
Y-97342D01*
Y-96424D02*
X86910Y-95506D01*
X84614Y-94587D02*
X84154Y-94128D01*
Y-93210D01*
X84614Y-92751D01*
X85073D01*
X85532Y-93210D01*
Y-93669D01*
Y-93210D01*
X85991Y-92751D01*
X86450D01*
X86910Y-93210D01*
Y-94128D01*
X86450Y-94587D01*
X84614Y-91833D02*
X84154Y-91373D01*
Y-90455D01*
X84614Y-89996D01*
X85073D01*
X85532Y-90455D01*
Y-90914D01*
Y-90455D01*
X85991Y-89996D01*
X86450D01*
X86910Y-90455D01*
Y-91373D01*
X86450Y-91833D01*
X116240Y-82284D02*
Y-79528D01*
X117618D01*
X118077Y-79988D01*
Y-80906D01*
X117618Y-81365D01*
X116240D01*
X117158D02*
X118077Y-82284D01*
X118995Y-79988D02*
X119454Y-79528D01*
X120373D01*
X120832Y-79988D01*
Y-80447D01*
X120373Y-80906D01*
X119913D01*
X120373D01*
X120832Y-81365D01*
Y-81824D01*
X120373Y-82284D01*
X119454D01*
X118995Y-81824D01*
X123587Y-79528D02*
X121750D01*
Y-80906D01*
X122669Y-80447D01*
X123128D01*
X123587Y-80906D01*
Y-81824D01*
X123128Y-82284D01*
X122209D01*
X121750Y-81824D01*
X84941Y-84350D02*
Y-81595D01*
X86318D01*
X86778Y-82055D01*
Y-82973D01*
X86318Y-83432D01*
X84941D01*
X85859D02*
X86778Y-84350D01*
X87696Y-82055D02*
X88155Y-81595D01*
X89073D01*
X89533Y-82055D01*
Y-82514D01*
X89073Y-82973D01*
X88614D01*
X89073D01*
X89533Y-83432D01*
Y-83891D01*
X89073Y-84350D01*
X88155D01*
X87696Y-83891D01*
X92288Y-81595D02*
X91369Y-82055D01*
X90451Y-82973D01*
Y-83891D01*
X90910Y-84350D01*
X91829D01*
X92288Y-83891D01*
Y-83432D01*
X91829Y-82973D01*
X90451D01*
X86910Y-75394D02*
X84154D01*
Y-74016D01*
X84614Y-73557D01*
X85532D01*
X85991Y-74016D01*
Y-75394D01*
Y-74475D02*
X86910Y-73557D01*
X84614Y-72639D02*
X84154Y-72180D01*
Y-71261D01*
X84614Y-70802D01*
X85073D01*
X85532Y-71261D01*
Y-71720D01*
Y-71261D01*
X85991Y-70802D01*
X86450D01*
X86910Y-71261D01*
Y-72180D01*
X86450Y-72639D01*
X84154Y-69884D02*
Y-68047D01*
X84614D01*
X86450Y-69884D01*
X86910D01*
X116535Y-50787D02*
Y-48032D01*
X117913D01*
X118372Y-48492D01*
Y-49410D01*
X117913Y-49869D01*
X116535D01*
X117454D02*
X118372Y-50787D01*
X119290Y-48492D02*
X119750Y-48032D01*
X120668D01*
X121127Y-48492D01*
Y-48951D01*
X120668Y-49410D01*
X120209D01*
X120668D01*
X121127Y-49869D01*
Y-50328D01*
X120668Y-50787D01*
X119750D01*
X119290Y-50328D01*
X122046Y-48492D02*
X122505Y-48032D01*
X123423D01*
X123882Y-48492D01*
Y-48951D01*
X123423Y-49410D01*
X123882Y-49869D01*
Y-50328D01*
X123423Y-50787D01*
X122505D01*
X122046Y-50328D01*
Y-49869D01*
X122505Y-49410D01*
X122046Y-48951D01*
Y-48492D01*
X122505Y-49410D02*
X123423D01*
X85236Y-62008D02*
Y-59253D01*
X86614D01*
X87073Y-59712D01*
Y-60630D01*
X86614Y-61089D01*
X85236D01*
X86155D02*
X87073Y-62008D01*
X87991Y-59712D02*
X88450Y-59253D01*
X89369D01*
X89828Y-59712D01*
Y-60171D01*
X89369Y-60630D01*
X88910D01*
X89369D01*
X89828Y-61089D01*
Y-61549D01*
X89369Y-62008D01*
X88450D01*
X87991Y-61549D01*
X90746D02*
X91205Y-62008D01*
X92124D01*
X92583Y-61549D01*
Y-59712D01*
X92124Y-59253D01*
X91205D01*
X90746Y-59712D01*
Y-60171D01*
X91205Y-60630D01*
X92583D01*
X87100Y-53500D02*
X84345D01*
Y-52122D01*
X84804Y-51663D01*
X85723D01*
X86182Y-52122D01*
Y-53500D01*
Y-52582D02*
X87100Y-51663D01*
Y-49367D02*
X84345D01*
X85723Y-50745D01*
Y-48908D01*
X84804Y-47990D02*
X84345Y-47531D01*
Y-46613D01*
X84804Y-46153D01*
X86641D01*
X87100Y-46613D01*
Y-47531D01*
X86641Y-47990D01*
X84804D01*
X118012Y-28937D02*
Y-26182D01*
X119389D01*
X119849Y-26641D01*
Y-27560D01*
X119389Y-28019D01*
X118012D01*
X118930D02*
X119849Y-28937D01*
X122144D02*
Y-26182D01*
X120767Y-27560D01*
X122603D01*
X123522Y-28937D02*
X124440D01*
X123981D01*
Y-26182D01*
X123522Y-26641D01*
X85236Y-39469D02*
Y-36713D01*
X86614D01*
X87073Y-37173D01*
Y-38091D01*
X86614Y-38550D01*
X85236D01*
X86155D02*
X87073Y-39469D01*
X89369D02*
Y-36713D01*
X87991Y-38091D01*
X89828D01*
X92583Y-39469D02*
X90746D01*
X92583Y-37632D01*
Y-37173D01*
X92124Y-36713D01*
X91205D01*
X90746Y-37173D01*
X87200Y-31300D02*
X84445D01*
Y-29923D01*
X84904Y-29463D01*
X85822D01*
X86282Y-29923D01*
Y-31300D01*
Y-30382D02*
X87200Y-29463D01*
Y-27167D02*
X84445D01*
X85822Y-28545D01*
Y-26708D01*
X84904Y-25790D02*
X84445Y-25331D01*
Y-24412D01*
X84904Y-23953D01*
X85363D01*
X85822Y-24412D01*
Y-24872D01*
Y-24412D01*
X86282Y-23953D01*
X86741D01*
X87200Y-24412D01*
Y-25331D01*
X86741Y-25790D01*
X159153Y-220768D02*
Y-218013D01*
X160531D01*
X160990Y-218472D01*
Y-219390D01*
X160531Y-219849D01*
X159153D01*
X160072D02*
X160990Y-220768D01*
X163286D02*
Y-218013D01*
X161909Y-219390D01*
X163745D01*
X166041Y-220768D02*
Y-218013D01*
X164664Y-219390D01*
X166500D01*
X182087Y-183268D02*
X179332D01*
Y-181890D01*
X179791Y-181431D01*
X180709D01*
X181168Y-181890D01*
Y-183268D01*
Y-182349D02*
X182087Y-181431D01*
Y-179135D02*
X179332D01*
X180709Y-180513D01*
Y-178676D01*
X179332Y-175921D02*
Y-177758D01*
X180709D01*
X180250Y-176839D01*
Y-176380D01*
X180709Y-175921D01*
X181627D01*
X182087Y-176380D01*
Y-177298D01*
X181627Y-177758D01*
X185925Y-187894D02*
Y-185139D01*
X187303D01*
X187762Y-185598D01*
Y-186516D01*
X187303Y-186975D01*
X185925D01*
X186844D02*
X187762Y-187894D01*
X190058D02*
Y-185139D01*
X188680Y-186516D01*
X190517D01*
X193272Y-185139D02*
X192354Y-185598D01*
X191435Y-186516D01*
Y-187434D01*
X191894Y-187894D01*
X192813D01*
X193272Y-187434D01*
Y-186975D01*
X192813Y-186516D01*
X191435D01*
X275295Y-148819D02*
Y-146064D01*
X276673D01*
X277132Y-146523D01*
Y-147441D01*
X276673Y-147901D01*
X275295D01*
X276214D02*
X277132Y-148819D01*
X279428D02*
Y-146064D01*
X278050Y-147441D01*
X279887D01*
X280805Y-146064D02*
X282642D01*
Y-146523D01*
X280805Y-148360D01*
Y-148819D01*
X281398Y-160630D02*
X278643D01*
Y-159252D01*
X279102Y-158793D01*
X280020D01*
X280479Y-159252D01*
Y-160630D01*
Y-159712D02*
X281398Y-158793D01*
Y-156497D02*
X278643D01*
X280020Y-157875D01*
Y-156038D01*
X279102Y-155120D02*
X278643Y-154661D01*
Y-153742D01*
X279102Y-153283D01*
X279561D01*
X280020Y-153742D01*
X280479Y-153283D01*
X280939D01*
X281398Y-153742D01*
Y-154661D01*
X280939Y-155120D01*
X280479D01*
X280020Y-154661D01*
X279561Y-155120D01*
X279102D01*
X280020Y-154661D02*
Y-153742D01*
X265551Y-180118D02*
X262796D01*
Y-178741D01*
X263255Y-178281D01*
X264174D01*
X264633Y-178741D01*
Y-180118D01*
Y-179200D02*
X265551Y-178281D01*
Y-175986D02*
X262796D01*
X264174Y-177363D01*
Y-175526D01*
X265092Y-174608D02*
X265551Y-174149D01*
Y-173231D01*
X265092Y-172771D01*
X263255D01*
X262796Y-173231D01*
Y-174149D01*
X263255Y-174608D01*
X263715D01*
X264174Y-174149D01*
Y-172771D01*
X252559Y-189665D02*
X249804D01*
Y-188288D01*
X250263Y-187829D01*
X251182D01*
X251641Y-188288D01*
Y-189665D01*
Y-188747D02*
X252559Y-187829D01*
X249804Y-185074D02*
Y-186910D01*
X251182D01*
X250722Y-185992D01*
Y-185533D01*
X251182Y-185074D01*
X252100D01*
X252559Y-185533D01*
Y-186451D01*
X252100Y-186910D01*
X250263Y-184155D02*
X249804Y-183696D01*
Y-182778D01*
X250263Y-182319D01*
X252100D01*
X252559Y-182778D01*
Y-183696D01*
X252100Y-184155D01*
X250263D01*
X246457Y-188681D02*
X243702D01*
Y-187304D01*
X244161Y-186844D01*
X245079D01*
X245538Y-187304D01*
Y-188681D01*
Y-187763D02*
X246457Y-186844D01*
X243702Y-184089D02*
Y-185926D01*
X245079D01*
X244620Y-185008D01*
Y-184549D01*
X245079Y-184089D01*
X245998D01*
X246457Y-184549D01*
Y-185467D01*
X245998Y-185926D01*
X246457Y-183171D02*
Y-182253D01*
Y-182712D01*
X243702D01*
X244161Y-183171D01*
X255413Y-121358D02*
Y-118603D01*
X256791D01*
X257250Y-119062D01*
Y-119981D01*
X256791Y-120440D01*
X255413D01*
X256332D02*
X257250Y-121358D01*
X260005Y-118603D02*
X258168D01*
Y-119981D01*
X259087Y-119522D01*
X259546D01*
X260005Y-119981D01*
Y-120899D01*
X259546Y-121358D01*
X258628D01*
X258168Y-120899D01*
X262760Y-121358D02*
X260923D01*
X262760Y-119522D01*
Y-119062D01*
X262301Y-118603D01*
X261383D01*
X260923Y-119062D01*
X255413Y-127461D02*
Y-124706D01*
X256791D01*
X257250Y-125165D01*
Y-126083D01*
X256791Y-126542D01*
X255413D01*
X256332D02*
X257250Y-127461D01*
X260005Y-124706D02*
X258168D01*
Y-126083D01*
X259087Y-125624D01*
X259546D01*
X260005Y-126083D01*
Y-127002D01*
X259546Y-127461D01*
X258628D01*
X258168Y-127002D01*
X260923Y-125165D02*
X261383Y-124706D01*
X262301D01*
X262760Y-125165D01*
Y-125624D01*
X262301Y-126083D01*
X261842D01*
X262301D01*
X262760Y-126542D01*
Y-127002D01*
X262301Y-127461D01*
X261383D01*
X260923Y-127002D01*
X277461Y-160630D02*
X274706D01*
Y-159252D01*
X275165Y-158793D01*
X276083D01*
X276542Y-159252D01*
Y-160630D01*
Y-159712D02*
X277461Y-158793D01*
X274706Y-156038D02*
Y-157875D01*
X276083D01*
X275624Y-156957D01*
Y-156497D01*
X276083Y-156038D01*
X277002D01*
X277461Y-156497D01*
Y-157416D01*
X277002Y-157875D01*
X277461Y-153742D02*
X274706D01*
X276083Y-155120D01*
Y-153283D01*
X217815Y-129134D02*
Y-126379D01*
X219193D01*
X219652Y-126838D01*
Y-127756D01*
X219193Y-128216D01*
X217815D01*
X218733D02*
X219652Y-129134D01*
X222407Y-126379D02*
X220570D01*
Y-127756D01*
X221488Y-127297D01*
X221948D01*
X222407Y-127756D01*
Y-128675D01*
X221948Y-129134D01*
X221029D01*
X220570Y-128675D01*
X225162Y-126379D02*
X223325D01*
Y-127756D01*
X224243Y-127297D01*
X224703D01*
X225162Y-127756D01*
Y-128675D01*
X224703Y-129134D01*
X223784D01*
X223325Y-128675D01*
X275492Y-141634D02*
Y-138879D01*
X276870D01*
X277329Y-139338D01*
Y-140256D01*
X276870Y-140716D01*
X275492D01*
X276411D02*
X277329Y-141634D01*
X280084Y-138879D02*
X278247D01*
Y-140256D01*
X279166Y-139797D01*
X279625D01*
X280084Y-140256D01*
Y-141175D01*
X279625Y-141634D01*
X278706D01*
X278247Y-141175D01*
X281002Y-138879D02*
X282839D01*
Y-139338D01*
X281002Y-141175D01*
Y-141634D01*
X240551Y-189764D02*
X237796D01*
Y-188386D01*
X238255Y-187927D01*
X239174D01*
X239633Y-188386D01*
Y-189764D01*
Y-188845D02*
X240551Y-187927D01*
X237796Y-185172D02*
Y-187009D01*
X239174D01*
X238715Y-186090D01*
Y-185631D01*
X239174Y-185172D01*
X240092D01*
X240551Y-185631D01*
Y-186550D01*
X240092Y-187009D01*
X238255Y-184254D02*
X237796Y-183795D01*
Y-182876D01*
X238255Y-182417D01*
X238715D01*
X239174Y-182876D01*
X239633Y-182417D01*
X240092D01*
X240551Y-182876D01*
Y-183795D01*
X240092Y-184254D01*
X239633D01*
X239174Y-183795D01*
X238715Y-184254D01*
X238255D01*
X239174Y-183795D02*
Y-182876D01*
X240748Y-122835D02*
Y-120080D01*
X242126D01*
X242585Y-120539D01*
Y-121457D01*
X242126Y-121916D01*
X240748D01*
X241666D02*
X242585Y-122835D01*
X245340Y-120080D02*
X243503D01*
Y-121457D01*
X244421Y-120998D01*
X244881D01*
X245340Y-121457D01*
Y-122376D01*
X244881Y-122835D01*
X243962D01*
X243503Y-122376D01*
X248095Y-120080D02*
X247176Y-120539D01*
X246258Y-121457D01*
Y-122376D01*
X246717Y-122835D01*
X247636D01*
X248095Y-122376D01*
Y-121916D01*
X247636Y-121457D01*
X246258D01*
X220965Y-44489D02*
Y-46785D01*
X221424Y-47244D01*
X222342D01*
X222801Y-46785D01*
Y-44489D01*
X223720Y-47244D02*
X224638D01*
X224179D01*
Y-44489D01*
X223720Y-44948D01*
X288287Y-19489D02*
Y-21785D01*
X288747Y-22244D01*
X289665D01*
X290124Y-21785D01*
Y-19489D01*
X292879Y-22244D02*
X291042D01*
X292879Y-20407D01*
Y-19948D01*
X292420Y-19489D01*
X291502D01*
X291042Y-19948D01*
X118898Y-206694D02*
Y-208990D01*
X119357Y-209449D01*
X120275D01*
X120734Y-208990D01*
Y-206694D01*
X123489D02*
X122571Y-207153D01*
X121653Y-208071D01*
Y-208990D01*
X122112Y-209449D01*
X123030D01*
X123489Y-208990D01*
Y-208530D01*
X123030Y-208071D01*
X121653D01*
X119095Y-188091D02*
Y-190387D01*
X119554Y-190847D01*
X120472D01*
X120931Y-190387D01*
Y-188091D01*
X121850D02*
X123686D01*
Y-188551D01*
X121850Y-190387D01*
Y-190847D01*
X119291Y-169095D02*
Y-171391D01*
X119750Y-171850D01*
X120669D01*
X121128Y-171391D01*
Y-169095D01*
X122046Y-169554D02*
X122505Y-169095D01*
X123424D01*
X123883Y-169554D01*
Y-170014D01*
X123424Y-170473D01*
X123883Y-170932D01*
Y-171391D01*
X123424Y-171850D01*
X122505D01*
X122046Y-171391D01*
Y-170932D01*
X122505Y-170473D01*
X122046Y-170014D01*
Y-169554D01*
X122505Y-170473D02*
X123424D01*
X119488Y-150001D02*
Y-152297D01*
X119947Y-152756D01*
X120866D01*
X121325Y-152297D01*
Y-150001D01*
X122243Y-152297D02*
X122702Y-152756D01*
X123621D01*
X124080Y-152297D01*
Y-150460D01*
X123621Y-150001D01*
X122702D01*
X122243Y-150460D01*
Y-150919D01*
X122702Y-151378D01*
X124080D01*
X119095Y-130119D02*
Y-132415D01*
X119554Y-132874D01*
X120472D01*
X120931Y-132415D01*
Y-130119D01*
X121850Y-132874D02*
X122768D01*
X122309D01*
Y-130119D01*
X121850Y-130578D01*
X124145D02*
X124604Y-130119D01*
X125523D01*
X125982Y-130578D01*
Y-132415D01*
X125523Y-132874D01*
X124604D01*
X124145Y-132415D01*
Y-130578D01*
X36910Y-212697D02*
X39206D01*
X39665Y-212238D01*
Y-211319D01*
X39206Y-210860D01*
X36910D01*
X39665Y-209942D02*
Y-209023D01*
Y-209483D01*
X36910D01*
X37369Y-209942D01*
X39665Y-207646D02*
Y-206728D01*
Y-207187D01*
X36910D01*
X37369Y-207646D01*
X36910Y-198031D02*
X39206D01*
X39665Y-197572D01*
Y-196654D01*
X39206Y-196195D01*
X36910D01*
X39665Y-195276D02*
Y-194358D01*
Y-194817D01*
X36910D01*
X37369Y-195276D01*
Y-192981D02*
X36910Y-192522D01*
Y-191603D01*
X37369Y-191144D01*
X37829D01*
X38288Y-191603D01*
Y-192062D01*
Y-191603D01*
X38747Y-191144D01*
X39206D01*
X39665Y-191603D01*
Y-192522D01*
X39206Y-192981D01*
X106201Y-103840D02*
Y-106135D01*
X106660Y-106595D01*
X107578D01*
X108037Y-106135D01*
Y-103840D01*
X108956Y-106595D02*
X109874D01*
X109415D01*
Y-103840D01*
X108956Y-104299D01*
X113088Y-106595D02*
X111252D01*
X113088Y-104758D01*
Y-104299D01*
X112629Y-103840D01*
X111711D01*
X111252Y-104299D01*
X37009Y-181004D02*
X39305D01*
X39764Y-180545D01*
Y-179626D01*
X39305Y-179167D01*
X37009D01*
X39764Y-178249D02*
Y-177331D01*
Y-177790D01*
X37009D01*
X37468Y-178249D01*
X39764Y-174576D02*
X37009D01*
X38386Y-175953D01*
Y-174116D01*
X36517Y-163287D02*
X38813D01*
X39272Y-162828D01*
Y-161910D01*
X38813Y-161451D01*
X36517D01*
X39272Y-160532D02*
Y-159614D01*
Y-160073D01*
X36517D01*
X36976Y-160532D01*
X36517Y-156400D02*
X36976Y-157318D01*
X37894Y-158237D01*
X38813D01*
X39272Y-157777D01*
Y-156859D01*
X38813Y-156400D01*
X38353D01*
X37894Y-156859D01*
Y-158237D01*
X36910Y-147146D02*
X39206D01*
X39665Y-146686D01*
Y-145768D01*
X39206Y-145309D01*
X36910D01*
X39665Y-144391D02*
Y-143472D01*
Y-143931D01*
X36910D01*
X37369Y-144391D01*
X36910Y-142095D02*
Y-140258D01*
X37369D01*
X39206Y-142095D01*
X39665D01*
X103543Y-81891D02*
Y-84187D01*
X104002Y-84646D01*
X104921D01*
X105380Y-84187D01*
Y-81891D01*
X106298Y-84646D02*
X107217D01*
X106757D01*
Y-81891D01*
X106298Y-82350D01*
X110431Y-81891D02*
X108594D01*
Y-83268D01*
X109512Y-82809D01*
X109972D01*
X110431Y-83268D01*
Y-84187D01*
X109972Y-84646D01*
X109053D01*
X108594Y-84187D01*
X103937Y-59745D02*
Y-62041D01*
X104396Y-62500D01*
X105315D01*
X105774Y-62041D01*
Y-59745D01*
X106692Y-62500D02*
X107610D01*
X107151D01*
Y-59745D01*
X106692Y-60204D01*
X108988D02*
X109447Y-59745D01*
X110365D01*
X110825Y-60204D01*
Y-60663D01*
X110365Y-61123D01*
X110825Y-61582D01*
Y-62041D01*
X110365Y-62500D01*
X109447D01*
X108988Y-62041D01*
Y-61582D01*
X109447Y-61123D01*
X108988Y-60663D01*
Y-60204D01*
X109447Y-61123D02*
X110365D01*
X105118Y-36615D02*
Y-38911D01*
X105577Y-39370D01*
X106496D01*
X106955Y-38911D01*
Y-36615D01*
X107873Y-39370D02*
X108791D01*
X108332D01*
Y-36615D01*
X107873Y-37074D01*
X110169Y-38911D02*
X110628Y-39370D01*
X111547D01*
X112006Y-38911D01*
Y-37074D01*
X111547Y-36615D01*
X110628D01*
X110169Y-37074D01*
Y-37533D01*
X110628Y-37993D01*
X112006D01*
X105709Y-15158D02*
Y-17454D01*
X106168Y-17913D01*
X107086D01*
X107545Y-17454D01*
Y-15158D01*
X110300Y-17913D02*
X108464D01*
X110300Y-16077D01*
Y-15618D01*
X109841Y-15158D01*
X108923D01*
X108464Y-15618D01*
X111219D02*
X111678Y-15158D01*
X112596D01*
X113055Y-15618D01*
Y-17454D01*
X112596Y-17913D01*
X111678D01*
X111219Y-17454D01*
Y-15618D01*
X190650Y-217422D02*
Y-219718D01*
X191109Y-220177D01*
X192027D01*
X192486Y-219718D01*
Y-217422D01*
X195241Y-220177D02*
X193405D01*
X195241Y-218340D01*
Y-217881D01*
X194782Y-217422D01*
X193864D01*
X193405Y-217881D01*
X196160Y-220177D02*
X197078D01*
X196619D01*
Y-217422D01*
X196160Y-217881D01*
X157088Y-89862D02*
X159843Y-88025D01*
X157088D02*
X159843Y-89862D01*
X157088Y-87107D02*
Y-85271D01*
Y-86189D01*
X159843D01*
Y-84352D02*
X158006D01*
X157088Y-83434D01*
X158006Y-82516D01*
X159843D01*
X158465D01*
Y-84352D01*
X157088Y-81597D02*
X159843D01*
Y-79760D01*
Y-77005D02*
Y-78842D01*
X158006Y-77005D01*
X157547D01*
X157088Y-77465D01*
Y-78383D01*
X157547Y-78842D01*
X214666Y-152165D02*
X217421Y-150329D01*
X214666D02*
X217421Y-152165D01*
X214666Y-149410D02*
Y-147574D01*
Y-148492D01*
X217421D01*
Y-146655D02*
X215585D01*
X214666Y-145737D01*
X215585Y-144819D01*
X217421D01*
X216044D01*
Y-146655D01*
X214666Y-143900D02*
X217421D01*
Y-142064D01*
X215125Y-141145D02*
X214666Y-140686D01*
Y-139768D01*
X215125Y-139309D01*
X215585D01*
X216044Y-139768D01*
Y-140227D01*
Y-139768D01*
X216503Y-139309D01*
X216962D01*
X217421Y-139768D01*
Y-140686D01*
X216962Y-141145D01*
D22*
X187008Y-5906D02*
D03*
Y-230315D02*
D03*
M02*
